<?xml version="1.0" encoding="UTF-8"?>
<svg id="_图层_1" data-name="图层 1" xmlns="http://www.w3.org/2000/svg" version="1.1" viewBox="0 0 287.4 220">
  <defs>
    <style>
      .cls-1 {
        fill: #1296db;
        stroke-width: 0px;
      }
    </style>
  </defs>
  <path class="cls-1" d="M222,86.3c.8.1,6.6-1.2,6.9-.8s3,19.5,2.3,19.6-5.5,1.3-5.5,1.3c-.4-2.6-3.6-18.5-3.6-20.1M231.4,84.5l2.6,20.4c1.3,0,6.6-.4,7.1-.5-.8-7.7-2.1-19.9-2.1-19.9-2.5-.5-5.1-.5-7.6,0M226.4,112.7s11.6-2.9,15.8-1.5c2.1,7.7,6,51,6.4,52.7-2.7.3-11.3,1.1-12,1.2-.6-3.3-10.2-50.4-10.2-52.4M269.3,86.8c.7.2,6.8-.6,6.9-.2.1,1.5.8,19.7,0,19.7l-5.6.5c-.1-2.5-1.5-18.4-1.3-20.1M278.7,86.3l.5,20.1c1.3,0,6.6.3,7.1.3-.1-7.7,0-19.9,0-19.9-2.5-.5-5.1-.6-7.7-.5M270.7,113.4s11.8-1.6,15.9.3c.9,9,.8,51,.9,52.8-2.7,0-11.3.1-12,.2-.1-3.3-4.9-51.3-4.8-53.4M243.1,61.6c6.8,34.8,12.1,94.4,12.2,98.2,0,0,5.4.1,11.5.5-3.6-37.5-8-97.5-7.9-99.4-1.5-1.7-15.8.8-15.8.8M228,144.1c-1.3-9.8-36.3-20.9-56-17.3,0,0-2.4-21.5-3.4-42.4-.8-17.9-.1-35.3,0-38.2-1.3-.9-15.5,5.8-23.1,8.6,0,0,9.1,38.7,15.8,119.1,0,0,10.6,1.1,28.8-2.4s39.7-14.5,37.9-27.4M185.4,161.6l-3.1-22.1c.8-.4,19.6,6.6,21.6,7.9-.3,1.3-18.6,14.2-18.6,14.2M76.3,86.3c.8.1,6.7-1.2,6.9-.8s3,19.6,2.3,19.6-5.6,1.2-5.6,1.2c-.4-2.6-3.6-18.5-3.6-20.1M85.7,84.5l2.6,20.4c1.3,0,6.7-.4,7.1-.5-.8-7.7-2.1-19.9-2.1-19.9-2.5-.5-5.1-.5-7.6,0M80.6,112.8s11.6-2.9,15.8-1.5c2.1,7.7,6,51,6.4,52.7-2.7.3-11.3,1.1-12,1.2-.5-3.3-10.2-50.4-10.2-52.5M123.6,86.8c.7.2,6.8-.6,6.9-.2.1,1.5.8,19.7,0,19.7l-5.6.5c-.1-2.5-1.5-18.4-1.3-20.1M133,86.3l.5,20.1c1.3,0,6.6.3,7.1.3-.1-7.7,0-19.9,0-19.9-2.5-.4-5.1-.6-7.6-.5M124.9,113.3s11.8-1.6,15.9.3c.9,9,.8,51,.9,52.8-2.7,0-11.3.1-12,.2,0-3.3-4.9-51.3-4.8-53.4M97.4,61.6c6.8,34.8,12.1,94.4,12.2,98.2,0,0,5.4.1,11.5.5-3.6-37.5-8-97.5-7.9-99.6-1.5-1.6-15.8.8-15.8.8M82.4,144.1c-1.3-9.8-36.3-20.9-56-17.3,0,0-2.4-21.5-3.4-42.4-.8-17.9-.1-35.3,0-38.2-1.2-.9-15.4,5.8-23.1,8.6,0,0,9.1,38.7,15.8,119.1,0,0,10.6,1.1,28.8-2.4,18.2-3.5,39.7-14.5,37.9-27.4M39.7,161.6l-3.1-22.1c.8-.4,19.6,6.6,21.6,7.9-.3,1.3-18.6,14.2-18.6,14.2"/>
</svg>