<?xml version="1.0" encoding="UTF-8"?>
<svg id="_图层_1" data-name="图层 1" xmlns="http://www.w3.org/2000/svg" viewBox="0 0 541.04 481.18">
  <defs>
    <style>
      .cls-1 {
        fill: #fff;
        stroke: #000;
        stroke-miterlimit: 10;
      }
    </style>
  </defs>
  <path class="cls-1" d="M150.96,225.38c5.8-3,9.1-6.8,9.7-11.1.9-4-2.6-3.6-3.5-2.8-3.2,2.6-7.4,6.6-11.4,9.3-1.88.11-3.75.34-5.6.7-.5-.2-1-1-.8-1.2,3.7-2.3,7.7-4.6,10.3-7.7,1.7-2,1-3.7-2.3-4.1-3.7-.6-8,1-11.3,3.9-5.7,4.8-8.4,15.51-9,22.31-1.1,1.2-1.5,1.2-2.7,1.7-2.04-7.44-.96-15.39,3-22.01.5-1.4.1-3.7-2-4.3-1.1-.5-1.7-.2-2.2,1-2.8,8.1-7.7,11.5-14.51,16.61-.6.5-6.8,3.9-8.3,4.8-5.4-1.7-11.5-11.7-16.61-19.31-1-1.46-2.74-2.24-4.5-2-11.1,1.3-19.41.5-25.41-8.3-2.7-3.6-3.9-4.3-7.2-1.1-3.8,3.9-7.5,6.9-11.2,10-2,1.3-3.4.9-4.2-1.6-2.56-7.57-3.81-15.52-3.7-23.51,0-3.3.4-8.4.5-11.6-2.11-1.95-4.51-3.57-7.1-4.8-9.4-4.4-20.41-14.71-20.41-18.01,0-.7.6-2.5,3.2-4,13.61-6,24.31-1,28.31-1.6,3.5-.3,4.6-2.8,4-7.7-1.35-9.04,1.96-18.15,8.8-24.21,4.6-5,4.3-10.4,3.2-16.51-.6-2.8-1.2-3.5-4-3.2-7.5,1.6-7.1,1.8-8.5,8.3-.8,4.2-2.3,8.5-4.7,12-3,4.7-7,8.7-10.5,12.9-1.2,1.7-2.6,1.7-4.4.5-10.43-6.45-14.45-19.64-9.4-30.81,1.2-3.2,3-6.7,4.9-8.4l1,.3c0,.6,0,1.3-.3,1.9l-2.2,6.9c-2.8,8-2.3,15.71,3,22.61,1.8,2.2,3.4,2.9,4.4,1.9,3.4-3.5,7-6.7,10-10.5,3.6-4.2,4.7-9.3,3.6-14.61-.27-2.01-.6-4.01-1-6-.5-3-1.8-2.7-3.2-1-3.3,3.4-4.9,6.1-6.5,12.3-.27.9-.79,1.7-1.5,2.3-.55-1.01-.83-2.15-.8-3.3,1-5.6,2.2-10.5,5.8-14.11,2.3-2.6,1.7-4-.5-4.6-8-2.2-14.91-4.5-21.01-12-.96-1.12-1.52-2.53-1.6-4,0-1.6.8-2.8,2.6-4.1,7-4.8,14.21-9.9,21.11-11.4l5.7-.9c-3.3-9.7-6.5-21.71-8.5-32.61,0-2.3,1.6-8.4,2.5-10.2,1.5-.2,3.4-.2,6.2.8,3.2,1.2,6.2,3.2,9.2,5,2.9,1.7,3.7,1.7,5.6-.9,3.2-4.7,7-8.9,11.9-11.4,1.7-.8,2.8-1.4,3.9-1.4,1.6,0,2.8,1,4.4,3.4,2.7,4.3,5,9.3,7.4,14.01,2.8,4.7,5.8,5,10,1.9,4.8-3.2,9.1-6.3,13.51-9.9,4-3.2,5.2-3.2,9.7,0,4,2.7,8.3,7.8,10.5,12.3.4.8,9.7-4.2,10-6.4.4-4,1.5-7,3-10.2,2-4,4.7-5.1,7.3-5.1,2.3,0,6.7,2.6,10,4.7l7,4c3.7,2,3.9,2,6.1-1.3,2.5-4,4.7-4.7,9.9-4.7,10.2,0,19.51,2.6,26.61,11,1.3,1.7,2.5,2,4.1.4,2.9-3,5.6-4.1,11-4.1h9.5c2.1,0,3.5.1,5.5-2.6,2.6-3.8,5.5-7.4,9.7-7.4,6.7,0,15.51,9.4,20.01,17.51l-2.4,1.2c-4.96-4.91-10.94-8.66-17.51-11-4-1.7-5.8,0-5.3,4.2.6,5,1.9,10,3,14.91,1.5,4.6,5.5,8.6,10,10.5l.2,1.7c-.7-.2-1.6-.5-2.8-.6-2.89-.53-5.86-.42-8.7.3-5.6,1.4-10.7,3.8-15.71,6-2.5,1.2-2.5,1.8-.4,3.9,2.8,2.6,5.4,5.6,8.6,7.9,9,6.8,18.01,5.4,27.91,1.6l4.6-1.6c4.2-.8,8.7,1,12.1,4l10,9.1c3.2,3,4,5.8,2,9.6-3.3,6.4-7,13-10.6,19.21-.53.99-1.33,1.82-2.3,2.4-1.2-1-2.3-3.3-1.1-5.3,4.4-5.6,7.2-13.4,8.2-18.71.9-5.2-1.9-7.7-6.8-6.4l-4.2,1.6c-1.8.7-2.4,0-2.8-1.8-.7-1.6-1.5-2.6-2-4.3-1.2-2.8-2.8-3.7-5.2-1.9-4.2,2.6-7.1,5.2-9.6,9.3-3.62,6.62-5.02,14.23-4,21.71.1,1,.9,1.6,1.4,2.2.85-.42,1.52-1.13,1.9-2,1.3-3.2,2.1-6.4,2.7-10,.3-2,.6-5.4,1.2-7.2.5-1,2-.6,2.8-.3,2.1.8,3,1.9,3.3,3.4-4.2,5.3-6.8,13.2-9.6,20.21-.5,1-2.3,2.2-3.4,2.2-1.3-.1-3-1.2-3.4-2.3-1.7-4.5-4.7-8.9-5.9-13.4-3-15.11-4-16.01-4.6-16.91-5.88-9.89-13.55-18.61-22.61-25.71-.7-.7-1-1.6-1.6-2.2.8-.4,1.5-1.1,2.3-1.4l8.8-3.4c3.8-1.3,6.4-3.7,8-7.1,1-2,2.5-4,3.6-5.9,1.6-2.8,1.4-4.3-.7-6.7-3.62-4.21-9.35-5.96-14.71-4.5-5.7,1.4-9.2,5.4-11,10.8-.7,2-.9,4-.9,6.1,0,3,1,3.7,3.5,2.1,4.1-3.4,8.8-6.2,13.3-9.2-2,4.8-5,8.5-9.2,11.2-2.8,1.8-5.5,3.2-8.3,4.8-2.4,1.7-3.2,1-4-1.8-.6-3-.3-6-.3-9,.61-8.91-4.85-17.13-13.3-20.01l-7.4-3c-2.01,1.48-3.08,3.92-2.8,6.4.6,8,1.8,14.01,3.2,20.81,1.3,2.8,4.4,4,7.5,4.5,1.9-1,3.4-3.6.9-7.6l-3.7-7.2c-.3-1-.8-1.8-1-2.8-.2-.4-.4-1,0-1.5.4.2.9.2,1.8,1.1,4.6,5,8.4,10.7,10.8,17.81,1,2.8,0,3.9-2.6,4.2-6.2.5-12.4,1-18.41,2.2-9.7,2-13,5.6-16.51,12.1-1.5,2.8-2.3,4.6-2.4,6.2,3.5.3,7.4.1,13-.9,4.71-.59,9.26-2.09,13.4-4.4,2.6-3,4.6-6.1,8.5-8.9,1.2-.8,3.8-1.1,4.8-.5,11.27,4.99,20.36,13.86,25.61,25.01.4,1.2,1.5,2.3,2,3.2,1.1,1.3.7,1.8-.9,1.7-2.2-.6-4.7-1.2-6.7-2-.8-.4-1.5-1.7-1.9-2.6l-2-5.8c-1.1-2.3-1.7-2.3-4-1.5l-4.5,1.9c-1.7.6-2.5.9-2.9-1-.5-2.8-1.3-5.5-2-8-1-3.1-2.2-3.8-5.2-2.3-5.46,2.79-9.85,7.28-12.5,12.8-2.6,5.4-3.6,9-1.2,23.41.6,2.8,2.8,6.2,5.4,7l24.21,7.5c1.2,0,2,1.4.5,2.4-3,2-6.3,3.8-9.4,5.7-1.5,1-2.4.5-3.1-1-2.12-4.12-5.68-7.32-10-9-1.6-.8-2.4-.5-3,1.2-1.2,2.6-2.4,6.4-3.4,9.1-.6,1.4-1.2,2-2.8,1-6.9-5.8-14.11-6.1-22.61-5-4.2.6-6.1,1.7-5.1,5.9,2.3,11.6,12.5,17.01,21.11,20.71,1.23-.42,2.28-1.23,3-2.3,1.3-1.9,1-3.7-1-5.4-3.3-2.9-10.4-6.2-13.91-9.4-.6-1.9,3.4-3.5,5.6-2.1,6.3,2.8,11.1,8,16.21,13,2.6,2.5,3.8,2.2,4.6-1.4,1-2.8,1.9-7,2.7-10.3.5-1.6,1.5-1,1.9,0,.6,2.4,1.4,5.5,1.4,8.3,0,3-1,5.6-1.9,8.4-.5,2.8-2.7,4.3-5,3.7-10.7-1-18.81,4-25.41,4.2-1.5,0-4.7-1-6.2-1.7-2.4-1.8,1-2,1.8-2,2.8,0,7,0,9.2-1.2-.6-1-1.8-2-2.9-2.7-6-4.9-12.6.3-17.71,2.9-3,1.6-3.1,2-1.9,5,1.9,4.6,5.2,6.4,9.8,6.4,2.6,0,5.1.4,7.8.3,1.29-.07,2.55-.41,3.7-1,3.5-1.2,6.5-3,9.7-4.3,4-.6,3.8,1.4,2,3.3l-7.9,4.9c-.8.4-1.7.7-2.3,1.3-1.1.8-2.5,2.2-2.3,2.8.5,1,1.7,2.1,3,2.6,3.7,1.1,7.4,1.7,11,2.5,5.7,1.1,8.1-.5,9.7-6.2.8-3.1,1.9-6,3.4-9,.9-1.8,2-2,3.1-.2,4,7.3,8,14.41,12.2,21.41.8,1.6,0,2.4-1.5,2.2-9-1-18.01-2-27.01-3.4-3-.4-6-2.4-9-3.7-4.52-2.46-9.56-3.8-14.71-3.9-4.5,0-7.2,2.8-5.6,7.2,2,6.2,4.4,12.6,7,18.91,1.7,4.2,5.9,5.8,10.4,6.2,2.2.3,1.4-1.2.9-2.2l-7.5-16.11c-1-2.7-.2-3.1,1.3-.9,4.1,6.2,8.4,12,12.1,18.31,2.3,3.9-.5,5-3.3,5-9.4-.9-18.01-4.1-27.01-7.6-1-.3-2.2-2.3-2-3.1,1.7-1.6,3.8,0,5.6,0,2.2.4,3-.6,2.2-2.2-.93-1.91-2.53-3.4-4.5-4.2-4.24-2.2-8.74-3.85-13.4-4.9-2.8-.5-4.7.7-4.1,3.2.7,3.2,2.2,6.1,3.9,9.5.5,1,.5,2.2.2,3.1-1.7,0-3.7.5-10.7-2.5-7-2.9-7-4.8-7-13.4,0-1.8,0-5.5.3-7.1.7-2.4,1-2.8,3-2.5,7.3,1.5,14.71,3.5,21.81,7,2.2.9,4.2,2.7,6.5,3.6,1.8.6,2.7,0,2.5-1.9-.17-2.5-1.77-4.68-4.1-5.6-7.7-3.2-15.31-6.9-23.01-10-1.8-.7-2.4-1.5-1.4-3.5,3-5,4.6-10.9,3.3-17.21,0-.5.6-1.1,1.2-1.7,1.94.56,3.31,2.29,3.4,4.3.6,5.4,4.2,9.1,7.7,12.8q7.2,7.4,17.21,5c1.3-.2,2.3-1.1,3.4-1.9-1-.7-1.9-2-3.2-2.6-1.8-1-3.9-1.5-6-2.3-6.6-2.5-8.6-7.3-6.4-14.31,2.38-6.41,4.48-12.92,6.3-19.51.7-3,1-6.3,1.1-9.6,0-1.8,1.4-1.8,2.5-2l14.61-1c3.7-.2,8-4.6,9.4-7.1l4.9-8c-2.85-2.22-6.66-2.75-10-1.4,1.1-3.6,2.6-7,2.6-10.5,0-2.3-.5-5-1.5-7.3-1-2.2-2.5-2.6-4.4-1.2-3.5,3-6.5,6.5-7.6,11.4-1.1,4.8-3.1,13.61-2.1,15.21,2.2-1.7,5.2-3.9,7.1-4.5,1-.2,2.6,0,3.4.6-3.3,3-7.2,5.6-10.8,7.5-2.7,1.2-3.7-.4-3.3-3,3.2-12.1,1.2-13,.2-19.01-1.84-7.41-4.88-14.48-9-20.91-1.3-1.6-3.4-1-6.1,2.3-4.5,5.4-5.6,10-8,19.21l-.5,1.9-3.2,2.8-1.4-1.6c1.2-4.3,2.5-6.8,2.5-10.2,0-4.2-1.8-7.2-4.6-9.5-3.5,2.2-6.6,5-7.5,6.5-2.18,3.22-2.1,7.47.2,10.6,3.6,6.2,3,12.5,1.9,19.81l-1-.3c-.42-4.77-1.26-9.48-2.5-14.11-.8-3-2.7-5.5-4.3-8-1.6-2.4-3-7.4-1.7-9.5,1.9-3.2,7.7-5,10-7.9,2.3-3.5,1.2-5,4.1-8.2,1.8-2.1,5.6-6.5,8.4-5,8.4,4.2,17.31,5.1,26.71,3.9,4-.6,4.9-.5,6-4.5,1-3.3,1.4-1,4.7-2.2,5.7-1.9,8.7-7,8.7-13,0-3.4.2-6.8-.2-10.3-.3-3-1.4-5.8-2.3-8.5-.8-1.8-2-1.4-2.8-.1-2.3,3-6.3,9-8.4,12.4l-3.3,6c-.5,1.6-1.3,2-2.7.5-1.47-1.61-3.12-3.05-4.9-4.3-3-2-3.3-8.1-2.1-12,1.3.7,2.2,2.2,3,4.2,1.2,2.6,1.7,5.6,3.8,6.5,2.7,1.4,5.4-4.2,5-8-.09-1-.44-1.97-1-2.8-2.8-5.2-9.5-9.5-13.71-9.5-4.8,0-8,6-6,11.6.6,1.5,1.2,2.6,2,4-11.5,6-14.61,9.9-19.21,15.21-.5.7-1,2.5-.5,3.4,2.1,4.1,1.3,5.5-3.1,8-2,1-4.6,2.1-6.7,2.7-.3.2-.8-.2-1.4-.3.11-.41.32-.78.6-1.1,2.8-6.3,5.8-12.2,8.4-18.61,2.8-6.8-3.3-13-8.8-15.21-3.6-1.4-6.5-.6-9,2.7-6,7.2-7.3,19.01,1.2,30.21,1.3,1.9,1,2.6-1.2,2.8-4.9.4-9.7,1-14.71,1.2-5.96.23-11.49,3.18-15.01,8-1,1.6-2.5,2-4.1.9-3.8-2.4-7-1.8-11,.5-5.66,3.27-11.92,5.38-18.41,6.2-.7,0-1.5-.6-2-1.2.3-.5.9-1.3,2.3-1.8,4-1,7.2-2,10.8-3,.6-.6.9-2.2,1.3-2.9-.7-1-2-2.1-3.1-2.2-3.39-.35-6.81-.35-10.2,0-8.8.8-15.31,5-20.91,10.1-2.6,2.6-2.8,5.3,0,7.5,6.5,4.6,13.5,9.3,22.31,7,6.2-2,10-6.6,14.01-11,3.3-3.6,7.4-7.7,11.3-3.3,5.7,6.5,6.8,13.3,16.11,12.1,3.6-.4,5-1.6,6-5l.7-4c.3-2.5-1-3.8-3.6-2.8-1.7.6-3.1,1.5-4.8,1.9-1,.2-2-.1-3-.4,0-1,.2-2.2.8-2.8,1.7-1.1,3.8-2,5.6-2.9,7-1.8,13.61-3.2,20.51-4.6.69-.12,1.41-.12,2.1,0l-.6,2c-2.5,5.7-5.9,7.5-10.4,8.6-.6.5-1.7,1.8-2.5,4.4-3.08,8.85-1.17,18.67,5,25.71,2.2,2.5,5,4.6,7.9,6.3,4.8,2.8,6.1,7.5,7.9,12.4,1.1,3.1,2.3,6.2,3.7,9.2-3.9,2.8-7.1,6-9.4,10-1,1-1.7.6-2.2-.5l-2.7-6.6c-2.4-5.8-6.5-9.6-13-10.1-2.4-.2-4.7-.6-7-.9-2.6-.2-4.4,1-5.3,4-3.7,11.2-.2,20.91,10.5,26.81-8.6,2.2-15.61,5.6-20.01,11.6.4,1.7,3,3.9,6.4,5.3,8.4,3.4,17.01,3,24.91.4,4.6-1.7,4.8-.6,5.6,2.8l2.4,10.4c.5,2.5-.9,3.9-3.2,3-12.8-3.7-28.01-9.8-39.01-17.21-4.56-2.05-9.37-3.49-14.31-4.3-1.7,1-3.1,2.2-4.6,2-4.74-1.25-9.36-2.92-13.81-5-2.2-1.2-2.3-1.9.5-2.3,4.3,0,12.1,1.9,16.11,1.9,4-1.2,4-1.9,1.5-3.5-9.4-7.5-20.01-5.7-30.51-4-3.8.8-4,2.6-1.9,5.6,13.61,15.31,23.61,15.21,40.21,13.3,10.8,6.8,21.61,13,34.21,17.01l.2,1.8c-9,.6-17.51,2.1-25.61,3.8-4.1.8-5,3.3-2.7,7,3.3,5.4,8.6,8,14.71,9.4,4.3,1.3,8.7,1,13-.8,5-2.3,8.3-6.5,13-9.1,2.8-1.5,7.5.2,10.3,1,4.2,1.3,8.3,3.2,12.7,3.8,17.31,2.4,35.71,4,51.82,2.6-2,3.8-3.3,7.3-4.6,11-.9,2.2-.1,2.7,2.2,2.5,3.4,0,6.7-2,8.1-4.6.3-2.6.3-5,.8-7.6.3-1.4.7-3.3,1.6-3.5.7-.1,4.7.6,4.2,1.7-1.4,4-2.6,7.1-4.3,11.1,1.5.3,3.1.6,4.7.6,6.5,0,7.5-1,7.2-7.4-.08-1.86-.34-3.7-.8-5.5-.8-4.9.2-8.2,4.4-10.5,4-2,8.4-1.4,12.5-.9,12.92,2.22,25.04,7.74,35.21,16.01,5.1,4,.7,9.7.7,17.41,0,4.9-1,9.9-.9,12.4.2,4,1.9,6.1,3.4,7.3,4.5,3.4,9.4,6.8,14.11,10,4.9,3,7.3,5,13,7,1.4.4,3,.4,4.2.3.31-2,.21-4.04-.3-6-2.8-1.9-6.7-2.8-11.2-4.3-.8-.3-1.7-1.4-2.1-2.4.91-.86,2.01-1.51,3.2-1.9l7.3-1.5c.5-.2,1.5-1,1.8-1.6-.3-.7-.9-1.5-1.4-1.6-3-1-7-1.6-9.4-2.2-1-.3-1.4-1.2-2.2-2,1.04-.9,2.27-1.55,3.6-1.9l7.4-.9c.77-.19,1.47-.61,2-1.2-.3-.7-.7-1.7-1.3-2-1.5-.7-9.2-3.5-10-4.3-.7-.7-.8-1.6-1.1-2.8,1-.5,2.5-1,3.5-.8l6.2.1c.99-.07,1.91-.49,2.6-1.2-.4-.79-.98-1.48-1.7-2-3-1.8-4.1-3-7.5-4.6-1.5-1-2.3-1.8-2.6-3.8,1.2-.3,2.8-.5,4.2-.2,2.3.6,3.5,1.3,5.9,1.7.6.2,1.8-.1,2.6-.3,0-.67-.24-1.31-.7-1.8-.9-1-2.1-1.4-3.2-2.3-1.7-1.1-4.6-3.9-6.3-5.3-.5-.4-.2-1.8-.3-2.3h1.8c2.3.5,5.6,1.5,7.5,1.8,3.3.6,2.9.1,1.5-2.3-2-1.8-4.2-3-6.2-5.2-.5-.7-.3-2-.3-3,3.2.2,6.5,1.7,9.4,1.7.2-.5.4-1,.4-1.7-.65-1.88-1.42-3.72-2.3-5.5-.8-2.2.3-3,1.9-2.4,2.2,1,5.7,2.8,8.1,3.4,1,.3,2.2,0,3.4-.5-1.1-2.2-2.4-4-4-6.2-.2-.6,0-1.4.6-2,3.8,1,7.7,3.7,11.1,4.6,1.6.6,2.6,0,3-.8.3-.9-2.5-3.7-2.3-4.8,0-.7.2-1,.6-1.4l6.5,2c4.8,1.3,7.5,1.7,8.2.6,1-.3,0-2.5-1.5-5.1,3.8-.3,4.2,1.5,10.8,2.8,2.5.6,37.41-4.3,51.62-8.7,5.6-1.8,12-4.6,17.31-7l1.7.3c4,10.3,12.4,13.4,21.01,14.41l8,.5c2.5,0,3-.6,2.3-3.1-2.1-8.45-6.62-16.09-13-22.01l-5.5-3.5c-2.4-2.5-2.1-5.4.5-7.4,4.4-3,10.4-5.9,14.91-8.7,6.5-4.1,8.7-10.6,8.3-17.41-.06-1.79-.95-3.45-2.4-4.5-1.29.44-2.44,1.24-3.3,2.3-1.8,3.7-3.6,6.8-5.1,10-1.3.7-2.6,1-3.7,1.5-.3-1.2-1-2.3-.6-3.4,2-5.8,7-10.4,10.4-14.11,1.4-2.4-.7-3.3-1.7-3.1-3.7.8-7.8,2.2-10.6,5.4-7.15,8.89-12.18,19.29-14.71,30.41-.6,2.9-1.9,4-2.8,6.6-1.2,4.1-1.1,5,2.4,7.6,5.2,3.3,11.9,6.4,16.71,9.8,2,2.2,1,3-1.1,3-5.34-.07-10.41-2.36-14.01-6.3-1.8-2-3.4-3.4-5.6-3.7-5,1.4-12,3.4-17.21,4.1-3,.6-5.3,1.8-6.9,4.6-1,2.3-3.1,2.8-5.6,1.9-3.7-1-7.4-2.4-11.1-3.2-6.22-.97-12.58-.53-18.61,1.3-2.5.4-3.1-.2-2.4-2.6.7-3,1.7-6,2.3-9,0-1.3.3-3.3-1-4-1.2.6-3,.9-3.5,1.7-2,3-3.4,6-5.3,9.2-1.2,2.5-1.7,2.5-4.3,1.4-3.77-1.7-7.3-3.89-10.5-6.5-2.5-4-5.2-7.3-6.5-10.8-.5-.9,1-1.6,2.1-1.6,2.8,2.2,6.2,5,8.7,7.4,1.7,1.9,2.2,3.7,3.3,6.1.3.6,3,.5,3.5-.5.4-1,.8-2.3,1.2-4.3,1-3.7.3-8.8-3-12.2-4.2-4.2-7-5-12.6-9-7.1-4.8-8.1-4.5-10.7.3-2,3.9-3.5,8.2-3.5,13,1.9,11.4,4.6,16.01,18.31,23.01-.13.75-.47,1.45-1,2-1,.7-1.5,1.1-3,1.1-4.9-.1-11.7-.2-17.01-.7-1.5,0-2.4-.6-2.8-1.4-4.28-16.93-2.07-34.84,6.2-50.22.7-1.54,1.85-2.83,3.3-3.7,2.9-1.5,7.5-3.4,10.3-4.6,1.6-.8,2.5-.2,3.2,1.5,1.2,4.4,1.7,7.6,2,11.4.2,2.3.3,4.7,1.3,5.1,2.2,1,4.2-.9,5.3-2.8,4.2-6.8,5.3-14.41,2.2-22.61-.3-.7.4-2.2,1.2-2.7,9.5-3.8,18.31-7.7,28.01-11.4,5.3-.3,12.2.3,21.81,1.8,1.6.2,5,3,8.4,5-4.4,2.2-10.8,6.9-15.31,11.1-1.2,1.3-2.8,3-1.7,6.6,3.8-.2,5.6-1.3,8.4-2,4.3-1.3,7-2,10.4-2,.94.06,1.88.2,2.8.4-.11,1.08-.57,2.1-1.3,2.9-1.2,1.1-3.1,1-4.5,1.7-1.4,1-2.8,2.3-1.9,4,.7,1.1,2.5,2.4,3.8,2.2,4.5-.3,8.6-.8,13.2-2.2,2-1.7,9.9-12,5.4-12.9-2.5-.5-7.9-.9-10.2-2.1.37-1.45,1.41-2.64,2.8-3.2,2.4.4,5.2,1.1,9,1.5,6.1.76,12.29.49,18.31-.8,2.5-1,3.3-1.9,2.5-3.5-3.42-7.04-9.56-12.39-17.01-14.81-3.4-1-7.5-.2-11-.2l-30.01-.3c-.6,0-1.3-.6-2-1,.6-.4,1.2-1,1.7-1.2,2.8-1.7,6-3.1,8.9-5,4.2-3,7-7.1,8.1-12.5.26-.92.26-1.89,0-2.8-2.8-10.3-8.3-17.71-20.01-19.01l-5.7-1c-2.2-.1-3,.8-3,2.7,0,3.7.2,5.6,0,9.4,0,1.8,1,2.5,3,2.7,5.46.91,10.8,2.46,15.91,4.6,3,1.2,3.7,3,0,6.2l-8.4,6c-1.5,1-2.1.2-2.3-1.2-.2-2.2-.2-4.7-.6-6.8-.21-.79-.62-1.52-1.2-2.1-2.03.39-3.73,1.78-4.5,3.7-1,3-1.8,5.7-2.3,8.6-.48,3.54-2.98,6.47-6.4,7.5-1.7.4-3.2-.2-2.9-1.8.27-1.89.67-3.77,1.2-5.6,2.7-6.5,4.1-12,3.6-18.21-.55-4.28-.88-8.59-1-12.9-.16-1.84,1.02-3.52,2.8-4,5-2,9.8-4,15.01-5.6,1.9-.7,3.3,0,4.7,1.8l10.7,12.5c2.7,3,3.5,2.9,6-.5,2.1-3.1,4.6-6,8.1-8,1.9-.9,1.9-2.7-.3-3.5-4-1.5-8-2.3-12.2-3.7-.9-.3-2-.3-3-.7-.6-.3-1.4-1.1-1.4-1.7,0-.5.8-1.4,1.4-1.6,7.7-2.7,14.01-5.2,20.81-7.9,1.9-.8,2.8-2.3,2.5-4.2-.2-2.5-1-4.7-1.3-7.1-.4-2.2-1.9-4-4.2-4.2-9.3-1-14.91,1.7-21.21,8.2-1.3,1.36-1.86,3.26-1.5,5.1,1.1.2,2,.2,2.9,0,3.52-.95,6.89-2.4,10-4.3,1.6-1.8,3-3.7,3.9-3.7.5,0,1.5,2.3,1.8,3.2-.9,1-1.8,2.2-9.2,5.4-13.06,6.03-26.7,10.73-40.72,14.01-2,.2-1.8-1-1.3-1.8,2.6-4.6,5.5-9.3,8.4-14.21,2.8-1.7,3.6-1,2.5,1.7-.87,2-1.88,3.94-3,5.8-.3,1.8.5,2.3,1.6,2.1,6.44-1.69,11.1-7.27,11.6-13.91,0-2.3-1.1-3.1-3.6-3-3.5.2-7.4.5-10.8,1.6-6.6,1.6-10.5,6.2-12.6,12.1-1,2.8-1.5,5.6-2,8.5-.6,3-3.2,4.2-6,5.7-4.5,2.8-6.8,2.2-10.7,3-3.32.48-6.6,1.21-9.8,2.2,0-1.1-.3-2.1,0-2.8,2.2-3.5,4.2-7,6.5-10.2,3.3-4.8,2.4-7.5-2.8-9.3-8.35-2.75-17.5.45-22.31,7.8-2.8,4.4-4.8,9.8-6.8,14.61-1.2,2.9,0,4.6,3,5.3,4.8.8,10.5-1,14.81-2.1-.3,1.4-.4,6.7-.9,7.9l-2.7,6c-1.8,3-3.8,4-7,2.4-5.01-2.36-9.89-5-14.61-7.9-5.15-3.42-11.13-5.36-17.31-5.6-.6.03-1.21,0-1.8-.1-2-.5-2.2-1.2-1-2.5,1.6-1.5,1.7-3.1.8-5l-6.4-12c-1.27-2.21-2.28-4.56-3-7,1.5-.3,7.4,1.7,7.4,2.8.4,6.5,2.4,11.2,5.8,15.31,2.6,2.6,5,1,5.3-1.7.5-3.4-4.2-9,1.9-21.91,2.5-5.6,10.5-15.61,15.71-15.61,2.8,0,5.1,1.2,6.8,5.3,1,1.9,1.6,6.3,2.4,8.2.8,1.9,1.7,2.8,3.7,2.6,5-.7,12-3.7,17.71-4.5,3.6-.5,6.4,8.5,8.2,11.8,2.8,4.8,4.1,9,7.3,3.8,5.4-7.5,7.9-15.81,13.61-18.51,7.25-3.67,15.45-5.07,23.51-4,2.5.3,3.3,1.3,2.7,3.8-.5,1.5-.6,3-1,4.6-.5,1.8,1,2.4,3,1,2.7-1.6,4.7-3.8,6.6-6.2,4.8-5.2,9.6-7.8,19.11-7.8,4.5,0,8,1,12,2.3,3,1.1,3.5,1.6,2.6,4.7l-2.7,9c-.9,4-.2,4.6,3.4,6.6,3.2,1.9,5.7,3.2,7.6,5.6,1.45,0,2.86-.5,4-1.4,3.86-7.97,9.85-14.72,17.31-19.51,3-1.6,3.8-1.4,5,1.4,2.5,6.4,3.9,11.9,4.3,17.81,3.4-3.9,7.3-8,10-11.2,10.1-9.4,20.11-9.4,33.61-6,3.3,1,.7,4.3-1.2,6.9l-2.6,3.9c-.9,1.4-1.5,1.5-2.6.3-1.7-2-3.4-5.4-5-7.1-3.1-3-8.5-1.3-12.2,1-7.54,4.45-13.79,10.79-18.11,18.41-4.46,6.91-9.77,13.23-15.81,18.81-2.4.9-2.4.8-1.9-1.7,6.79-10.26,10.6-22.21,11-34.51-2.24-.43-4.55.08-6.4,1.4-9.3,5.2-14.01,23.71-15.31,36.01-.3,2.7-.3,4.7-2.6,6-3.9,2.2-5.4,3.2-9.3,5-1,.1-1.5,0-2.3-.1,1.8-8.2.5-14.01-4.2-21.71-.8-1.5-1.9-2.3-3.6-1.7-1,.6-1.9,1.3-4,3-7.39,6.95-11.41,16.77-11,26.91,0,1.8,1.8,1.8,3.1.9,1.7-1.4,2.6-2.5,3.6-4.3,2.3-3.9,4.3-8,6.5-11.9.4-1,1.5-1.6,2.3-1.9.5,1,.5,2,.3,2.8l-1.7,7.5c-1.48,4.02-4.04,7.55-7.4,10.2-.7,1-1.1,2.6.7,2.8,8,.4,12.7-.5,19.61-4.2,7.2-3.7,12-6.8,15.21-6.4,2.2.3,13,3.4,14.01,4.2-.6,1.1-1.4,1.5-2,2.2-1.2,1-6.5,3.8-8.8,5.8-3.7,3-5,4.5-4.3,10.7.4,2.8.9,5.4,1.5,8,.3,1,1,2.1,1.5,2.3,1,0,1.9-.7,2.4-1.4l9-11.5c.57-.46,1.21-.84,1.9-1.1,0,.7.2,1.4,0,1.8-.7,4.6-3,8-5.8,11.4l-1.8,2.3c-2.4,3.5-2.6,4-.2,7.5,2.8,4,3.2,8.6,2.3,13-.6,3.2-1.7,8-2.3,12.8-5.9,2.7-11.8,6.5-16.81,9.9-3.1,2.8-3.7,5-3.7,5.7,1.5,1.8,2.9,2.1,5.8,3.3,4,1.3,11.7-.3,13.1-4.6.5-1,1-3,1-4.8,1.4.3,2.7.3,3.1,1.5,1.5,4.7,2.8,7.8,5.8,10.9-.4,1.2-1,2.1-2.3,4-1.7,3-3.2,5.5-5.7,5-1-.2-2-.4-3.1-.4-1.9,0-3.7,0-3.5,3.3.4,4.3,1,6.2,0,10.6-.5,2.4-1.3,5-3.7,5-5.8-.5-9.7-4.8-15.31-4.7-3.67.27-7.35-.38-10.7-1.9-3-1.5-5.1-3.2-6.5-4-23.61,3.8-49.62,8.6-69.73,13-2.2.4-2,1.8-2.5,4-1,5.2-3,10.2-3.9,15.31-.2.9,1,1.9,1.5,2.6.6-.5,1.4-.9,2-1.6,1.2-1.8,2-3.9,3.4-5.6,2.4-2.6,8.8.2,9.9,3.7,1,2.1-2,3.2-1.9,5.6.2,2,3.2,3.9,3.2,6.5,0,2.3-1,3.8-1.3,5,8.7,5.6,10.9,10.3,11.1,17.51.3,2.2.3,3.4,1.5,4.7,1.2,1.2,3.2,3,4,4,4.1,4.8,7.9,12.3,10.6,13,1.4.6,5,.8,7.7.6l.5,1.4c-.9,2.2-3.3,4.8-5.6,5.5-6.4,2-9.5-7.5-13-13-1.56-2.57-3.37-4.98-5.4-7.2-2.8,3.1-7.4,15.51-7,21.31,1.8,8,6.5,15.81,9.5,21.51,2.2,3.5,6.4,4.7,10.5,6.3,3.4,1.2,6,1.8,9.5.8,1.8-.4,2.5-.5,3.3-1.2v-7.2c.8-13,2.9-26.01,3.7-37.21,0-3,2.3-8,6-10.6,4-2.8,5.7-6.5,5.5-11.3-.12-1.59.19-3.18.9-4.6,1.3-2.6-1.2-2.6-3.7-3-2.8-.4-3.5-1.5-2-4,2.5-4.4,6.3-8,9.2-12.3,1.9-3,2.8-5,3.5-6.9-.8-3.6-.5-9,3.1-9.2,11.9-1.4,16.81-.3,24.31,5.3.5.8.6,1.9.6,2.8,0,1,2.1,1.7,6.1,5.7,3.1,2.9,6,11,.9,23.51,2.6,1.5,2.5,4,2.2,6.8-.2,2.4.6,2.7,2.8,3.6,2.8,1,4.3,2.6,6.6,8.4,2,5.5,8.1,20.11,11.6,56.02-.66,9.7-2.27,19.32-4.8,28.71,2.4,17.21,5.1,38.41,7.3,67.32,1.7,27.41,2.2,41.42,2.7,52.72,4.9.4,6.4,1.4,7.4-2.7l1-3.8c.9-2.7,3.6-1.8,3.7-.3l3,8.7c.6,2.6,1.3,4.1,2.3,6.6,3.2,4.4,4.6.5,4.6-2.7.4-2.8.4-5.2.4-7.7.5-3.2,2.2-3.4,3.4-1.2l4.3,10.2c1.6,3.5,3.3,4.4,4,2.3.5-2.9.6-8,.5-12.1-.7-2.3-1.7-4.9-2-6.9,0-2.8,2.2-2.2,2.7-1.4,5.32,6.41,10.39,13.01,15.21,19.81,2.8,1.7,4.5-1.2,3.7-2.3-.2-1.1-1.6-2.5-1.6-4.7.4-3.6,3.7-2,4.5-.7,3,3,5.1,7,6.9,10.3.81.69,1.77,1.17,2.8,1.4.6-.9.9-2.3.8-3.2-.2-1.1-1.5-3.8-1.9-5,1.3-2.1,4,.6,4.8,1.4,1,1,1.9,2.5,3,4.5,1.7,2.6,4.5,4.8,10.7,5.7l.3,1.8c-.8.6-2.2,1.2-6,1.9-7.66,1.35-15.49,1.52-23.21.5-5.95-.7-11.97.6-17.11,3.7-3.7,2.1-7.4,1.8-11.8,1.7-8.4-.4-16.81-.4-25.31-.6-17.71-.5-26.61,3-46.62,4.1-6.5,0-20.01-3.4-20.01-7.5,0-3,1.6-5.3,1.6-6.8,0-1.9-.4-2.4-2-2.8-14.31-2.5-28.31.7-41.32,3.1-11,1.7-16.71,0-22.51-4.6-3.21-2.26-5.94-5.16-8-8.5-6.42-8.01-13.89-15.11-22.21-21.11-9.3-7.4-21.11-21.01-28.51-30.21-1.7-2-4.6-11.5-5.6-14.21-1.33-3.96-1.77-8.16-1.3-12.3,1.1-1,2.5-2,3.6-2.1,6.2-.2,14.01-3.2,14.21-5,.6-1.4-.4-2.6-1.6-2.3-3.3.6-7.7.6-11,0-1.8-.3-4-1-5-2,1.2-1.4,2-2.4,3.2-3.1,5.22-.67,10.19-2.6,14.51-5.6.03-.63-.11-1.25-.4-1.8-4-.2-7.2-.2-11.8-1.3-1.69-.48-3.24-1.37-4.5-2.6.81-1.27,2-2.25,3.4-2.8,5.2-1.7,9-4.2,12.5-7.5v-2c-4.77-.02-9.53-.52-14.21-1.5-2.1-1.1-2.3-1.3,0-4,3.4-.8,9.6-1.3,13-2.4,2.4-1.3,2-3.5-.5-4.2-4.06-.11-8.11-.55-12.1-1.3-2.5-2.3-2.8-2.5.4-4l10.7-2.2c4.1-1.4,3.5-4,0-5-3.2-.4-5.5-1.1-8.7-1.7-4.3-2.1-4.2-2.3-.8-3.7l6.8-1.9c1.9-.4,3.8-1.2,4.1-2.6.11-.48.03-.97-.2-1.4-2.8-.8-8.7-.2-11.3-1-1-.3-1.9-1.3-2.4-2.5l2.5-1.4c3.2-.7,6.7-2.1,9.2-3.5.46-.74.8-1.55,1-2.4-.55-.4-1.15-.7-1.8-.9-3.4-1-5.3-1.7-8.7-3-1.9-2.3-1.8-2.8.8-3.8l4.8-1.3c-.66-1.67-1.46-3.27-2.4-4.8-.41-.7-1-1.29-1.7-1.7-2.8-1.7-6.8-3.3-9.8-5.3-5.6-3.4-11.4-6.8-15.81-11.2-5.82-4.98-9.91-11.66-11.7-19.11-.9-4.7-1-9.6-.1-14.21.5-3.5,2.5-7.2,4.4-10.6.7-1.2,1.3-2.3.5-3.3-2.8-3.6-5.1-6-8.6-9.3-1.62-1.31-3.49-2.27-5.5-2.8-11.1-2-17.91-4.2-23.01-3.6-1.85,1.8-3.28,3.99-4.2,6.4,1,3.8,2.8,9.5,2.9,14.31,4,.4,9,1.8,14.01,4.6,4,2.6,4.9,4,6.5,9,3.4,11.1,4.3,25.41,6.8,40.62,2,14.61-5.5,26.61-20.21,27.11-8,.4-14.61-1.2-16.71-6.6-2.6-7.6-4.6-14.01-7-21.71-10.5,2.6-21.51,6.2-32.61,11.6-9.8,4.6-17.81,9-28.11,13.3-19.71,8-41.42,13-60.82,13-10.1.02-20.12-1.74-29.61-5.2-7-2.8-9.6-5.7-11.2-14.61-1.14-7.62-1.25-15.36-.3-23.01.9-7.4,2.1-12.6,7.2-26.51,2.2-6.2,5.1-9,9.9-11.5,8-3.83,16.85-5.55,25.71-5,3,.1,7,.6,9.8,1.8,5.6,2,6.4,6.5,6.6,12,0,3.3.2,6.6,0,9.8-.3,2.6-.2,3.7-.2,4.7,7,1,21.81.6,28.81-1,5.8-1.1,8.1-2,18.61-7,7.3-3.3,17.11-10.6,28.61-16.61l-.1-.1ZM373.84,349.93c.6,1.3,2.2,8.3,2.2,10.7,0,5.7-.5,11-1.1,19.81-1,11.5.3,23.21-1.3,34.61-.7,5.6-2,14.21-1.6,21.91,0,3,.6,3.9,2.3,4.2,5.6,1.3,9.3,1.9,12.1,1.9,8.6,0,14.21-3.9,13.4-8.7-2.81-10.43-4.16-21.21-4-32.01l2.3-.1c3.1,13,5.8,19.41,6.7,26.21,1.2,6.1,0,16.71,1.3,22.01,14.31,1.6,31.41.2,36.61-.9,1.3-11.7,1-23.71-4.2-28.21-2.1-2-8.5-6.8-11.3-8.6-6.08-4.71-11.26-10.47-15.31-17.01-6.1-9.6-7.8-12.7-13.2-22.11-5-8.8-8.4-16.31-11.8-21.41-2.2-3.5-4-5.6-5-6.5-4.24-1.27-8.6-2.11-13-2.5-6-.6-10-1.3-13.5-5-3-3-4.2-5.5-2.4-9.5,1-2.1-.3-3.6-1.8-5.4-1.8-2.2-1.3-4.6.9-6.3,4.7-4.8,10.67-8.16,17.21-9.7l-1.1-4.8c-2.8.4-5.9,1.2-11.5,1.2-7.7,0-14.71-3.2-17.51-13.3-1-3.6-5.5-13.91-6.8-18.41-1-2.8,0-6.3,1.4-10.3-2.5-3-4.5-6.3-6.6-9.1-4.1-1.8-9.2-3.5-12.5-7.6-1.4-1.7-2-1.8-3.3-1-1.1.9-1.4,2-3,3.5-1.4,1.3-4.5,1.4-7.4.2-2.8-1.1-4.2-4-4.1-6.8.3-3.7,2.1-7,.5-8.5-3-3-5.6-6.5-2.2-9,1-.8,3.1-.6,4.4-1.2,3.68-2.05,5.53-6.32,4.5-10.4-.8-3.1-2.5-4.5-5.5-4.8-4.4-.3-6.4-2.5-6.4-5.4,0-3.7,3.3-5.3,6.3-4.6,1.2.2,2.9.9,3.9,1.8.3,1.4,1,3.4,2,3.2,5-.6,9-5.8,9-10.7,0-1.7-1.1-2.5-4.4-1.8-6,1-13.4,3.2-20.81,5.7-4,1.4-4.6,4.6-2.4,8.4.8.8,1.3,1.8,1.9,2.8,1,1.4.5,2.6-1,3.4l-1.8,1.4c-2.2,1.7-2.5,3.5-1.1,6,.4,1,1,1.6,1.7,2.3,1.6,1.5,1.6,2.8,0,4.6-1.95,2.02-2.5,5.02-1.4,7.6.6,2.1,2.3,14.21,2.3,16.51-.1,6.3,1.1,12.5.7,18.41-.2,4.2,1.9,8,6,12.6,4.5,5,7.7,9.4,13.81,15.31,7.1,6.8,11,14.91,11.7,24.81.3,4.7,2.5,6.4,7,8.8,9.4,2.6,12.6,7.9,13.71,15.01,1.9,12.8-4.3,25.21-15.81,24.01-5.8-.5-8.7-4-8.7-7.1,0-3.3,1.6-6.5,4.3-7.4.5-.2,2.2,0,2.6,0,.19.65.25,1.33.2,2,0,.8-1,1.3-1.5,3-.2,1-.2,3.3.9,4.7,1.2,1.6,3.3,2.2,5.6,1.4,2.6-.8,4.3-3,5.5-5.4,5.4-9.6,2.7-21.01-7.5-23.41-3.2-1-7.9-1.4-10.9.3-6.3,4-11.7,6.2-17.01,11-.84.77-1.31,1.86-1.3,3,.21,21.21,1.71,42.39,4.5,63.42,0,4.5,3.3,10.2,4.6,11,3.7-2.7,4.7-5.4,8-10.6,1.5-.9,2.2-.3,2.7,1,0,4.8-1,9.4-.5,13.5.3,1.2,1.7,2.3,2.7,3.1,2.2-2,2.3-5,3.2-7.4,2.5-2.6,3,.3,3.2,1-.2,3,0,5.9.3,7.5,0,1.2,1.2,1.4,2.2,1.7,2.7-5.4,6.1-10.2,10.5-13.2,2.6-1.9,4.3-.3,2.8,2.3-2.67,4.99-4.69,10.3-6,15.81.88.02,1.75-.08,2.6-.3.6-.2,1.4-.4,1.7-1.9,1.9-4.6,2.9-5.2,5-1.8,1,3.1,2.4,5.4,4.2,6.3,2.8-.8,3-4.1,4.1-6.5,3,.2,3.2,3.4,4.7,5,1,.8,9.5,1.1,11,1l-.2-5c-.2-9.9,0-17.81.6-27.61.8-10.2,1.9-20.71,2.4-29.71.4-7.5,1.3-18.81,2-27.71l1.8-.2ZM513.29,159.56c-2.3-.3-11.6-.9-14.01-.9-2.1,0-7.7,0-7.9,2.9,0,.8,1.1,2.3,2.4,3.2,6.8,4.6,25.81,5.4,33.51,4.1.2-1.8,0-4-.6-5.6-1.9-5.7-8.9-10.7-15.31-12.8-6.76-1.59-13.76-1.83-20.61-.7l-1.4-3.5c2.3-10,2-19.31.6-26.71-.8-4-1.9-6-4-9.3-1.4-1.8-2.9-1.8-4.6-.4-1,1-2.2,2.2-4.1,4.7-6.5,7.8-6.2,13-5,24.81.7.5,1.5,1,3.7,1,2,0,3-.9,3.2-3.7.2-3.9,1.1-8,1.7-11.6,1,.3,2.6,1.4,2.8,2,.4,6.1-1.6,12.4-3,18.11.3.7,4.7,2.6,4,4.5-.5,1.4-7.4,3.1-12.2,3.5-2.75-4.23-6.73-7.51-11.4-9.4-2.8-1.1-5.9-2-3.6-3.9l3.8-1.5c6.5-2.7,4.3-6.4,4-12.7-.2-2.4-1.2-3.1-3.4-3-3.3.2-5.4.5-8,1.9-5,3-8.7,7.9-12.2,11.9-.6.6-2,.3-3.2.3l6.2-17.51c.6-1.8,1.5-3.7,3.5-3.2,10,2.3,20.31.4,27.41-6.7,3-3.2,3-4.7-.9-7.4-5.95-4.95-13.95-6.67-21.41-4.6-3,1.2-5,3-5.5,6.1-.3,1.9,9-.7,12.2-.4,1,0,1.6.9,2.3,1.4-6,2.6-12.9,3.9-18.61,5.5-1.9.5-2.6,0-3-1.8-.69-3.09.49-6.29,3-8.2,4.3-3.7,7.8-8.1,8.7-14.01.6-3.1-2-7.9-3.4-10.6-.2-.7.2-1.3.2-1.8,3.7.9,8.8,3.3,11.9,5.5,1.83,9.66,8.89,17.49,18.31,20.31,3.3,1.1,6.6,2.4,10.1,3.4,3.2,1,5.6,0,5.4-3.4l-.1-4.6c2.7-1.2,6-2.2,6.7-2,5.3.7,10.7,3.3,16.11,5,3.8,2,2,3.2-.7,2.8-4-.6-8.1-1.8-12-2.8-2.5-.5-4.6.6-5,3,1.7,3,9.4,6.5,12.2,7.7,4,1.4,19.51,3.2,19.31-1-.13-4.16-.73-8.29-1.8-12.3-1-3.4-4-5.4-7.2-6.2-6.78-1.66-13.73-2.47-20.71-2.4-1.6,0-4.6,1-7.4,2.4l-.9-4.6c-1.4-6.2-4.4-7.7-9-9.3.2-1.8.2-3,.2-5,4.1-2.3,9.1-6.2,11-9.5-1.6-1.6-4.6-2.4-6.2-3-6.3-2.2-7-4.6-11.2-6.5-3.15-1.45-6.54-2.29-10-2.5-3.2,0-7.5.8-8.4,2-.5.8,0,2.1,1.8,3.4,2.8,2.2,8.7,3.7,11.6,5.8,1.8,1,.9,1.5-.3,1.7-3.99-.3-7.87-1.42-11.4-3.3-2.1-1.1-2.8-2-4.3-2.6-2.8-1-3.3-.2-5.2,3-1.4,2.4.3,3.6,2.3,4.7,6.7,3.7,11.6,5.9,20.01,6.8,1,1,1.2,2.5,1.5,4.4-8.4-1.1-11.2-1.2-16.41-3-8.3-4.5-14.91-8-22.91-10.7-1.5-.6-2-1.6-.4-2.6,8.4-5,16.41-11.2,24.91-15.81,1.2-.7,3.1-.4,4.6-.1,4.1.7,5.5,2,9.6,3.2,2.4,1,4.8,1.6,5.2-.6,1.2-6.1,3.2-10.7,5-13.3,3.7-5.7,9-8.7,16.01-13,2.6-9,11.1-18.01,14.21-18.01,8.4,0,16.71,15.31,18.41,21.01,1.1,4-5.6,7.6-1,7.6,3.8,0,7.4.6,7.4,4,.06,5.67-1.54,11.24-4.6,16.01-3.2,4.4-6.5,9-10.8,11.9l.3,1.5c7.2,5.4,15.11,9.3,15.11,17.51,0,4.3-1.2,7.4-3.7,9.6-2,1.6-3.5,3.3-3.3,5.8.3,5.7.6,8.9.3,14.41-.3,3.8-11.7,4.5-13.3,6.2,1.95,9.53.87,19.43-3.1,28.31l2.3,4.3c11.5,8,13,15.41,14.71,21.71-3.2,3.1-8.4,5.7-10.2,5.7-7.5,0-24.01-5.6-27.21-6-1.3,2.3-.6,4.4,1.1,9,1.5,4.3,4.3,7.2,4.3,11,0,2-.3,4.9-5.6,5.7-8.81.74-17.6-1.67-24.81-6.8-1.5-.8-2.8-1.8-4.3-2.5-2.5-1.4-5.7-.3-6.5,2.5l-1.7,5.6c-1,3.1-2.5,3.4-6.7,2.5-11.8-2.5-17.31-15.21-17.31-26.51.5-2.3,2.4-1.4,2.8-.3.7,5.5,3.1,10.8,4.9,15.31,2.2,4.3,5,6.6,9.7,7.2,1,0,2.2-1.8,3.3-3.8,2.5-5.3,4.9-8.8,4.1-15.01-.3-2.2-.9-5.2-2.5-7.2-.7-1-2-1.6-3.3-2.8.6-1,1.6-2.1,2.5-1.8,5.2,1.8,9.1,1.8,12.4,0,2-1,3-2.5,4.3-4.2,4.5-1.2,11.8-2.8,18.01-3.7,8.4,0,15.81,1.2,22.01,4l-.3,1.3ZM194.57,363.83c4.5,0,9.9,2.2,9.8,7l-1,2.5c-.35-.03-.69-.13-1-.3-1.7-3.6-4.4-5.7-8.8-4.8-4,.8-7.6,2.9-10.2,5.8-1.8,1.8,1.8,3,4,4.1l4.7,2.8c0,2.5-6.3,20.11-3.1,20.71,8,1.4,18.61-9.6,19.71-25.11-.3-5.6,2.9-8.4,9-10.5,7.3-2.7,10.7-6,9.5-14.01-.6-3.8,1.7-2.7,3.8-6l2.4-2.6c.4,1.1,1.2,3.8,1,4.9-1.7,6.4-.4,11.4,2.8,17.21l6,15.41c1.3,1.5,2.6.3,4,1.9,5.1,10.3,10.9,25.81,18.71,32.41,6.4,5.3,13.2,14.61,19.31,20.21,3.5,3.1,6,11,10.4,12.5,3.2,1.2,3,2.8,2.6,5.7-.6,3.5,1,4.2,2.2,4.2,2.2-.3,4.2-.8,6.5-1,4.8,1,3.7,4.4.1,5-2.4.2-4.7-.3-7.1-.3-.9.2-1.7.6-2.5,1,.2.9.6,1.8,1.3,2.4,3.9,2.1,6.7,2.4,10.5,3.2.7,0,1.3.6,2.1.9-.3.6-1,2.1-1.8,2.5-1.2.2-2.8.2-4.3,0-3.5-.8-6.6-2.3-9.9-3.7-1.1-.4-1.8-1.6-2.9-2.4l-2.8-.8c0,1.1-.3,2.1-.2,3,.7,1.6,2.3,4.2,1.6,4.7-.2.5-2.5,1.9-3.1,1.5-2.8-1.3-5-4.5-7.7-6-3.3-2-6.4-2-9.5.1-3.3,2.3-6.2,4.2-9.3,6-3.8,2.5-7.9,6.5-12.4,6.5-2.5,0-8.8-3.8-11.6-4.6-5.2-1.7-6.9-1.9-12.4-3.1-4.7-1.1-8.8.6-13.51,2.2-5.8,1.8-12.1,2.5-18.41,3.7-3.5.6-7.6,0-11.3-.2-5.6-.2-11-.7-16.51-.6-3.7,0-7.6.7-11.2,1.9-1.6.4-3.4.7-4.9.7-2.5,0-5-.6-7.2-2.2-2.36-1.55-5.24-2.09-8-1.5-2.6.5-7.7,1.5-9.8-.5-2.6-2.6-8.9-7.8-12.4-7.1-11,1.8-16.41,8.1-27.21,5.3-7.6-2-12.6-3.8-20.01-1.3-2,.7-6.8-.4-8.7-.1-2.8.3-3.7-.2-3.4-3l.3-1.5c.5-2.9-2.3-5-5.1-4-3,1-4.9,4.1-7.7,5.6-5.3,2.6-10.3,1.8-16.01-.4-4-1.7-8-1-11.7,1-2.4,1.2-6.3,7-9,7-.8,0-2.2-1.6-2.7-2.9v-2.7c1.59-2.3,3.67-4.22,6.1-5.6,6.63-3.15,14.09-4.13,21.31-2.8,3.3.5,7,.9,10.1-.4,2.5-1.1,5.1-1.3,7.4-2.5,4.2-2.3,7.9-4.2,12.6-2.5,3.5-1.6,5.3-2.7,7-5.3,1-4.2-.6-8.6.5-12.7.9-3.7,2.5-8.4,3.7-12,.7-1.8,2-1.6,3.2-1.4,3.4,5,7.5,9.6,5.4,14.11-1.4,3.2,5.9,5.4,4.7,8.6-1.2,2.4-.7,4,1.8,4.2l1.8.2c2.2,0,2.2-1.4,2.2-4.1,0-15.31-4.9-25.91-10.1-37.91-1.92-4.47-1.92-9.54,0-14.01l3-9.4c1.8-4.5,5.5-8.4,9.7-10,.5-.2,2.1.5,2.5,1.2,6.8,9.6,9.3,21.21,6,32.81-1,3.4-1.7,7-2.4,10.8-.2.9.1,1.8.3,2.8.6-.6,1.5-1.2,2-1.9,3.4-5,6.8-10,9.5-15.41,2.6-5.2,7-7.3,12.3-8.3,5.9-1.2,7.5-.5,6,5.2-.9,3.3-1.9,6.7-3,9.7-1.47,5.21-5.06,9.57-9.9,12-3.3,1.8-6.4,4.3-9.3,6.5-1.1,1.5-1.4,1.4-.2,2.9,1.1,1.4,2.8.5,4.2-.3,5.5-4,11.2-7.2,16.81-10.3,2-.9,2.7-.1,2.5,2.3-.3,2.8-.7,6.6-3.5,7.6-3,1-7.1,1.5-9.8,2.8-1.78,1.06-3.37,2.42-4.7,4-1.8,2.8-1.8,4.7-3.3,7.6-.3.7,0,1.8,0,2.8,1-.3,2-.3,2.6-.7,3.6-2.6,5.6-5.6,9.2-8.4,2.8-2.1,3.4-1.9,4.5,1.6.4,1.1,1.3,2,2.4,3,1-.7,2.3-1.3,3.1-2.5,3.3-4.8,5.3-14.51,9.6-20.91.8,0,1.7.6,2.3.8.9,2.2-.3,9.5-.1,11.1,0,4.5,1.5,5.4,5.5,3.4,3.2-1.6,6-3.3,9.2-5,3.3-1.6,6-.3,4,2.3-1,1.6-2.5,2.8-3.5,4.4-.5,1-.4,2.6-.5,3.8.9,0,2.2.1,3.1-.3,2.5-.7,4.9-1.8,7.3-2.8,3.2-1.5,6.6-1,10.2,0,3.5,1.2,7,2,10.3,3,2.7.6,5.6-.6,8-1.7,4.75-2.35,9.71-4.26,14.81-5.7,6.81-2.08,13.07-5.67,18.31-10.5,1.2-1.3,3-2,4.5-3.3,1-.9,2-5.3,2.1-6.7,1-3.7-.6-12.4.2-16.31.5-1,1.2-3,1.8-4l1.6.4c.5,1.4,1.1,3.6,1.1,4.7-.2,6.7-.3,21.61-1,28.01,0,1.6-2.7,4-4.2,4.6-11.7,4.2-23.51,8.7-35.31,12-5.3,1.5-11.2.7-16.81.8-4.4,0-8.8-.7-13.2-.4-3.4.3-8.4,3.5-11.9,4-9.7,1.5-18.01.9-27.61,2.6-8.9,1.7-17.41,4.1-25.81,6.5-2.3.6-3.5,1.3-5.3,2.6-.7.5-.9,1.5-1.1,2.2.9.5,1.8,1.1,2.7,1,2.2-.3,4,.4,6.2.1,5.2-.8,10.4-1.4,15.81-1.9,1.1,0,2.6.8,3.6,1.5,2.35,1.74,5.35,2.36,8.2,1.7,3.2-.7,6,.1,8.8,2.1,4.8,4,6,4.1,11.6,1,4.3-2.3,9-2.3,13.81-2,10.6.5,20.51,2,30.01,3.8,7.5,1.34,15.13-1.58,19.81-7.6,2.7-3.4,5.3-6.8,7.4-10.1,1.8-2.4,3.7-4,6.5-4,6,0,12.1-1.4,18.01-1,3.3.2,5,3.3,5,5.2-.3,2-1,3.2-3.3,3.1-4.6-.3-9-.5-13.4-1.1-4.7-.4-8.4,1-11.2,4.5-1.5,1.6-1.1,2.8,1.1,3.3,1,.1,2.2.6,3.2.7,2.4.2,3.5,1.4,4.2,3.6.4,1.4,3.3,2.8,8.2,3,6.2.4,9.4.4,14.81-1.3,2.3-.8,3.8-3.4,5.3-5.3,3.6-5.1,6-6.5,12.3-5.1,4.5.8,7.5-4,11.5-3.7,7.3,1-1-13.81-5.6-18.71-6.4-4.7-11.5-14.11-17.11-21.11-4.1-5.1-9-7-12.6-13.3-6.8-11.3-12.4-25.01-20.01-34.01-2.9-3.1-9.3-1-12.5.7-1.44.53-2.72,1.43-3.7,2.6,9.1,7.7,9.5,18.41,6.3,26.31-.9,2.5-1.8,2.4-4.4,1.4-2.44-.87-4.84-1.84-7.2-2.9-1.6-.8-3-.4-4.6.6-7,4.2-15.41,9.8-16.81,8.4-2.8-2.7-7.3-11.1-7-15.41.2-3.5,1.4-6.5,2.7-8.5-3.14-1.67-6.15-3.57-9-5.7v-3.1c5.8-5.6,13.61-11,19.61-11ZM20.31,282.8c.8,5.5,3,10,8.4,12,7.6,3.2,17.71,5,26.21,5.2,10.2.3,21.31-.6,33.21-2.8,18.62-3.85,36.65-10.14,53.62-18.71,10.31-5.4,21.23-9.56,32.51-12.4,11.74-3.31,24.11-3.65,36.01-1,5.4,1.3,6.5,1.3,5.7-2.5-.3-2.6-1-5-1.5-7.7-1.3-8.9-.9-17.31-4.2-25.01-1.12-2.02-2.88-3.6-5-4.5-2.69-1.29-5.55-2.17-8.5-2.6-5.97-.9-12.04-.9-18.01,0-9.49,1.34-18.71,4.18-27.31,8.4-9.3,4.6-18.61,9.7-25.51,13.91-11.38,7-24.45,10.77-37.81,10.9-8.9,0-14.71-.3-23.61-1.3-12.12-.63-23.96-3.87-34.71-9.5-2.4-1.2-3.7-.9-4.6,1.6-4.38,11.47-5.99,23.81-4.7,36.01h-.2ZM434.46,380.64c-3,.4-9.4,1.3-13.2,1.5-1.21-.04-2.42-.21-3.6-.5.6-1.1,1-1.5,1.6-1.8,4.5-2.3,9.4-4.5,12.7-7,1.9-1.5,1.5-2.8,1-4-6.3,2.7-12.1,4-18.71,5-.5,0-.8-.4-1-.7,5.1-3.8,12-6.9,15.71-10.2,2.5-2,.6-2.6-.2-3.5-5.4,1.9-10.8,3.7-16.51,5.2-.87.11-1.76.04-2.6-.2,0-1.1,1.1-1.6,2-2.2,5.67-2.88,11-6.36,15.91-10.4l-.3-1.4-1.9-.2c-4.4.8-14.01,2.2-19.31,2.7-2.6,0-2.2-1.5-1.7-1.8,4.2-1.9,7.4-4.1,10.5-7.4,1.1-1.2,1-2.3.6-2.9-5,2.4-10.8,2.4-14.21,2.8-.6-.8.2-1.8.6-2.2,4-1.6,5-2.9,7-4.3,1.4-1,4.4-3,5-4,.4-.5.3-1.6,0-2-4.03,1.4-8.18,2.41-12.4,3-.75.03-1.49-.07-2.2-.3.3-1,.5-1.7,1-2,5.9-3,9-4.2,13-6.7,1.2-.97,2.16-2.2,2.8-3.6l-.4-.6-14.21,4.4c-1-.2-1.4-.8-2.2-1.4.41-.67.96-1.25,1.6-1.7,9.74-3.23,18.72-8.41,26.41-15.21,2.2-1.8,4.2-4,5-5.6l-.6-1.1c-8.97,6.59-18.71,12.07-29.01,16.31-2.2-.2-1.8-1.5-1-2,1-1,3.7-4.1,6-7,8.84-3.3,17.06-8.07,24.31-14.11.6-.6.9-2.2.5-3.2-4.8,2.1-12,6.2-18.31,8.6l-1.2-.4c.2-1.1.8-2.2,1.4-3.3,5.59-3.5,10.73-7.66,15.31-12.4.2-.7.5-1.5,0-2.3-4,2.2-8.5,3.7-12.6,5.1-1.4-.9.3-3.3.5-3.9,5.9-4.8,8.7-8,11.5-12,.6-1,.6-1.8,0-3.3-3.2,2.3-7.9,3.7-11.5,5.1l-1-.3c-.2-1.2,0-1,.4-1.8,4.2-4,7.9-7,10.5-11.5.2-.5.2-1.7-.3-2.5-3.5,1.2-6.2,2.2-10,3.2-.48.01-.96-.09-1.4-.3.2-1.2,0-1.5.5-2.4,2.6-2.3,5.2-5.3,7.6-9,.7-.9.6-1.8.1-2.5-1.8.5-5.2,1-6.9,1.1-.7.2-1.6-.6-2.1-1.5l6.5-4.6c.48-.53.85-1.14,1.1-1.8-.8-.4-1.5-.8-2-.6-2.8.3-5.4.6-8.2,1.2-6.1,1.3-6.1,2.1-6.7,3.9-1.73,6.94-4.01,13.73-6.8,20.31-.8,1.8-1.9,3.6-3.7,4.3-2.6,1.4-2,2.7-2.8,5.3-1.1,5-1.9,4.6-4,9.5-1.24,3.49-3.18,6.69-5.7,9.4h-1.4l-.5-7c-.5-4.7-1.4-3.7-2.2-8.4-.5-4.2.6-8.7,1.1-12.3.5-4.2,1-11.4,1-15.51-.4-.3-.8-1-1.3-1.3-.59.47-1.05,1.09-1.3,1.8-.9,3.2-2.4,8.2-2.8,11.5-1,7.6.5,15.01,0,22.71-1.45,7.92-1.79,16-1,24.01,2.5-.3,2.4-.6,5.9-2,4.6-1.8,8-2.5,12.7-6.7,3.4-2.8,2.8-8.5,4-13.2,1.6-5.6,3.8-7.6,6-8.5.7-.2,1.3,0,2,.2l-3.3,8.2c-1.1,3-2.2,7.7,1,8.2l2.3.4c.1.6.1,1.4-.3,1.9-3,2.8-5.4,6.3-19.11,10.2-1.6.5-5,4.6-5.2,6.2-.3,2.2-.3,4.7.2,8.2,1.4,13.71,8.2,26.51,15.81,39.21,6.4,10.8,11.2,19.01,18.11,26.01,3.3,3,6.7,5.3,12.1,2.7,3-1.3,6.6-3.6,7.5-4.4.4-.6.5-1.5.4-2.3l.1-.1ZM248.39,183.57c.3,5.4-.7,6.8-7.6,5-7.3-2.2-10.6-1.4-15.31-6.7-2.8-3.3-6.3-3.3-9.3-.2-1.4,1.7-2.4,3.3-4.6,3.7-.4-.7-.9-1.8-.6-2.6.8-3.2,2.7-5.6,5.7-7,2.1-1.2,4.7-2,7-2.6,6.4-2.5,9.5-6.3,9.5-13.81,0-4.3,1.4-8.6,1.4-13,0-3.2-1.2-4.3-4.2-3.2-5.3,2-10.3,4-15.61,6.3-1.67.6-3.01,1.87-3.7,3.5-1.5,2.8-2.4,5.6-3.7,8.4-1.2,1.6-2.3.8-2.6.2-2.5-4-5.6-8.2-8.2-11.6-2.3-2.8-2.3-3.8.3-5.7l8.6-7.6c4.3-4,6-9.3,6.4-15.21v-8.1c-.1-3.5.6-4.6,4.1-4.1,2.5.3,5,1,7.1,2,4,1.7,7.8,4,11.7,6,2,1.3,3.6,3,3.8,5.7,0,3-2,5-4.7,3.9-4.24-1.89-8.62-3.43-13.1-4.6-2.3-.5-4.5.7-4.9,2.8-.9,5.1,3.5,5.4,3.1,6.8-1.1,3.6-7,4.7-7.8,8-.7,3-.7,5,2,4.5,7.4-1.5,14.61-6,20.21-8.4,4.9-2,7.4-1.3,8,4.1,2.6,15.81,5,29.41,6.8,43.52h.2ZM362.83,133.35c1.4.4,3.2,1.2,4.3,2.2,2.7,6.3,8.4,13.2,15.71,17.01,2.3,1.2,4.6,1.6,6.5,1.8.7-2.8,1.9-7.4,1.9-12.5,0-4-1.2-8.4-5-12.1-3.28-3.32-7.02-6.15-11.1-8.4-1.75-1.04-3.97-.84-5.5.5-.1.9-.1,2.3.4,3.1,1.8,3,6,5.9,8,8.8.6,3,.4,2.8-2,1.8-5.13-2.99-9.64-6.93-13.3-11.6-2.1-2.4-3.5-2.4-5,.2-3.79,6.04-6.08,12.9-6.7,20.01-1.33,8.79,3.15,17.43,11.1,21.41,3.5,1.5,6,1.1,7.7-2.1,1.7-3.3,3-6.1,4-9.7.6-1.9.6-2.6-.8-4.3-1.72-2.19-3.6-4.26-5.6-6.2-.75-.97-1.71-1.76-2.8-2.3-.5.69-.75,1.54-.7,2.4.1,2.8.6,5.8.7,8.7,0,.7-.1,1.9-.6,2.5-1.57-.69-2.74-2.05-3.2-3.7-1.8-6.9-1.5-13,2-17.51ZM41.12,32.01l5.4,6.4c2.2,4.2,3.4,8,4.5,11.3,1,3.4,2.4,3.4,4.5,1.9,2.1-1.49,3.3-3.93,3.2-6.5-.12-2.01-.53-4-1.2-5.9-2-7.2-.6-13.4,5.7-18.01,2.2-1.4,3.7-3.9,3-6.5-1-3.6-1.9-7-3.3-10.4-.4-1.5-2.6-1.8-4-1.1-7,3.7-15.41,14.41-9,23.41.3.5,0,2.2-.5,3.1-6-5.8-17.41-17.81-20.91-17.51-1,1.7-1.7,5.1-1,12.1,1,6.8,2.7,13.81,7.8,23.31,1.3,2.1,2.5,3.4,4.4,5,1.2,1,3.7,2.2,5.6,2.2.6-1.4.7-3.9.3-5.5-1.7-6.4-3.4-11.2-5.5-17.01l1-.3ZM511.29,58.82c4.9-1,8.9-2.4,10.7-3.1,8-3,13.3-8.2,15.01-17.01.7-2.3-.7-3.6-3.3-4.2l-5.2-1.4c-5-1.5-6.1.6-8,5.6-1.6,3.7-3.1,8-7.1,11.1-1.2,1-5.4-2-6.6-2.8,7.72-5,13.62-12.37,16.81-21.01,1-1.7,0-3.4-1.8-4-2.5-.7-5-1-8-.7-12.44,2.2-23.11,10.13-28.81,21.41-.4,1,0,3.1.6,3.4,1.1.5,4,.2,5.2-.3.7,0,1-1.1,1.5-1.8,3.3-5.8,8.8-9.3,15.11-12.1,1.9-1,2.5-.3,1.5,1.8-1.2,1.6-12.6,9.6-12.8,10.7-1.5,3.3.7,3.7,2.6,3.7l3.4-.9c1.2,6,4.8,9.9,9,11.6h.2ZM339.03,57.82c-.2,2.8-1.2,4.4-3.8,3.5-5.2-2.3-8.3-8-14.21-9.9-2.1-.7-3.4,1.2-3.7,3.2-1,6-1.9,11.2-1.9,13.5,0,8.2,4.4,12.6,8.8,17.01,1.3,1.1,1.3,1.9-.1,2.5l-18.01,10c-1.7,1.2-3.7,1.4-5.6,0-1.7-1.5-2.3-3.5-1.7-5.4,2.1-9,3.6-18.41,6-27.21,3.6-14.01,9.7-18.71,19.81-20.01,3.7-.6,6.4-.6,9.2-.6,3,0,4.2.6,4.6,3.3.4,1.8.5,3.9.5,10.1h.1ZM352.63,119.54c0-6.8-5.5-8.7-7.9-14.51-2.2-5.7-4.2-5.7-8.8-1.6-5.2,5-8.4,9.2-10.2,16.31-1.64,6.44-1.6,13.19.1,19.61.5,2,1.6,4.1,3.8,3.5,1.65-.46,2.76-1.99,2.7-3.7,0-5.8.5-11.4,3.4-15.11,1.3-1.7,1.9-2,2.6-2.5,1,1.4.6,3,.6,3.3-.9,4.3-1.5,8.7-2.4,13-.6,2.8-.6,4.4.9,7,1.7,2.6,3,3,4.2,1.2,5.3-8.5,11-20.71,11-26.51ZM61.92,138.35c-.3-5.73-1.56-11.38-3.7-16.71-2.2-5.3-5.6-8.4-7.8-8.4-2,0-6.8,5.6-8.4,10.1-4,11.5-1.9,20.81,4.8,31.81.9,1.4,2.7,4,5.3,1.4,2-2.4,3.6-4,5.5-6.5,2.6-3.1,4.4-7.5,4.3-11.7ZM312.72,318.02c-1.2-9.6-8.4-18.91-20.51-27.01-2.5-1-2.7.7-2.7,2.8,1.2,13.3,2.7,26.71,4.4,38.61.5,2.6,1.7,3.3,4.1,2,3.6-1.7,7-3.4,10.5-5.4,3.2-1.9,5.2-3.6,4.2-11ZM422.36,209.08c-2-4.6-5-6.6-9.7-7-4.7-.5-8.6-1.1-13.5-1.9-2.8.4-4.7,2.6-6.3,6.3.1.8.4,1.7,1,1.9,1.6.6,4.4,1.1,4.8,1.4.6.4,2.4,2.3,2.8,3.8-.4,1.3-2,2.7-4.2,3-2.8.6-2.8,2.9-2.3,5.8.4,2.8,1.4,5,3.6,8,1.9-1,2.8-1.5,4.2-3,1.46-1.39,2.17-3.4,1.9-5.4-.4-6,3-10.4,7.1-14.41l1,.5c-.7,3.5-2.5,6-3,9.4-.8,7-3.2,13-10.2,17.81,2.2,2.8,7.5.7,9.2-1,2.9-2.6,5.2-5.8,6.3-9.8l1.1-3.5c.34,0,.68.07,1,.2,1.3,2.6-.6,8,.3,11.8,1.39-.61,2.6-1.58,3.5-2.8,2.6-6.2,3.9-15.31,1.4-21.01v-.1ZM509.99,65.72c-1.2,0-6,.1-7.4.4-1.1.3-1.7,2.9-1.1,3.4,1.3.9,2.2,1.6,3.3,2,4.4.5,6.3.5,11.4,1.3.8.1,1.8.6,2.5,1.4-.5.4-1,1-1.9,1.2-9.3,1.1-12,1-18.61-3.4-1.8-.8-2.4.5-1.9,2.2,1,3.2,3.6,5.8,8.4,7.7,3.8,1.7,7.5,3.7,11.5,3.7,6-.2,10.2-.6,15.11-1.4,2.6-.4,5.2-1.9,5.6-3.2.5-1.3,0-4.2-1.5-6l-3.5-3.6c-5.6-5.9-9.2-9.6-17.51-8.7-1.1,0-2.8,3-4.4,3ZM515.79,127.75c0-3.4-.5-6-1.4-9-1.8-6.29-7.29-10.83-13.81-11.4-3.4,0-5.1.6-3.7,3.8.4,1,3.4,4.3,4.6,7,1.6,3.1,3.1,6.4,3.1,9.1,0,1.31-.27,2.6-.8,3.8-2-1.1-3.2-3.7-3.7-4.9-.9-3-1-4.7-2-6.4-.8-1.5-1.9-1.9-2.3-1.9-1.3,0-1.9.5-2,2.3-1.18,11.08,4.64,21.72,14.61,26.71,2.6,1,3.3.3,4.1-2,1.98-5.46,3.09-11.2,3.3-17.01v-.1ZM56.32,91.73c-1.3,5-1.5,8.3-1.4,11,.1,3.6,1.9,6.6,5.2,8,9.74,4.29,20.42,6.01,31.01,5,.3,0,1.3-.7,1.3-1-.2-2.2-1.4-2.5-3.3-3-4.4-1.6-16.11-4.7-17.71-6.6-1.2-1.7-.6-3.4,1.3-3.7,1.74-.18,3.5.09,5.1.8,3,1.4,5.4,3.3,8.4,5,1,.5,2,1.5,3.2,0,.8-1.4,1.6-2.7-.2-4l-6.9-5.5c-6-4.7-14.91-7-26.01-6ZM269.3,168.86c-.5,1-1.4,2-2.5,3.3-1-1.1-2.2-1.9-2.7-3-4.81-12.09-8.56-24.57-11.2-37.31-.2-2.4.7-3.3,2.8-3.2,5.3.6,10,3,14.61,5.4.7.6,1.3,2.2,1.4,3.3,1,10.5-.4,22.31-2.4,31.51ZM40.01,190.27l-.8-.3c.5-6.4,3.7-15.41,2.5-17.71-2.15-.34-4.35-.13-6.4.6-2.2,1-3.2,3.2-3.6,7-.6,8.2.7,16.71,2.5,24.11.5,2.8,1.7,3.1,3.7,1.1,5.3-4.8,10.3-11,14.31-15.71,2.8-3.6,3.3-7,2.2-10.5-1-2.9-2.9-4-5-4-2.4,0-3.2,1.8-3.8,3.5-1.3,4.6-3.4,7.9-5.6,11.9ZM469.87,171.26c4.2,0,7.6.8,8.8,1.2,5,1.8,7.2,4,8.1,5.8,1,1.7,1,2.6,1,3.4-2.88.85-5.99.21-8.3-1.7-4.5-4.2-11-6-14.91-4.2.3,3,3,6.5,5.4,8.4,7.8,6,14.71,7,23.01,5.1,1.5-.5,2-2.5,2-4.2-.3-5.4,0-11.1-5-15.81-5.7-5.3-13.71-5.1-19.21-2.8-.9.5-2.3,1.1-3,1.9.2.6.9,2,2.1,2.8v.1ZM276.2,23.71c1.7-.4,1,.3.5,1.8-1,4.8-3.7,8.5-7,11.9-2,1.6-2.3,4.2-1,5.5,2.4,2.3,5.2.3,7-1.5,3.8-4.1,6.1-9.3,8.3-14.31,2.6-6.2,2-14.01-1-19.21-1.5-2.2-4-2.5-5.8-.8-6.65,5.6-10.76,13.64-11.4,22.31,0,1.3.1,3.5,1,4,4.2-2,6.8-6.6,9.3-9.6l.1-.1ZM389.84,248.99c.4-.4,1.2,0,1.5.2,0,5,1.2,11,1.8,12.8.71-.3,1.36-.74,1.9-1.3l1.4-6.8c3.1-9.6.8-17.21-3.2-26.01-.7-1.6-1.8-1.8-3.5-1-1.2.5-2.3,1.3-1.2,3,.9,1.4.8,2.5,0,4-1.3,2.4-2.3,5.1-3.7,8.1-.5,1.9-.6,3.3-.8,5.6l-1.4,34.41c.6,1.9,1.7,1.5,2.3.4.8-1.9,1.3-3.6,1.7-5.6,1-5.4,2.5-5.6,2.8-11,.5-5.6.5-11.1.3-16.71l.1-.1ZM74.43,36.21c-.1-.5,0-1.8.2-2.1l5.7,1c2.8.5,4.2.1,5.2-2,1.5-4.1.7-7.8-3.6-8.7-6.5-1.2-13,1-18.61,2.2-3.6,1.3-4.5,5-1.8,7.7,4.1,4,8.1,8,12.5,11.5,3.6,2.9,7.7,3.6,11.8,2.8,1.9-.5,3.5-1.7,3.5-3.3.01-1.28-.49-2.5-1.4-3.4-1-.76-2.12-1.37-3.3-1.8l-10.2-3.9ZM68.53,286.91c-.3,1.9-1.2,3.5-4.3,3.3-2.8-.1-5.59-.5-8.3-1.2-3-.8-3.8-2-4-3-1-5.7-.4-13.3.9-18.51.4-1,3.5-2.8,4.8-3.5,4,.4,7.2,1,10,1.8,1.2.7,3.4,4,3.6,4.5.6,1.8.6,3.7.6,5.6-1.1,4.6-2.5,8.6-3.3,11ZM379.44,454.97c7.5,2.8,13.3,3.6,15.51,3.2,2.25-.54,3.72-2.71,3.4-5,0-2-1-3.8-3.7-4.5-5.7-1.2-11.5-2-17.01-4-3-1-5.5-.9-8.3,1.3-4.3,3.2-8.4,5-13.71,6-1.22.07-2.4.49-3.4,1.2-1.5,2-1.1,3.3,1.2,4.6,9.2.8,17.91-1,26.01-2.8ZM410.15,473.27c4.6,0,8-1,11.2-3,3.88-3.17,8.55-5.25,13.5-6,2-.4,4.1-2.5,4.3-4.2,0-2.3-1.9-2.6-3.4-3.1-4.5-1.4-9.8-1.2-14.41-2.4-1.5-.2-3.6-.2-4.8.7-9.6,9.7-11.5,7.4-16.01,12.2-1.2,1.6-1.2,3.5,2.1,4.4,2.6.6,6,1.2,7.5,1.4ZM250.59,109.14c0-2.3,4.3-6,6.7-5.7.4.2.9.5,1.3,1l.9,5c.3,2,1,3.7,2,3.7,4.8.4,10.5-3,13.2-7.2,2.8-4.4,4.9-9.5,7.3-14.41,2.2-5.3,5.7-2,4.5,1.2-3.1,9.2-7,18.61-9.9,27.71-1,3.3-1.4,3.5-4.6,2.4l-15.41-5.5c-3.66-.94-6.17-4.32-6-8.1v-.1ZM368.64,339.13c2.5,1.2,2.3.7,5.6-1.2,1.72-1.29,2.81-3.26,3-5.4l-1-20.11c0-.7-.9-1.7-1.2-1.7-2.8,0-6.2-.6-8.4.6-4.3,2.4-8,5.7-11.8,8.8-1.5,1.5-.1,3,2.1,2.8,1.9-.8,4-1.7,5.9-2.7l3.5-1.9c0,.7,0,1.2-.3,1.7-3.4,3.7-6,8.2-10.5,10.6-1.2.2-.9,3.2.9,3.3,1.4-.2,4.2-1.7,5-2.5,2.9-2.2,4-3.6,6.9-6,1,1.5,1.6,2.6.2,3.8l-7.5,6.7c-1.1,1.1-.3,2.2,1,2,2-.2,3.8-1,5.3-2,2-1.2,3.5-2.9,5.2-4.7,0,.2,1,1.3.9,1.3-1.4,2.2-3,4.2-4.8,6.6ZM130.35,105.04c-1.1,11.2-3.9,22.51-9,27.71-4-7.9-6.8-17.01-9.6-25.01,2.2-2.8,5-7,6.2-10.2.6-1.6,1.5-1.9,3-.8,3.3,3.1,6.2,5.6,9.4,8.2v.1ZM143.65,265.5c-.6,2.79-2.44,5.15-5,6.4-2,1-5.2,2.3-8.8,2.3-1.7,0-3-.4-3.2-1.9l-3-15.01c0-1.2,1-2.8,2-3.8,3.2-3,7.4-3.9,11.8-4.1,1,0,4,1.3,4.5,2,.9,4.7,1.4,9,1.7,14.01v.1ZM103.04,205.18c-6,1-11.2,6.3-10.3,8.4.1,4.7,1,9.1,3.6,13.1,1.5,2.4,2.7,3,5.2,1.3,7.57-4.21,13.76-10.54,17.81-18.21,1.2-2.2-1.2-2.9-3.4-4-3-1.4-6.1-1.4-7.8-.6-1.7.9-2.3,2.7-2.6,4-1.9,6.8-2.3,7-4.3,9.4-1.16-4.53-.52-9.34,1.8-13.4ZM143.35,460.67c.3-.8.5-1.3,1.2-1.4,1-.2,3.7-.2,4,0,5.3,1.5,10.2-2.3,15.11-3,1.1-.2,2.4-.4,3.7-.2,3.2.1,6.5.2,10.1-.7,1.5-.6,3.4.2,5.1,1,5.7,2.4,11.2,3.8,16.71.6,2.9-2,5.8-3.8,8.8-5.3,5.1-2,5.6,1.4,5.8,3.3-.46,1.33-1.49,2.39-2.8,2.9-17.71,6.3-33.01,6.4-52.82,4-5.03.45-10.11.04-15.01-1.2h.1ZM32.51,274.5c-.4,2.4.4,6,2.3,8l.9.8-.5,1.5c-3.07-.07-6.12-.47-9.1-1.2-1.3-.5,2.3-2.4,2.6-4.7.6-4.5,1.9-12,1.9-17.51,0-1-2.4-2-2.4-2.8.15-.74.53-1.41,1.1-1.9,6.6,1.6,7.5,1.5,8.8,4.6,1.3,2.8,2.5,7.4,4.5,10.8.3-.2.9-.4,1.2-.7.3-3,.2-7.5.3-9.6.1-1.7.9-2.5,2.7-2.5,1.3,0,4.8.1,6.2.4.2.3.2.5.2,1,0,.8-1.1,1.1-1.4,1.2-3.1,1.1-3.3,1.4-4.7,10l-1.5,9.8c-.2.8-.3,2.3-.8,3.3-.8,0-2.3,0-2.6-.8-2.1-5.2-5-10.8-7.6-15.51h-1c-.7,2-.7,4-1.2,5.9l.1-.1ZM237.29,320.42c.3-2,.3-4,0-5.7-1-3.2-2.5-6.3-2-9,1.4-4.9,2.4-10,2-15.01-.76-6.19-.59-12.46.5-18.61,1.7.6,3,1.7,3.4,2.8.4,2,.9,4,.9,5.7.6,5.3.2,10.4-.1,15.61-.8,10-1.7,19.31-1.4,29.21.2,1.5.5,3.4,1,4.8,1.2,3,.6,6.3-1.8,9.7l-1.5-.7c-1.1-4.1-4-9.8-5.1-14.31-.2-.8,0-1.5,1-1.7,2-.3,3.1-1.5,3.2-2.8h-.1ZM334.12,246.39c-4-.4-8.3-4-8-10.5-2,2.7-4.5,5.5-6.8,6.6.2,2.2,5.7,5.4,9.5,7,2.2,2.8,3.7,4.2,6.5,7.4,1.7-4.3,3.8-8,4.4-10.3.14-5.22-.95-10.39-3.2-15.11-3.1-3.5-8-6.3-12.7-9.4-2.3,2.5.6,7.9,6.4,11.1-1.3,3.6-1.1,9,4.6,12.1l-.7,1.1ZM55.82,236.39c2.9-.2,6-.6,9.4-1.1,2.2-.6,4.7-1.1,4.8-4,.2-2.4-2.8-3.8-4.8-4.4-9.83-2.37-20.17-1.31-29.31,3-2.5,1.3-4.6,2.7-6,4.2-2.2,2.4-1.8,3.9,0,5.2,1.8,1.4,4.5,2.9,8,3.7.4-2,.8-5.4,1.5-7.4,3.2-5.2,12.1-6.2,18.31-6.4,1.5.3,1.5,2.2.3,2.6-1.8,1.4-5.3,1-6.2,2.6,0,1.5,1.5,2.1,4,2ZM75.73,290.41c-.1-1.1,1.2-2.5,1.3-3.3.3-1.5.3-3.5.3-5,.2-4-.7-10.6-.7-14.51l2.2-1.4c.7-.3,1.3.2,2.1,1,1.9,1.8,6,6.4,8,8.2.2,0,.5-.5.6-.6v-3c0-2-.4-3.5-1-5.7-.7-2.5-2.5-4.3-.5-4.5l7.6-.5c-.7,1.5-1.3,2.6-1.6,4.8-.3,3-1,5.9-1,8.8.4,4.4,1.3,8.9,1.7,12.6,0,.3-.6.7-1.1,1-.81-.32-1.56-.8-2.2-1.4-3.7-3.8-6.3-7.2-11.1-11.8-.41.59-.65,1.28-.7,2,1,3,2.1,6.2,4.1,9,1.2,1.6,1.5,2.1-1.6,3.3-1.7.5-4.5,1.3-6.3.9l-.1.1ZM211.78,291.21c4.4-2.7,6.2-11.7,5-16.01-.15-1.15-.63-2.23-1.4-3.1-1.4-1.4-3-1-3.7,1.4-.9,3.5-1.3,7.2-1.7,10.5-3.27-.6-6.61-.71-9.9-.3-3.3.5-9.8,2.4-9.8,6.4,0,6.5,15.01,5,21.51,1.1ZM238.09,246.19c-.09,1.9.55,3.76,1.8,5.2,6.7,7,16.01,14.21,21.81,15.61,5.2,1.4,9.6,4.5,12.8,8.7l3,4.2c2.3,2.8,5.2,4.6,9,5.2.7.2,1.6,0,2.3,0-.6-2.3-.6-2.6-2.2-4.3-13.81-12.3-28.41-21.91-42.62-31.81-1.4-.9-4-2.5-6-2.8h.1ZM94.13,404.45v-.2c-1.4-5.9-3-11.5-4.4-17.21-1.2-2-3.2-.6-3,.3-1.5,4.1-3,8.3-4.3,12.7-.45,1.3-.45,2.71,0,4,2.2,6,4.3,12.1,6.7,18.31.4.8,1.5,1.3,2.1,1.8.6-.7,1.4-1.6,1.6-2.3l1.3-17.41ZM118.54,258.4c.4,1.2,1,2.6,1.1,3.9.1,1,.1,1.7-.2,2.2,0,.3-.6.2-1.2,0-2.9-1.4-6.1-3.2-8.7-1.5-1,.7-.6,2.4.6,3l8.2,3.3c3.7,1.4,4.7,3,4,7.4-.7,4.2-3.8,5.9-7.4,6.9-1.5.4-3.1.6-5.1.4-.3,1.3,0,2.8-.9,3.3-.6.4-.8.3-1.5.6-1.43-3.24-2.37-6.68-2.8-10.2,0-.8.3-.9.6-1.2,1.2.4,2.3,2,4.2,3.8,2.2.8,6,1.4,6.6.8,1.1-1.4,1.6-2.3,1.6-2.8,0-1-1.3-1.9-2.5-2.3-2.8-1.6-4.4-2.2-7.4-3.4-2.8-1.1-3.3-3.6-3.3-6s1.4-5.2,5.4-6.5l4.6-1.3c.4-.8.7-3.6.7-4.1.6-.1,1.8-.3,2,.1l1.4,3.6ZM60.52,83.13c-5.7,0-9.2-1.4-14.81-.9-4,.3-7.9,2-11.8,3.5-2.3,1.2-1.9,2.2.2,3,2,1,3.4,1.5,5.4,1.4l36.01-3.3c.7-1,1.2-1.7,1.9-3.2-4.4-2.9-10-2.3-15.41-3.9l-1.5,3.4ZM192.97,255.49c-.5.3-1.3,1-2.7,2.4-.65.71-1.43,1.29-2.3,1.7l-1.6-1,2.6-6c.9-2.3,1.8-2.6,4-1.1l2,1.7c1.8,1.4,4,2.5,6,1.6,2-1,1-3.8-1-4.8-3-1.9-5.3-2.4-9-4.6-2.1-1.3-3-3.3-3-6.1,0-2.3,1.5-5.1,4.5-5.4,1.1-.3,2.5-.3,4-.3,2,0,3.3-.3,4.5-2,1-1.1,2-1.9,2.3-.6.7,3.4.3,7-.6,9.1-.6-.1-1-.1-1.7-.4-1.7-2.8-4-4.1-6-3.8-1.9.2-2.8,1.6-1.4,3.1,2.5,2.6,6,4,9,5.7,4.3,2.3,4,5.6,3.5,8-.51,3.04-3.23,5.2-6.3,5-2.2,0-4.3-.6-6.8-2.2ZM184.57,246.89c.4,7.2-5.4,9.8-9.5,9.7-3.8,0-6-.8-7.4-4.6-.6-2.3-1.4-9-1.8-11.6-.8-1-2-1.3-4-1.8-1-.2-1-1-1.2-1.8,1.4-.7,3.9-1.4,5.6-1.7,4.1-.6,4.1-.4,4.8,3.4.5,4.2,1.2,8.7,2,13,1.4,4.2,5.9,3.3,5.9-.3,0-3.3.2-7.1,0-10.7-.7-.8-1.9-2.6-3.2-3.8-1.6-1.9-1.6-2.4.6-3.3,5.2-2,5.6-3.3,6.3,3.6.3,2.6,1.9,6.6,1.9,10v-.1ZM189.37,283.6l13-3c3.5-1,5.4-4.7,5.2-8-.4-2.5-1.9-3.9-4.5-4.4-5.71-.61-11.47.18-16.81,2.3-.4,4.4,1.2,9.3,3.1,13v.1ZM69.63,237.19c-1.6,0-3.9.4-5.5.9-3.3.8-5,1.1-8.2.8-1.9-.2-4.9-1.4-6.6-1.8-2,.1-4,2-4.7,4.7-.4,2.8,1.3,4.8,4.4,5.3,6.2,1.4,12,2.5,17.91,2.5,2.2,0,2.5-.3,2.6-2.1.2-3.5.1-6.5.1-10.3ZM218.68,104.14c-2.82-.52-5.57-1.36-8.2-2.5-.9-.3-1.5-2.6-1.5-3.8.2-3.2-.6-6.5,0-10,.2-1.8,1.3-2.3,3-2l7.3,1.9c3.2,1.3,7.9,10,6.5,13.1-1.4,2.8-3.9,3.2-7,3.4l-.1-.1ZM164.76,256.59c-.7,1-1.58,1.85-2.6,2.5-3,2-8.6,3.3-12.4,5.8-1.9,1.3-1-3.2-1.1-4.9l-2-10.4c-.66-2.12-1.83-4.04-3.4-5.6-1-1.3,2-1.8,3.7-2.3l6-1.9c2.3-.7,2.8.9,2.2,1.4-3.1,2.2-2.8,3.2-2.5,6,.5,2.9.5,6,.6,8.3.5,1.1,1.1,2.6,2,3.6,1.8-.5,3.9-2,3.9-2.5l.4-6c2.3-2.7,2.6-1.4,3-.1,1,2.2,1.4,3.6,2.2,6.1ZM174.06,190.57c-1.3-4-2.6-8.3-3.6-12.4-.3-1.7,1.1-2.7,2.7-2.4,5.6,1.2,11,2.5,16.71,4,1.8.4,1.8,1.9.6,3.1-3.6,3.7-7.4,6.9-12.4,9.1-2.6,1.4-2.6.4-4-1.5v.1ZM415.15,42.82c-1.03-5.51-3.17-10.76-6.3-15.41-2.6-3.2-5.6-3.5-8.4-.6-1,1-1.8,1.9-2.4,2.8-2.8,3.6-2.6,4.7,1.6,6.7,6.4,1.9,10,5.6,14.51,10.3l1-3.8ZM119.54,404.65c-3.27,1.84-6.1,4.37-8.3,7.4l-5.8,10c-.7,1.6-1.8,5.5-2.2,8l1,1c2.98-1.69,5.76-3.7,8.3-6,4.7-4.6,5.8-9,8.4-18.31l.5-1.1-1.9-1ZM529.7,21.81c-2.5-5.2-7.1-12.2-9-14.71-2.6-3.2-3.8-3.4-6.6-.6l-2.5,2.8c-2.8,3.5-4.5,7.8,0,8.4,4,.7,9.3,0,11.8,1.8l5.4,3.6.9-1.3ZM57.72,271.9c-.7,6.9-.5,6.9-.5,11.6,0,2.6,1.2,2.6,3.5,2.8,2.1,0,2.8-1.9,3.3-4.4l1.4-9.4c.3-3,.5-4.8-1.3-5.1-3.5-.5-6,1.7-6.4,4.6v-.1ZM94.03,146.05c-3.02-.62-5.94-1.63-8.7-3-4.7-2.4-9.1-7.5-8.4-12.1.4-2.2,1.6-2.8,3.4-1.8,3.6,2.6,6.6,6.5,9.2,9.3,2.1,2.2,3.7,4.7,4.6,7.6h-.1ZM129.05,256.69c0,1.9,1.6,7.4,2.2,10.5.2,1.7.6,3,3,2.7,3.2-.5,4.3-1.8,3.8-4.4-.3-2.8-1-5.7-1.6-8.7-.6-2.8-1.8-4.4-4.3-4.3-2.6.3-3.5,1.2-3.2,4.2h.1ZM267.2,81.03c-2,3.5-3.7,7-6,10.1-1.8,2.6-4.6,4.1-7.1,6.3-2.4.6-2.5.4-1.7-2,3.6-6,7-10.6,11-15.71,2.8-1.5,3.8-.3,3.7,1.3h.1ZM453.97,177.67c0,2.2-.4,4.3-1.1,6.4l-.6.3c-2.9-7.3-9.9-19.01-9.4-20.21-.2-.8,1.7-1.3,2.5-1.1l3.2,1.3c1.8,4.3,3.7,8.4,5.4,13.3ZM474.28,23.41c.3,0,1.5.4,2.3,1.1,1.4,1.1,1.6,2.4-.3,3.2-4.4,2-11.7,6-16.51,7.7-.9.5-2,.6-1.5-1.1.9-2.8,12-11,16.01-11v.1ZM315.02,225.58c-3,0-5.6,2.4-5.6,4.8,0,2.7,3.5,5.6,6.6,5.6,2.8,0,4.7-1.8,4.7-4.6.2-3.4-2.2-5.8-5.7-5.8ZM69.63,460.67c-.6,0-1.8,2-2.8,2.1-3.8.3-5,.7-5,2.3,0,2.1,1,3.2,2.8,2.7,5.6-1.7,6.9-1.5,14.21-1l2.5-3c-.9-.7-1.5-1.6-2.5-1.9-3.05-.75-6.17-1.15-9.3-1.2h.1ZM397.65,192.67c-1.2.7-2.2,1.5-1.9,2.9l1,2.2c2.1-.4,4.5-.6,6.8-.4,3,1,8,2,11.1,2.6.8.2,1.7-.6,2.3-1.4l-.7-1.2c-4.3-4.3-11.4-4.4-18.61-4.6v-.1ZM192.47,98.54l-7.6-3.4c-.5-.2-.8-1.6-.3-2.2,1.7-2.5,3.4-4.8,5.2-7,1-1,1.7-.9,2.1.3l3.8,9.5c.8,1.9,0,2.6-3.2,2.8ZM92.33,192.07c1.8-.4,2.7.8,2.5,2.4-.2,1-.5,1.3-2,2-5.8,1.9-11,1.8-17.01.6-1.8-.2-3-.6-3.3-1,.49-.81,1.28-1.39,2.2-1.6l17.61-2.4ZM145.75,42.72c-.6.1-1.2.6-1.6.3-5-2.8-12-6.5-16.51-9.4-1-1.5-.4-2,1-1.8,3.7,1.2,10,3,13.61,4.4,2.4,1.2,3.1,3.3,3.5,6.5ZM221.58,151.36c.6.9,1.1,1.7-.4,4.2-2.6,4-3.2,8-4.9,13.3-.4,1.2-1.1,2.4-1.7,3.2-.5.6-1.4.8-2,1.1-.2-.6-.6-1.5-.5-2l5-16.41c.8-2,2.3-3,4.5-3.4ZM403.45,96.54c-6.78-1.51-13.35-3.79-19.61-6.8-2.1-1.9-1.7-1.8,1-1.9l18.41,5c3.5,2.6,2.8,2.5.2,3.7ZM327.62,213.08c-.46-1.48-1.46-2.72-2.8-3.5-1-.5-2.7-.3-3.7.6-1,.6-2.2,1.6-3,2.6-1.4,2-.5,3.9,1.7,5.5,1.8,1.3,3.9,1.2,5.1-.6,1.1-1.4,2.1-2.4,2.7-4.6ZM204.98,123.05c-.7,1.5-.9,2.9-1.8,3.9-2.5,3-5.3,5.8-8,8.7-2.7,1.2-2.8-.4-2.5-1.7,2.5-4.7,6-8.6,9.3-12.4.3-.4,1.4-.7,1.8-.4.5.3.8,1,1.2,1.9ZM99.84,97.54c-.7.4-10.5-15.01-11.7-18.01,0-.6,1.6-1.8,2.4-2.4.6.4,1.4,1,1.7,1.5,3.1,6.7,8.6,18.01,8.2,18.51l-.6.4ZM95.64,158.86l-4.2-1.9c-3,.7-5.6,2-9,2.5-3.6.2-5.1-.5-6.5-1.4.5-1.2,2.5-2.3,5.4-2.8,1.7-.3,9-1,15.41-.4l-1.1,4ZM474.68,80.53l10.8,8.1c1,.8.9,2.3,1.3,3.2l-2.4-.3c-4.6-2.3-9.5-4.2-12.5-8.7-2.6-3.9,1.6-3.4,2.8-2.3ZM200.97,93.93l-1.2,1.9c-.4-.6-1-1.1-1.4-1.9-.9-1.8-.9-4-1-6-.6-4.6-.4-7,2.4-9.9,1.2-1.3,2-.5,2,.7.3,5.8,0,9.5-.8,15.21ZM131.75,76.93c1,.5,2.8,11.5,4,17.21.3,1.3.2,3,0,4.2-.5,1.3-1,1.6-2,.5-1.9-5.9-2.8-11.8-3.8-17.41-.3-1.7-.3-3.5,1.8-4.4v-.1ZM447.57,144.35c4.4,2.5,9.6,7,11.8,9.6.5.5.3,2,0,3.1-.8-.3-1.6-.3-2.2-.8-3.7-2.3-7.1-5-10.6-7.4-.4-.3-.5-3-.9-3.6.53-.5,1.19-.85,1.9-1v.1ZM243.99,48.42c.7.5,1,1,1.5,1.6-.33.7-.85,1.29-1.5,1.7-3.2,1.2-10.6,1.2-13.61-.6-.61-.53-1.15-1.13-1.6-1.8l2.1-1.2c4.4-1,9.3-.6,13,.4l.1-.1ZM327.72,66.32c3,4.6,4.3,9.1,5.6,14.11,0,.3-.2.4-.2,1.2-.7-.5-1.1-.6-1.4-1-3.57-3.33-6.14-7.59-7.4-12.3-.4-1-.2-2,1.2-2.8.79.09,1.54.36,2.2.8ZM269.8,384.94c3.6-2,4.6-3.6,7.7-5.5,1.3-.8,1.2-1,.5-2.2-.7-1.4-1.4-1.4-3.2-1-3.5,1.3-4.9,2.1-8.4,3.5-1.5.6-2,1.2-.5,2.4l3.9,2.8ZM160.76,54.82c4.3-3,9-4.5,13.71-6.3.8-.2,1.9.1,2.7.9l-1.6,1.4c-3.8,2.7-7.5,4.7-11,6.8-1.1,0-2.8-.3-3.8-.6-.3-.7-.3-1.5,0-2.2ZM49.52,146.05c-1-5-2.4-11.1-1.5-15.61.2-1,.9-1.9,2-2.8.8.9,1.8,1.5,1.9,2.3.9,5.3-.6,11.2-1,16.01l-1.4.1ZM291.91,33.71c3.2-2.6,8.6-5.4,12.5-7.3-3.3,5.38-7.66,10.04-12.8,13.71-.3-2-1-5.3.3-6.4ZM232.29,228.18c0,2,1,4.3,2.6,5.9,1-.8,1.7-2.2,1.7-2.8.4-4,.6-8,.6-12,.5-1.6-1.8-2-2.4-.4-.9,3-2.4,6.2-2.5,9.3ZM436.76,389.24l-17.21,5.8c4,4.5,15.61.8,17.21-5.8ZM183.17,76.53c.3,4.6-.6,10.3-3,14.51-.4.5-1,.9-1.8,1.4-.2-.8-1-1.4-.9-2,1-4.7,2.1-10.2,3.3-14.91.1-.3.9-.5,1.3-.6l1.1,1.6ZM424.26,405.65c3.7,0,7.3,0,10-.8,2.6-1.6,2.5-4.9,3.3-7.1l-1-.3-4,3.7c-2.76.77-5.56,1.34-8.4,1.7-.5.6-1,1-1.3,1.7.5.6,1,1.1,1.5,1.2l-.1-.1ZM389.84,221.28c1.2-2.7,2.3-5.2,3.2-7.7.2-.5-.6-2-1.6-2.9-.71.23-1.39.57-2,1-2.19,2.48-4.04,5.24-5.5,8.2.4.6,2.2.6,5.8,1.4h.1ZM101.64,148.25l3.6-9.2c.6-.2,1.2-.2,1.7,0,.5,2.9,0,7.3-.2,9.1-.6,2.5-1.5,4-3.7,5.1-.75-1.57-1.22-3.27-1.4-5ZM311.72,216.68c-2.5,0-4.5,1.5-4.7,3.7,0,1.9,2,3.6,4.3,3.6,2.4-.1,4.1-1.8,4.3-3.9,0-2.2-1.4-3.4-3.9-3.4ZM309.51,239.59c0-2.5-1.5-4.2-4.2-4.2-2.2,0-3.7,1.4-3.7,3.3,0,2.3,2.3,4.5,4.6,4.3,2,0,3.3-1.5,3.3-3.4ZM300.11,216.08c0,2-1.3,3.3-3.3,3.3-2.6,0-4.6-1.6-4.6-4,.15-2.02,1.78-3.61,3.8-3.7,2-.2,4,1.6,4,4.4h.1ZM301.71,225.38c-2.2,0-3.7,1.4-3.7,3.3,0,2,2,3.7,4.2,3.7,1.7,0,3.3-1.8,3.3-3.7,0-1.8-1.6-3.3-3.8-3.3ZM277.3,391.84c-3,0-5.4,1.4-5.3,3s2.4,3.7,4.1,3.7c2,0,3-2,3-4.4-.2-1.9,0-2.3-1.8-2.3ZM99.84,39.51c-1.2-5.4-.99-11.01.6-16.31,2.4,4.8,2.6,12.7-.6,16.31ZM309.31,202.57c-1.5,1-2.8,2.5-2.6,3.1.2,1.1,1.4,2.1,2.1,3.3,1.14-.69,2.03-1.75,2.5-3,.3-.7-1-1.9-2.1-3.4h.1Z"/>
</svg>