<?xml version="1.0" encoding="UTF-8"?>
<svg id="_图层_1" data-name=" 图层 1" xmlns="http://www.w3.org/2000/svg" version="1.1" viewBox="0 0 70.9 70">
  <defs>
    <style>
      .cls-1 {
        fill-rule: evenodd;
        stroke-width: 0px;
      }

      .cls-1, .cls-2 {
        fill: #17445a;
      }

      .cls-2 {
        stroke: #fff;
        stroke-miterlimit: 10;
        stroke-width: .2px;
      }
    </style>
  </defs>
  <path id="svg_6" data-name="svg 6" class="cls-2" d="M33,9.9c2.3-1.8,5.3-.3,7.3,1.4,2.1,1.6,4.2,3.4,6.1,5.2l.3.2c5.2,4.9,10.1,10.2,14.1,15.9.7,1,1.2,2.1.9,3.4-1.3,3.3-4,6-6.4,8.9-5.1,5.5-10.5,10.8-16.5,15.1-1.2.9-2.9,1.7-4.3,1-4.4-2.3-8.2-6.1-12.1-9.6-4.5-4.2-9-9-12.4-14.1-.5-.7-.6-1.6-.6-2.5.4-1.8,1.6-3.2,2.8-4.7,4-5.1,9-10,14-14.5.1-.1.3-.4.5-.5,2.1-1.9,4.3-3.5,6.5-5.1h0s0,0,0,0ZM39.8,4.5l-2.7-3.8c-.3-.2-.7-.5-1.1-.6-.8-.3-1.6,0-2.3.6l-4.8,6.2c-7.7,9.5-16.8,18.4-26.7,25.2-.8.6-2,1.2-2.2,2.2-.3.9.2,1.7.8,2.2,8,5.5,15.6,12,22.3,19.4,1.2,1.3,2.2,2.5,3.4,3.7,2,2.6,4.3,5.3,6.1,8.1.6.6.7,1.6,1.6,1.9.7.2,1.6.4,2.2,0l.7-.7c8.2-11.7,18.7-22.1,30.3-30.6,1.2-1,3.4-1.4,3.4-3.4,0-.9-.6-1.8-1.4-2.3h-.2c-6-4.1-11.6-8.7-16.9-14l-5.8-6.1c-2.4-2.6-4.7-5.5-6.8-8.3h0s0,0,0,0ZM33.8,11.3c2.4-1.6,4.5.6,6.4,1.9,7.2,5.8,13.9,12.4,19.1,19.8.7,1,.9,2.5.4,3.5-1.3,2.2-3.1,4.3-4.8,6.3h0c-4.3,4.7-8.8,9.3-13.6,13.2-2.4,1.5-4.5,4.6-7.6,2.7-7-5.1-13.6-11.4-19.3-18.2-1-1.5-2.4-2.7-3.1-4.4-.9-2.3,1.1-3.9,2.3-5.7,5.8-7.1,12.9-14.1,20.4-19.2h0s0,0,0,0h0ZM35.3,16l-.7,2.1-3.2,9.3c.8,0,1.8,0,2.6,0h0c0,0-.5,10.6-.5,10.6h0c1,.2,2.3.3,3.4,0v-.2l-.4-10.2v-.4c0,0,2.9,0,2.9,0-1.4-3.8-2.8-7.6-4.2-11.4h0s0,0,0,0ZM24.2,30.6c-1.8.9-4.5,2.3-4.2,4.8.4,1.4,1.9,2.2,3,2.8,6.5,2.8,15.1,3,21.9.8,1.7-.7,4-1.6,4.3-3.7,0-1.7-1.8-2.8-3.1-3.4h0c.5-.3,1-.4,1.4-.5h0c-2.3-.5-4.5-1.1-6.7-1.6.4,1,.7,2,1.1,3,.7-.2,1.3-.4,2.1-.5,1.2.5,2.8,1.1,3,2.6.1,1.4-1.4,2-2.3,2.6-5,1.8-10.6,2-15.9.6-1.4-.5-3.5-1-3.7-2.9,1-2.4,3.7-2.9,5.9-3.5-1.1-.7-2.3-1.4-3.4-2.2-1.2,0-2.3.6-3.4,1.1h0ZM33.5,41.1c-.2,3.7-.2,7.2-.5,11,1.5.1,3.2.3,4.7,0l-.5-10.5v-.5c-1.3,0-2.4,0-3.7,0h0Z"/>
  <path id="svg_7" data-name="svg 7" class="cls-1" d="M47.3,62.5c-1.3,0-2.5.9-2.5,2.5s1.2,2.5,2.5,2.5,2.5-.9,2.5-2.5-1.2-2.5-2.5-2.5ZM47.3,66.9h0c-1,0-1.8-.8-1.8-1.9s.8-1.9,1.8-1.9,1.8.8,1.8,1.9-.8,1.9-1.8,1.9ZM48.4,64.4c0-.6-.4-.8-1.1-.8h-1v2.6h.6v-1.1h.3l.6,1.1h.7l-.7-1.2c.4,0,.6-.2.6-.7h0ZM47.4,64.7h-.5v-.6h.4c.2,0,.5,0,.5.3s-.2.3-.4.3Z"/>
</svg>