<svg width="71" height="71" xmlns="http://www.w3.org/2000/svg">

 <g>
  <title>Layer 1</title>
  <path id="svg_6" fill="#fff" d="m32.95,9.86c2.34,-1.82 5.29,-0.31 7.26,1.37c2.06,1.58 4.21,3.36 6.1,5.19l0.34,0.2c5.22,4.85 10.07,10.23 14.06,15.93c0.65,0.99 1.22,2.11 0.86,3.43c-1.33,3.32 -4.03,5.97 -6.39,8.87c-5.11,5.5 -10.5,10.82 -16.53,15.06c-1.22,0.86 -2.87,1.66 -4.33,0.97c-4.44,-2.32 -8.18,-6.13 -12.07,-9.6c-4.51,-4.18 -9.03,-9.05 -12.45,-14.13c-0.51,-0.71 -0.65,-1.6 -0.64,-2.54c0.44,-1.76 1.64,-3.2 2.78,-4.68c4.04,-5.14 8.98,-10.02 13.97,-14.48c0.12,-0.11 0.33,-0.36 0.51,-0.47c2.14,-1.85 4.27,-3.5 6.52,-5.11l0,0l0.01,-0.01zm6.86,-5.35l-2.65,-3.76c-0.33,-0.2 -0.73,-0.53 -1.09,-0.62c-0.78,-0.34 -1.63,0.07 -2.26,0.56l-4.8,6.25c-7.69,9.52 -16.8,18.42 -26.74,25.24c-0.79,0.61 -1.95,1.21 -2.2,2.23c-0.26,0.91 0.21,1.66 0.78,2.23c7.96,5.48 15.57,11.99 22.34,19.41c1.2,1.26 2.18,2.52 3.35,3.7c1.98,2.64 4.31,5.29 6.13,8.12c0.57,0.6 0.67,1.58 1.56,1.87c0.7,0.24 1.56,0.41 2.23,0l0.66,-0.67c8.24,-11.67 18.68,-22.14 30.35,-30.6c1.17,-1.04 3.4,-1.43 3.43,-3.37c-0.08,-0.89 -0.6,-1.77 -1.37,-2.26l-0.19,-0.03c-6,-4.08 -11.6,-8.7 -16.87,-13.95l-5.83,-6.09c-2.36,-2.62 -4.65,-5.51 -6.83,-8.28l0,0l0,0.02zm-6,6.79c2.39,-1.63 4.54,0.65 6.4,1.95c7.17,5.77 13.94,12.38 19.1,19.84c0.65,0.96 0.94,2.46 0.36,3.55c-1.34,2.23 -3.14,4.27 -4.85,6.33l0,0.11c-4.26,4.54 -8.77,9.2 -13.63,13.05c-2.37,1.45 -4.55,4.6 -7.61,2.65c-6.96,-5.09 -13.63,-11.42 -19.28,-18.21c-0.96,-1.49 -2.45,-2.71 -3.12,-4.41c-0.93,-2.29 1.12,-3.94 2.29,-5.66c5.76,-7.11 12.92,-14.07 20.35,-19.21l0,0l-0.01,0.01zm1.51,4.68l-0.65,2.08l-3.25,9.32c0.81,0.08 1.82,0 2.62,0.08l0,0.08l-0.48,10.54l0.08,0.11c1.04,0.1 2.34,0.15 3.4,-0.03l0,-0.17l-0.42,-10.23l0.06,-0.35l2.86,-0.05c-1.43,-3.77 -2.81,-7.58 -4.15,-11.4l-0.08,0l0.01,0.02zm-11.08,14.6c-1.82,0.92 -4.51,2.3 -4.21,4.8c0.39,1.37 1.87,2.25 3.04,2.81c6.47,2.85 15.07,2.95 21.9,0.82c1.69,-0.65 3.95,-1.59 4.26,-3.66c-0.02,-1.71 -1.83,-2.78 -3.12,-3.44l0,-0.08c0.45,-0.18 0.97,-0.34 1.44,-0.39l0,-0.05c-2.29,-0.41 -4.5,-1.01 -6.72,-1.6c0.43,0.97 0.73,2 1.09,3.01c0.67,-0.21 1.35,-0.38 2.07,-0.47c1.17,0.45 2.84,1.11 3.01,2.57c0.13,1.37 -1.37,2.03 -2.31,2.59c-5.01,1.82 -10.65,2 -15.88,0.62c-1.44,-0.46 -3.53,-1.04 -3.71,-2.88c1.03,-2.42 3.68,-2.92 5.89,-3.51c-1.14,-0.73 -2.3,-1.38 -3.4,-2.2c-1.19,0.07 -2.28,0.59 -3.35,1.06l0,0zm9.25,10.51c-0.19,3.74 -0.24,7.21 -0.52,10.96c1.48,0.13 3.15,0.26 4.73,0.03l-0.47,-10.46l-0.08,-0.5c-1.2,0.05 -2.34,0.1 -3.66,-0.04l0,0l0,0.01z" class="c"/>
  <path id="svg_7" fill-rule="evenodd" fill="#fff" d="m47.32,62.51c-1.31,0 -2.47,0.91 -2.47,2.46s1.16,2.47 2.47,2.47s2.47,-0.91 2.47,-2.47s-1.17,-2.46 -2.47,-2.46zm0,4.36l0,0c-0.98,0 -1.76,-0.76 -1.76,-1.9s0.79,-1.89 1.76,-1.89s1.77,0.75 1.77,1.89s-0.81,1.9 -1.77,1.9zm1.1,-2.42c0,-0.61 -0.4,-0.8 -1.09,-0.8l-0.99,0l0,2.65l0.57,0l0,-1.12l0.27,0l0.61,1.12l0.68,0l-0.68,-1.16c0.36,-0.03 0.64,-0.2 0.64,-0.69l-0.01,0zm-1.01,0.29l-0.51,0l0,-0.64l0.4,0c0.22,0 0.51,0.02 0.51,0.3c0,0.29 -0.15,0.34 -0.4,0.34z" class="d"/>
 </g>
</svg>