<?xml version="1.0" standalone="no"?><!DOCTYPE svg PUBLIC "-//W3C//DTD SVG 1.1//EN" "http://www.w3.org/Graphics/SVG/1.1/DTD/svg11.dtd"><svg t="1739805404166" class="icon" viewBox="0 0 1024 1024" version="1.1" xmlns="http://www.w3.org/2000/svg" p-id="1560" xmlns:xlink="http://www.w3.org/1999/xlink" width="128" height="128"><path d="M564 64c218.704 0 396 177.296 396 396v104c0 218.704-177.296 396-396 396h-104c-218.704 0-396-177.296-396-396v-104c0-218.704 177.296-396 396-396h104z m180.428 585.536a2.856 2.856 0 0 0-3.96-0.792c-1.944 1.204-3.408 2.1-4.384 2.688-100.16 60.08-231.108 48.916-314.128 5.616a371.56 371.56 0 0 1-5.252-2.816l-8.12-5.072a3.2 3.2 0 0 0-4.316 4.552l6.424 9.156c1.64 2.012 2.884 3.508 3.72 4.492 83.232 97.604 243.88 99.304 326.508-9.852 0.692-0.916 1.72-2.304 3.08-4.168l0.42-0.632a2.856 2.856 0 0 0 0.008-3.172zM363.344 296H313.88l-1.096 0.016a38.4 38.4 0 0 0-36.76 31.94L208 727.516h83.032L363.344 296z m169.236-6.528c-93.548-27.468-140.32 56.152-145.096 81.68-4.776 25.536-24.14 125.968-30.532 160.144-6.392 34.176 2.912 64.996 26.62 84.652 55.392 45.92 155.04 8.44 171.76-71.52 2.38-11.404 4.464-21.56 6.308-30.72l0.836-4.16a2697.584 2697.584 0 0 0 12.168-64.848l0.448-2.536 0.456-2.572c0.3-1.708 0.6-3.416 0.908-5.128l0.456-2.572c1.76-9.88 3.612-20.06 5.944-32.128 8.92-46.16-4.168-96.752-50.28-110.292z m230.516 0c-93.544-27.468-140.32 56.152-145.096 81.68-4.772 25.536-24.14 125.968-30.532 160.144-6.388 34.176 2.912 64.996 26.624 84.652 55.388 45.92 155.04 8.44 171.756-71.52 10.824-51.792 15.432-77.812 19.76-102.264l0.456-2.572 0.908-5.128 0.46-2.572c1.76-9.88 3.612-20.06 5.94-32.128 8.92-46.16-4.164-96.752-50.28-110.292z m-251.504 69.4l-31.184 173.652-0.212 1.096a41.6 41.6 0 0 1-40.732 33.152h-9.72l30.268-173.452 0.208-1.1a41.6 41.6 0 0 1 40.772-33.348h10.6z m230.52 0l-31.188 173.652-0.212 1.096a41.6 41.6 0 0 1-40.732 33.152h-9.72l30.268-173.452 0.208-1.1a41.6 41.6 0 0 1 40.772-33.348h10.6z" fill="#0082FA" p-id="1561"></path></svg>