<?xml version="1.0" standalone="no"?><!DOCTYPE svg PUBLIC "-//W3C//DTD SVG 1.1//EN" "http://www.w3.org/Graphics/SVG/1.1/DTD/svg11.dtd"><svg t="1739807859604" class="icon" viewBox="0 0 1024 1024" version="1.1" xmlns="http://www.w3.org/2000/svg" p-id="20342" xmlns:xlink="http://www.w3.org/1999/xlink" width="128" height="128"><path d="M329.064 151.578c-11.426-15.148-0.8-39.891 0-64.842-12.759-12.13-19.247-24.077-44.578-24.314l-6.079 4.052c-0.342 25.66 16.139 63 6.079 95.235-6.08 19.485-59.93 50.142-81.05 54.708l-32.422-6.077c-16.262 2.823-24.84 20.28-34.445 30.394 12.576 22.45 75.82 66.954 103.338 76.998l14.185-18.236c-2.343-28.75-24.666-33.66-38.5-50.656 4.336-14.306 50.239-33.834 62.814-40.526l4.053 2.027 2.025 85.103c-3.147 9.027-19.552 15.414-14.183 32.42l20.262 22.289v109.42c2.518 44.43-9.73 99.177 12.158 127.654h8.105c5.815-14.437 14.557-29.142 18.236-46.605 13.517-64.163-19.883-141.419 2.027-192.495 10.619-20.983 44.249-16.784 64.84-44.579v-2.026c-12.832-10.128-25.667-20.264-38.499-30.393-4.09-3.655-1.5 0.045-4.052-6.08 24.987-21.612 49.983-43.228 74.972-64.84l36.473-8.105c9.176-12.663-5.074-33.36-8.105-42.55-34.267-22.32-91.816-13.06-127.654 2.024z m28.368 139.812l-22.29 8.104c-2.026-2.026-4.05-4.052-6.078-6.077l14.184-16.212c7.203 3.624 9.983 7.892 14.184 14.185z m-32.42-44.578c-5.032-19.303-3.424-44.147 2.026-62.814 16.475-9.164 39.87-11.479 52.683-24.316 6.754 1.352 13.508 2.7 20.262 4.052l2.026 6.079c-8.728 14.535-62.28 73.162-76.997 77z m289.757 263.416c17.632 10.622 76.396-21.925 103.339-16.21 26.21 12.451 63.39 63.174 107.392 36.472 34.864-21.158 30.398-117 30.393-172.234-0.007-131.247-7.875-241.979-143.866-239.1-14.18 6.08-28.368 12.159-42.55 18.238-19.927 15.162-38.883 68.022-64.84 66.867h-2.026c-32.386 43.388-26.263 281.94 12.158 305.967z m42.551-332.31c15.552-20.108 38.292-29.14 58.763-44.578 113.3-2.071 113.445 128.606 113.47 237.073 0.01 46.432 4.867 109.847-14.183 139.814-16.06 22.423-57.062-3.447-70.92-10.131-4.903-8.48-2.814-14.612-6.078-24.316-5.4-4.052-10.809-8.105-16.21-12.157-26.34 8.104-52.685 16.21-79.024 24.316-10.265-9.131-12.701-31.3-16.211-46.604 37.82-12.835 75.65-25.668 113.47-38.5 9.917 14.758-7.621 36.69-12.158 50.656h6.08c14.03-10.62 29.098-45.412 22.288-68.892 2.026-0.677 4.052-1.354 6.077-2.026h2.028c13.507 20.259 27.015 40.525 40.525 60.788h6.078c6.467-19.677-33.295-61.892-40.525-89.156-0.676-24.313-1.352-48.632-2.026-72.945l-4.052-6.08h-8.107l2.027 56.737a7837.778 7837.778 0 0 1-6.08 4.05c-14.05-27.652-27.627-49.67-12.157-81.05l-26.343-20.262c-7.975-12.429-9.812-30.797-18.233-44.578-7.2 1.562-5.83 1.428-10.132 4.052 2.479 18.736 11.448 33.224 20.264 46.605l-68.893 54.709c-4.511 12.451 16.562 33.432 4.051 66.867 1.352 2.025 2.705 4.052 4.053 6.08 23.062-5.05 33.47-19.378 58.762-22.29v2.026c-18.483 25.064-48.05 48.46-79.024 60.788-1.353-0.676-2.702-1.354-4.055-2.026-19.042-83.144-0.25-181.492 36.475-228.97z m60.788 113.472c9.306 4.857 10.653 12.06 14.183 22.288l-28.368 10.132-4.053-2.026c6.08-10.132 12.158-20.265 18.238-30.394z m-50.657 42.55l-6.078-2.024c-9.004-37.427 26.603-40.695 44.578-62.815 2.025 1.35 4.052 2.701 6.076 4.053-3.599 26.698-26.687 47.768-44.576 60.787z m68.894 14.186l10.13 2.026c3.125 6.048 5.675 14.207 2.025 22.288-6.168 8.574-69.6 33.628-83.077 38.5h-10.131c8.585-34.303 54.136-45.518 81.053-62.814z m-97.262 480.757c-3.376 0.674-6.756 1.35-10.13 2.026-7.923-28.525-20.91-38.23-6.078-66.867-0.224-29.239-29.811-49.888-56.737-40.526-0.675-1.353-1.351-2.703-2.026-4.052 23.05-34.92 61.857-59.622 83.079-91.183 1.37-42.393-26.14-60.646-68.894-58.76-11.243 12.414-9.686 36.628-16.21 48.629-20.97 38.563-50.817 77.856-60.788 123.602 5.776 11.133 11.807 16.056 22.288 22.29 20.872-0.298 30.577-5.61 44.578-12.16h12.159c3.179 21.748-7.745 30.217-8.106 56.736l8.106 6.079c6.268 3.814 17.607-2.75 22.29 6.078 14.903 28.107-43.704 82.376-38.5 113.472l4.05 10.13c2.028 1.348 4.054 2.699 6.082 4.054 31.867-8.455 80.909-115.008 87.129-151.971h-2.027c-8.313 6.889-17.26 20.792-20.265 32.423z m237.074-4.052c-2.927-27.456 2.796-72.95 4.053-105.366 1.279-33.055 18.205-83.327 4.05-105.366-11.835-18.435-42.07-22.618-72.944-22.29-20.263 8.805-37.72 15.542-54.71 22.29-4.053 5.4-8.105 10.807-12.156 16.21 33.975-13.883 55.92-35.872 107.39-22.29 12.713 23.631 6.24 78.638 2.026 107.393l6.08 196.546-4.054 2.027c-20.345-2.274-34.553-12.582-50.656-20.262a5041.436 5041.436 0 0 0-4.053 4.05c22.622 18.766 40.79 55.842 74.973 60.79l16.21-16.21c-5.4-39.17-10.808-78.354-16.209-117.522zM239.91 693.123c-13.74-21.423 28.765-49.98 28.368-70.92 0.192-8.366-9.889-18.32-16.21-26.342-10.807-0.676-21.615-1.353-32.421-2.025-0.675 0.672-1.352 1.349-2.027 2.025l-4.052 2.026c-2.027 18.91-4.052 37.827-6.079 56.735-8.271 27.352-31.645 42.439-36.474 72.946 10.318 13.492 30.646 16.844 48.631 22.288l2.026 6.08c-16.778 22.62-46.343 37.93-79.024 44.577-7.537 10.054-10.843 14.502-10.131 34.447 2.026 3.376 4.052 6.757 6.078 10.131 30.787 12.843 55.186-27.78 79.024-24.314 2.027 1.347 4.053 2.698 6.078 4.052-11.974 27.69-18.266 51.918-40.524 68.893-11.533 8.793-28.261 12.074-36.473 24.316 4.861 8.361 8.712 10.675 16.21 16.21 86.211-6.68 53.699-92.79 89.156-125.63 15.415-11.836 32.634-5.924 40.525-26.34-9.768-13.004-17.155-9.875-34.446-16.212h-4.052c0.831-33.073 35.275-46.085 54.709-60.786 5.714-60.863-41.68-25.05-68.892-12.157z m-64.84 123.915v-2.027c10.34-15.447 32.927-26.245 48.63-36.471l4.053 6.078c-10.607 13.648-33.745 27.967-52.683 32.42z m607.88-580.359c6.843-4.028 7.074-6.625 10.13-14.183-0.969-16.877-8.008-28.868-20.263-34.447-4.564-3.651-7.014-3.94-16.21-4.052-7.428 8.78-14.861 17.562-22.287 26.342 10.318 8.685 34.148 30.633 48.63 26.34zM764.712 830.91c0.673-1.351 1.35-2.703 2.025-4.052 6.753-0.676 13.508-1.354 20.263-2.026l4.052-14.184c-7.94-10.092-20.343-14.513-26.34-26.341-0.674-4.053-1.353-8.106-2.028-12.157a174915.51 174915.51 0 0 1 32.421-26.343c0.677-1.353 1.353-2.701 2.027-4.052v-2.026c-5.875-3.541-14.545-4.875-22.288-8.105-5.39-3.289-2.838-0.613-6.079-6.078 18.145-18.224 36.386-32.182 48.631-56.736-7.204-11.92-6.947-19.756-24.318-22.288-4.11 3.02-5.253 3.558-8.103 8.104a5042.686 5042.686 0 0 0-4.054 4.052c3.376 2.7 6.755 5.404 10.131 8.107-1.596 25.542-13.984 29.7-22.288 46.605-10.774-3.202-11.92-6.994-12.158-20.264-13.38-1.884-12.762-5.632-22.287-10.132-1.353 0.674-2.705 1.35-4.054 2.027-3.063 22.895 8.581 35.368 14.184 52.682-13.57 5.261-29.452 12.482-40.527 20.264-3.176 14.607-0.847 20.358 10.13 26.34 10.131-4.73 20.266-9.458 30.396-14.183 0 0 12.046 96.702 12.156 99.287 13.508 3.375 27.02 6.752 40.526 10.13l8.106-14.182c-9.774-15.766-28.946-20.578-40.524-34.449z m-70.92-68.895c8.959-32.645 18.23-58.665 24.315-89.155h-4.055c-6.81 10.523-10.98 19.692-26.34 22.29-12.01 28.335-31.82 162.674-8.104 198.574l4.052 6.078h12.16c2.024-2.028 4.05-4.053 6.075-6.078 3.126-33.885-22.239-80.205-8.103-131.709z m-255.31-40.212c-6.753-0.677-13.509-1.353-20.262-2.025-25.915 18.676-64.32 25.371-89.156 42.55-4.052-4.727-8.104-9.457-12.157-14.183-2.026 0.674-4.053 1.349-6.078 2.025-3.301 30.106 5.953 106.49 32.42 111.445l81.051-24.314c2.7-4.73 5.404-9.46 8.104-14.183l-10.13-18.238c9.848-20.128 19.926-35.902 32.42-52.682-0.313-17.015-3.765-25.328-16.212-30.395z m-70.92 101.315h-8.106c-4.051-14.86-8.103-29.722-12.157-44.578 11.92-20.671 30.822-17.313 54.71-26.342 2.026 0.673 4.05 1.35 6.078 2.026h4.052c-3.085 34.482-22.163 53.035-44.577 68.894zM250.04 849.145c-6.071 24.751 13.45 47.477 24.315 62.814 4.052 0.674 8.106 1.35 12.158 2.027 6.078-6.755 12.157-13.511 18.237-20.262-2.92-30.66-25.69-40.387-54.71-44.58z" fill="#D81E06" p-id="20343"></path></svg>