<?xml version="1.0" standalone="no"?><!DOCTYPE svg PUBLIC "-//W3C//DTD SVG 1.1//EN" "http://www.w3.org/Graphics/SVG/1.1/DTD/svg11.dtd"><svg t="1739554737754" class="icon" viewBox="0 0 1417 1024" version="1.1" xmlns="http://www.w3.org/2000/svg" p-id="4161" width="354.25" height="256" xmlns:xlink="http://www.w3.org/1999/xlink"><path d="M1364.440615 118.705231c-14.178462-6.695385-20.322462 6.065231-28.59323 12.524307-2.914462 2.048-5.277538 4.726154-7.640616 7.24677-20.716308 21.267692-44.898462 35.209846-76.642461 33.555692a152.576 152.576 0 0 0-120.674462 45.371077c-7.404308-41.826462-32.059077-66.875077-69.553231-82.865231-19.692308-8.349538-39.542154-16.699077-53.248-34.737231-9.609846-12.918154-12.288-27.332923-17.014153-41.511384-3.150769-8.507077-6.144-17.250462-16.384-18.668308-11.185231-1.732923-15.517538 7.246769-19.928616 14.729846a189.124923 189.124923 0 0 0-23.552 98.461539c1.575385 76.878769 35.446154 138.082462 102.636308 181.641846 7.561846 4.962462 9.531077 9.924923 7.089231 17.250461-4.489846 14.966154-9.924923 29.538462-14.808616 44.583385-2.993231 9.609846-7.561846 11.657846-18.274461 7.483077a309.484308 309.484308 0 0 1-96.886154-63.015385c-47.812923-44.425846-91.057231-93.341538-144.935385-131.702154a635.825231 635.825231 0 0 0-38.360615-25.206153c-54.980923-51.2 7.168-93.262769 21.582769-98.225231 14.966154-5.198769 5.277538-23.158154-43.401846-22.921846-48.679385 0.236308-93.184 15.832615-149.976615 36.627692-8.428308 3.150769-17.092923 5.513846-25.993847 7.325538a557.843692 557.843692 0 0 0-160.768-5.435076c-105.156923 11.264-189.203692 58.919385-250.958769 140.366769C43.953231 339.416615 26.466462 450.56 47.891692 566.587077c22.449231 122.249846 87.433846 223.468308 187.47077 302.631385 103.581538 81.998769 222.916923 122.171077 359.187692 114.451692 82.707692-4.568615 174.788923-15.202462 278.685538-99.485539 26.151385 12.445538 53.641846 17.486769 99.249231 21.267693 35.131077 3.072 69.001846-1.732923 95.153231-6.931693 40.96-8.349538 38.203077-44.740923 23.315692-51.436307-120.201846-53.720615-93.814154-31.822769-117.838769-49.624616 61.124923-69.316923 153.206154-141.312 189.203692-374.70523 2.835692-18.510769 0.472615-30.168615 0-45.213539-0.236308-9.137231 1.969231-12.603077 12.918154-13.705846a240.088615 240.088615 0 0 0 86.173539-25.442462c77.981538-40.802462 109.331692-107.913846 116.736-188.258461 1.102769-12.288-0.236308-24.969846-13.705847-31.428923z m-678.990769 723.337846C569.107692 754.215385 512.551385 725.307077 489.156923 726.488615c-21.819077 1.260308-17.959385 25.206154-13.154461 40.802462 5.041231 15.438769 11.579077 26.072615 20.716307 39.620923 6.301538 8.900923 10.791385 22.212923-6.301538 32.295385-37.494154 22.212923-102.793846-7.561846-105.787077-8.979693-76.012308-42.929231-139.421538-99.564308-184.241231-176.994461a523.894154 523.894154 0 0 1-72.467692-239.931077c-1.024-20.558769 5.277538-27.884308 26.702769-31.586462a272.147692 272.147692 0 0 1 85.307077-2.126769c118.941538 16.699077 220.16 67.741538 305.073231 148.48 48.443077 46.001231 85.070769 100.982154 122.88 154.702769 40.172308 57.028923 83.337846 111.458462 138.318769 155.963077 19.377231 15.675077 34.894769 27.569231 49.782154 36.233846-44.740923 4.804923-119.414154 5.828923-170.456616-32.925538z m55.926154-344.615385c0-5.356308 2.756923-10.397538 7.325538-13.469538a17.723077 17.723077 0 0 1 22.134154 2.048c3.072 2.914462 4.804923 7.089231 4.804923 11.421538a16.777846 16.777846 0 0 1-17.250461 16.541539 17.329231 17.329231 0 0 1-12.130462-4.883693 15.911385 15.911385 0 0 1-4.883692-11.657846zM914.904615 582.892308a104.369231 104.369231 0 0 1-33.004307 8.585846 71.443692 71.443692 0 0 1-44.504616-13.548308c-15.281231-12.288-26.230154-19.140923-30.72-40.644923a89.166769 89.166769 0 0 1 0.787693-31.428923c3.938462-17.486769-0.393846-28.750769-13.312-38.912-10.476308-8.349538-23.709538-10.633846-38.360616-10.633846a32.059077 32.059077 0 0 1-14.178461-4.174769c-6.144-2.914462-11.106462-10.24-6.301539-19.140923a60.179692 60.179692 0 0 1 10.712616-11.264c19.849846-10.791385 42.692923-7.246769 63.881846 0.787692 19.692308 7.798154 34.500923 21.897846 55.926154 41.905231 21.740308 24.182154 25.678769 30.798769 38.124307 48.915692 9.846154 14.178462 18.747077 28.750769 24.891077 45.449846 3.702154 10.397538-1.102769 18.904615-13.942154 24.103385z" fill="#4D6BFE" p-id="4162"></path></svg>