<?xml version="1.0" encoding="UTF-8"?>
<svg id="_图层_1" data-name="图层 1" xmlns="http://www.w3.org/2000/svg" viewBox="0 0 909.24 1008.76">
  <defs>
    <style>
      .cls-1 {
        fill: #df051b;
      }

      .cls-1, .cls-2, .cls-3 {
        stroke-width: 0px;
      }

      .cls-2 {
        fill: none;
      }

      .cls-3 {
        fill: #010101;
      }
    </style>
  </defs>
  <path class="cls-1" d="M770.24,503.36c.03-11.23-1.36-22.66.27-33.65,6.57-44.3-5.37-77.22-51.41-92.54-15.84-5.27-22.79-18.4-21.23-35.51.45-4.95.02-9.97-.01-14.96-.49-78.08,18.16-104.12,91.59-128.91,8.85-2.99,17.08-3.59,25.28.58,6.62,3.37,12.83,7.56,19.3,11.24,76.78,43.6,81.08,53.78,71.57,140.19-2.75,25-22.7,29.41-37.67,36.31-28.12,12.96-37.53,31.41-35.65,61.51,2.41,38.53,2.93,77.5-.09,115.93-2.55,32.51,10.26,51.09,39.26,61.01,27.84,9.53,39.16,28.37,33.74,57.3-.23,1.21-.03,2.49-.03,3.74.11,74.92-18.3,99.98-90.62,125.22-11.84,4.13-21.85,2.53-32.06-3.32-15.09-8.65-29.51-18.94-45.46-25.51-30.76-12.66-45.09-33.38-39.25-66.86,4.5-25.78-7.07-41.11-30-52.87-36.91-18.92-73.27-39.31-108.1-61.8-23.82-15.38-42.85-16.73-68.1-1.3-55.98,34.2-141.07-15.78-139.87-81.5.47-25.59-6.81-41.32-30.34-53.2-39.49-19.94-77.26-43.28-115.85-65.02-38.75-21.83-66-7-66.43,36.46-.42,42.41,1.61,84.93-.7,127.22-1.55,28.43,5.44,48.37,33.51,58.3,32.02,11.32,39.15,34.56,38.04,67.09-2.39,70.03-25.82,103.31-93.72,123.48-10.5,3.12-19.46.4-28.79-3.69-56.74-24.89-98.23-56.2-84.88-130.46,5.14-28.58,12.9-46.97,37.77-56.19,28.52-10.57,35.51-29.51,34.04-57.98-2.18-42.31-1.7-84.85-.13-127.21.86-23.19-6.13-38.82-28.61-45.81-50.68-15.74-38.63-57.47-41.92-94.84-3.2-36.48,8.58-58.88,43.01-71.47,21.7-7.94,38.8-33.69,63.05-27.58,33.65,8.47,63.03,29.43,91.21,49.6,16.15,11.56,8.72,32.99,7.52,49.44-1.83,24.96,8.39,39.12,29.32,50.32,39.46,21.1,78.63,42.87,116.78,66.22,19.31,11.82,36.7,15.46,54.6.29,32.2-27.29,60.31-17.66,94.07,1.51,37.97,21.55,65.78,42.84,55.22,91.4-2.83,12.99,1.86,24.34,14.67,31.46,46.35,25.74,91.86,53.09,139.03,77.22,29.58,15.13,57.12-3.27,57.94-35.98.62-24.94.12-49.9.15-74.85Z"/>
  <path class="cls-3" d="M350.61,110.03c4.17-20.66-9.6-47.3,9-60.82C388.4,28.28,419.37.05,453.98,0c34.68-.05,66.48,27.54,94.24,49.42,20.58,16.22,7.55,47.06,8.26,71.23.52,17.67,9.77,40.84-9,52.46-30.42,18.82-60.71,50.53-94.71,47.76-31.74-2.59-63.32-27.4-91.44-47.4-21.05-14.97-5.93-42.31-10.72-63.44Z"/>
  <path class="cls-3" d="M557.66,897.86c-4.16,20.53,9.67,47.1-8.24,60.78-28.31,21.62-59.66,48.87-94.08,50.08-34.69,1.22-66.34-26.91-94.44-48.29-21.43-16.31-8.01-46.97-9.02-71.09-.75-17.84-9.26-41.2,8.25-52.96,29.66-19.92,60.09-49.43,94.52-48.65,34.22.77,65.59,28.3,94.13,49.7,18.67,14,4.48,40.19,8.89,60.44Z"/>
  <rect class="cls-2" x="334.98" y="372.49" width="249.62" height="278.64"/>
</svg>