<?xml version="1.0" standalone="no"?><!DOCTYPE svg PUBLIC "-//W3C//DTD SVG 1.1//EN" "http://www.w3.org/Graphics/SVG/1.1/DTD/svg11.dtd"><svg class="icon" width="200px" height="199.22px" viewBox="0 0 1028 1024" version="1.1" xmlns="http://www.w3.org/2000/svg"><path d="M159.750709 359.48026c0 44.72729 0 44.72729-44.72729 44.72729s-44.72729 0-44.72729-44.72729 0-44.72729 44.72729-44.72729 44.72729 0 44.72729 44.72729z m0 204.467612v108.623419c0 19.168839-6.389613 25.558452-31.948064 25.558452-63.896129 0-63.896129 0-63.896129-57.506516V461.714066c0-25.558452 6.389613-31.948064 31.948064-31.948064 70.285742 0 57.506516-6.389613 57.506516 51.116903 6.389613 25.558452 6.389613 57.506516 6.389613 83.064967z m440.883289-57.506516v166.129935c0 19.168839-6.389613 25.558452-25.558451 25.558452-70.285742 6.389613-70.285742 6.389613-70.285742-63.896129V353.090647c0-38.337677 0-38.337677 38.337677-38.337677h19.168839c25.558452 0 38.337677 6.389613 38.337677 31.948064-6.389613 57.506516-6.389613 108.623419 0 159.740322z m428.104064 0v159.740322c0 19.168839-6.389613 31.948064-31.948065 31.948065-63.896129 0-63.896129 0-63.896129-57.506516V353.090647c0-25.558452 6.389613-38.337677 38.337678-31.948064 57.506516 0 57.506516 0 57.506516 51.116903v134.18187z m-268.363742-63.896129c12.779226-38.337677 25.558452-63.896129 31.948065-95.844193 6.389613-25.558452 19.168839-31.948064 44.72729-31.948064 76.675355 0 63.896129 6.389613 44.72729 57.506516-19.168839 44.72729-31.948064 95.844193-51.116903 140.571483-19.168839 44.72729-12.779226 95.844193-19.168838 140.571484 0 12.779226 6.389613 38.337677-12.779226 44.72729-25.558452 6.389613-44.72729 0-70.285742 0-6.389613 0-6.389613-6.389613-6.389613-12.779226v-6.389613c19.168839-115.013032-44.72729-217.246838-76.675354-319.480644-19.168839-38.337677-19.168839-44.72729 19.168838-44.72729h25.558452c19.168839 0 31.948064 6.389613 38.337677 25.558451 12.779226 31.948064 19.168839 57.506516 31.948064 102.233806z m-402.545611 63.896129V385.038711c0-19.168839 0-31.948064-25.558452-31.948064-19.168839 6.389613-25.558452 12.779226-25.558451 31.948064v236.415677c0 19.168839 6.389613 31.948064 25.558451 31.948065 25.558452 0 25.558452-19.168839 25.558452-31.948065V506.441356z m95.844193 0v108.623419c0 12.779226 0 25.558452-6.389613 38.337678 0 19.168839-25.558452 38.337677 12.779226 44.72729 6.389613 0 6.389613 19.168839 0 31.948064s-12.779226 12.779226-25.558452 12.779226c-25.558452 0-57.506516 0-76.675354-25.558452 0-6.389613-12.779226-6.389613-19.168839-6.389612-6.389613-6.389613-19.168839-6.389613-25.558451-6.389613-89.45458-12.779226-102.233806-19.168839-102.233807-108.623419V378.649099c0-38.337677 12.779226-57.506516 51.116903-63.896129 51.116903-12.779226 95.844193-12.779226 140.571484 0 38.337677 12.779226 51.116903 31.948064 51.116903 70.285741v121.402645zM562.296321 129.454196c108.623419-6.389613 223.636451 6.389613 345.039096 25.558452 70.285742 12.779226 102.233806 25.558452 115.013032 108.623419 6.389613 19.168839-6.389613 31.948064-25.558452 31.948064h-38.337677c-19.168839 0-25.558452-6.389613-31.948064-19.168839-6.389613-19.168839-25.558452-31.948064-51.116904-31.948064-140.571483-31.948064-281.142967-38.337677-421.71445-31.948064-76.675355 0-159.740322 12.779226-242.80529 19.168838-19.168839 0-38.337677 12.779226-44.72729 31.948065-6.389613 19.168839-19.168839 25.558452-38.337677 25.558451H95.85458c-19.168839 0-25.558452-6.389613-25.558451-25.558451C70.296129 212.519164 102.244193 174.181486 153.361096 167.791873 281.153354 135.843809 415.335225 129.454196 562.296321 129.454196z m0 753.974321c-140.571483 0-268.363741-6.389613-389.766386-25.558452-63.896129-19.168839-102.233806-57.506516-102.233806-115.013032 0-19.168839 6.389613-25.558452 25.558451-25.558452H134.192258c12.779226 0 25.558452 6.389613 31.948064 19.168839 6.389613 25.558452 25.558452 31.948064 51.116903 38.337677 57.506516 6.389613 121.402645 12.779226 178.909161 19.168839 95.844193 6.389613 191.688387 6.389613 287.53258 0 70.285742-6.389613 134.181871-12.779226 204.467612-19.168839 19.168839 0 31.948064-12.779226 38.337678-25.558451 6.389613-25.558452 25.558452-31.948064 44.72729-31.948065 57.506516 0 63.896129 0 44.72729 57.506516-12.779226 31.948064-31.948064 57.506516-70.285742 70.285742-57.506516 19.168839-121.402645 19.168839-178.909161 25.558452-70.285742 6.389613-146.961096 12.779226-204.467612 12.779226z" fill="#42BD56" /></svg>