<?xml version="1.0" standalone="no"?><!DOCTYPE svg PUBLIC "-//W3C//DTD SVG 1.1//EN" "http://www.w3.org/Graphics/SVG/1.1/DTD/svg11.dtd"><svg class="icon" width="200px" height="164.63px" viewBox="0 0 1244 1024" version="1.1" xmlns="http://www.w3.org/2000/svg"><path d="M226.421265 759.279699c44.784663 21.910305 92.461486 27.256419 141.584389 23.224923 6.047244-0.482027 10.77987-1.358439 12.532694 6.967477 5.521397 26.292366 19.675454 38.167751 46.230743 41.279014 22.129408 2.585416 44.346457 1.270798 66.519685 1.402259 9.070866 0 13.409106-4.382061 13.672031-13.584389 0.306744-10.560767 0.262924-21.121534 0-31.63848s-4.382061-14.855187-15.600137-14.942828h-38.167751a18.492297 18.492297 0 0 1-12.839439-2.848339c1.840466-3.198904 4.820267-3.374187 7.14276-4.382061 28.132831-14.285519 48.20267-34.662102 48.20267-68.31633q0.350565-186.369052 0-372.738104a70.595002 70.595002 0 0 0-29.140705-58.018486c-14.460801-11.305717-31.331736-16.827114-48.684697-21.384458-41.761041-10.955152-84.13557-10.385484-126.55392-5.871961a155.431701 155.431701 0 0 0-64.635399 20.026018c-25.810339 15.556316-41.804861 37.028415-41.6734 69.236563 0.525847 121.821294 0.306744 243.598768 0 365.420062 0 30.89353 13.978774 52.935296 41.235194 66.16912zM302.450023 334.263608a67.878124 67.878124 0 0 1 0.788771-12.927079 22.217049 22.217049 0 0 1 15.643957-18.097912 72.260185 72.260185 0 0 1 42.549812-0.964053c10.648408 2.979801 15.07429 8.764122 15.643957 20.069839 0.438206 8.764122 0.219103 17.834988 0.219103 26.774392v337.681616c0 22.567614-5.871962 29.315988-28.395754 31.989045a52.584731 52.584731 0 0 1-34.530641-5.69668 23.093461 23.093461 0 0 1-11.393358-18.623759c-0.350565-3.505649-0.306744-7.011298-0.306744-10.516946V334.088326z m0 0M9.859814 211.653543h99.078398c7.142759 0 9.815817-2.541595 10.736049-9.684354 3.943855-30.674427 18.273194-53.461143 48.509414-64.284834a156.921602 156.921602 0 0 1 29.096885-7.011298 2588.658679 2588.658679 0 0 1 302.844231-27.34406c36.765491-1.270798 73.574803-0.438206 110.384116-1.489901 28.614858-0.832592 57.361178 0.482027 86.019856 1.051695 17.834988 0.350565 35.713797 0.657309 53.548784 1.183156 59.508388 1.796645 118.841493 6.091065 178.043136 12.138309 41.191373 4.382061 82.295104 9.070866 123.092092 16.213626s62.356727 29.403629 68.009586 70.463539c0.964053 7.098939 4.119137 8.764122 10.560767 8.764122 33.040739 0 66.037658-0.219103 99.078397 0 7.712427 0 10.03492-2.935981 9.33379-10.210202a365.113317 365.113317 0 0 0-8.325916-54.512838c-13.803492-54.775762-46.143102-90.533379-103.022252-103.197535a1450.023964 1450.023964 0 0 0-160.996919-25.503594c-39.438548-4.382061-79.140021-7.405683-118.797672-10.254023q-70.112975-5.083191-140.22595-7.318042c-29.184526-0.920233-58.456693 0-87.641219 0-48.991441 0-97.939062-0.613489-146.886682 2.84834-31.813762 1.928107-63.758987 2.84834-95.353646 5.170832-48.816159 3.59329-97.544676 7.93153-146.097912 14.285518a962.212941 962.212941 0 0 0-131.461828 24.276618C59.377102 58.193769 33.522943 83.785005 17.616062 120.638138c-11.349538 26.292366-14.899007 54.688121-17.133859 83.259157-0.569668 7.011298 3.637111 7.93153 9.202328 7.931531z m0 0" fill="#1AFA29" /><path d="M1229.562655 809.410476c-32.733995 0.525847-65.46799 1.051695-98.201985 0.964053-7.712427 0-9.903458 2.410134-11.042794 9.815817-3.549469 23.487847-12.006847 44.434098-34.355358 56.966792a117.263951 117.263951 0 0 1-39.087983 13.146183c-75.415269 11.787744-151.312564 19.675454-227.472784 24.276617-41.585758 2.497775-83.259158 4.382061-124.844916 4.776447-50.043136 0.657309-100.130092 0.350565-150.217049-0.569668-66.607326-1.183156-132.995549-4.382061-199.296131-10.254023-50.656624-4.382061-101.181787-10.341664-151.400206-18.492297-17.133858-2.760698-33.698049-7.843889-47.545361-19.45635-16.52037-13.847313-22.392331-32.690175-25.459774-52.847655-0.70113-4.776446-1.928107-7.361862-7.405683-7.098939-23.00582 0.964053-45.967819-2.059569-66.081479-0.920233H9.333966c-5.565217 0-7.800068 2.541595-7.405683 8.019172A263.712427 263.712427 0 0 0 17.177856 896.131462c15.205751 39.087984 41.498117 66.344403 83.259157 77.913043a869.576173 869.576173 0 0 0 115.467306 22.217049c76.686066 10.473126 153.810339 16.038343 231.022253 21.033893 54.030811 3.505649 108.149264 3.987675 162.136254 4.382061 56.002739 0.525847 112.005478-0.350565 167.920576-4.075317 31.024991-2.059569 62.137624-3.198904 93.118794-5.565217 47.45772-3.59329 94.871619-7.975351 142.066416-14.110237a928.295789 928.295789 0 0 0 130.716878-24.49572c38.781239-10.823691 63.715166-36.458747 79.402944-72.172544 11.481-26.292366 14.899007-54.118453 17.528244-82.207463 0.70113-7.800068-2.935981-9.859637-9.991099-9.771996z m0 0M986.489735 504.243752q42.46217-118.008901 84.88052-236.017802c4.688805-13.146183 0.394385-19.193427-13.452927-19.237248h-86.896268c-11.086614 0-13.540568 1.840466-16.914755 12.532695q-15.994522 50.700445-31.726122 101.532352c-7.142759 23.224923-13.934954 46.537487-21.428278 71.734337-1.226977-4.382061-1.840466-6.266347-2.410133-8.325916-15.293393-55.301609-32.777816-109.945909-49.999315-164.67785-3.374187-10.692229-6.134885-12.795618-16.827114-12.839438h-88.517631c-12.620336 0-17.133858 6.879836-12.883259 18.579938l12.138308 33.566587c27.431701 76.116398 54.162273 152.495721 82.558028 228.261554 11.568641 30.674427 18.66758 61.348853 17.309141 94.652517-1.796645 42.681274-0.482027 85.494009-0.394385 128.262923 0 14.723725 3.680931 18.229374 18.141732 18.273194H942.23092c14.679904 0 17.046217-2.322492 17.046217-16.914755v-164.020541a45.617254 45.617254 0 0 1 2.19103-15.950702c8.457378-23.137282 16.739473-46.318384 25.065389-69.499486z m0 0M664.715 248.944882h-79.578226c-16.257446 0-19.456351 3.198904-19.456351 19.500171v484.69976c0 13.759671 3.680931 17.309141 17.528244 17.309141h82.032181c15.950702 0 19.061965-3.067443 19.061965-18.886683v-151.882232-331.415268c0-16.257446-3.286546-19.500171-19.456351-19.543992z m0 0" fill="#1AFA29" /><path d="M1223.909797 248.944882h-82.032181c-14.679904 0-17.528244 2.935981-17.528244 17.528244v488.030126c0 13.146183 2.84834 16.125984 16.257446 16.169805h83.653543c13.803492 0 17.221499-3.330366 17.2215-17.309141V266.166381c0-13.67203-3.637111-17.177679-17.528244-17.177679z m0 0M12.971077 770.541595h91.760356a11.261897 11.261897 0 0 0 12.269771-11.305717 88.692913 88.692913 0 0 0 0.262923-9.728175v-161.610408-165.641903c0-13.409106-2.804519-16.082164-16.257446-16.125984H16.564367c-14.022595 0-16.432729 2.453954-16.432729 16.651831v332.90517c0 10.648408 3.330366 14.679904 12.839439 14.767545z m0 0M0.087818 354.026703c0 8.764122 4.382061 13.146183 12.883259 13.146183q45.091407 0.262924 90.138993 0c9.684355 0 13.891133-4.382061 13.978775-14.066416q0.262924-45.047586 0-90.138993c0-9.771996-4.382061-14.022595-13.934954-14.110236q-44.653201-0.262924-89.350222 0c-9.947278 0-13.715851 4.382061-13.803492 14.022595v90.927764z m0 0" fill="#1AFA29" /></svg>