<?xml version="1.0" encoding="UTF-8"?>
<svg id="_图层_1" data-name="图层 1" xmlns="http://www.w3.org/2000/svg" viewBox="0 0 175.97 197.15">
  <defs>
    <style>
      .cls-1 {
        fill: #4835b1;
      }

      .cls-1, .cls-2, .cls-3, .cls-4 {
        stroke-width: 0px;
      }

      .cls-2 {
        fill: #58b6fd;
      }

      .cls-3 {
        fill: #fc607e;
      }

      .cls-4 {
        fill: #fff;
      }
    </style>
  </defs>
  <path class="cls-3" d="M52.82,7.8L110.79.68c33.68-4.14,52.58,10.64,56.72,44.31l7.78,63.37c4.14,33.68-10.64,52.58-44.31,56.72l-57.97,7.12c-33.68,4.14-52.58-10.64-56.72-44.31l-7.78-63.37C4.37,30.84,19.15,11.93,52.82,7.8h0Z"/>
  <path class="cls-2" d="M54.53,12.03c.11,0,.23,0,.34.01l58.45,2.22c27.96,1.07,49.81,24.51,48.92,52.48l-2,63.72c-.88,28.1-24.37,50.16-52.47,49.27-.12,0-.24,0-.35-.01l-10.86-.43-13.14,17.11c-.05.07-.1.13-.16.19l-.18.16c-.83.63-2.01.47-2.64-.36,0,0,0,0,0,0l-14.08-18.26-17.39-.66C21,176.42-.86,152.98.03,125.01l2.03-63.72C2.95,33.2,26.44,11.15,54.53,12.03Z"/>
  <path class="cls-1" d="M54.54,12.05h.33l58.45,2.23c27.95,1.07,49.8,24.51,48.92,52.47l-2.01,63.73c-.3,9.99-3.55,19.66-9.33,27.81-6.09,3.62-12.87,5.93-19.91,6.79l-57.97,7.13c-27.9,3.43-53.29-16.41-56.72-44.31,0,0,0,0,0,0l-7.78-63.37c-2.06-16.7,4.27-33.35,16.92-44.45,8.37-5.37,18.39-8.37,29.1-8.03h0Z"/>
  <path class="cls-4" d="M106.5,38.81c-.06-.62.4-1.17,1.02-1.23.07,0,.14,0,.21,0h10.46c.64-.04,1.19.57,1.13,1.22v8.34h26.66c.69-.07,1.29.57,1.2,1.27v10.5c.01.38-.06.79-.35,1.05-.42.41-1.03.28-1.56.31h-25.96v28.12h26.3c.71-.08,1.29.58,1.2,1.27v48.21c0,2.72-.82,5.38-2.38,7.62-1.79,2.58-4.45,4.41-7.49,5.16-1.77.45-3.59.34-5.4.35h-34.77c-.37,0-.76-.07-1-.37-.42-.48-.27-1.17-.3-1.77v-58.49c.03-.54-.11-1.17.28-1.61.24-.33.65-.4,1.03-.38h9.68v-49.58M108.32,137.87h25.67v-36.36h-25.66c-.04,12.12,0,24.23-.01,36.36ZM36.77,42.82c2.37-3.13,6.05-5,9.98-5.05h39.29c.56-.04,1.05.34,1.16.89.07.51.03,1.05.04,1.56v80.57c.1.71-.51,1.41-1.22,1.34h-10.43c-.62.03-1.16-.45-1.19-1.07,0-.03,0-.06,0-.09V50.88h-27.51v68.65c-.01.57.03,1.13-.04,1.7-.1.54-.59.93-1.15.9h-10.46c-.62.03-1.16-.45-1.19-1.07,0-.03,0-.06,0-.09V51.07c-.05-2.98.89-5.88,2.69-8.26h.03Z"/>
  <path class="cls-4" d="M54.23,59.62c-.07-.68.54-1.3,1.2-1.23h10.43c.56-.05,1.07.32,1.19.88.06.54.03,1.07.03,1.6v50.49c.01,2.63-.1,5.26.34,7.86.82,5.37,3.42,10.5,7.58,13.95,3.27,2.76,7.37,4.38,11.56,4.88.57-.04.71.61.69,1.05v10.5c.03.47-.08.99-.48,1.27-.48.48-1.19.24-1.78.18-6.26-.78-12.17-3.32-17.04-7.32-2.78-2.3-5.23-4.98-7.27-7.96-.14.08-.23.24-.33.37-3.73,5.45-8.9,9.76-14.93,12.46-3.17,1.39-6.55,2.26-9.98,2.59-.71.14-1.39-.49-1.37-1.22-.03-3.62,0-7.24,0-10.86-.02-.39.1-.77.35-1.07,5.41-.71,10.52-3.55,14.11-7.76,3.59-4.14,5.66-9.63,5.7-15.17v-55.48h-.01Z"/>
</svg>