<?xml version="1.0" standalone="no"?><!DOCTYPE svg PUBLIC "-//W3C//DTD SVG 1.1//EN" "http://www.w3.org/Graphics/SVG/1.1/DTD/svg11.dtd"><svg t="1739631162886" class="icon" viewBox="0 0 1024 1024" version="1.1" xmlns="http://www.w3.org/2000/svg" p-id="8219" xmlns:xlink="http://www.w3.org/1999/xlink" width="128" height="128"><path d="M1023.65 876h-22.19c-126.35-0.15-252.56 0-378.91-0.44-9.42 0-13.49 2.76-15.81 11.9-4.93 19.73-5.36 19.58-25.67 19.73-49 0.14-97.92 0.14-147 0.58-8 0.14-11.17-2.33-13.35-10-7-25.1-1.3-20.89-27-20.75q-190 0.87-379.77 1.89H0.38c0.29-5.22 0.29-9.87 0.87-14.36Q16 736.61 30.84 608.81 50.64 436.48 70 264.14c0.73-6.24 3.34-9.28 9-11.17 10-3.48 19.73-7.83 29.6-11.6 16.39-6.24 28.14-18.28 38.73-31.34a46.87 46.87 0 0 1 21.18-14.94c90.37-32.49 182.63-40.62 276.92-22.19 10.88 2.17 21.47 6.23 32.06 9.72 6.24 2 9.14 6.38 9.14 13.34 1 61.94 2.61 123.89 3.48 185.83 0.29 20.6-6.82 27.85-26.69 31.62-55.27 10.59-96.61 42.07-128.23 87.33-6.24 8.85-10.88 18.86-16.69 28-3.77 5.8-8.12 11.75-13.2 16.39-8.56 7.69-18 8.12-26.83 2.46-9.43-5.94-12.19-13.34-9.29-25.24 10-39.74 32.93-71.51 63.39-97.91 30.18-26.26 64.7-45.26 102.27-58.61 6.53-2.32 8.42-5.66 7.84-12.33a259.5 259.5 0 0 1-0.58-30c0.14-8-3.34-9.57-10.45-8.27-23.5 4.21-43.81 15.53-62.81 29.16-14.22 10-27.71 21-41.63 31.48a111 111 0 0 1-14.07 9.13c-10.59 5.66-20 4.79-27.13-1.89-7.69-7.25-10.45-18.56-4.79-28.28 5.51-9.58 12.33-19 20.6-26.12 26.11-22.34 56.87-36.55 88.92-48.16 14.22-5.07 28.29-10.3 42.51-14.94 5.07-1.74 7.11-4.35 7-9.57-0.29-10.88-0.43-21.91 0-32.79 0.15-6.81-2.9-9.72-9.14-11.75-41.34-13.78-83.7-16.24-126.78-12.76-37.28 3-73.26 11.75-108.37 24.66-6.67 2.47-9.57 6-10.29 13.2q-18.51 180-37.72 359.9c-5.22 49.61-10.16 99.22-15.23 148.69-0.29 2.9 0 5.66 0 9.86 4.35-1 8-1.59 11.6-2.46 80.66-21.91 162.18-27 244.58-13.35 39.6 6.53 78.48 16.25 115.61 32.21 4.07 1.74 10 1.88 13.93 0.14 53.82-22.92 110-34.81 168-39.46 65.86-5.22 130.7 1.31 194.53 18.86 2.76 0.73 5.66 0.87 9.58 1.45-0.29-5.22-0.44-9.28-0.87-13.2q-16.38-143.4-32.85-286.66c-8.41-73-17.26-145.93-25.67-218.9-0.73-6.38-3.2-9.72-9.43-12-53.1-19.44-107.93-28.72-164.22-24.08-24.51 2-48.45 9.14-72.67 13.92-5.66 1.16-7.69 4.36-7.54 10 0.29 10.88 0.58 21.91 0.14 32.79-0.14 6.53 2.61 9 8.56 11.17 29.45 11 59.18 21.76 88 34.38 19.73 8.56 38.44 19.87 52.8 36.41 5.23 6.09 9 13.63 12.63 20.89 4.78 9.72 0.29 18.13-6.53 24.8-6.53 6.39-15.23 7.55-23.07 3.19a292.13 292.13 0 0 1-30.75-20.59c-22-16.83-44.24-33.51-70.5-43.52-7.4-2.9-15.23-4.5-22.92-6.39-5.37-1.3-8.56 0.58-8.7 6.53-0.15 12-1 24.23-0.44 36.27 0.14 2.75 4.35 6.67 7.54 7.69A326.26 326.26 0 0 1 673 412c37.13 27.56 65.71 61.65 78.48 107.06 3.62 12.91 1.3 20.6-8.27 27.12-7.84 5.37-18 5.08-27-2.46a60.13 60.13 0 0 1-13.79-17C669 466.36 621.83 424.44 551.62 412.4c-13.78-2.33-21.62-11.46-21.76-26.84-0.44-31-0.15-61.94-0.15-93 0-31.33 0.73-62.52 0.15-93.85-0.15-10.16 3.77-15.81 12.77-18.28 19-5.08 38-11.31 57.44-14.07q114.67-16.76 225.57 18.28c2.18 0.72 4.5 1.59 6.68 2.32 17.4 4.79 32.63 12.62 43.8 27.71 14.22 19 36.13 26 57.3 33.21 9.72 3.34 13.5 8.27 14.8 18.57 8.56 70.5 18.28 141 27.13 211.5q14.79 118.16 29.16 236.17M148.34 261.53c-12.33 6.24-22 11.9-32.2 16.1-8.41 3.48-11.75 8.71-12.62 17.85-5.08 51.93-10.73 103.86-16.39 155.79L45.78 827.71c-1.45 12.77-1.45 12.91 11.32 12.77l368.17-1.31c25.1-0.14 25.39-0.14 29.88 24.23 1.31 7.1 4.21 9.14 11 9 27.7-0.29 55.41-0.14 83.26-0.29 18.57 0 18.57 0 22-17.84 0.44-2.32 1.31-4.64 1.31-7 0-7 3.48-8.84 10-8.84 25.67 0.29 51.35 0.14 77 0q152.74-0.44 305.35-1c13.35 0 13.35-0.14 11.9-12.91-2.61-24.08-5.22-48-8-72.1q-20.09-172.33-40.48-344.52-7-58.53-14.36-116.78c-0.43-3.62-0.87-9.14-3.19-10.59-12.77-7.54-26.11-13.92-40.62-21.47 21.47 182.35 42.8 362.81 64.27 545.15-6.1-2-9.72-3.05-13.21-4.35-132.15-47.15-263.86-49.32-394.57 5.66-10.88 4.49-19.44 3.91-29.88-0.29-111-45.41-224.56-50.34-340-20-22.19 5.8-43.81 13.34-67.16 20.45 19.55-180.77 38.99-361.08 58.57-544.15z" p-id="8220" fill="#d81e06"></path><path d="M542.6 538.06c-4.38 15.18 4.38 22.26 15.68 30 28.66 19.56 51.42 44.51 59.69 79.58a101 101 0 0 1 2.36 20.07c0.33 13.15-4.22 18.54-16.86 21.07-12.31 2.53-21.08-2-26-13.15-6.24-14.33-11.46-29.5-19.39-42.82-5.9-9.78-14.67-18.21-23.43-25.8-8.6-7.42-18.21-6.58-27.82 0.17-20.24 14.16-29.85 35.24-38.11 57.15-3.54 9.62-6.24 19.06-18 22.09-17.53 4.55-30.68-5.56-29.33-23.6 1.34-18.21 9.27-34.06 18.71-49.23 13-20.91 29.34-39 50.75-51.93 2.53-1.52 4.55-5.57 4.89-8.6 0.67-8.6 0.17-17.37 0.17-26.14-0.17-9.27-1.18-10.28-10.46-8.26-37.45 8.61-65.25 29.69-80.45 65.26-5.56 12.82-8.77 26.64-12.31 40.13-3.2 12.14-9.1 18.55-20.57 20.4-13.8 2.36-26.62-7.25-26.12-21.45a125.28 125.28 0 0 1 5.56-31.36c20.24-66.77 65.76-105.89 133.37-120 6.07-1.18 7.59-3.54 7.75-9.27 0.34-9.11 1-18.55 3.38-27.31 2.86-11 11.29-16.36 21.07-15.68 12.82 0.84 19.05 5.9 21.58 18.37a233.76 233.76 0 0 1 2.88 24.25c0.34 4.39 1.52 6.91 6.74 7.76 73.35 12.14 116.51 57.83 139.94 125.61a135.33 135.33 0 0 1 4.73 16.2c2.53 10.79-0.67 20.07-8.93 27.48-8.43 7.42-19.56 7.09-27-1.51a49 49 0 0 1-9.1-15.68c-10-28.5-21.42-56.32-43.33-78.07-14.67-14.33-32-23.26-52.61-26.13-7.08-1-9.95 1.18-9.27 8.43 0.18 4.05-0.16 7.91-0.16 11.97z" p-id="8221" fill="#d81e06"></path></svg>