<?xml version="1.0" encoding="UTF-8"?>
<svg id="_图层_1" data-name="图层 1" xmlns="http://www.w3.org/2000/svg" viewBox="0 0 1080 1069.22">
  <defs>
    <style>
      .cls-1 {
        fill: #2b3193;
      }

      .cls-1, .cls-2 {
        stroke-width: 0px;
      }

      .cls-2 {
        fill: #fc171b;
      }
    </style>
  </defs>
  <path class="cls-1" d="M537.91,973.95c82.36-32.67,126.75-124.47,102.34-193.84-7.89-22.41-22.3-45.13-39.79-61.02-39.68-36.04-83.85-67.08-124.73-101.86-18.97-16.14-36.96-34.6-51.21-54.93-44.41-63.33-12.72-132.18,33.6-164.1,22.4-15.44,46.53-28.37,71.43-43.37-3.14-1.39-5.29-3.23-7.3-3.1-51.94,3.47-104.98,1.68-155.53,12.02-84.61,17.3-118.52,121.02-89.21,176.15,17.13,32.21,38.22,59.16,69.22,78.75,38.52,24.35,77.03,48.82,114.3,75.02,46.72,32.85,61.1,79.7,47.96,133.59-13.63,55.93-50.33,92.85-105.24,110.06-30.89,9.68-61.97,15.49-94.72,3.5-18.56-6.8-35.99-14.8-52.34-23.96,5.36,8.05,11.41,15.64,19.77,22.07,8.62,6.46,16.16,12.93,24.77,20.47,2.15,2.15,2.15,5.39,3.23,6.46,4.31,3.23,10.77,2.15,14,4.31,14.85,8.04,30.05,12.17,45.81,15.46.08-.27.16-.53.24-.8,14.37.68,28.81.62,43.08,2.18,44.43,4.87,88.7,3.45,130.31-13.06Z"/>
  <path class="cls-1" d="M631.41,356.8c-37.15,1.39-70.44,11.54-98.46,37.66-49.6,46.24-56.64,99.42-15.27,153.23,16.74,21.77,39.1,39.63,60.53,57.31,38.05,31.4,81.41,57.38,115.31,92.59,83.12,86.37,47.01,191.54-9.66,245.02-59.96,56.58-129.89,81.69-208.1,77.41,7.21,1.37,14.36,2.98,21.51,5.08,42.01,9.69,82.94,9.69,124.95,3.23,16.16-3.23,32.31-7.54,49.55-9.69,5.39-1.08,9.69-7.54,15.08-8.62,29.08-8.62,57.09-17.23,82.94-34.47,5.39-3.23,14-4.31,19.39-9.69.99-1.98,2.9-3.97,4.88-5.95,6.54-8.79,13.19-17.5,19.47-26.47,14.14-20.2,29.87-39.57,41.65-61.09,29.98-54.77,19.71-149.68-42.15-191.66-26.62-18.07-54.35-34.49-80.99-52.53-20.4-13.81-41.11-27.6-59.45-43.91-22.67-20.16-38.87-45.57-37.15-77.4,3.49-64.9,66.57-118.99,126-121.42,15-.61,30.01-.94,45.02-1.18-16.06-11.91-32.85-22.7-50.16-32.61-41.63,1.52-83.25,3.61-124.88,5.16Z"/>
  <path class="cls-2" d="M1078.62,486.73c-.07-27.28-5.18-52.88-29.4-73.16-.27,6.19-.75,11.55-.71,16.91.39,55.22,7.1,111.26.01,165.5-14.8,113.34-66.04,211.34-144.53,294.66-30.81,32.71-64.41,61.65-112.1,72.16.71-.97,1.43-1.93,2.15-2.89-1.98,1.98-3.89,3.97-4.88,5.95-5.39,5.39-14,6.46-19.39,9.69-25.85,17.23-53.86,25.85-82.94,34.47-5.39,1.08-9.69,7.54-15.08,8.62-17.23,2.15-33.39,6.46-49.55,9.69-42.01,6.46-82.94,6.46-124.95-3.23-7.15-2.1-14.3-3.71-21.51-5.08-12.58-.69-25.37-2.13-38.37-4.33-20.37-3.44-40.12-10.81-59.93-17.06-5.23-1.65-9.63-5.9-14.42-8.96.41-1.35.82-2.69,1.23-4.04-15.76-3.29-30.96-7.42-45.81-15.46-3.23-2.15-9.69-1.08-14-4.31-1.08-1.08-1.08-4.31-3.23-6.46-8.62-7.54-16.16-14-24.77-20.47-8.36-6.43-14.41-14.02-19.77-22.07-61.02-34.2-106.83-84.71-138.67-150.58-10.95-22.66-21-45.84-30.07-69.32-28.47-73.73-35.72-150.02-25.35-228.12,15.39-115.95,66.63-212.86,152.89-292.07,117.69-108.08,255.61-145.62,412.64-125.66,111.53,14.18,204.11,64.59,283.37,140.99,25.23,24.32,45.48,54.43,64.76,84.02,8.82,13.53,10.49,32.05,13.75,48.63.83,4.22-3.82,13.11-7.38,13.97-16.58,4-30.53,13.93-49.98,12.54-43.81-3.14-88.01-2.03-132.01-.98-14.78.35-29.55.82-44.33,1.36,17.3,9.91,34.1,20.7,50.16,32.61,26.9-.44,53.81-.6,80.69-1.57,31.62-1.14,64.27.54,94.49-6.96,41.28-10.24,66.39-42.16,43.59-79.37-52.8-86.2-114.75-164.03-204.18-215.25C748.08,39.31,670.36,9.6,586.08,2.06c-111.64-9.99-216.22,16.65-312.16,72.63C142.71,151.26,55,262.1,17.78,411.55c-16.77,67.32-25.41,134.32-8.96,202.46,8.92,36.95,19.46,73.61,31.22,109.76,28.07,86.28,81.09,156.14,148.41,215.16,71.07,62.31,154.54,100.21,247.04,119.05,153.24,31.21,292.75-3.83,420.21-89.81,66.87-45.11,117.49-107,158.43-176.18,32.85-55.52,55.96-115.57,63.39-179.61,4.8-41.37,1.23-83.73,1.12-125.65Z"/>
</svg>