<?xml version="1.0" standalone="no"?><!DOCTYPE svg PUBLIC "-//W3C//DTD SVG 1.1//EN" "http://www.w3.org/Graphics/SVG/1.1/DTD/svg11.dtd"><svg t="1772639266839" class="icon" viewBox="0 0 1024 1024" version="1.1" xmlns="http://www.w3.org/2000/svg" p-id="7121" xmlns:xlink="http://www.w3.org/1999/xlink" width="200" height="200"><path d="M691.5 233.748a512.512 512.512 0 0 0 107.494-55.52 441.748 441.748 0 0 0-62.756-45.144 441.672 441.672 0 0 1-59.494 29.496c-5.12-21.985-10.804-43.75-16.855-65.361a437.15 437.15 0 0 0-80.896-20.48c10.951 35.21 20.777 70.922 29.097 107.217a441.559 441.559 0 0 1-96.108 10.604 441.57 441.57 0 0 1-96.123-10.593c8.32-36.29 18.145-72.003 29.102-107.218a437.079 437.079 0 0 0-80.896 20.48 1535.191 1535.191 0 0 0-16.855 65.362 441.697 441.697 0 0 1-59.484-29.507 441.467 441.467 0 0 0-62.756 45.143 512.4 512.4 0 0 0 107.495 55.521q-5.755 31.381-10.194 63.212H47.337a512 512 0 0 1 929.28 0H701.673q-4.454-31.81-10.173-63.212zM307.27 614.282a136.909 136.909 0 0 1-4.675 8.54 112.128 112.128 0 0 1-57.155 49.608q-3.584 1.352-7.27 2.478a138.947 138.947 0 0 1-40.592 5.632h-0.379l-140.897 0.42V363.52l143.923 0.65q71.48 0 104.576 52.874c1.756 2.806 3.349 5.76 4.885 8.771 12.61 24.745 17.976 56.207 17.976 91.305 0 38.543-6.144 69.796-20.393 97.162zM251.373 460.96a68.127 68.127 0 0 0-15.872-21.545 48.61 48.61 0 0 0-9.067-6.595 52.772 52.772 0 0 0-9.216-3.993 60.902 60.902 0 0 0-2.735-0.845 92.16 92.16 0 0 0-25.062-3.021h-61.44v194.56h61.44a76.027 76.027 0 0 0 17.434-1.905 56.57 56.57 0 0 0 21.975-10.352 66.14 66.14 0 0 0 16.84-20.02 123.622 123.622 0 0 0 6.947-14.305 110.986 110.986 0 0 0 3.845-11.438 150.758 150.758 0 0 0 5.09-41.784c0.005-25.682-3.39-44.437-10.179-58.757z m370.98 308.869a510.858 510.858 0 0 0-220.764 0c-2.524-14.183-4.772-28.467-6.887-42.788H629.23c-2.094 14.336-4.342 28.605-6.866 42.788zM401.6 254.172a513.428 513.428 0 0 0 110.382 12.068 513.413 513.413 0 0 0 110.382-12.068c2.524 14.188 4.772 28.467 6.887 42.788H394.734c2.094-14.336 4.342-28.605 6.866-42.788zM650.222 363.52v317.44l-14.874-0.087-57.344-0.328L450.542 471.04v209.92h-71.68V363.52h76.8l122.88 209.92V363.52h71.68z m140.18 106.834a61.716 61.716 0 0 0 21.571 8.36l77.481 18.945q39.173 9.687 57.672 25.088c16.727 13.824 25.656 37.31 25.656 63.421 0 31.99-11.146 53.248-32.328 70.84a121.784 121.784 0 0 1-52.736 24.966 187.756 187.756 0 0 1-40.391 4.096q-9.657 0-18.632-0.594-44.882-2.954-72.873-20.7a93.522 93.522 0 0 1-19.691-16.564 95.744 95.744 0 0 1-7.06-8.913 83.574 83.574 0 0 1-1.424-2.095 90.015 90.015 0 0 1-5.392-9.098c-0.076-0.153-0.169-0.297-0.245-0.455a101.494 101.494 0 0 1-10.374-46.592h66.56c0 12.917 1.024 22.973 8.679 31.482a47.729 47.729 0 0 0 9.928 8.285 54.692 54.692 0 0 0 5.954 3.25 69.898 69.898 0 0 0 13.9 4.732 113.966 113.966 0 0 0 25.816 2.662 106.619 106.619 0 0 0 45.005-7.926 35.461 35.461 0 0 0 18.201-17.638 37.888 37.888 0 0 0 2.98-15.36 28.099 28.099 0 0 0-15.872-25.969 96.256 96.256 0 0 0-15.662-6.144q-5.181-1.653-11.638-3.415t-14.177-3.63l-33.976-7.926q-19.021-4.454-33.526-9.036-9.667-3.072-17.321-6.144a98.017 98.017 0 0 1-18.432-9.452 67.036 67.036 0 0 1-23.48-28.99 103.818 103.818 0 0 1-7.793-41.59 95.918 95.918 0 0 1 3.072-25.087 79.314 79.314 0 0 1 5.499-14.567 85.816 85.816 0 0 1 8.264-13.347q2.411-3.22 5.17-6.354a101.176 101.176 0 0 1 53.638-30.643 193.853 193.853 0 0 1 46.08-5.013 192.317 192.317 0 0 1 30.449 2.284q42.685 6.85 67.507 34.252a102.912 102.912 0 0 1 26.081 68.69h-66.56c-0.369-3.154-0.732-6.318-1.162-9.39s-0.922-6.067-1.536-8.873a58.583 58.583 0 0 0-1.065-4.06 26.624 26.624 0 0 0-4.956-9.81 47.892 47.892 0 0 0-21.35-13.865 72.269 72.269 0 0 0-7.056-2.022 111.39 111.39 0 0 0-25.293-2.601 108.001 108.001 0 0 0-12.083 0.701 69.601 69.601 0 0 0-21.745 5.817c-1.024 0.48-2.165 0.87-3.148 1.408a38.18 38.18 0 0 0-10.886 8.832l-0.117 0.122a31.995 31.995 0 0 0-7.045 20.992 29.491 29.491 0 0 0 6.681 19.968 28.314 28.314 0 0 0 5.182 4.67zM332.466 790.252a512.456 512.456 0 0 0-107.495 55.52 441.462 441.462 0 0 0 62.756 45.144 442.557 442.557 0 0 1 59.494-29.496c5.12 21.985 10.804 43.755 16.856 65.367a437.32 437.32 0 0 0 80.896 20.48c-10.957-35.216-20.777-70.923-29.103-107.218a441.405 441.405 0 0 1 192.246 0c-8.32 36.295-18.145 72.002-29.097 107.218a437.356 437.356 0 0 0 80.896-20.48 1533.44 1533.44 0 0 0 16.855-65.367 442.527 442.527 0 0 1 59.495 29.496 441.748 441.748 0 0 0 62.766-45.143 512.558 512.558 0 0 0-107.495-55.521q5.76-31.381 10.194-63.212h274.944a512 512 0 0 1-929.28 0h274.944q4.414 31.81 10.128 63.212z" fill="#1296DB" p-id="7122"></path></svg>