<?xml version="1.0" standalone="no"?><!DOCTYPE svg PUBLIC "-//W3C//DTD SVG 1.1//EN" "http://www.w3.org/Graphics/SVG/1.1/DTD/svg11.dtd"><svg t="1739555080973" class="icon" viewBox="0 0 1024 1024" version="1.1" xmlns="http://www.w3.org/2000/svg" p-id="4524" xmlns:xlink="http://www.w3.org/1999/xlink" width="128" height="128"><path d="M453.853653 898.346667c66.056533-5.6448 124.599467-29.640533 175.146667-72.576 6.109867-5.188267 11.4176-7.552 19.502933-4.202667 37.1328 15.3856 76.053333 16.0256 115.178667 12.168533 11.648-1.147733 23.688533-2.594133 34.372267-8.426666 9.122133-4.9792 14.178133-12.6976 14.2464-23.210667 0.068267-10.4704-6.801067-15.223467-15.441067-19.080533-23.4112-10.423467-46.523733-21.4912-70.788267-29.8496-8.430933-2.914133-9.1648-6.912-3.515733-14.327467 23.598933-30.9248 50.363733-59.306667 69.960533-93.495467 42.551467-74.231467 64.746667-153.856 67.5968-239.018666 0.366933-10.811733 3.4688-16 14.660267-17.237334 21.572267-2.389333 41.540267-10.0608 60.356267-20.778666 61.504-35.042133 84.778667-91.477333 88.823466-158.613334a28.714667 28.714667 0 0 0-1.309866-10.171733l0.0256 0.021333c-3.882667-12.283733-15.488-15.291733-24.725334-6.4512-6.062933 5.806933-11.899733 11.9168-17.642666 18.069334-13.303467 14.280533-30.101333 21.858133-49.169067 21.009066-33.7536-1.514667-63.714133 6.314667-88.618667 29.9648-5.213867 4.957867-7.744 2.961067-9.0752-3.2384-5.768533-26.862933-22.331733-45.5296-47.0784-55.381333-30.830933-12.2624-51.648-31.7312-57.873066-65.275733-1.2416-6.702933-4.804267-13.640533-12.9152-14.442667-8.5248-0.849067-11.396267 6.429867-14.613334 12.4672-18.0352 33.821867-21.205333 70.2592-16.0128 107.178667 7.031467 49.984 30.971733 90.7392 72.789334 120.017066 8.477867 5.943467 11.438933 12.1216 7.3728 22.178134-3.6992 9.181867-5.858133 18.986667-8.682667 28.5184-2.8032 9.501867-8.157867 11.592533-17.3952 7.4368-27.592533-12.4416-51.810133-29.5936-72.465067-51.566934-42.965333-45.738667-85.8624-91.4048-137.416533-127.982933-18.6112-13.201067-23.458133-35.310933-13.2352-54.0032 5.469867-10.0096 13.76-18.116267 23.778133-24.174933 3.400533-2.069333 8.571733-3.328 7.790934-8.725334-0.733867-5.166933-5.354667-7.189333-9.672534-8.840533-7.995733-3.076267-16.426667-3.511467-24.8832-3.306667-35.682133 0.853333-69.504 9.7792-102.357333 23.189334-13.3248 5.44-26.1248 13.499733-41.514667 10.794666-36.808533-6.4768-73.757867-7.509333-110.907733-3.562666-40.832 4.3648-79.863467 14.6048-114.786133 36.898133C71.30432 256.354133 29.76832 324.48 10.12032 405.320533c-23.552 96.896-4.411733 190.109867 40.853333 276.650667 48.682667 93.0816 124.8 158.562133 222.912 197.1584 52.9024 20.804267 123.208533 23.944533 179.968 19.217067z m147.805867-87.018667c-45.909333 2.525867-86.254933-9.826133-121.774933-40.503467-30.9248-26.7008-63.914667-51.106133-100.010667-70.877866-9.4464-5.166933-19.003733-9.988267-29.824-11.477334-11.810133-1.608533-18.589867 4.177067-18.0352 16.046934 0.802133 17.288533 7.786667 32.558933 16.955733 46.933333 10.269867 16.093867 6.272 27.2512-12.292266 32.763733-20.5184 6.084267-40.554667 1.949867-59.370667-6.0416-26.973867-11.456-50.154667-29.064533-71.5008-49.0624-11.741867-11.319467-23.778133-22.344533-34.372267-34.786133-35.818667-39.927467-60.194133-86.468267-77.5424-136.750933-14.037333-40.661333-22.976-82.474667-23.594666-125.7088-0.277333-18.577067 3.882667-23.377067 22.237866-27.1872 38.254933-7.944533 75.383467-1.053867 112.098134 9.092266 79.1296 21.8368 144.221867 65.390933 197.226666 127.7312 35.0592 41.211733 64.448 86.122667 92.501334 132.317867 17.3696 28.608 40.413867 53.614933 63.6416 77.998933 17.416533 18.299733 35.336533 36.023467 55.991466 50.7648 2.090667 1.493333 4.846933 2.5472 5.102934 6.429867-5.333333 3.4432-11.579733 1.9968-17.437867 2.3168z m-62.724267-311.0912c-0.0256-8.149333 4.087467-12.718933 12.4032-12.9024 7.675733-0.162133 12.548267 3.5584 12.433067 11.392-0.1152 8.2176-4.573867 13.312-12.6848 13.9776-8.4096-0.456533-12.130133-4.8896-12.151467-12.4672z m120.439467 74.461867c-5.1712 1.6512-10.410667 2.410667-14.1312 2.274133-35.5456 0.136533-61.393067-29.713067-57.442133-64.426667 3.677867-32.328533-4.501333-42.385067-37.4016-46.173866-2.645333-0.298667-5.307733-0.853333-7.812267-1.749334-12.177067-4.309333-14.1312-11.797333-5.742933-21.5552 8.96-10.4704 28.855467-13.960533 46.020266-7.739733 21.9648 7.970133 38.2976 23.488 53.051734 40.7552 15.965867 18.688 29.1072 39.330133 39.837866 61.418667 10.568533 21.768533 6.801067 29.828267-16.3584 37.1968h-0.021333z" fill="#5472F9" p-id="4525"></path></svg>