<?xml version="1.0" encoding="UTF-8"?>
<svg id="_图层_1" data-name="图层 1" xmlns="http://www.w3.org/2000/svg" xmlns:xlink="http://www.w3.org/1999/xlink" viewBox="0 0 1740 400">
  <defs>
    <style>
      .cls-1 {
        fill: url(#_未命名的渐变-3);
      }

      .cls-1, .cls-2, .cls-3, .cls-4, .cls-5, .cls-6, .cls-7, .cls-8, .cls-9, .cls-10, .cls-11, .cls-12, .cls-13, .cls-14, .cls-15, .cls-16, .cls-17, .cls-18, .cls-19 {
        stroke-width: 0px;
      }

      .cls-2 {
        fill: url(#_未命名的渐变_17-5);
      }

      .cls-3 {
        fill: #5472f9;
      }

      .cls-4 {
        fill: url(#_未命名的渐变-8);
      }

      .cls-4, .cls-10 {
        fill-rule: evenodd;
      }

      .cls-5 {
        fill: url(#_未命名的渐变-5);
      }

      .cls-6 {
        fill: url(#_未命名的渐变);
      }

      .cls-7 {
        fill: url(#_未命名的渐变_17);
      }

      .cls-8 {
        fill: none;
      }

      .cls-9 {
        fill: url(#_未命名的渐变-2);
      }

      .cls-10 {
        fill: url(#_未命名的渐变_17-8);
      }

      .cls-11 {
        fill: url(#_未命名的渐变-4);
      }

      .cls-12 {
        fill: url(#_未命名的渐变_17-9);
      }

      .cls-13 {
        fill: url(#_未命名的渐变-7);
      }

      .cls-14 {
        fill: url(#_未命名的渐变_17-6);
      }

      .cls-15 {
        fill: url(#_未命名的渐变-6);
      }

      .cls-16 {
        fill: url(#_未命名的渐变_17-4);
      }

      .cls-17 {
        fill: url(#_未命名的渐变_17-3);
      }

      .cls-18 {
        fill: url(#_未命名的渐变_17-2);
      }

      .cls-19 {
        fill: url(#_未命名的渐变_17-7);
      }
    </style>
    <linearGradient id="_未命名的渐变" data-name="未命名的渐变" x1="620.67" y1="352.06" x2="2046.96" y2="352.06" gradientTransform="translate(-203.34 659.04) scale(1.24 -1.24)" gradientUnits="userSpaceOnUse">
      <stop offset="0" stop-color="#fff"/>
      <stop offset="1" stop-color="#000"/>
    </linearGradient>
    <linearGradient id="_未命名的渐变-2" data-name="未命名的渐变" x1="620.67" y1="383.27" x2="2046.96" y2="383.27" xlink:href="#_未命名的渐变"/>
    <linearGradient id="_未命名的渐变-3" data-name="未命名的渐变" x1="620.67" y1="367.66" x2="2046.96" y2="367.66" xlink:href="#_未命名的渐变"/>
    <linearGradient id="_未命名的渐变-4" data-name="未命名的渐变" x1="620.67" y1="367.66" x2="2046.96" y2="367.66" xlink:href="#_未命名的渐变"/>
    <linearGradient id="_未命名的渐变-5" data-name="未命名的渐变" x1="620.53" y1="367.67" x2="2046.96" y2="367.67" xlink:href="#_未命名的渐变"/>
    <linearGradient id="_未命名的渐变-6" data-name="未命名的渐变" x1="620.53" y1="367.66" x2="2046.83" y2="367.66" xlink:href="#_未命名的渐变"/>
    <linearGradient id="_未命名的渐变-7" data-name="未命名的渐变" x1="620.53" y1="367.66" x2="2046.83" y2="367.66" xlink:href="#_未命名的渐变"/>
    <linearGradient id="_未命名的渐变-8" data-name="未命名的渐变" x1="620.67" y1="385.79" x2="2047.54" y2="385.79" xlink:href="#_未命名的渐变"/>
    <linearGradient id="_未命名的渐变_17" data-name="未命名的渐变 17" x1="2046.96" y1="352.06" x2="620.67" y2="352.06" gradientTransform="translate(-203.34 659.04) scale(1.24 -1.24)" gradientUnits="userSpaceOnUse">
      <stop offset="0" stop-color="#4d6bfe"/>
      <stop offset=".6" stop-color="#3982ff"/>
      <stop offset="1" stop-color="#2498ff"/>
    </linearGradient>
    <linearGradient id="_未命名的渐变_17-2" data-name="未命名的渐变 17" x1="2046.96" y1="383.27" x2="620.67" y2="383.27" xlink:href="#_未命名的渐变_17"/>
    <linearGradient id="_未命名的渐变_17-3" data-name="未命名的渐变 17" x1="2046.96" y1="367.66" x2="620.67" y2="367.66" xlink:href="#_未命名的渐变_17"/>
    <linearGradient id="_未命名的渐变_17-4" data-name="未命名的渐变 17" x1="2046.96" y1="367.66" x2="620.67" y2="367.66" xlink:href="#_未命名的渐变_17"/>
    <linearGradient id="_未命名的渐变_17-5" data-name="未命名的渐变 17" x1="2046.96" y1="367.67" x2="620.67" y2="367.67" xlink:href="#_未命名的渐变_17"/>
    <linearGradient id="_未命名的渐变_17-6" data-name="未命名的渐变 17" x1="2046.96" y1="367.66" x2="620.67" y2="367.66" xlink:href="#_未命名的渐变_17"/>
    <linearGradient id="_未命名的渐变_17-7" data-name="未命名的渐变 17" x1="2046.96" y1="367.66" x2="620.67" y2="367.66" xlink:href="#_未命名的渐变_17"/>
    <linearGradient id="_未命名的渐变_17-8" data-name="未命名的渐变 17" x1="2046.96" y1="385.79" x2="620.67" y2="385.79" xlink:href="#_未命名的渐变_17"/>
    <linearGradient id="_未命名的渐变_17-9" data-name="未命名的渐变 17" x1="2046.96" y1="365.16" x2="620.67" y2="365.16" xlink:href="#_未命名的渐变_17"/>
  </defs>
  <path class="cls-3" d="M233.79,399.01c34.03-2.91,64.18-15.27,90.22-37.38,3.15-2.67,5.88-3.89,10.05-2.16,19.13,7.93,39.18,8.25,59.33,6.27,6-.59,12.2-1.34,17.71-4.34,4.7-2.56,7.3-6.54,7.34-11.96.04-5.39-3.5-7.84-7.95-9.83-12.06-5.37-23.96-11.07-36.46-15.38-4.34-1.5-4.72-3.56-1.81-7.38,12.16-15.93,25.94-30.55,36.04-48.16,21.92-38.24,33.35-79.25,34.82-123.12.19-5.57,1.79-8.24,7.55-8.88,11.11-1.23,21.4-5.18,31.09-10.7,31.68-18.05,43.67-47.12,45.75-81.7.09-1.77-.14-3.55-.67-5.24h.01c-2-6.32-7.98-7.87-12.74-3.31-3.12,2.99-6.13,6.14-9.09,9.31-6.85,7.36-15.51,11.26-25.33,10.82-17.39-.78-32.82,3.25-45.65,15.44-2.69,2.55-3.99,1.53-4.67-1.67-2.97-13.84-11.5-23.45-24.25-28.53-15.88-6.32-26.6-16.35-29.81-33.62-.64-3.45-2.47-7.03-6.65-7.44-4.39-.44-5.87,3.31-7.53,6.42-9.29,17.42-10.92,36.19-8.25,55.21,3.62,25.75,15.95,46.74,37.49,61.82,4.37,3.06,5.89,6.24,3.8,11.42-1.91,4.73-3.02,9.78-4.47,14.69-1.44,4.89-4.2,5.97-8.96,3.83-14.21-6.41-26.69-15.24-37.33-26.56-22.13-23.56-44.23-47.08-70.78-65.93-9.59-6.8-12.08-18.19-6.82-27.82,2.82-5.16,7.09-9.33,12.25-12.45,1.75-1.07,4.42-1.71,4.01-4.49-.38-2.66-2.76-3.7-4.98-4.55-4.12-1.58-8.46-1.81-12.82-1.7-18.38.44-35.8,5.04-52.73,11.95-6.86,2.8-13.46,6.95-21.38,5.56-18.96-3.34-37.99-3.87-57.13-1.84-21.03,2.25-41.14,7.52-59.13,19.01C36.73,68.31,15.34,103.41,5.21,145.05c-12.13,49.91-2.27,97.93,21.04,142.51,25.08,47.95,64.29,81.68,114.82,101.56,27.25,10.72,63.47,12.33,92.7,9.9ZM309.92,354.19c-23.65,1.3-44.43-5.06-62.73-20.86-15.93-13.75-32.92-26.33-51.52-36.51-4.87-2.66-9.79-5.15-15.36-5.91-6.08-.83-9.58,2.15-9.29,8.27.41,8.91,4.01,16.77,8.73,24.18,5.29,8.29,3.23,14.04-6.33,16.88-10.57,3.13-20.89,1-30.58-3.11-13.89-5.9-25.84-14.97-36.83-25.27-6.05-5.83-12.25-11.51-17.71-17.92-18.45-20.57-31.01-44.54-39.94-70.44-7.23-20.95-11.84-42.48-12.15-64.75-.14-9.57,2-12.04,11.45-14,19.71-4.09,38.83-.54,57.74,4.68,40.76,11.25,74.29,33.68,101.59,65.8,18.06,21.23,33.2,44.36,47.65,68.16,8.95,14.74,20.82,27.62,32.78,40.18,8.97,9.43,18.2,18.56,28.84,26.15,1.08.77,2.5,1.31,2.63,3.31-2.75,1.77-5.96,1.03-8.98,1.19ZM277.61,193.94c-.01-4.2,2.11-6.55,6.39-6.65,3.95-.08,6.46,1.83,6.4,5.87-.06,4.23-2.36,6.86-6.53,7.2-4.33-.24-6.25-2.52-6.26-6.42ZM339.65,232.3c-2.66.85-5.36,1.24-7.28,1.17-18.31.07-31.62-15.31-29.59-33.19,1.89-16.65-2.32-21.83-19.27-23.78-1.36-.15-2.73-.44-4.02-.9-6.27-2.22-7.28-6.08-2.96-11.1,4.62-5.39,14.86-7.19,23.71-3.99,11.31,4.11,19.73,12.1,27.33,20.99,8.22,9.63,14.99,20.26,20.52,31.64,5.44,11.21,3.5,15.36-8.43,19.16,0,0-.01,0-.01,0Z"/>
  <g>
    <path id="_矢量_2" data-name="矢量 2" class="cls-6" d="M1080.98,133.18c-11.3,0-22.69,2.48-30.09,9.46-.64.6-1.24,1.24-1.84,1.88h-5.42v-11.35h-29.72v178.61h29.72v-110.99c0-11.44,2.48-22.92,9.37-30.41,6.89-7.53,17.46-10.2,27.98-10.2s21.09,2.66,27.98,10.2c6.89,7.49,9.37,18.97,9.37,30.41s-2.48,22.88-9.37,30.36c-6.89,7.53-17.5,10.2-27.98,10.2h-16.91v27.01h16.91c17.5,0,35.1-4.46,46.58-16.95,11.48-12.5,15.57-31.61,15.57-50.62s-4.09-38.17-15.57-50.67c-11.48-12.5-29.08-16.95-46.58-16.95Z"/>
    <path id="_矢量_2-2" data-name="矢量 2" class="cls-9" d="M665.79,205.49c0,11.44-2.48,22.92-9.37,30.41-6.89,7.49-17.46,10.2-27.98,10.2s-21.09-2.71-27.98-10.2c-6.89-7.49-9.37-18.97-9.37-30.41s2.48-22.92,9.37-30.41c6.89-7.49,17.46-10.15,27.98-10.15h16.91v-27.01h-16.91c-17.5,0-35.1,4.46-46.58,16.95-11.48,12.5-15.57,31.61-15.57,50.62s4.09,38.17,15.57,50.67c11.48,12.5,29.08,16.95,46.58,16.95,11.3,0,22.65-2.53,30.09-9.46.64-.6,1.24-1.24,1.79-1.88h5.47v11.35h29.72V94.46h-29.72v111.03Z"/>
    <path id="_矢量_2-3" data-name="矢量 2" class="cls-1" d="M780.08,133.18c-18.19,0-36.47,4.64-48.42,17.55-11.9,12.91-16.17,32.71-16.17,52.42s4.27,39.51,16.17,52.42c11.94,12.91,30.23,17.55,48.42,17.55s36.47-4.64,48.42-17.55c6.11-6.66,10.24-15.11,12.82-24.48h-29.4c-.83,1.24-1.75,2.43-2.76,3.54-7.17,7.76-18.15,10.52-29.08,10.52s-21.87-2.76-29.03-10.52c-7.17-7.76-9.74-19.66-9.74-31.47s2.57-23.7,9.74-31.47c7.17-7.76,18.15-10.52,29.03-10.52s21.91,2.76,29.08,10.52c4.96,5.37,7.72,12.68,8.96,20.63h-52.55v21.68h79.15v-10.84c0-19.71-4.27-39.51-16.22-52.42-11.9-12.91-30.23-17.55-48.42-17.55Z"/>
    <path id="_矢量_2-4" data-name="矢量 2" class="cls-11" d="M929.29,133.18c-18.15,0-36.47,4.64-48.37,17.55-11.94,12.91-16.22,32.71-16.22,52.42s4.27,39.51,16.22,52.42c11.9,12.91,30.23,17.55,48.37,17.55s36.47-4.64,48.42-17.55c6.16-6.66,10.24-15.11,12.82-24.48h-29.4c-.83,1.24-1.75,2.43-2.76,3.54-7.17,7.76-18.15,10.52-29.03,10.52s-21.91-2.76-29.08-10.52c-7.17-7.76-9.74-19.66-9.74-31.47s2.57-23.7,9.74-31.47c7.17-7.76,18.15-10.52,29.08-10.52s21.87,2.76,29.03,10.52c4.96,5.37,7.72,12.68,8.96,20.63h-52.55v21.68h79.15v-10.84c0-19.71-4.27-39.51-16.22-52.42-11.9-12.91-30.23-17.55-48.42-17.55Z"/>
    <path id="_矢量_2-5" data-name="矢量 2" class="cls-5" d="M1276.12,200.85c-11.9-7.63-30.23-10.34-48.37-10.34h.64c-7.76,0-15.57-1.06-20.67-4.04-5.1-2.94-6.89-7.49-6.89-11.99s1.79-9.05,6.89-11.99c5.1-2.99,12.91-4.04,20.67-4.04s15.57,1.1,20.63,4.04c5.1,2.94,6.94,7.49,6.94,11.99h30.27c0-11.62-3.9-23.29-14.7-30.92-10.8-7.63-27.33-10.38-43.78-10.38s-32.98,2.76-43.78,10.38c-10.8,7.63-14.65,19.29-14.65,30.92s3.86,23.34,14.65,30.92c10.8,7.63,27.33,10.38,43.78,10.38,8.54,0,17.92,1.06,23.52,4,5.65,2.99,7.67,7.53,7.67,12.04s-2.02,9.05-7.67,11.99c-5.6,2.94-14.24,4-22.83,4s-17.18-1.06-22.83-4c-5.6-2.99-7.63-7.49-7.63-11.99h-34.87c0,11.58,4.27,23.29,16.22,30.92,11.94,7.63,30.23,10.34,48.42,10.34s36.47-2.71,48.37-10.34c11.94-7.63,16.22-19.34,16.22-30.92s-4.27-23.34-16.22-30.96Z"/>
    <path id="_矢量_2-6" data-name="矢量 2" class="cls-15" d="M1376.95,133.18c-18.19,0-36.47,4.64-48.42,17.55-11.9,12.91-16.22,32.71-16.22,52.42s4.32,39.51,16.22,52.42c11.94,12.91,30.23,17.55,48.42,17.55s36.47-4.64,48.42-17.55c6.11-6.66,10.24-15.11,12.77-24.48h-29.35c-.83,1.24-1.75,2.43-2.76,3.54-7.17,7.76-18.15,10.52-29.08,10.52s-21.91-2.76-29.03-10.52c-7.17-7.76-9.74-19.66-9.74-31.47s2.57-23.7,9.74-31.47c7.12-7.76,18.15-10.52,29.03-10.52s21.91,2.76,29.08,10.52c4.96,5.37,7.72,12.68,8.96,20.63h-52.6v21.68h79.2v-10.84c0-19.71-4.27-39.51-16.22-52.42-11.94-12.91-30.23-17.55-48.42-17.55Z"/>
    <path id="_矢量_2-7" data-name="矢量 2" class="cls-13" d="M1526.16,133.18c-18.19,0-36.47,4.64-48.42,17.55-11.9,12.91-16.22,32.71-16.22,52.42s4.32,39.51,16.22,52.42c11.94,12.91,30.23,17.55,48.42,17.55s36.47-4.64,48.42-17.55c6.11-6.66,10.24-15.11,12.82-24.48h-29.4c-.83,1.24-1.75,2.43-2.76,3.54-7.17,7.76-18.15,10.52-29.08,10.52s-21.91-2.76-29.03-10.52c-7.17-7.76-9.74-19.66-9.74-31.47s2.57-23.7,9.74-31.47c7.12-7.76,18.15-10.52,29.03-10.52s21.91,2.76,29.08,10.52c4.96,5.37,7.72,12.68,8.96,20.63h-52.55v21.68h79.15v-10.84c0-19.71-4.27-39.51-16.22-52.42-11.94-12.91-30.23-17.55-48.42-17.55Z"/>
    <path id="_矢量_2-8" data-name="矢量 2" class="cls-4" d="M1610.73,88.21h29.72v184.9h-29.72V88.21Z"/>
    <path id="_矢量_2-9" data-name="矢量 2" class="cls-8" d="M1703.16,139.38l-48.79,59.58,48.79,74.14h36.84l-48.79-74.14,48.79-59.58h-36.84Z"/>
    <path id="_矢量_2-10" data-name="矢量 2" class="cls-7" d="M1080.98,133.18c-11.3,0-22.69,2.48-30.09,9.46-.64.6-1.24,1.24-1.84,1.88h-5.42v-11.35h-29.72v178.61h29.72v-110.99c0-11.44,2.48-22.92,9.37-30.41,6.89-7.53,17.46-10.2,27.98-10.2s21.09,2.66,27.98,10.2c6.89,7.49,9.37,18.97,9.37,30.41s-2.48,22.88-9.37,30.36c-6.89,7.53-17.5,10.2-27.98,10.2h-16.91v27.01h16.91c17.5,0,35.1-4.46,46.58-16.95,11.48-12.5,15.57-31.61,15.57-50.62s-4.09-38.17-15.57-50.67c-11.48-12.5-29.08-16.95-46.58-16.95Z"/>
    <path id="_矢量_2-11" data-name="矢量 2" class="cls-18" d="M665.79,205.49c0,11.44-2.48,22.92-9.37,30.41-6.89,7.49-17.46,10.2-27.98,10.2s-21.09-2.71-27.98-10.2c-6.89-7.49-9.37-18.97-9.37-30.41s2.48-22.92,9.37-30.41c6.89-7.49,17.46-10.15,27.98-10.15h16.91v-27.01h-16.91c-17.5,0-35.1,4.46-46.58,16.95-11.48,12.5-15.57,31.61-15.57,50.62s4.09,38.17,15.57,50.67c11.48,12.5,29.08,16.95,46.58,16.95,11.3,0,22.65-2.53,30.09-9.46.64-.6,1.24-1.24,1.79-1.88h5.47v11.35h29.72V94.46h-29.72v111.03Z"/>
    <path id="_矢量_2-12" data-name="矢量 2" class="cls-17" d="M780.08,133.18c-18.19,0-36.47,4.64-48.42,17.55-11.9,12.91-16.17,32.71-16.17,52.42s4.27,39.51,16.17,52.42c11.94,12.91,30.23,17.55,48.42,17.55s36.47-4.64,48.42-17.55c6.11-6.66,10.24-15.11,12.82-24.48h-29.4c-.83,1.24-1.75,2.43-2.76,3.54-7.17,7.76-18.15,10.52-29.08,10.52s-21.87-2.76-29.03-10.52c-7.17-7.76-9.74-19.66-9.74-31.47s2.57-23.7,9.74-31.47c7.17-7.76,18.15-10.52,29.03-10.52s21.91,2.76,29.08,10.52c4.96,5.37,7.72,12.68,8.96,20.63h-52.55v21.68h79.15v-10.84c0-19.71-4.27-39.51-16.22-52.42-11.9-12.91-30.23-17.55-48.42-17.55Z"/>
    <path id="_矢量_2-13" data-name="矢量 2" class="cls-16" d="M929.29,133.18c-18.15,0-36.47,4.64-48.37,17.55-11.94,12.91-16.22,32.71-16.22,52.42s4.27,39.51,16.22,52.42c11.9,12.91,30.23,17.55,48.37,17.55s36.47-4.64,48.42-17.55c6.16-6.66,10.24-15.11,12.82-24.48h-29.4c-.83,1.24-1.75,2.43-2.76,3.54-7.17,7.76-18.15,10.52-29.03,10.52s-21.91-2.76-29.08-10.52c-7.17-7.76-9.74-19.66-9.74-31.47s2.57-23.7,9.74-31.47c7.17-7.76,18.15-10.52,29.08-10.52s21.87,2.76,29.03,10.52c4.96,5.37,7.72,12.68,8.96,20.63h-52.55v21.68h79.15v-10.84c0-19.71-4.27-39.51-16.22-52.42-11.9-12.91-30.23-17.55-48.42-17.55Z"/>
    <path id="_矢量_2-14" data-name="矢量 2" class="cls-2" d="M1276.12,200.85c-11.9-7.63-30.23-10.34-48.37-10.34h.64c-7.76,0-15.57-1.06-20.67-4.04-5.1-2.94-6.89-7.49-6.89-11.99s1.79-9.05,6.89-11.99c5.1-2.99,12.91-4.04,20.67-4.04s15.57,1.1,20.63,4.04c5.1,2.94,6.94,7.49,6.94,11.99h30.27c0-11.62-3.9-23.29-14.7-30.92-10.8-7.63-27.33-10.38-43.78-10.38s-32.98,2.76-43.78,10.38c-10.8,7.63-14.65,19.29-14.65,30.92s3.86,23.34,14.65,30.92c10.8,7.63,27.33,10.38,43.78,10.38,8.54,0,17.92,1.06,23.52,4,5.65,2.99,7.67,7.53,7.67,12.04s-2.02,9.05-7.67,11.99c-5.6,2.94-14.24,4-22.83,4s-17.18-1.06-22.83-4c-5.6-2.99-7.63-7.49-7.63-11.99h-34.87c0,11.58,4.27,23.29,16.22,30.92,11.94,7.63,30.23,10.34,48.42,10.34s36.47-2.71,48.37-10.34c11.94-7.63,16.22-19.34,16.22-30.92s-4.27-23.34-16.22-30.96Z"/>
    <path id="_矢量_2-15" data-name="矢量 2" class="cls-14" d="M1376.95,133.18c-18.19,0-36.47,4.64-48.42,17.55-11.9,12.91-16.22,32.71-16.22,52.42s4.32,39.51,16.22,52.42c11.94,12.91,30.23,17.55,48.42,17.55s36.47-4.64,48.42-17.55c6.11-6.66,10.24-15.11,12.77-24.48h-29.35c-.83,1.24-1.75,2.43-2.76,3.54-7.17,7.76-18.15,10.52-29.08,10.52s-21.91-2.76-29.03-10.52c-7.17-7.76-9.74-19.66-9.74-31.47s2.57-23.7,9.74-31.47c7.12-7.76,18.15-10.52,29.03-10.52s21.91,2.76,29.08,10.52c4.96,5.37,7.72,12.68,8.96,20.63h-52.6v21.68h79.2v-10.84c0-19.71-4.27-39.51-16.22-52.42-11.94-12.91-30.23-17.55-48.42-17.55Z"/>
    <path id="_矢量_2-16" data-name="矢量 2" class="cls-19" d="M1526.16,133.18c-18.19,0-36.47,4.64-48.42,17.55-11.9,12.91-16.22,32.71-16.22,52.42s4.32,39.51,16.22,52.42c11.94,12.91,30.23,17.55,48.42,17.55s36.47-4.64,48.42-17.55c6.11-6.66,10.24-15.11,12.82-24.48h-29.4c-.83,1.24-1.75,2.43-2.76,3.54-7.17,7.76-18.15,10.52-29.08,10.52s-21.91-2.76-29.03-10.52c-7.17-7.76-9.74-19.66-9.74-31.47s2.57-23.7,9.74-31.47c7.12-7.76,18.15-10.52,29.03-10.52s21.91,2.76,29.08,10.52c4.96,5.37,7.72,12.68,8.96,20.63h-52.55v21.68h79.15v-10.84c0-19.71-4.27-39.51-16.22-52.42-11.94-12.91-30.23-17.55-48.42-17.55Z"/>
    <path id="_矢量_2-17" data-name="矢量 2" class="cls-10" d="M1610.73,88.21h29.72v184.9h-29.72V88.21Z"/>
    <path id="_矢量_2-18" data-name="矢量 2" class="cls-12" d="M1703.16,139.38l-48.79,59.58,48.79,74.14h36.84l-48.79-74.14,48.79-59.58h-36.84Z"/>
  </g>
</svg>