<?xml version="1.0" encoding="UTF-8"?>
<svg id="_图层_1" data-name="图层 1" xmlns="http://www.w3.org/2000/svg" version="1.1" viewBox="0 0 128 97">
  <defs>
    <style>
      .cls-1 {
        fill: #5472f9;
        stroke-width: 0px;
      }
    </style>
  </defs>
  <path class="cls-1" d="M56.7,96.8c8.3-.7,15.6-3.7,21.9-9.1.8-.6,1.4-.9,2.4-.5,4.6,1.9,9.5,2,14.4,1.5,1.5-.1,3-.3,4.3-1.1,1.1-.6,1.8-1.6,1.8-2.9,0-1.3-.9-1.9-1.9-2.4-2.9-1.3-5.8-2.7-8.8-3.7-1.1-.4-1.1-.9-.4-1.8,2.9-3.9,6.3-7.4,8.7-11.7,5.3-9.3,8.1-19.2,8.4-29.9,0-1.4.4-2,1.8-2.2,2.7-.3,5.2-1.3,7.5-2.6,7.7-4.4,10.6-11.4,11.1-19.8,0-.4,0-.9-.2-1.3h0c-.5-1.5-1.9-1.9-3.1-.8-.8.7-1.5,1.5-2.2,2.3-1.7,1.8-3.8,2.7-6.1,2.6-4.2-.2-8,.8-11.1,3.7-.7.6-1,.4-1.1-.4-.7-3.4-2.8-5.7-5.9-6.9-3.9-1.5-6.5-4-7.2-8.2-.2-.8-.6-1.7-1.6-1.8-1.1-.1-1.4.8-1.8,1.6-2.3,4.2-2.7,8.8-2,13.4.9,6.2,3.9,11.3,9.1,15,1.1.7,1.4,1.5.9,2.8-.5,1.1-.7,2.4-1.1,3.6-.4,1.2-1,1.4-2.2.9-3.4-1.6-6.5-3.7-9.1-6.4-5.4-5.7-10.7-11.4-17.2-16-2.3-1.7-2.9-4.4-1.7-6.8.7-1.3,1.7-2.3,3-3,.4-.3,1.1-.4,1-1.1,0-.6-.7-.9-1.2-1.1-1-.4-2.1-.4-3.1-.4-4.5.1-8.7,1.2-12.8,2.9-1.7.7-3.3,1.7-5.2,1.3-4.6-.8-9.2-.9-13.9-.4-5.1.5-10,1.8-14.3,4.6C8.9,16.5,3.7,25.1,1.3,35.2c-2.9,12.1-.6,23.8,5.1,34.6,6.1,11.6,15.6,19.8,27.9,24.6,6.6,2.6,15.4,3,22.5,2.4ZM75.2,85.9c-5.7.3-10.8-1.2-15.2-5.1-3.9-3.3-8-6.4-12.5-8.9-1.2-.6-2.4-1.2-3.7-1.4-1.5-.2-2.3.5-2.3,2,.1,2.2,1,4.1,2.1,5.9,1.3,2,.8,3.4-1.5,4.1-2.6.8-5.1.2-7.4-.8-3.4-1.4-6.3-3.6-8.9-6.1-1.5-1.4-3-2.8-4.3-4.3-4.5-5-7.5-10.8-9.7-17.1-1.8-5.1-2.9-10.3-2.9-15.7,0-2.3.5-2.9,2.8-3.4,4.8-1,9.4-.1,14,1.1,9.9,2.7,18,8.2,24.7,16,4.4,5.2,8.1,10.8,11.6,16.5,2.2,3.6,5.1,6.7,8,9.7,2.2,2.3,4.4,4.5,7,6.3.3.2.6.3.6.8-.7.4-1.4.2-2.2.3ZM67.4,47c0-1,.5-1.6,1.6-1.6,1,0,1.6.4,1.6,1.4,0,1-.6,1.7-1.6,1.7-1.1,0-1.5-.6-1.5-1.6ZM82.4,56.3c-.6.2-1.3.3-1.8.3-4.4,0-7.7-3.7-7.2-8.1.5-4-.6-5.3-4.7-5.8-.3,0-.7-.1-1-.2-1.5-.5-1.8-1.5-.7-2.7,1.1-1.3,3.6-1.7,5.8-1,2.7,1,4.8,2.9,6.6,5.1,2,2.3,3.6,4.9,5,7.7,1.3,2.7.9,3.7-2,4.6,0,0,0,0,0,0Z"/>
</svg>