<?xml version="1.0" standalone="no"?><!DOCTYPE svg PUBLIC "-//W3C//DTD SVG 1.1//EN" "http://www.w3.org/Graphics/SVG/1.1/DTD/svg11.dtd"><svg class="icon" width="200px" height="200.00px" viewBox="0 0 1024 1024" version="1.1" xmlns="http://www.w3.org/2000/svg"><path d="M343.29428656 433.78907073v117.64321943l204.36738759 107.08549462 193.05553959-224.72871405-76.16644334-216.43335883-89.74066098-12.82009442z" fill="#160002" /><path d="M371.19684501 490.34831084l89.74066098 33.18142087v-42.23089928l80.69118256 68.62521133-2.2623696-106.33137141 57.3133633 53.54274731-10.55772482-111.61023382s29.41080486 11.31184801 29.41080486 8.29535521V275.42319842l-149.3163939 38.46028327-95.01952338 176.46482915z" fill="#F0F1F3" /><path d="M542.38281176 558.21939897c-1.50824641 0-3.770616-0.7541232-5.27886243-2.2623696l-67.87108813-57.3133633v24.88606564c0 2.2623696-1.50824641 5.2788624-3.770616 6.78710881-2.2623696 1.50824641-4.52473921 1.50824641-7.54123201 0.75412321l-89.74066099-33.18142087c-2.2623696-0.7541232-3.770616-2.2623696-4.52473921-4.52473922-0.7541232-2.2623696-0.7541232-4.52473921 0.7541232-6.78710881l95.77364661-177.21895234c0.7541232-2.2623696 3.01649281-3.01649281 5.2788624-3.77061601l149.31639389-38.46028329c2.2623696-0.7541232 5.2788624 0 6.78710881 1.50824642 2.2623696 1.50824641 3.01649281 3.770616 3.01649282 6.03298562v118.39734262c0 2.2623696-1.50824641 5.2788624-3.77061601 6.78710882-3.01649281 2.2623696-5.2788624 3.770616-24.88606564-3.77061601l9.0494784 98.7901394c0 3.01649281-1.50824641 6.78710881-4.5247392 7.54123202-3.01649281 1.50824641-6.78710881 0.7541232-9.04947842-1.5082464l-43.7391457-40.72265288 1.50824641 87.47829135c0 3.01649281-1.50824641 6.03298562-4.52473922 7.54123203 0 2.2623696-1.50824641 3.01649281-2.26236958 3.01649279zM461.69162919 473.75760042c1.50824641 0 3.770616 0.7541232 5.27886241 2.26236959l67.11696493 56.55924012-1.5082464-88.98653778c0-3.01649281 1.50824641-6.03298562 4.5247392-7.54123202 3.01649281-1.50824641 6.03298562-0.7541232 9.04947843 1.50824642l42.23089927 39.21440646-8.2953552-90.49478417c0-3.01649281 0.7541232-5.2788624 3.01649281-6.78710881 2.2623696-1.50824641 5.2788624-2.2623696 7.54123201-0.7541232 6.03298562 2.2623696 13.57421762 5.2788624 18.85308003 6.78710881V285.22680005l-135.74217626 34.68966725-89.74066098 165.90710433 70.88758093 26.39431206v-30.91905126c0-3.01649281 1.50824641-6.03298562 4.52473921-7.54123201h2.26236961z" fill="#160002" /><path d="M99.71249247 433.78907073s113.11848021-391.38994157 572.37950994-319.74823742c0 0 192.30141639-76.16644335 322.76473024 111.61023381 0 0-68.62521134 9.80360162-149.31639391 95.01952338 0 0 138.00454588 424.57136244-305.4198966 524.86974824 0 0-18.85308003 114.62672662-138.00454588 122.16795864 0 0 29.41080486-54.29687052 16.59071045-110.10198742l-75.41232015-87.47829136 1.50824641-138.75866908 152.33288669-58.82160973s154.5952563-73.14995053 113.11848023-327.28946943c0 0-9.80360162 159.87411871-236.79468527 243.58179408-124.43032825 45.24739209-273.74672214-55.0509937-273.74672215-55.05099371z" fill="#F0F1F3" /><path d="M831.96612113 114.04083331v-6.78710881c-86.72416817-21.86957285-159.87411871 6.78710881-159.87411872 6.78710881-107.83961782-16.59071043-196.82615558-8.29535522-269.97610615 15.08246402l-1.5082464 10.55772482 64.85459534 6.03298561s179.48132196-42.98502249 272.23847574 24.13194246l-41.47677609-37.70616008s70.13345775-19.60720323 135.74217628-18.09895683zM795.01408425 260.34073439s52.7886241 94.26540019 61.83810252 148.56227069l1.5082464-39.96852968-12.82009443-50.5262545s43.73914569-43.73914569 57.31336333-55.80511691c0 0-44.49326889 22.62369604-66.36284173 41.47677608l-41.47677609-43.73914568z" fill="#BBB8BD" /><path d="M402.11589626 975.24952939c-3.01649281 0-5.2788624-1.50824641-6.78710881-3.770616-1.50824641-2.2623696-1.50824641-5.2788624 0-8.29535522 0-0.7541232 27.14843525-51.2803777 15.83658723-103.3148786L337.26130094 774.65275781c-1.50824641-1.50824641-2.2623696-3.01649281-2.2623696-5.27886242l1.50824641-138.75866906c0-3.01649281 2.2623696-6.03298562 5.2788624-7.54123202l152.33288672-58.82160973s36.95203687-18.09895683 69.37933452-66.36284172c25.64018885-39.21440646 52.7886241-105.57724821 44.49326889-208.13800362C588.38432703 344.80253297 533.33333333 437.55968675 376.47570742 495.62717326c-52.7886241 19.60720323-118.39734265 15.83658723-189.28492357-9.80360163-53.54274731-19.60720323-90.49478418-43.73914569-92.00303058-45.24739208-3.01649281-2.2623696-4.52473921-5.2788624-3.01649281-9.04947842 1.50824641-3.770616 30.16492806-101.052509 116.13497303-190.03904678 79.18293616-82.19942896 223.97459084-172.69421314 463.03164572-135.74217626 21.86957285-7.54123201 205.12151082-64.85459532 330.30596225 115.38084983 1.50824641 2.2623696 1.50824641 5.2788624 0.7541232 7.541232-0.7541232 2.2623696-3.770616 4.52473921-6.03298561 4.52473921-0.7541232 0-65.60871853 10.55772482-141.02103868 88.98653779 9.04947843 30.16492806 52.7886241 198.33440199-29.41080486 343.12605668-52.7886241 92.75715378-146.29990109 155.34937952-278.27146136 186.26843076-6.78710881 24.13194244-36.19791367 116.88909623-145.54577789 123.67620503 0.7541232 0 0.7541232 0 0 0z m-50.52625448-208.89212679l73.14995054 85.21592176c0.7541232 0.7541232 1.50824641 2.2623696 1.5082464 3.77061601 9.80360162 42.2308993-3.01649281 82.95355218-11.31184804 102.5607554 98.79013939-13.57421762 116.13497302-109.34786421 116.88909624-113.87260343 0.7541232-3.01649281 3.01649281-6.03298562 6.03298562-6.78710882 129.70919066-29.41080486 221.71222124-89.74066098 272.99259894-179.48132194 85.21592177-150.07051709 27.90255844-333.32245505 27.14843526-334.83070147-0.7541232-3.01649281 0-6.03298562 1.50824639-8.29535522 62.59222574-65.60871853 117.64321943-87.47829138 141.77516189-94.26540018-51.2803777-69.37933454-117.64321943-107.83961782-196.8261556-113.11848021-61.83810252-4.52473921-109.34786421 13.57421762-109.34786421 13.57421761-1.50824641 0.7541232-3.01649281 0.7541232-4.52473921 0.75412321-187.77667717-29.41080486-339.35544067 14.32834082-450.9656745 130.46331386-71.64170414 74.65819695-103.31487861 156.10350271-110.85611061 177.97307554 27.14843525 16.59071043 154.5952563 88.98653777 261.68075092 49.7721313 114.62672662-42.2308993 171.18596675-104.0690018 199.08852519-148.56227068 30.16492806-48.2638849 32.42729765-87.47829138 32.42729767-87.47829138 0-3.770616 3.770616-7.54123201 7.54123201-7.54123202s7.54123201 3.01649281 8.29535522 6.78710881c21.86957285 133.47980666-10.55772482 217.94160523-42.23089927 264.69724373-34.68966726 51.2803777-73.90407375 70.13345775-75.41232017 70.88758094L352.34376497 635.89408873l-0.75412319 130.46331387z" fill="#160002" /><path d="M363.20663426 778.44282047a187.02255396 142.52928509 22.942 1 0 111.1155776-262.5104131 187.02255396 142.52928509 22.942 1 0-111.1155776 262.5104131Z" fill="#FFC100" /><path d="M453.39627398 805.57180906c-30.16492806 0-61.83810252-6.03298562-93.51127699-19.60720323-98.79013939-42.2308993-153.0870099-138.00454588-120.65971225-214.92511243 15.83658723-37.70616007 49.77213131-64.85459532 95.0195234-76.16644334 44.49326889-11.31184801 95.77364658-6.78710881 143.28340827 13.57421763 47.5097617 20.36132644 86.72416817 53.54274731 109.34786423 93.51127698 23.37781925 40.72265287 27.14843525 83.70767536 11.31184801 121.41383543-21.86957285 52.0345009-79.18293616 82.19942896-144.79165467 82.19942896z m-69.37933454-300.89515739c-15.83658723 0-30.91905125 1.50824641-46.00151528 5.27886241-40.72265287 10.55772482-70.88758095 33.93554407-84.46179858 67.11696494-28.65668166 68.62521134 21.11544964 155.34937952 112.36435702 193.80966279 91.24890739 38.46028327 188.53080036 14.32834082 217.18748204-54.29687052 13.57421762-32.42729765 9.80360162-70.88758095-10.55772485-107.08549461-21.11544964-36.95203687-57.31336332-67.87108813-101.8066322-86.72416817C442.83854915 510.70963729 412.67362111 504.67665167 384.01693944 504.67665167z" fill="#160002" /><path d="M297.29277127 736.94659774c-0.7541232-24.13194244 2.2623696-48.2638849 7.54123201-71.64170414 6.03298562-23.37781925 15.08246403-46.0015153 27.14843526-67.11696495 6.03298562-10.55772482 12.82009443-20.36132644 20.36132643-30.91905125 8.29535522-9.04947843 15.83658723-18.85308003 24.88606565-26.39431206 17.34483364-16.59071043 39.21440646-29.41080486 61.08397932-39.21440647 0.7541232-0.7541232 2.2623696 0 3.01649282 0.75412321 0 0.7541232 0 1.50824641-0.75412321 2.26236959-18.09895683 15.08246403-36.95203687 28.65668166-52.78862411 46.0015153-3.770616 3.770616-8.29535522 8.29535522-11.31184802 12.82009442l-11.31184802 12.82009443c-6.78710881 9.80360162-13.57421762 18.09895683-19.60720324 28.65668165-12.06597121 19.60720323-21.86957285 40.72265287-30.16492806 62.59222572-8.29535522 23.37781925-14.32834082 46.0015153-18.09895683 69.37933455z" fill="#160002" /><path d="M362.14736658 568.7771238c-40.72265287-15.83658723-82.95355218-28.65668166-125.18445143-39.21440647-21.11544964-5.2788624-42.98502249-9.04947843-64.10047212-12.06597123-10.55772482-0.7541232-21.11544964-2.2623696-31.67317448-1.50824641-10.55772482 0-21.11544964 0.7541232-30.91905126 3.77061602-9.80360162 3.01649281-18.09895683 7.54123201-23.37781923 14.32834082-5.2788624 6.78710881-6.78710881 16.59071043-6.78710883 25.64018885 1.50824641 18.85308003 13.57421762 36.95203687 27.90255846 52.78862411 28.65668166 31.67317446 66.36284173 55.80511692 104.0690018 77.67468975 0.7541232 0 0.7541232 0.7541232 0.75412321 1.50824641s-0.7541232 0.7541232-1.50824641 0.7541232c-20.36132644-8.29535522-39.96852969-18.85308003-58.82160971-30.16492807s-36.95203687-24.13194244-53.5427473-39.96852968c-8.29535522-7.54123201-15.83658723-16.59071043-21.86957286-26.39431203-6.03298562-9.80360162-11.31184801-21.11544964-12.06597122-33.93554408-0.7541232-12.82009443 2.2623696-25.64018885 10.55772481-36.19791367 8.29535522-10.55772482 20.36132644-15.83658723 31.67317449-18.85308004 11.31184801-3.01649281 23.37781925-3.770616 34.68966726-3.01649281 11.31184801 0 22.62369604 1.50824641 33.93554408 3.01649281 21.86957285 3.01649281 43.73914569 9.04947843 64.85459531 15.08246404 42.2308993 12.06597121 83.70767536 28.65668166 123.67620504 46.75563848 0.7541232 0 0.7541232 0.7541232 0.75412321 1.5082464-2.2623696-1.50824641-3.01649281-1.50824641-3.01649282-1.5082464z" fill="#160002" /><path d="M404.37826588 223.38869752m-103.31487862 0a103.31487861 103.31487861 0 1 0 206.62975722 0 103.31487861 103.31487861 0 1 0-206.62975722 0Z" fill="#FFFFFF" /><path d="M509.20139089 223.38869752c0 27.14843525-11.31184801 54.29687052-30.91905126 73.90407375-19.60720323 19.60720323-46.0015153 30.16492806-73.90407375 30.91905124-27.14843525 0.7541232-55.0509937-9.80360162-75.41232016-28.65668164s-33.18142087-46.7556385-33.93554405-75.41232015c0-14.32834082 2.2623696-28.65668166 7.541232-42.23089928 5.2788624-13.57421762 13.57421762-25.64018885 24.13194244-36.19791368 10.55772482-9.80360162 22.62369604-18.09895683 36.19791369-23.37781924 13.57421762-5.2788624 27.90255844-7.54123201 42.23089926-7.54123201 28.65668166 0.7541232 56.55924012 13.57421762 75.41232017 33.93554406 18.85308003 19.60720323 29.41080486 47.5097617 28.65668166 74.65819695z m-3.01649281 0c-0.7541232-26.39431205-12.06597121-52.0345009-30.91905127-70.13345774-18.85308003-18.09895683-44.49326889-27.90255844-70.13345775-26.39431206-25.64018885 0.7541232-49.77213131 12.06597121-67.1169649 29.41080486-17.34483364 17.34483364-27.90255844 42.2308993-28.65668167 67.11696494-0.7541232 24.88606564 8.29535522 51.2803777 26.39431206 70.13345773 17.34483364 18.85308003 42.98502249 30.91905125 70.13345773 31.67317447 26.39431205 0.7541232 53.54274731-10.55772482 71.64170413-29.41080487 9.04947843-9.80360162 17.34483364-20.36132644 21.86957285-33.18142086 4.52473921-12.06597121 6.78710881-25.64018885 6.78710882-39.21440647z" fill="#160002" /><path d="M463.95399879 273.91495202c-22.62369604 0-40.72265287-18.09895683-40.72265289-40.72265289 0-22.62369604 18.09895683-40.72265287 40.72265289-40.72265287 3.770616 0 8.29535522 0.7541232 11.31184802 1.5082464-12.06597121-21.86957285-35.44379047-36.19791367-61.83810253-36.19791369-22.62369604 0-42.2308993 10.55772482-55.8051169 27.14843527 11.31184801 0.7541232 21.11544964 10.55772482 21.11544965 22.62369604s-9.80360162 22.62369604-22.62369604 22.62369604c-5.2788624 0-9.80360162-1.50824641-13.57421763-4.5247392v3.77061602c0 39.21440646 31.67317446 70.88758095 70.88758092 70.88758092 21.86957285 0 40.72265287-9.80360162 53.54274732-24.88606564 0-1.50824641-1.50824641-1.50824641-3.01649281-1.5082464z" fill="#160002" /><path d="M577.82660222 551.43229016s-54.29687052 82.95355218-180.98956836 86.72416817c0 0 46.7556385 100.29838578 211.15449642 51.28037771 81.44530576-24.13194244 107.83961782-122.16795865 107.83961781-122.16795864" fill="#F0F1F3" /><path d="M578.58072542 552.18641336c-9.80360162 14.32834082-21.86957285 27.14843525-35.44379047 38.46028329-13.57421762 11.31184801-27.90255844 21.11544964-43.73914569 28.65668164-15.83658723 7.54123201-32.42729765 14.32834082-49.77213129 18.85308004-8.29535522 2.2623696-17.34483364 3.770616-25.64018885 5.27886243-9.04947843 1.50824641-17.34483364 2.2623696-26.39431206 3.01649278l6.78710882-11.31184801c3.01649281 6.03298562 7.54123201 12.82009443 12.82009443 18.85308002 2.2623696 3.01649281 5.2788624 6.03298562 8.2953552 8.29535523 3.01649281 2.2623696 6.03298562 5.2788624 9.04947843 7.54123202 12.82009443 9.80360162 27.14843525 16.59071043 42.98502247 21.11544964 30.91905125 9.04947843 64.85459532 8.29535522 97.28189301 2.2623696 15.83658723-3.770616 32.42729765-6.78710881 47.50976168-12.82009442 15.08246403-6.03298562 28.65668166-16.59071043 40.72265289-27.90255846 23.37781925-23.37781925 40.72265287-52.7886241 51.2803777-85.21592176 0-0.7541232 0.7541232-0.7541232 1.5082464-0.7541232s0.7541232 0.7541232 0.7541232 1.50824639c-4.52473921 16.59071043-11.31184801 31.67317446-19.60720323 46.7556385s-18.09895683 28.65668166-30.16492807 41.47677607c-12.06597121 12.06597121-25.64018885 23.37781925-41.47677609 30.16492807-15.83658723 7.54123201-32.42729765 11.31184801-49.01800808 15.08246403-33.18142087 7.54123201-68.62521134 9.80360162-102.5607554 0.75412321-16.59071043-4.52473921-33.18142087-11.31184801-48.26388491-21.11544965-3.770616-2.2623696-6.78710881-5.2788624-10.55772483-8.29535521-3.01649281-3.01649281-6.78710881-6.03298562-9.80360162-9.04947841-6.03298562-6.78710881-11.31184801-13.57421762-16.59071042-21.86957286-2.2623696-3.770616-0.7541232-8.29535522 3.01649281-10.55772482 0.7541232-0.7541232 2.2623696-0.7541232 3.0164928-0.75412319h0.7541232c8.29535522-0.7541232 16.59071043 0 24.88606567-0.75412321 8.29535522-0.7541232 16.59071043-1.50824641 24.88606564-3.77061601 16.59071043-3.01649281 32.42729765-8.29535522 48.26388488-14.32834082 15.83658723-6.78710881 30.16492806-15.08246403 44.4932689-24.88606565 13.57421762-9.80360162 26.39431205-21.86957285 36.95203688-35.44379048h0.75412321c3.01649281 0 3.01649281 0 3.01649279 0.7541232z" fill="#160002" /></svg>