<?xml version="1.0" standalone="no"?><!DOCTYPE svg PUBLIC "-//W3C//DTD SVG 1.1//EN" "http://www.w3.org/Graphics/SVG/1.1/DTD/svg11.dtd"><svg class="icon" width="200px" height="200.00px" viewBox="0 0 1024 1024" version="1.1" xmlns="http://www.w3.org/2000/svg"><path d="M435.3 880.9c-117.2 0-212.5-95.3-212.5-212.5s95.3-212.5 212.5-212.5v70c-78.6 0-142.5 63.9-142.5 142.5s63.9 142.5 142.5 142.5S577.8 747 577.8 668.4c0-43 2.3-561.3 2.3-566.5h70c0 0.3 0.5 39.8 14.8 77.5 21.7 57.2 55.9 63.8 79.8 63.8h32.9v70h-32.9c-37 0-69.3-11.8-95.3-34.2-0.7 156.1-1.5 363-1.5 389.4-0.1 117.2-95.4 212.5-212.6 212.5z" fill="#00F7EF" /><path d="M455.4 925.2c-117.2 0-212.5-95.3-212.5-212.5s95.3-212.5 212.5-212.5v70c-78.6 0-142.5 63.9-142.5 142.5s63.9 142.5 142.5 142.5 142.5-63.9 142.5-142.5c0-43 2.3-561.3 2.3-566.5h70c0 0.3 0.5 39.8 14.8 77.5 21.7 57.2 55.9 63.8 79.8 63.8h32.9v70h-32.9c-37 0-69.3-11.8-95.3-34.2-0.7 156.1-1.5 363-1.5 389.4-0.1 117.2-95.4 212.5-212.6 212.5z" fill="#FF0049" /><path d="M455.4 903c-117.2 0-212.5-95.3-212.5-212.5S338.2 478 455.4 478v70c-78.6 0-142.5 63.9-142.5 142.5S376.8 833 455.4 833s142.5-63.9 142.5-142.5c0-43 2.3-561.3 2.3-566.5h70c0 0.3 0.5 39.8 14.8 77.5 21.7 57.2 55.9 63.8 79.8 63.8h32.9v70h-32.9c-37 0-69.3-11.8-95.3-34.2-0.7 156.1-1.5 363-1.5 389.4-0.1 117.2-95.4 212.5-212.6 212.5z" fill="#FFFFFF" /></svg>