<?xml version="1.0" standalone="no"?><!DOCTYPE svg PUBLIC "-//W3C//DTD SVG 1.1//EN" "http://www.w3.org/Graphics/SVG/1.1/DTD/svg11.dtd"><svg class="icon" width="200px" height="200.00px" viewBox="0 0 1024 1024" version="1.1" xmlns="http://www.w3.org/2000/svg"><path d="M230.4 51.2h563.2C892.416 51.2 972.8 131.584 972.8 230.4v563.2C972.8 892.416 892.416 972.8 793.6 972.8h-563.2C131.584 972.8 51.2 892.416 51.2 793.6v-563.2C51.2 131.584 131.584 51.2 230.4 51.2z" fill="#170B1A" /><path d="M511.488 323.072c0.512-57.856 0-115.712 0.512-173.568h118.272c-0.512 10.24 1.024 20.48 2.56 30.208h-87.04v470.016c0.512 19.968-4.608 39.936-14.336 57.344-15.36 26.624-44.032 45.056-74.752 47.616-19.456 1.536-39.424-2.048-56.832-11.776a97.570133 97.570133 0 0 1-33.28-29.696c30.208 16.896 69.632 15.36 98.816-3.584 28.16-17.408 46.592-50.176 46.592-83.968-0.512-100.864-0.512-201.728-0.512-302.592z m195.072-33.28c16.384 10.24 34.816 18.432 53.76 22.528 11.264 2.56 22.528 3.584 34.304 3.584v26.624c-33.792-7.68-65.024-26.624-88.064-52.736z" fill="#25F4EE" /><path d="M298.496 437.248c42.496-26.624 94.208-37.376 143.36-30.208v28.16c-13.312 0.512-26.112 2.048-39.424 4.608-31.744 6.656-61.952 19.968-88.064 39.424-28.16 20.992-49.664 49.664-64.512 81.408-14.336 30.208-21.504 63.488-20.992 97.28 0 36.864 10.24 72.704 27.648 104.96 8.192 14.848 17.408 29.184 29.696 40.96-25.088-17.408-46.08-40.96-61.44-67.584-20.992-35.328-31.232-76.8-30.208-118.272 1.536-37.888 12.288-75.264 32.256-108.032 17.408-29.184 42.496-54.784 71.68-72.704z" fill="#25F4EE" /><path d="M545.792 179.712h87.552c3.072 16.896 9.216 32.768 16.896 48.128 12.288 23.552 29.696 44.544 52.224 58.368a11.946667 11.946667 0 0 1 3.584 3.584 168.0384 168.0384 0 0 0 88.576 52.736c0.512 30.72 0 61.952 0 92.672a277.333333 277.333333 0 0 1-162.816-51.712c0 73.728 0 147.456 0.512 221.184 0 9.728 0.512 19.456 0 29.696-2.56 35.84-13.824 71.168-31.744 102.4-15.36 27.136-36.352 51.2-61.44 69.632-32.256 24.064-72.192 37.376-112.128 38.4-20.48 0.512-40.96-0.512-60.928-5.12-28.16-6.144-54.784-17.92-78.336-34.304l-1.536-1.536c-11.776-11.776-21.504-26.112-29.696-40.96-17.408-31.744-27.648-68.096-27.648-104.96-0.512-33.28 6.656-67.072 20.992-97.28 14.848-31.744 36.864-60.416 64.512-81.408 26.112-19.456 56.32-32.768 88.064-39.424 12.8-2.56 26.112-4.096 39.424-4.608 0.512 11.776 0 23.552 0.512 34.816v59.904c-14.848-5.12-31.232-5.12-46.592-1.536-18.432 4.096-35.84 12.288-50.176 24.576-8.704 7.68-16.384 16.896-21.504 27.136-9.216 17.408-12.288 37.888-10.24 57.344 2.048 18.944 10.24 37.376 22.528 51.712 8.192 10.24 18.944 17.92 29.696 25.088 8.704 12.288 19.968 22.528 33.28 29.696 17.408 9.216 37.376 13.312 56.832 11.776 30.72-2.048 59.392-20.992 74.752-47.616 9.728-17.408 14.848-37.376 14.336-57.344 1.024-157.696 0.512-314.368 0.512-471.04z" fill="#FFFFFF" /><path d="M633.344 179.712c10.24 0.512 20.48 0 31.232 0 0 34.304 10.752 68.608 30.72 96.768 2.56 3.584 5.12 6.656 7.68 9.728-22.528-13.824-40.448-34.816-52.224-58.368-7.68-14.848-13.824-31.232-17.408-48.128z m161.28 162.816c11.264 2.56 22.528 3.584 34.304 3.584v119.296c-58.368 0.512-116.736-18.944-164.352-53.248v236.544c0.512 17.92-1.024 35.84-5.12 53.248-11.264 53.248-43.008 101.376-87.04 132.608-23.552 16.896-50.176 28.672-77.824 34.816-33.792 7.68-69.12 7.168-102.4-1.536-39.424-10.24-76.288-32.256-103.936-62.464 23.552 16.896 50.176 28.16 78.336 34.304 19.968 4.608 40.448 5.632 60.928 5.12 39.936-1.024 79.872-14.336 112.128-38.4 25.088-18.432 45.568-42.496 61.44-69.632 17.92-31.232 29.184-66.56 31.744-102.4 0.512-9.728 0.512-19.456 0-29.696-0.512-73.728-0.512-147.456-0.512-221.184a277.333333 277.333333 0 0 0 162.816 51.712c-0.512-30.72 0-61.952-0.512-92.672z" fill="#FE2C55" /><path d="M442.368 434.688c11.264 0 23.04 0.512 34.304 2.048v122.368c-16.384-5.632-34.816-6.144-51.712-2.048-32.256 7.168-59.392 31.744-70.656 62.976-11.264 30.72-6.656 66.56 12.8 92.672-11.264-6.656-21.504-14.848-29.696-25.088-12.288-14.336-20.48-32.768-22.528-51.712-2.048-19.456 1.024-39.936 10.24-57.344 5.12-10.24 12.8-19.456 21.504-27.136 14.336-12.288 32.256-19.968 50.176-24.576 15.36-3.584 31.744-3.584 46.592 1.536v-59.904c-1.024-10.24-0.512-22.016-1.024-33.792z" fill="#FE2C55" /></svg>