<?xml version="1.0" standalone="no"?><!DOCTYPE svg PUBLIC "-//W3C//DTD SVG 1.1//EN" "http://www.w3.org/Graphics/SVG/1.1/DTD/svg11.dtd"><svg t="1772640448177" class="icon" viewBox="0 0 1024 1024" version="1.1" xmlns="http://www.w3.org/2000/svg" p-id="7561" xmlns:xlink="http://www.w3.org/1999/xlink" width="200" height="200"><path d="M85.333333 128h284.458667a42.666667 42.666667 0 0 1 25.6 8.533333l62.549333 46.933334a42.666667 42.666667 0 0 0 25.6 8.533333H938.666667a42.666667 42.666667 0 0 1 42.666666 42.666667V853.333333a42.666667 42.666667 0 0 1-42.666666 42.666667H85.333333a42.666667 42.666667 0 0 1-42.666666-42.666667V170.666667a42.666667 42.666667 0 0 1 42.666666-42.666667z" fill="#F3AA1C" p-id="7562"></path><path d="M85.333333 298.666667h853.333334a42.666667 42.666667 0 0 1 42.666666 42.666666v512a42.666667 42.666667 0 0 1-42.666666 42.666667H85.333333a42.666667 42.666667 0 0 1-42.666666-42.666667V341.333333a42.666667 42.666667 0 0 1 42.666666-42.666666z" fill="#FCC75E" p-id="7563"></path><path d="M380.032 599.808c-38.528 0-69.930667 30.677333-71.082667 68.906667l-0.042666 2.218666v71.125334c0 4.565333 3.413333 8.32 7.850666 8.832l1.024 0.042666h248.917334c4.565333 0 8.32-3.413333 8.832-7.850666l0.042666-1.024v-71.125334c0-38.528-30.634667-69.888-68.906666-71.082666H380.032zM442.24 430.933333a71.125333 71.125333 0 1 0 0 142.208 71.125333 71.125333 0 0 0 0-142.208z" fill="#FFFFFF" opacity=".901" p-id="7564"></path><path d="M595.498667 608.682667c13.312 16.170667 21.546667 36.650667 22.272 59.050666l0.085333 3.2v62.208h88.32a8.874667 8.874667 0 0 0 8.917333-8.874666v-53.333334c0-34.346667-27.861333-62.208-62.208-62.208h-57.386666zM613.376 466.474667a57.770667 57.770667 0 1 0 0 115.584 57.770667 57.770667 0 0 0 0-115.584z" fill="#FFFFFF" opacity=".901" p-id="7565"></path></svg>