<?xml version="1.0" encoding="UTF-8"?>
<svg id="_图层_1" data-name="图层 1" xmlns="http://www.w3.org/2000/svg" version="1.1" viewBox="0 0 160 160">
  <defs>
    <style>
      .cls-1 {
        fill: #1d1c1b;
        stroke-width: 0px;
      }
    </style>
  </defs>
  <path id="mark" class="cls-1" d="M61.8,101.8l53.2-39.3c2.6-1.9,6.3-1.2,7.6,1.8,6.5,15.8,3.6,34.8-9.4,47.8-13,13-31.1,15.9-47.7,9.4l-18.1,8.4c25.9,17.7,57.4,13.4,77.1-6.4,15.6-15.6,20.4-36.9,15.9-56.1h0c-6.6-28.2,1.6-39.4,18.3-62.5.4-.5.8-1.1,1.2-1.7l-22,22h0c0,0-76.2,76.6-76.2,76.6"/>
  <path id="mark-2" data-name="mark" class="cls-1" d="M50.8,111.4c-18.6-17.8-15.4-45.3.5-61.2,11.7-11.8,31-16.6,47.8-9.5l18-8.3c-3.2-2.4-7.4-4.9-12.2-6.7-21.6-8.9-47.5-4.5-65,13.1-16.9,16.9-22.2,42.9-13.1,65.1,6.8,16.6-4.4,28.3-15.6,40.1-4,4.2-8,8.4-11.2,12.8l50.8-45.4"/>
</svg>