<?xml version="1.0" standalone="no"?><!DOCTYPE svg PUBLIC "-//W3C//DTD SVG 1.1//EN" "http://www.w3.org/Graphics/SVG/1.1/DTD/svg11.dtd"><svg t="1740154078201" class="icon" viewBox="0 0 4169 1024" version="1.1" xmlns="http://www.w3.org/2000/svg" p-id="3817" xmlns:xlink="http://www.w3.org/1999/xlink" width="814.2578125" height="200"><path d="M3634.7275 341.146367c1.706341 0 3.168919 1.12131 3.656445 2.657017l0.219387 1.218815v10.993713h78.808589v-10.993713c0-1.706341 1.096934-3.168919 2.657017-3.656445l1.218816-0.219387h75.127767c1.706341 0 3.168919 1.12131 3.656445 2.657017l0.243763 1.218815-0.048752 10.993713h46.119966c1.706341 0 3.168919 1.145686 3.680822 2.681394l0.219386 1.218815v56.016745a3.900209 3.900209 0 0 1-2.681393 3.680822l-1.218815 0.19501h-46.119966l0.024376 3.583317a3.900209 3.900209 0 0 1-2.657017 3.656446l-1.218815 0.219386h-75.127767a3.875832 3.875832 0 0 1-3.656446-2.681393l-0.219387-1.218815v-3.583317h-78.832965v3.607693a3.900209 3.900209 0 0 1-2.632641 3.656446l-1.218815 0.219386h-75.127767a3.875832 3.875832 0 0 1-3.680822-2.681393l-0.195011-1.218815v-3.583317l-46.119966 0.024376a3.900209 3.900209 0 0 1-3.656445-2.657017l-0.243763-1.218815v-56.016745c0-1.706341 1.145686-3.168919 2.681393-3.680822l1.218815-0.19501h46.09559v-11.01809c0-1.706341 1.12131-3.168919 2.681393-3.656445l1.218816-0.219387h75.127767z m353.285766-0.901923a3.948961 3.948961 0 0 1 2.803275 1.170062 3.729574 3.729574 0 0 1 0.804418 1.291945 3.705198 3.705198 0 0 1 0.268139 1.51133 138.798672 138.798672 0 0 1-3.071414 28.130255h162.979965c1.048181 0 1.998857 0.414397 2.754522 1.121309 0.731289 0.706913 1.12131 1.706341 1.12131 2.754523v60.843253a3.900209 3.900209 0 0 1-1.12131 2.754523 3.997714 3.997714 0 0 1-2.754522 1.121309h-25.302603l-0.024376 9.214243-0.243763 8.946104-0.219387 4.777755-0.731289 10.043037c-3.144543 36.369445-13.967622 84.244505-48.484468 126.098618 28.032749 9.458006 58.405623 13.601977 87.852198 13.601977a3.948961 3.948961 0 0 1 3.82708 2.925157l0.146258 1.023804v65.864772a4.143972 4.143972 0 0 1-1.267568 2.827652 4.241477 4.241477 0 0 1-2.827651 1.267567c-58.576257 0.097505-110.71717-12.33441-153.570712-35.223758-40.001514 20.5736-89.704797 31.542937-148.524817 32.712999a4.192724 4.192724 0 0 1-3.900209-2.583888l-0.219387-0.780042-0.048752-0.804418-0.853171-67.449231a4.119595 4.119595 0 0 1 1.170063-2.876404 3.656446 3.656446 0 0 1 2.852027-1.218815c30.762895-0.65816 57.893721-4.387735 81.221843-11.139971-26.326408-30.543508-44.267367-68.009887-51.921526-111.009686a4.143972 4.143972 0 0 1 0.073129-1.755094 4.412111 4.412111 0 0 1 2.193867-2.632641l0.853171-0.292515 0.85317-0.073129h67.278598c0.877547 0 1.755094 0.316892 2.462007 0.85317 0.731289 0.585031 1.218815 1.340697 1.413825 2.218244 7.751665 31.811076 23.303746 56.723658 43.755465 75.810304l2.535136-2.535136c29.909724-31.031034 36.954476-71.495698 38.319549-100.917896l0.243763-8.872975v-8.019804l-99.040921 0.024377a138.847425 138.847425 0 0 1-90.070442 41.000942 3.412682 3.412682 0 0 1-1.584459-0.243763 3.437059 3.437059 0 0 1-1.316321-0.828794 3.656446 3.656446 0 0 1-0.926299-1.340697l-0.243763-0.731289-0.097506-0.804418v-67.522361c0-0.975052 0.390021-1.876975 0.999429-2.583888a3.753951 3.753951 0 0 1 2.388878-1.291944 65.255364 65.255364 0 0 0 55.821735-62.622723 3.973337 3.973337 0 0 1 1.218815-2.632641 3.851456 3.851456 0 0 1 1.706341-0.975052l0.975052-0.146258h67.473608z m-385.779379 94.970078a4.143972 4.143972 0 0 1 2.925157 1.267568 4.046466 4.046466 0 0 1 1.048181 2.998285 148.037291 148.037291 0 0 1-2.096362 14.820793l225.310173-0.024377c1.023805 0 2.023233 0.19501 2.998285 0.585032a7.678536 7.678536 0 0 1 4.168348 4.241477l0.438773 1.462578 0.146258 1.535707v193.572226a31.835452 31.835452 0 0 1-28.227759 31.616065l-3.607693 0.195011h-81.368101a4.070843 4.070843 0 0 1-1.706341-0.365645 4.777755 4.777755 0 0 1-1.340697-1.096933 3.705198 3.705198 0 0 1-0.731289-1.58446l-0.097505-0.877547 0.073129-0.853171 13.016946-56.211755a3.997714 3.997714 0 0 1 1.389449-2.145115 4.02209 4.02209 0 0 1 1.560083-0.731289l0.853171-0.121882h23.157488a3.802703 3.802703 0 0 0 3.729575-2.852027l0.146258-1.023805v-106.378188a4.729003 4.729003 0 0 0-0.243764-1.486955 5.045895 5.045895 0 0 0-0.85317-1.267568 3.290801 3.290801 0 0 0-1.291944-0.828794l-0.731289-0.219387-0.755666-0.024376H3578.686378a109.937129 109.937129 0 0 1-20.207955 18.916011l148.695451-0.048752a7.410396 7.410396 0 0 1 5.484668 2.315749c0.755665 0.706913 1.291944 1.560083 1.706341 2.535135l0.414397 1.462578 0.146258 1.535708V645.972042a7.971051 7.971051 0 0 1-2.266996 5.509045 8.04418 8.04418 0 0 1-3.973337 2.096362l-1.511331 0.146258h-175.021859a8.166062 8.166062 0 0 1-2.998285-0.536279 8.04418 8.04418 0 0 1-4.265854-4.217101l-0.414397-1.462578-0.146258-1.535707v-100.844767c-8.04418 2.43763-16.478381 4.070843-25.278226 4.87526a3.632069 3.632069 0 0 1-1.633213-0.146258 4.095219 4.095219 0 0 1-1.413825-0.828794 4.241477 4.241477 0 0 1-0.901923-1.340697l-0.243763-0.804418-0.048753-0.828794v-65.08473c0-0.975052 0.414397-1.901352 1.072557-2.657017a3.875832 3.875832 0 0 1 2.583888-1.291944l3.36393-0.243763c11.139971-1.31632 26.911439-7.702912 31.12854-38.100163a3.705198 3.705198 0 0 1 1.267568-2.43763 3.680822 3.680822 0 0 1 1.657588-0.901923l0.975052-0.121882h65.377246z m46.997513 136.751063h-59.648814a4.02209 4.02209 0 0 0-3.705198 2.876403l-0.170634 1.023805v29.885348a4.046466 4.046466 0 0 0 1.170062 2.681394c0.487526 0.487526 1.096934 0.828794 1.730718 1.023804l0.975052 0.170635h59.648814a3.705198 3.705198 0 0 0 2.754523-1.170063 4.436487 4.436487 0 0 0 0.877547-1.291944l0.19501-0.755666 0.048753-0.731289v-29.812219a3.997714 3.997714 0 0 0-1.12131-2.754522 4.119595 4.119595 0 0 0-1.755094-0.975052l-0.999429-0.146258z m489.549303 132.022059c1.706341 0 3.168919 1.096934 3.656446 2.657017l0.243763 1.218816v48.874488a3.900209 3.900209 0 0 1-2.681394 3.656445l-1.218815 0.219387h-259.48575v27.691481h249.954615c1.706341 0 3.168919 1.12131 3.656446 2.681393l0.219387 1.218816v48.850112a3.900209 3.900209 0 0 1-2.681394 3.656445l-1.218815 0.219387h-249.930239v27.106449h282.033831c1.706341 0 3.168919 1.12131 3.680822 2.657017l0.219386 1.218816v48.874488a3.900209 3.900209 0 0 1-2.681393 3.656446l-1.218815 0.219386h-282.033831v64.158431c0 7.069128-2.413254 13.894493-6.752236 19.379161l-2.340126 2.632641A31.055411 31.055411 0 0 1 3851.700977 1023.804746l-3.510188 0.19501H3707.880787a4.314606 4.314606 0 0 1-1.779471-0.365644 4.412111 4.412111 0 0 1-1.462578-1.170063 4.217101 4.217101 0 0 1-0.731289-1.681965l-0.048752-0.926299 0.146257-0.901924 13.504472-49.678906a7.873546 7.873546 0 0 1 5.923442-5.679679l1.706341-0.170634h54.188523a8.361072 8.361072 0 0 0 2.998285-0.585031 8.385448 8.385448 0 0 0 2.559512-1.657589 8.604835 8.604835 0 0 0 1.706342-2.510759l0.438773-1.462578 0.146258-1.535707v-27.033321h-281.936326a3.900209 3.900209 0 0 1-3.680822-2.632641l-0.219387-1.218815v-48.850112c0-1.730718 1.12131-3.168919 2.681394-3.680822l1.218815-0.19501h281.911949V844.882678l-249.832734 0.024377a3.900209 3.900209 0 0 1-3.656445-2.657017l-0.243763-1.218816v-48.850112c0-1.730718 1.145686-3.168919 2.681393-3.680822l1.218815-0.19501h249.857111v-27.740233h-259.510127a3.900209 3.900209 0 0 1-3.656445-2.632641l-0.219387-1.218815v-48.874489c0-1.706341 1.12131-3.168919 2.681393-3.656445l1.218815-0.219387h611.089552z m-783.820038-362.841277h-74.323349a7.873546 7.873546 0 0 0-7.873546 7.824794V1016.004329c0 4.314606 3.534564 7.824793 7.873546 7.824793h74.347725a7.824793 7.824793 0 0 0 7.800417-7.824793V348.971161a7.824793 7.824793 0 0 0-7.800417-7.824794z m-548.978731 23.352499v70.618151a7.84917 7.84917 0 0 0 7.824794 7.824793h242.909864a3.802703 3.802703 0 0 1 3.753951 3.802704v79.466749a3.168919 3.168919 0 0 1-0.243763 1.462578 3.973337 3.973337 0 0 1-0.780042 1.267568 5.045895 5.045895 0 0 1-1.267568 0.828794 3.510188 3.510188 0 0 1-1.462578 0.292516h-242.909864a7.873546 7.873546 0 0 0-7.824794 7.84917v236.596401c0 1.048181 0.19501 2.047609 0.585032 2.998286a8.287943 8.287943 0 0 0 1.706341 2.535135 7.556654 7.556654 0 0 0 5.557797 2.291373h242.885488c0.999428 0.048753 1.950104 0.487526 2.681393 1.170062 0.706913 0.755665 1.072557 1.706341 1.072558 2.70577v131.948931a7.507901 7.507901 0 0 1-2.193868 5.53342 8.287943 8.287943 0 0 1-2.559511 1.706342 8.141685 8.141685 0 0 1-2.949533 0.585031h-178.897691a7.84917 7.84917 0 0 0-7.65416 5.972194l-17.40468 75.469036a3.948961 3.948961 0 0 0 2.096362 4.387735c0.536279 0.243763 1.12131 0.365645 1.706341 0.365644h270.576969a23.47438 23.47438 0 0 0 23.450003-23.401251V703.670752a7.84917 7.84917 0 0 0-7.824793-7.849169h-242.714854a4.729003 4.729003 0 0 1-1.486954-0.243763 5.045895 5.045895 0 0 1-1.267568-0.828795 3.607693 3.607693 0 0 1-0.828794-1.291944 3.705198 3.705198 0 0 1-0.292516-1.511331v-72.105105a3.900209 3.900209 0 0 1 3.900209-3.900209h242.885487a7.873546 7.873546 0 0 0 7.84917-7.800417v-243.665529a7.971051 7.971051 0 0 0-7.84917-7.824794h-325.179888a7.873546 7.873546 0 0 0-7.84917 7.824794z m-394.652353-26.009516c3.680822 0 6.752236 2.535136 7.556654 5.972194l0.195011 1.779471v586.688871h164.66193V427.048461c0-3.778327 2.681393-6.947246 6.289086-7.678536l1.58446-0.146258h70.569398c3.778327 0 6.947246 2.681393 7.678536 6.240334l0.146258 1.58446v584.12936c0 3.778327-2.681393 6.971623-6.26471 7.702912l-1.560084 0.170634-10.74995 0.073129H2100.556088l-0.975052-0.073129h-9.458006a7.84917 7.84917 0 0 1-7.678535-6.289087l-0.170634-1.584459V427.048461c0-3.778327 2.681393-6.947246 6.26471-7.678536l1.584459-0.146258h70.569399c3.802703 0 6.947246 2.681393 7.678536 6.240334l0.170634 1.58446v505.881425h164.296285V346.241015c0-3.680822 2.535136-6.752236 5.947818-7.556655l1.77947-0.19501h70.764409z m-751.911457-10.652445a7.800417 7.800417 0 0 1 7.605407 6.215958l0.146258 1.535707v261.021457c0 6.167205-0.121882 12.236904-0.316892 18.209099 6.654731 184.650499 166.100132 308.043347 265.165429 318.208266l4.68025 0.390021c1.998857 0.048753 3.900209 0.9263 5.338411 2.340125 1.365073 1.462578 2.169491 3.388306 2.193867 5.362786v71.763838a7.654159 7.654159 0 0 1-2.413254 5.60655 8.092933 8.092933 0 0 1-5.704055 2.145114c-76.175948-4.582745-162.711826-45.681193-227.991566-109.254592a420.076838 420.076838 0 0 1-85.073299-116.616236 419.491806 419.491806 0 0 1-85.0733 116.616236c-65.425999 63.573399-151.864371 104.671847-228.089071 109.254592a8.092933 8.092933 0 0 1-3.071414-0.487526 8.092933 8.092933 0 0 1-4.338982-4.241477l-0.487526-1.462578-0.146258-1.560083v-71.739461c0-1.998857 0.755665-3.924585 2.193867-5.362787a7.556654 7.556654 0 0 1 3.753951-2.193867l1.462578-0.170634c99.065297-6.654731 263.11782-131.022631 269.991937-318.622663a498.00788 498.00788 0 0 1-0.316892-18.184723V335.58857c0-2.071986 0.828794-4.046466 2.24262-5.509045a7.800417 7.800417 0 0 1 5.509045-2.24262h72.738889z m-239.229042 99.430942c2.096362 0 4.046466 0.780042 5.557797 2.24262a8.04418 8.04418 0 0 1 2.413254 5.41154l1.38945 27.667104 1.77947 27.057697 1.462578 19.208527 2.510759 29.007801 2.340125 24.351927 2.778899 26.570171 2.096362 18.916012 3.583317 30.250992 4.119595 32.493613a8.409825 8.409825 0 0 1-0.219387 3.36393 8.239191 8.239191 0 0 1-4.338982 5.021518 7.605407 7.605407 0 0 1-3.290801 0.731289h-82.075014a8.239191 8.239191 0 0 1-5.289657-2.023233 8.239191 8.239191 0 0 1-2.681394-5.021519l-5.289658-43.146057-3.363929-29.690337-2.876404-27.472094-3.16892-33.151773-2.43763-29.154059-1.876975-25.205098-1.58446-26.009516-1.048181-23.157488a7.264138 7.264138 0 0 1 0.487526-3.144543 7.410396 7.410396 0 0 1 1.77947-2.70577 8.214814 8.214814 0 0 1 5.752808-2.43763h81.489982z m487.477317 0a7.556654 7.556654 0 0 1 5.704055 2.364502 7.727288 7.727288 0 0 1 2.24262 5.777184l-1.462578 27.69148-1.291944 21.158632-2.364502 31.908581-1.852599 22.060555-2.24262 24.303174-2.681393 26.497042-3.16892 28.739662-3.656445 30.957905-2.730146 21.914297a7.971051 7.971051 0 0 1-2.632641 4.94839 8.04418 8.04418 0 0 1-3.315177 1.828222l-1.901352 0.243764H1804.822775a9.019232 9.019232 0 0 1-3.290801-0.73129 8.458577 8.458577 0 0 1-4.29023-4.948389 8.190438 8.190438 0 0 1-0.292515-3.339554l5.484668-43.755465 3.461435-30.104734 2.047609-18.745378 2.657018-26.18015 2.852027-31.274797 2.169491-27.130826 1.58446-23.01123 1.267568-22.913725 0.438773-10.701198a7.873546 7.873546 0 0 1 6.45972-7.410396l1.511331-0.121881h80.78307z" fill="#4B4B4B" p-id="3818"></path><path d="M865.701307 472.461514l-137.847996 539.179456a9.433629 9.433629 0 0 0 0.024376 4.460864 10.043037 10.043037 0 0 0 9.994285 7.702912h275.622863a10.043037 10.043037 0 0 0 10.043037-12.188152l-138.506156-539.15508a10.140542 10.140542 0 0 0-15.69834-5.192153 9.799274 9.799274 0 0 0-3.656445 5.192153M107.013238 594.635547L0.245029 1011.64097a9.994284 9.994284 0 0 0 10.067413 12.115023H223.044442a10.164919 10.164919 0 0 0 8.04418-3.656445 9.726145 9.726145 0 0 0 1.950105-3.997714 9.433629 9.433629 0 0 0 0.048752-4.460864L126.221765 594.635547a9.799274 9.799274 0 0 0-3.656446-5.070271 10.238047 10.238047 0 0 0-5.923441-1.950105 10.238047 10.238047 0 0 0-5.996571 1.950105 9.799274 9.799274 0 0 0-3.632069 5.070271" fill="#00E5E5" p-id="3819"></path><path d="M295.320182 249.393961L100.772904 1011.616594a9.750521 9.750521 0 0 0 1.901352 8.287943 9.896779 9.896779 0 0 0 7.678535 3.851456H499.471724a10.043037 10.043037 0 0 0 10.091789-12.139399L314.528709 249.369585a9.799274 9.799274 0 0 0-3.632069-5.045895 10.238047 10.238047 0 0 0-5.947818-1.974481 10.238047 10.238047 0 0 0-5.996571 1.950104 9.799274 9.799274 0 0 0-3.632069 5.070272" fill="#006EFF" p-id="3820"></path><path d="M630.933128 7.020375a9.799274 9.799274 0 0 0-3.632069-5.045894 10.238047 10.238047 0 0 0-5.996571-1.974481 10.238047 10.238047 0 0 0-5.947818 1.950104 9.799274 9.799274 0 0 0-3.632069 5.070271L345.77913 1011.616594a9.994284 9.994284 0 0 0 10.09179 12.139399H887.298712a10.164919 10.164919 0 0 0 8.04418-3.656445 10.359929 10.359929 0 0 0 1.998857-4.02209 9.994284 9.994284 0 0 0 0-4.460864L630.933128 7.020375z" fill="#006EFF" p-id="3821"></path><path d="M435.605809 360.257389l-168.708397 651.286076a9.604264 9.604264 0 0 0 1.974481 8.580459 10.043037 10.043037 0 0 0 8.04418 3.680822H613.552824a10.262424 10.262424 0 0 0 8.092933-3.680822 10.140542 10.140542 0 0 0 1.97448-8.580459L454.789959 360.281765a9.799274 9.799274 0 0 0-3.656445-5.070271 10.238047 10.238047 0 0 0-5.972194-1.950104 10.238047 10.238047 0 0 0-5.947819 1.950104 9.799274 9.799274 0 0 0-3.632069 5.070271" fill="#00E5E5" p-id="3822"></path></svg>