<?xml version="1.0" standalone="no"?><!DOCTYPE svg PUBLIC "-//W3C//DTD SVG 1.1//EN" "http://www.w3.org/Graphics/SVG/1.1/DTD/svg11.dtd"><svg t="1772645135866" class="icon" viewBox="0 0 1024 1024" version="1.1" xmlns="http://www.w3.org/2000/svg" p-id="15748" xmlns:xlink="http://www.w3.org/1999/xlink" width="200" height="200"><path d="M739.474286 146.285714c48.274286 0 87.625143 40.96 87.625143 91.428572v694.857143c0 50.468571-39.350857 91.428571-87.552 91.428571H144.384c-48.274286 0-87.552-40.96-87.552-91.428571V237.787429c0-50.468571 39.277714-91.355429 87.552-91.428572h595.163429V146.285714z m0 73.142857H144.457143a17.334857 17.334857 0 0 0-12.434286 5.412572 18.505143 18.505143 0 0 0-5.12 12.873143v694.857143c0 10.166857 7.899429 18.285714 17.554286 18.285714h595.163428a17.993143 17.993143 0 0 0 17.554286-18.285714v-694.857143a18.505143 18.505143 0 0 0-5.12-12.946286 17.408 17.408 0 0 0-12.434286-5.412571z m140.068571-219.428571c48.274286 0 87.552 40.96 87.552 91.428571v694.784a35.84 35.84 0 0 1-35.035428 36.571429 34.742857 34.742857 0 0 1-24.868572-10.825143 36.937143 36.937143 0 0 1-10.166857-25.746286v-694.857142a18.505143 18.505143 0 0 0-10.752-16.822858 17.408 17.408 0 0 0-6.729143-1.389714H284.379429A35.84 35.84 0 0 1 249.417143 36.717714c0-20.260571 15.725714-36.644571 34.962286-36.644571L879.542857 0zM476.891429 702.464a35.84 35.84 0 0 1 35.035428 36.571429 35.84 35.84 0 0 1-35.035428 36.571428H266.971429a35.84 35.84 0 0 1-35.108572-36.571428c0-20.187429 15.798857-36.571429 35.108572-36.571429H476.891429z m139.995428-181.321143a35.84 35.84 0 0 1 35.035429 36.571429 35.84 35.84 0 0 1-35.035429 36.571428H267.044571a34.742857 34.742857 0 0 1-24.868571-10.825143 37.010286 37.010286 0 0 1-10.24-25.746285c0-20.187429 15.725714-36.571429 35.035429-36.571429h349.988571z m0-182.857143a35.84 35.84 0 0 1 35.035429 36.571429 35.84 35.84 0 0 1-35.035429 36.571428H267.044571a34.669714 34.669714 0 0 1-24.868571-10.825142 37.010286 37.010286 0 0 1-10.24-25.746286c0-20.187429 15.725714-36.571429 35.035429-36.571429h349.988571z" fill="#666666" p-id="15749"></path></svg>