<?xml version="1.0" standalone="no"?><!DOCTYPE svg PUBLIC "-//W3C//DTD SVG 1.1//EN" "http://www.w3.org/Graphics/SVG/1.1/DTD/svg11.dtd"><svg class="icon" width="200px" height="200.00px" viewBox="0 0 1024 1024" version="1.1" xmlns="http://www.w3.org/2000/svg"><path d="M421.9904 493.9776a192.3072 192.3072 0 0 0 150.784-72.8064 160.9728 160.9728 0 1 0 21.2992-207.104 192.768 192.768 0 1 0-172.032 279.7056v0.2048z m283.4944-254.5664a90.8288 90.8288 0 1 1 0 181.6576 90.8288 90.8288 0 0 1 0-181.6576zM421.9904 182.1696a118.9888 118.9888 0 1 1 0 237.9776 118.9888 118.9888 0 0 1 0-237.9776zM723.2 534.6816l-207.104-1.3824a122.6752 122.6752 0 0 0-128.512 94.1568l-130.816-65.6384c-92.5696-21.76-96.3584 59.136-96.3584 59.136s-0.512 122.8288 0 201.216c0.512 78.3872 96.3584 63.2832 96.3584 63.2832l121.344-64.7168c2.816-1.6384 5.4784-3.3792 8.0896-4.9152a134.5536 134.5536 0 0 0 108.4928 100.5056h232.5504a130.048 130.048 0 0 0 133.4272-126.0544v-123.2896a124.3136 124.3136 0 0 0-137.472-132.3008zM382.976 738.8672a163.7376 163.7376 0 0 1-44.8512 30.4128l-73.984 38.144s-30.0032 8.4992-29.952-22.1696v-122.368s0-32.1024 32.768-17.2544l83.5584 41.3184c11.9296 4.096 22.9888 10.3936 32.5632 18.5856l-0.1024 33.3312z m418.2016 21.2992a91.9552 91.9552 0 0 1-86.6816 99.1232H521.216a96.512 96.512 0 0 1-78.848-88.7296v-87.7056a88.1664 88.1664 0 0 1 93.6448-92.7744l168.2432 0.9216a87.4496 87.4496 0 0 1 96.7168 92.7744l0.2048 76.3904z" fill="#FF4906" /></svg>