<?xml version="1.0" encoding="UTF-8"?>
<svg id="_图层_2" data-name="图层 2" xmlns="http://www.w3.org/2000/svg" viewBox="0 0 225.12 225.12">
  <defs>
    <style>
      .cls-1 {
        fill: #976469;
      }

      .cls-1, .cls-2, .cls-3, .cls-4, .cls-5, .cls-6, .cls-7, .cls-8, .cls-9, .cls-10, .cls-11, .cls-12, .cls-13, .cls-14, .cls-15, .cls-16, .cls-17, .cls-18, .cls-19, .cls-20, .cls-21, .cls-22, .cls-23 {
        stroke-width: 0px;
      }

      .cls-2 {
        fill: #cfd1d2;
      }

      .cls-3 {
        fill: #000;
      }

      .cls-4 {
        fill: #00adee;
      }

      .cls-5 {
        fill: #e6e7e7;
      }

      .cls-6 {
        fill: #ec1c24;
      }

      .cls-7 {
        fill: #108dd1;
      }

      .cls-8 {
        fill: #1287cc;
      }

      .cls-9 {
        fill: #f6931d;
      }

      .cls-10 {
        fill: #f05a29;
      }

      .cls-11 {
        fill: #bd1e2d;
      }

      .cls-12 {
        fill: #d7d8d9;
      }

      .cls-13 {
        fill: #0c93d7;
      }

      .cls-14 {
        fill: #1b75bb;
      }

      .cls-15 {
        fill: #099bdd;
      }

      .cls-16 {
        fill: #167fc4;
      }

      .cls-17 {
        fill: #ee4136;
      }

      .cls-18 {
        fill: #06a2e3;
      }

      .cls-19 {
        fill: #d0d1d2;
      }

      .cls-20 {
        fill: #d0d2d3;
      }

      .cls-21 {
        fill: #1979bf;
      }

      .cls-22 {
        fill: #03a8e9;
      }

      .cls-23 {
        fill: #fefefe;
      }
    </style>
  </defs>
  <g id="_图层_1-2" data-name="图层 1">
    <g>
      <path class="cls-23" d="M225.1,112.56c0,37.15,0,74.31.02,111.46,0,.9-.2,1.1-1.1,1.1-74.31-.02-148.61-.02-222.92,0-.9,0-1.1-.2-1.1-1.1C.02,149.71.02,75.41,0,1.1,0,.2.2,0,1.1,0c74.31.02,148.61.02,222.92,0,.9,0,1.1.2,1.1,1.1-.03,37.15-.02,74.31-.02,111.46Z"/>
      <path class="cls-3" d="M20.15,113.26c0-17.84-.14-35.67.04-53.51.17-16.93,11.57-32.98,27.33-39.18,5.57-2.19,11.32-3.26,17.3-3.26,34.15,0,68.3,0,102.46,0,19.01,0,35.01,10.89,41.84,28.44,1.99,5.12,2.85,10.45,2.85,15.94-.01,34.39.04,68.78-.02,103.18-.04,21.12-13.82,38.39-34.35,43.27-3.28.78-6.62,1.09-9.98,1.09-34.39,0-68.78.02-103.18,0-20.38-.02-37.58-13.23-42.9-32.88-1.06-3.92-1.44-7.92-1.43-11.98.02-17.04,0-34.07,0-51.11.01,0,.03,0,.04,0Z"/>
      <path class="cls-20" d="M116.1,41.01c38.79-.1,70.89,30.97,72.03,69.9,1.21,40.91-31.31,73.67-70.74,74.34-40.51.69-72.24-31.39-73.46-69.69-1.33-41.45,32.13-74.76,72.17-74.55Z"/>
      <path class="cls-3" d="M116.01,53.33c32.96,0,59.75,26.83,59.8,59.9.05,32.83-26.84,59.67-59.77,59.64-33.13-.02-59.85-26.83-59.8-59.98.06-32.8,26.9-59.57,59.76-59.57Z"/>
      <path class="cls-14" d="M120.48,91.44c.58,2.45.79,4.95,1.18,7.43.64,4.1,1.29,8.19,1.83,12.3.51,3.93-.43,7.49-3.25,10.37-2.52,2.58-6.02,2.56-8.52-.05-2.84-2.96-3.77-6.59-3.19-10.61.94-6.55,1.93-13.09,2.9-19.64.02-.11.1-.21.15-.32,2.4.27,4.81.08,7.22.14.59.01,1.2-.06,1.69.37Z"/>
      <path class="cls-20" d="M89.2,77.68c-.16-.19-.3-.37-.44-.55-1.39-1.8-2.76-3.61-4.17-5.39-.34-.43-.25-.62.15-.92,3.31-2.51,6.91-4.53,10.7-6.21.4-.18.65-.24.87.33.82,2.14,1.7,4.27,2.62,6.37.22.5.12.71-.33.89-3.18,1.31-6.1,3.07-8.84,5.13-.16.12-.33.21-.56.34Z"/>
      <path class="cls-20" d="M63.85,112.6c.07-2.14.18-4.21.45-6.27.07-.54.19-.62.73-.55,2.21.31,4.42.56,6.63.81.65.07.85.32.75,1.01-.47,3.29-.48,6.6,0,9.9.07.5.07.79-.58.87-2.25.27-4.49.6-6.74.91-.51.07-.74-.04-.82-.66-.26-2.02-.35-4.05-.44-6.02Z"/>
      <path class="cls-20" d="M65.26,124.19c-.1-.5.19-.54.54-.61,2.22-.46,4.43-.94,6.63-1.45.57-.13.72,0,.85.56.8,3.33,1.92,6.55,3.52,9.58.28.54.02.69-.35.88-2.01,1.05-4.01,2.09-6.02,3.13-.34.18-.63.4-.92-.18-1.86-3.71-3.26-7.57-4.21-11.6-.03-.12-.03-.24-.04-.31Z"/>
      <path class="cls-20" d="M86.44,80.3c-.25.15-.53.26-.73.44-2.37,2.23-4.42,4.72-6.21,7.43-.44.67-.74.72-1.39.29-1.78-1.2-3.61-2.34-5.44-3.47-.51-.32-.61-.55-.24-1.11,2.26-3.42,4.9-6.5,7.86-9.32.3-.29.52-.57.95-.09,1.54,1.73,3.12,3.43,4.68,5.14.13.14.23.3.52.68Z"/>
      <path class="cls-20" d="M72.49,102.9c-2.25-.48-4.5-.95-6.75-1.43-.4-.09-.6-.27-.49-.75.93-4.11,2.39-8.03,4.28-11.8.25-.49.49-.37.84-.19,2.03,1.07,4.07,2.15,6.12,3.18.48.24.52.46.29.89-1.59,3.03-2.72,6.25-3.52,9.57-.12.5-.28.71-.78.53Z"/>
      <path class="cls-20" d="M114,64.3c.06,1.33-.35,2.6-.46,3.9-.06.68-.56.6-.95.62-3.11.17-6.14.78-9.12,1.67-.53.16-.81.05-.97-.5-.66-2.2-1.32-4.4-2.02-6.58-.15-.48-.06-.63.38-.76,3.13-.92,6.3-1.61,9.55-1.89,1.09-.1,2.61-.83,3.17-.05.62.86.33,2.37.43,3.59Z"/>
      <path class="cls-6" d="M168.01,112.49c.05,1.96-.09,3.9-.27,5.85-.06.68-.23,1.02-1.01.9-2.13-.33-4.26-.63-6.39-.88-.64-.07-.8-.31-.73-.9.41-3.3.41-6.6,0-9.9-.08-.64.2-.84.76-.91,2.14-.26,4.27-.52,6.4-.82.68-.09.91.14.97.81.16,1.95.33,3.89.27,5.85Z"/>
      <path class="cls-10" d="M151.08,74.4c.36,0,.52.26.72.45,2.92,2.74,5.46,5.81,7.69,9.13.31.47.31.7-.2,1.01-1.87,1.15-3.71,2.33-5.54,3.53-.49.32-.78.36-1.14-.2-1.84-2.87-3.98-5.48-6.57-7.72-.32-.28-.46-.47-.1-.85,1.52-1.64,3-3.3,4.5-4.95.18-.2.35-.45.65-.41Z"/>
      <path class="cls-17" d="M161.95,88.68c.32-.05.36.26.45.44,1.9,3.66,3.28,7.51,4.23,11.53.16.69-.25.76-.63.85-2.14.5-4.29.97-6.44,1.44-.46.1-.76-.04-.87-.54-.71-3.32-1.94-6.44-3.51-9.44-.23-.45-.21-.71.26-.95,2.06-1.06,4.1-2.13,6.15-3.2.11-.05.22-.09.35-.14Z"/>
      <path class="cls-9" d="M147.39,71.54c-.55.76-1.08,1.67-1.78,2.43-.84.92-1.5,1.96-2.26,2.94-.46.6-.76.69-1.39.21-2.53-1.9-5.23-3.53-8.14-4.77-.74-.31-.96-.59-.6-1.38.83-1.85,1.6-3.74,2.33-5.64.27-.69.51-.92,1.28-.57,3.5,1.59,6.84,3.45,9.92,5.74.56.42.66.57.63,1.03Z"/>
      <path class="cls-11" d="M166.56,124.8c-.6,3.03-1.77,5.88-2.91,8.73-.32.81-.65,1.62-1.01,2.41-.22.49-.53.69-1.12.37-1.89-1.04-3.81-2.02-5.73-3-.59-.3-.68-.57-.37-1.19,1.46-2.86,2.55-5.86,3.25-8.99.19-.85.52-1.1,1.39-.87,1.99.51,4.01.93,6.02,1.38.72.16.68.63.48,1.17Z"/>
      <path class="cls-20" d="M118.12,63.38c-.09-2.79-.09-2.83,2.6-2.63,3.47.26,6.85.99,10.19,1.94.53.15.67.35.48.93-.69,2.07-1.34,4.17-1.95,6.27-.17.59-.35.75-.99.54-2.86-.9-5.8-1.45-8.79-1.62-.82-.05-1.21-.33-1.25-1.17-.04-.71-.19-1.41-.28-2.12.13-.71.13-1.43,0-2.14Z"/>
      <path class="cls-4" d="M113.74,76.31c.52-3.75,1.05-7.51,1.58-11.26.17-1.17.35-2.34.53-3.52.11,0,.22-.01.33-.02.72,5.16,1.44,10.32,2.16,15.48.22.74-.35.79-.81.85-.87.12-1.75.08-2.62.04-1.22-.06-1.34-.25-1.18-1.58Z"/>
      <path class="cls-20" d="M110,144.3c.95,0,2.22-.37,2.78.1.68.56.2,1.87.22,2.85.02.99.43,2.27-.16,2.9-.66.7-1.97.23-2.99.24-.98,0-2.29.46-2.86-.21-.48-.56-.19-1.83-.17-2.78.02-1.03-.45-2.37.19-3,.64-.63,1.97-.1,3-.1Z"/>
      <path class="cls-20" d="M100.72,150.22c-1.88.42-3.77.09-5.66.17-.42.02-.49-.3-.49-.66,0-1.63,0-3.26,0-4.9,0-.35.04-.63.49-.62,1.87.03,3.74.04,5.61.07.03,0,.05.13.08.2-.15,1.91-.09,3.82-.03,5.74Z"/>
      <path class="cls-19" d="M137.36,147.18c0,3.2,0,3.22-3.04,3.19-.99,0-2.33.45-2.86-.21-.5-.61-.18-1.9-.18-2.89,0-.95-.32-2.21.16-2.78.57-.67,1.87-.2,2.85-.21.98,0,2.26-.45,2.88.19.61.63.1,1.9.19,2.71Z"/>
      <path class="cls-2" d="M125.15,147.12c0,3.26,0,3.28-3.05,3.25-.99,0-2.33.45-2.86-.21-.5-.62-.18-1.9-.18-2.89,0-.95-.31-2.21.17-2.77.57-.67,1.87-.2,2.85-.21.99,0,2.27-.45,2.88.19.61.63.09,1.91.19,2.65Z"/>
      <path class="cls-16" d="M111.82,89.26c.04-.49-.07-1.01.21-1.47,2.36-.18,4.73-.07,7.09-.05.32,0,.62.11.86.34.32.6.23,1.26.29,1.9-.19.23-.45.34-.73.35-2.3.1-4.61.1-6.91,0-.62-.03-1.11-.29-.81-1.08Z"/>
      <path class="cls-8" d="M119.99,88.08c-2.25,0-4.5,0-6.75,0-.42,0-.88.13-1.21-.29.07-.55-.05-1.14.25-1.66.44-.34.97-.33,1.49-.33,1.24,0,2.47-.03,3.71,0,.79.02,1.5-.12,2.09-.66.24.96.45,1.93.42,2.93Z"/>
      <path class="cls-13" d="M112.54,84.46c.04-.56-.06-1.15.25-1.67,1.35-.68,2.8-.25,4.2-.32.77-.04,1.49-.1,2.08-.64.29.52.2,1.09.24,1.65.16,1.41.05,1.58-1.26,1.63-1.43.05-2.86.05-4.29,0-.47-.02-1.09.11-1.22-.63Z"/>
      <path class="cls-21" d="M111.82,89.26c-.03.78.5.75,1.04.75,2.47-.01,4.94-.02,7.41-.02.29.45.18.97.21,1.46-2.59,0-5.17,0-7.76,0-.44,0-1.01.2-1.15-.51.06-.56-.07-1.15.25-1.67Z"/>
      <path class="cls-15" d="M119.07,81.82c.06.77-.28,1.03-1.05,1-1.74-.06-3.49-.03-5.23-.04,0-.65.03-1.29.27-1.9.57-.49,1.27-.32,1.92-.36,1.28-.07,2.6.22,3.84-.37.29.52.2,1.1.25,1.67Z"/>
      <path class="cls-18" d="M118.82,80.15c.02.65-.37.75-.92.74-1.61-.02-3.23,0-4.84,0-.1-1,.2-1.95.43-2.9.54.53,1.2.66,1.94.65,1.06-.01,2.12-.1,3.18.05.27.46.19.98.22,1.47Z"/>
      <path class="cls-7" d="M112.54,84.46c.71.53,1.53.21,2.3.25,1.07.06,2.15-.06,3.21.04,1.03.09,1.35-.35,1.26-1.28.3.53.19,1.12.26,1.68.03.73-.25,1.06-1.05,1.03-2.08-.06-4.15-.04-6.23-.05.06-.56-.05-1.15.26-1.68Z"/>
      <path class="cls-22" d="M118.6,78.68c-1.52.62-3.1.19-4.66.24-.57.02-.35-.6-.46-.94.04-.56-.04-1.14.25-1.67-.09.88.18,1.34,1.19,1.23.83-.09,1.67-.02,2.51-.02.41,0,.82.03.91-.53.29.53.21,1.11.26,1.68Z"/>
      <path class="cls-12" d="M100.72,150.22c-.25-1.91-.3-3.83.03-5.74.05,1.91.12,3.82-.03,5.74Z"/>
      <path class="cls-5" d="M118.12,63.38c.32.71.31,1.43,0,2.14-.14-.71-.06-1.43,0-2.14Z"/>
      <path class="cls-1" d="M166.56,124.8c0-.46.02-.92-.48-1.17,1.05.02.79.58.48,1.17Z"/>
      <path class="cls-20" d="M112.75,113.09c.02-1.89,1.54-3.35,3.48-3.33,1.66.02,3.28,1.7,3.24,3.38-.04,1.89-1.61,3.41-3.48,3.37-1.88-.04-3.26-1.5-3.24-3.42Z"/>
    </g>
  </g>
</svg>