<svg xmlns:xlink="http://www.w3.org/1999/xlink" xmlns="http://www.w3.org/2000/svg" viewBox="0 0 24 24" width="16" height="16" fill="none" class="text-text-primary transition-opacity group-hover/toggle-btn:opacity-0" data-sentry-element="svg" data-sentry-component="ArenaColosseum" data-sentry-source-file="arena-colosseum.tsx"><path fill="#34363D" d="M22.68 5.055v-.033a.833.833 0 0 0-.196-.521 1.54 1.54 0 0 0-.27-.253 4.284 4.284 0 0 0-.702-.408c-.558-.268-1.34-.56-2.288-.831C17.33 2.469 14.723 2 11.841 2c-2.881 0-5.49.47-7.386 1.01-.945.27-1.729.563-2.287.831-.276.133-.519.27-.702.408-.09.068-.189.152-.27.253a.841.841 0 0 0-.193.52v.033H1v15.268h.003c0 .267.136.456.242.562.105.105.225.174.324.223.201.1.457.178.73.243.558.133 1.338.248 2.27.342 1.872.19 4.444.306 7.274.306s5.4-.116 7.273-.306c.932-.094 1.712-.21 2.27-.342.273-.066.529-.143.73-.243.1-.049.22-.12.324-.223a.795.795 0 0 0 .243-.562h.002V5.055h-.005ZM12.55 14.46v-1.743c0-.561.202-1.113.601-1.507.354-.35.822-.563 1.335-.563.655 0 1.235.345 1.6.88.248.364.366.804.366 1.247v1.573a83.603 83.603 0 0 1-3.904.116l.002-.003Zm0-5.743c0-.561.202-1.113.601-1.507.354-.35.822-.563 1.335-.563.655 0 1.235.345 1.6.88.248.364.366.804.366 1.247v.412a83.628 83.628 0 0 1-3.904.116v-.582l.002-.003Zm8.529 5.102c-.473.119-1.184.232-2.096.33-.383.04-.797.078-1.24.111v-1.91c0-.655.29-1.288.817-1.677.31-.227.675-.364 1.057-.364.202 0 .398.034.582.097.726.248 1.195.959 1.195 1.727v1.593c-.078.027-.181.06-.314.093h-.001Zm-3.336-5.312c0-.61.243-1.204.704-1.603.323-.28.72-.451 1.136-.451.479 0 .915.198 1.245.525.375.37.564.888.564 1.414v.173c-.077.027-.18.06-.313.093-.473.118-1.184.232-2.096.329-.383.041-.797.079-1.24.112v-.592ZM4.193 6.465c.744 0 1.386.345 1.699.96.122.24.174.51.174.781v.901a44.79 44.79 0 0 1-1.367-.121c-.912-.097-1.623-.21-2.095-.33a3.734 3.734 0 0 1-.314-.09c.007-1.16.856-2.1 1.902-2.1l.002-.001Zm3.163 7.886v-1.577c0-.398.093-.796.298-1.138.358-.596.972-.99 1.67-.99.512 0 .98.212 1.332.56.4.393.602.944.602 1.505v1.75a84.414 84.414 0 0 1-3.903-.11h.001Zm3.903-5.052a84.423 84.423 0 0 1-3.903-.11v-.415c0-.399.093-.796.298-1.138.358-.596.972-.99 1.67-.99.512 0 .98.212 1.332.56.4.393.602.944.602 1.505v.588h.001Zm-8.966 3.026c0-1.113.852-2.017 1.903-2.017.382 0 .746.136 1.054.363.528.387.817 1.02.817 1.674v1.925c-.49-.037-.947-.078-1.366-.122-.913-.096-1.624-.21-2.096-.329a3.288 3.288 0 0 1-.313-.093l.002-1.4h-.001Zm-.003 7.998v-.052a.655.655 0 0 1 .003.052H2.29Zm.003-2.707c0-1.114.852-2.017 1.903-2.017.382 0 .746.135 1.054.362.528.387.817 1.02.817 1.674v2.891c-.49-.034-.948-.073-1.368-.116-.912-.093-1.625-.2-2.099-.313a4.498 4.498 0 0 1-.308-.085l.002-2.395-.001-.002Zm5.063 2.988v-2.67c0-.399.093-.796.298-1.138.358-.596.972-.99 1.67-.99.512 0 .98.212 1.332.56.4.393.602.944.602 1.505v2.837a88.799 88.799 0 0 1-3.903-.104h.001Zm5.194.103v-2.836c0-.56.202-1.112.602-1.506.354-.347.82-.558 1.332-.558.7 0 1.313.393 1.67.99.206.341.299.738.299 1.137v2.662a87.72 87.72 0 0 1-3.903.11v.001Zm8.842-.384h-.002c0-.018 0-.035.002-.052v.052Zm-.308-.226c-.474.113-1.187.222-2.1.313-.383.039-.798.075-1.24.107V17.64c0-.654.288-1.288.816-1.676.31-.227.675-.364 1.057-.364.202 0 .398.033.582.096.726.248 1.195.96 1.195 1.727v2.588c-.078.026-.18.054-.309.085l-.001.002Z" data-sentry-element="path" data-sentry-source-file="arena-colosseum.tsx"></path></svg>