<?xml version="1.0" encoding="UTF-8"?>
<svg id="_图层_1" data-name=" 图层 1" xmlns="http://www.w3.org/2000/svg" viewBox="0 0 1018.57 1080.36">
  <defs>
    <style>
      .cls-1 {
        fill: #000;
        stroke-width: 0px;
      }
    </style>
  </defs>
  <path class="cls-1" d="M.88,544.22c6.31-4.7,13.36-6.9,17.76,1.03,8.37,15.26,21.43,12.04,33.17,8.22,31.11-10.13,62.08-21.43,92.61-33.17,68.25-26.12,133.12-58.71,190.21-104.79,17.03-13.8,32.29-29.65,48.29-44.62,1.32-1.32,2.05-3.08,3.23-4.7-.44-.88-.88-1.76-1.32-2.64-6.02,2.5-12.48,4.26-18.05,7.49-29.35,17.03-58.27,34.49-87.62,51.52-23.48,13.65-47.41,26.86-71.18,40.07-10.57,5.87-17.61,3.38-22.02-7.93-1.91-4.84-2.94-10.13-3.67-15.41-1.47-10.42-2.5-21.13-3.82-31.56-2.05-15.12,2.2-22.31,16.14-29.5,21.57-11.01,43-22.31,64.43-33.61,2.64-1.32,4.84-3.23,9.54-6.31-4.4-.29-6.31-.59-8.37-.44-38.89,2.64-73.97-5.43-100.98-36.25-3.52-3.96-8.22-6.75-12.04-10.42-6.02-5.87-4.84-10.27,3.23-13.06,2.5-.88,5.14-1.61,7.78-1.47,36.69,1.61,71.18-8.95,104.79-20.99,36.84-13.06,72.65-28.77,108.9-43.3,32-12.77,62.96-9.54,93.2,6.31,1.47.73,3.23,1.47,3.96,2.79,6.9,11.74,14.53,8.95,25.24,4.26,46.23-20.25,94.23-34.2,145.45-32.88,3.96,0,7.93.44,11.89.73.88,0,1.61,1.03,1.17.73-17.03,7.19-35.52,12.77-51.81,22.16-38.16,22.16-66.49,53.28-75.59,97.89-11.3,55.33,12.92,105.97,61.94,134.15,47.26,27.15,98.33,41.54,152.64,43.3,25.83.88,51.81,0,77.79,0v3.52c-25.54,3.38-50.93,6.9-76.47,10.27l-.88,2.5c37.43,22.75,80.58,37.13,109.64,72.36-30.82-29.06-69.57-38.01-109.49-45.06-25.24-4.4-49.61-12.18-72.06-24.95-2.05-1.17-4.55-1.91-7.63-1.91,15.7,25.98,35.08,48.43,58.56,67.51-16.88-1.47-54.6-20.25-83.66-44.47-24.66-20.55-47.55-43.15-71.92-65.31-5.28,25.54,14.53,40.8,25.98,60.32-26.86-15.41-62.08-66.78-76.76-112.28-14.97,22.02-13.94,46.67-18.79,69.86-11.59-51.96-27.15-103.47-8.22-157.19-1.03-.44-2.05-.88-3.23-1.32-6.02,7.34-12.18,14.68-17.76,21.43.44,1.91.44,2.64.88,3.08,13.5,17.17,13.94,22.9-2.35,36.69-14.38,12.18-30.53,22.16-45.94,33.02-6.75,4.7-13.5,9.54-19.96,17.03,8.51,1.61,16.88,3.67,25.39,4.7,14.09,1.76,28.33,2.5,42.42,4.7,4.84.73,9.98,3.96,13.5,7.63,11.3,11.89,8.37,19.52-7.49,24.36-46.97,14.38-93.79,29.5-136.79,54.01-18.05,10.27-34.78,22.46-46.23,40.21-4.99,7.78-7.63,17.03-11.3,25.54l2.79,1.47c11.74-9.98,23.04-20.55,35.22-30.09,16.73-12.92,35.08-23.19,56.51-25.54,48.43-5.14,79.11,19.37,87.47,69.13,1.17,7.34,2.05,14.82,3.67,25.39,10.42-13.65,18.79-25.39,27.89-36.55,9.69-11.74,14.38-23.92,6.02-38.31-1.03-1.76-.73-4.26-1.47-7.78,8.22,10.27,15.26,19.37,22.46,28.47,1.17-.59,2.35-1.03,3.38-1.61-8.07-33.32-22.6-65.46-16.73-100.24.73,3.38,1.61,7.49,2.35,11.74.73,4.26.88,8.66,2.2,12.77,1.17,4.11,3.52,7.93,5.28,11.74l2.64-.73c1.03-15.85,1.91-31.85,2.94-47.7l1.91-.88c3.96,6.16,8.51,12.18,11.89,18.79,8.95,17.17,19.23,33.32,34.05,46.23,2.35,2.05,3.67,6.75,3.52,10.13-.88,10.86-2.79,21.72-4.55,34.93-2.05-7.34-3.38-12.33-4.84-17.76-7.78,10.71-11.15,43.88-5.72,59.73,5.28-7.49,19.37-6.02,15.56-20.4-.29-1.17,2.35-3.52,3.96-4.7,6.02-4.7,12.33-8.81,18.05-13.8,17.32-14.97,37.13-23.19,60.18-22.31,6.16.29,12.33,3.23,18.35,6.46-28.91-8.07-51.37,4.26-72.65,20.84-5.87,4.55-12.48,9.39-3.67,17.76-4.4,3.08-7.78,5.58-11.01,7.93.29,1.03.59,2.05.88,3.23,8.51-1.76,17.76-1.91,25.39-5.72,16.73-8.22,33.32-14.24,49.9-10.42-13.21,5.43-28.77,10.27-42.71,18.05-9.25,5.28-16.14,14.82-24.07,22.31l.73,3.23c9.25,1.17,18.35,2.5,27.59,3.67,10.86,1.47,22.02,1.76,32.58,4.4,13.5,3.23,24.66,10.86,32.29,23.63-4.26-2.5-8.51-4.99-12.62-7.63-19.96-13.06-41.83-10.57-63.7-7.63-1.61,0-3.23,3.52-3.96,5.72-2.64,8.51-10.27,10.71-17.76,5.43-2.64-1.76-6.31-3.38-9.39-3.08-14.82,1.47-24.07-.59-39.63-11.01,9.1.59,15.85,1.03,22.6,1.47.59-.73,1.17-1.47,1.76-2.2-27.59-13.8-45.2-36.25-57.68-65.9-25.83,56.07-59.59,106.26-57.83,170.69,11.3-6.6,21.72-12.62,32-18.64,0-.59-.29-1.17-.44-1.61h-19.96c19.96-11.45,42.42-10.42,64.14-12.77,0-1.17.44-2.35.59-3.52-12.04-3.08-24.07-6.16-34.64-8.95,31.26-8.66,61.35,0,90.7,16.58-1.17-6.02-9.98-15.85-26.57-29.65,29.21,9.98,48.87,30.38,72.06,44.91.88-.73,1.91-1.32,2.79-2.05-5.87-9.25-11.89-18.49-19.23-30.23,35.08,17.03,55.04,48.43,85.27,71.62-3.52-21.72-20.84-32.44-27.3-49.75,33.46,22.9,66.93,45.64,100.54,68.54-4.84-23.34-18.49-40.8-33.76-57.68,16.29,3.08,29.35,12.33,42.56,20.69,13.65,8.66,26.86,17.91,42.12,28.18,0-23.48-13.8-36.55-28.77-50.49,31.11,2.94,55.92,18.2,84.54,31.56-8.51-24.07-30.97-27.01-48.14-39.19,28.33-3.38,55.77-4.26,83.07-16.73h-55.77c-.44-.88-.88-1.76-1.32-2.64,32.58-7.78,52.4-28.18,60.76-60.62-12.04,7.49-24.22,15.12-36.25,22.6,17.17-20.69,15.56-44.32,12.77-71.04-4.4,7.63-7.49,12.77-10.42,18.05,5.28-31.56-13.06-51.08-33.02-70.16,29.94,22.46,56.95,47.26,72.06,82.63,20.69,48.43,6.9,102.3-36.25,140.31-36.4,32.14-79.84,46.53-127.54,49.46-51.22,3.08-100.39-7.34-148.53-23.63-4.11-1.47-8.07-3.52-11.15-4.84,20.69-3.23,41.39-6.16,61.94-9.69,2.5-.44,4.4-3.38,9.1-7.04-47.41-3.52-92.46-3.38-135.03-19.96,9.83.44,19.52,1.17,29.35,1.17s9.54-.29,13.65-1.91c2.94-1.17,5.14-4.55,7.63-6.9-2.2-2.2-4.11-5.28-6.75-6.46-18.79-8.37-38.31-8.07-57.53-2.64-29.21,8.37-51.08,26.71-66.34,52.54-3.23,5.58-2.79,14.09-2.35,21.13,1.91,24.22,4.55,48.29,7.34,72.36.44,3.38,2.2,7.04,4.55,9.54,22.6,23.78,49.9,37.43,83.22,39.33,37.87,2.05,73.09-6.6,106.85-23.04,3.38-1.61,7.04-2.94,10.86-3.67-23.63,16.73-50.19,26.42-78.37,31.7-28.18,5.43-56.51,3.52-84.54-4.11-.59,1.17-1.17,2.5-1.76,3.67,7.04,4.99,13.5,11.01,20.99,14.82,25.83,13.21,54.01,12.77,81.9,11.15,41.24-2.35,81.75-9.39,120.06-25.68,1.17-.44,2.35-.73,4.55.73-5.43,2.94-10.42,7.19-16.29,8.81-30.82,7.93-61.64,15.56-92.61,22.6-14.24,3.23-28.62,5.28-43,8.07-2.35.44-4.55,1.47-6.46,3.96,110.81,26.71,216.63,24.36,311.44-55.48-17.61,27.3-86.15,66.05-133.71,78.08-51.08,12.92-102.15,8.37-153.52,1.61,39.77,24.36,78.37,50.78,127.4,53.28-.29,1.17-.59,2.5-1.03,3.67-18.93-3.23-37.72-7.63-56.8-9.54-40.07-3.82-68.98-30.53-102.59-47.55-16-8.07-30.97-18.05-46.82-26.27-5.14-2.64-11.74-2.2-17.76-3.23,2.2,5.87,2.94,12.92,6.75,17.61,17.17,21.57,39.48,37.57,62.67,51.81,14.09,8.66,29.21,15.41,43.59,23.48-68.1-16.44-116.68-59.15-156.16-116.83-2.05,5.72-3.96,10.42-5.43,15.12-7.49,25.24-23.63,45.06-40.36,64.43-4.11,4.7-11.15,6.9-17.17,9.69-1.61.73-4.84,0-6.31-1.47-6.46-5.72-13.36-11.3-18.49-18.2-23.63-31.26-46.82-62.82-69.72-94.52-10.27-14.24-18.79-29.21-10.57-47.99,1.03-2.35-1.17-6.31-2.35-9.25-9.39-24.95-18.49-50.19-12.77-77.35,2.64-12.62,7.78-25.39,14.53-36.4,11.45-18.64,22.02-37.28,24.07-59.15.73-8.37-.88-18.05-4.7-25.39-5.72-11.01-17.17-9.39-22.16,1.91-14.53,33.02-23.63,67.66-27.45,103.18-5.28,48.73-8.22,97.89-12.48,146.77-1.47,16.58-3.23,33.02-6.16,49.31-1.32,7.63-5.87,14.82-9.98,24.51-14.09-20.4-25.1-38.6-31.56-59.29-10.86-34.49-12.18-69.72-8.37-105.38,2.94-29.06,4.7-58.27,8.66-87.18,8.66-65.31,23.34-129.16,59.29-185.81,11.01-17.17,24.66-32.58,37.87-49.75-14.82,8.22-29.35,15.85-43.44,24.22-51.08,30.38-101.71,61.2-152.79,91.44-8.51,4.99-17.76,8.81-27.15,11.89-5.43,1.76-10.27,1.76-14.68-5.43-4.84-7.93-14.09-12.92-20.99-19.52-15.41-14.97-23.78-33.76-29.94-54.01v-25.98l.88.29h0ZM312.76,633.75c16,14.82,32,28.03,45.94,43,20.4,21.87,17.47,47.85-6.16,66.49-18.49,14.68-31.11,33.46-37.43,56.21-.88,3.23-.73,6.75-1.03,9.98.88.59,1.61,1.03,2.5,1.61,4.26-2.79,9.25-4.84,12.62-8.37,20.25-21.13,40.21-42.42,59.73-64.14,2.64-2.94,4.26-8.22,4.11-12.48-1.32-40.51-2.94-80.87-4.84-121.23-.73-17.32-19.67-28.03-32.58-18.05-17.17,13.21-32.29,28.62-42.86,46.97h0ZM303.96,895.58c15.7,20.55,36.84,36.11,58.56,50.78,8.66,5.87,15.26,3.67,18.79-6.02,2.2-5.87,4.26-12.04,4.7-18.2,2.64-34.78,4.7-69.57,6.75-104.35.29-5.14,0-10.27,0-16.14-30.09,31.7-59.29,62.67-88.94,93.93h.15ZM511.78,255.52c-48.58-2.5-84.39,24.8-120.94,49.75-11.74,7.93-22.6,17.32-31.26,32.58,31.56-8.07,60.32-14.38,89.97-.29,10.86-35.66,33.76-60.76,62.23-82.04Z"/>
  <path class="cls-1" d="M1018.57,731.79c-4.7-7.93-9.1-16.14-14.24-23.63-7.63-11.3-15.41-22.31-23.92-32.88-3.38-4.11-8.51-6.75-14.82-9.83,25.39,97.89-21.13,165.41-91.14,222.94,24.51-23.19,45.2-48.43,41.68-88.21-32.73,36.25-75.15,44.32-119.62,46.53,10.86-3.38,22.02-6.31,32.58-10.42,10.86-4.11,21.43-9.1,31.7-14.38,38.6-19.67,67.37-49.75,87.03-87.77,29.35-56.51,8.51-126.95-47.85-166.88-28.91-20.4-60.47-35.81-94.67-45.5-3.82-1.03-7.49-2.5-12.04-3.96,37.87-5.14,163.35,33.32,189.92,71.33-19.23-7.04-36.69-13.36-54.16-19.81-.44.73-.88,1.32-1.17,2.05,1.61,1.76,2.94,3.82,4.84,5.43,43.44,35.22,66.49,82.63,81.6,134.88,1.17,4.11,2.64,8.07,3.96,12.04v7.93h.29v.15Z"/>
  <path class="cls-1" d="M678.07,136.94c-32-39.92-69.72-74.12-86.15-122.99,28.33,47.41,66.34,86.15,108.46,121.96-15.41-49.61-8.81-94.81,22.16-135.91-13.36,21.43-15.85,44.91-13.8,69.42,2.05,23.78,6.9,46.67,22.9,65.9,1.32-18.64,4.26-36.25,14.97-51.81,10.57-15.12,22.75-28.03,40.21-35.52-23.04,20.84-45.06,41.98-37.57,77.35,3.38,15.85,10.27,29.79,24.95,39.63-2.94-22.9-.29-44.76,10.13-65.46-6.31,29.06,2.5,53.72,22.46,78.52,10.86-29.94,22.75-56.8,48.58-74.41-4.26,6.75-8.37,13.5-12.77,20.11-12.62,18.79-21.43,38.89-15.41,61.79,9.1,34.49,27.3,62.96,59.29,81.02,1.76,1.03,3.52,1.76,5.28,2.64,12.62,7.04,14.09,12.04,3.82,22.02-12.48,12.04-14.68,25.98-11.59,41.98,1.17,5.87,1.47,11.74,0,18.49-2.35-7.34-4.99-14.53-6.9-22.02-2.2-9.39-3.38-18.93-5.72-28.18-.88-3.52-3.67-6.75-5.58-9.98-3.08,2.2-6.31,4.26-9.25,6.75-1.47,1.17-2.5,2.94-4.7,5.72-2.05-11.15-6.46-19.23-18.49-18.64-.29-4.4-.44-7.93-.73-12.62-4.26.15-7.93.44-12.77.59-1.91-6.31-3.82-13.21-6.16-20.84-3.38,2.2-6.02,3.82-8.66,5.58-.59-.29-1.17-.59-1.47-1.03-2.79-2.64-5.43-5.28-8.07-7.78-1.17,5.43-4.4,11.45-3.08,16.14,1.76,5.58,7.93,9.69,11.3,14.97,9.98,15.26,19.23,30.82,29.21,45.94,4.26,6.6,8.95,13.21,13.94,19.23,19.23,23.19,38.6,46.09,57.97,69.13-.59.59-1.17,1.17-1.91,1.76-4.4-4.99-8.81-9.98-13.36-14.82-15.12-16.29-30.82-32-45.35-48.73-9.1-10.42-16.58-22.31-24.95-33.46-8.37-11.15-16.58-22.31-25.54-33.02-2.79-3.23-7.34-4.99-11.15-7.49-1.17.73-2.2,1.32-3.38,2.05,3.52,10.57,7.04,21.28,11.59,34.49.29,0-1.91.29-3.23,1.61-5.28,4.84-5.43,8.81,2.2,11.3,6.16,2.05,12.33,4.7,19.08,7.19-29.65,12.77-96.57-13.8-132.53-61.06,9.83,6.9,19.37,14.09,29.5,20.55,9.98,6.31,20.25,12.48,33.9,12.04-3.23-6.9-6.02-12.77-8.81-18.64,10.27,8.81,14.82,23.78,31.56,26.86,2.2-17.47,1.91-33.76-3.23-49.17-1.32-4.11-7.93-7.49-12.77-9.25-11.59-4.26-22.9-8.37-29.94-20.99,9.39,4.99,17.61,9.69,26.12,13.36,2.79,1.17,6.75-.29,10.13-.44-.59-3.82,0-8.22-1.76-11.15-6.9-10.71-15.85-18.2-29.65-18.93-20.11-1.03-33.17-13.8-45.5-26.57,10.57,4.11,21.28,9.39,32.44,12.04,12.18,2.79,17.61-4.26,13.65-16.29-5.58-16.44-18.64-25.68-33.61-32-27.3-11.59-55.63-9.1-82.92-1.32-16.29,4.7-31.56,13.65-46.97,21.28-7.93,3.96-15.41,8.81-23.04,13.36l-2.2-2.2c4.7-4.99,8.66-10.86,14.09-14.82,33.32-23.78,69.57-38.31,111.4-35.22,5.87.44,11.74,0,19.37,0h0Z"/>
  <path class="cls-1" d="M274.6,87.18c3.52-2.2,5.72-4.4,8.37-5.14,37.13-10.71,74.56-16.88,112.57-4.7,36.4,11.74,54.6,39.33,61.94,75,1.47,7.34-.73,15.85-2.94,23.34-2.64,8.66-9.69,12.18-18.93,10.27-37.57-7.78-75.29-6.6-112.87,0-33.9,6.02-67.51,13.5-101.42,20.4-3.52.73-7.19.88-10.71,1.17-.29-.73-.73-1.61-1.03-2.35,5.72-3.38,11.3-6.9,17.17-10.13,28.33-15.7,56.8-31.26,85.27-46.82,1.47-.73,2.79-1.76,4.26-2.64,3.52-2.05,10.13-4.7,9.83-5.87-1.32-6.16-2.79-13.8-7.04-17.61-11.74-10.57-24.95-19.52-37.57-29.06-1.91-1.47-3.82-3.23-6.75-5.87h-.15Z"/>
  <path class="cls-1" d="M582.38,419.61c-25.39-20.4-44.62-44.47-49.17-77.93-3.38-24.8,6.6-44.91,22.02-62.82,26.42-30.67,60.32-50.64,97.31-65.61,5.58-2.2,11.01-4.7,16.73-6.16,3.08-.73,6.6.44,10.27,2.35-33.32,12.92-53.42,39.04-73.38,68.98-.73-7.34-.73-12.18-1.61-16.73-1.47-8.66-7.04-11.59-15.12-8.37-13.5,5.58-36.11,40.21-36.11,57.09,5.87-3.38,11.15-6.31,17.17-9.69,1.17,7.19,2.2,13.5,3.67,22.31,7.63-2.79,14.38-5.14,20.99-7.49-7.63,28.03,1.61,51.96,22.31,72.21,2.94,2.94,6.75,5.43,10.71,6.9,10.13,3.52,15.85-.44,15.41-11.01-.44-12.77-2.05-25.54-3.23-39.04,21.87-4.4,7.04-22.6,12.33-34.93,3.23-4.84,15.85,6.16,15.12-10.57,6.9,4.84,12.04,8.51,17.17,12.18,2.05,1.47,3.96,3.08,6.31,3.82,33.17,11.15,59,32.44,81.02,59,.29.29,0,1.17,0,3.52-25.1-26.27-51.66-48.14-90.41-48.58v13.8h22.16c-.73,1.17-1.32,2.35-2.05,3.52,2.2,4.55,3.38,9.83,6.6,13.5,20.99,24.36,27.59,67.81,13.06,93.05.73-5.72,1.32-10.27,1.91-14.82,4.26-28.91-10.27-50.49-28.18-70.45-1.47-1.61-5.28-2.05-7.78-1.61-1.32.29-2.35,3.52-3.23,5.43-1.03,2.35-1.91,4.84-2.79,7.19,17.17,18.64,14.53,66.05.44,84.54,4.4-20.99,6.31-41.1-.29-60.91-.88-2.5-1.47-5.14-2.94-7.34-3.08-4.99-4.84-12.77-13.94-7.78-1.32.73-4.11-1.47-8.81-3.23-1.17,17.32-2.2,33.17-3.08,47.41-2.5-5.28-6.16-12.92-11.01-23.19-3.52,16.14,5.14,27.01,8.51,40.8-23.34-8.37-38.75-24.66-55.33-39.33-17.61-15.41-26.27-36.11-34.78-57.24-11.74,28.91,7.49,47.41,22.16,67.51v-.29h-.15Z"/>
  <path class="cls-1" d="M549.8,188.01c34.49-21.43,70.01-35.81,110.37-33.61,17.47,1.03,32.58,8.22,45.5,20.11,2.2,2.05,4.7,4.26,5.43,6.9,1.17,4.11.88,8.66,1.17,13.06-4.11.29-8.37,1.32-12.33.59-3.38-.59-6.9-2.79-9.25-5.43-21.28-23.48-47.85-24.36-76.03-17.61-21.13,4.99-42.27,10.42-64.72,16h-.15Z"/>
</svg>