<?xml version="1.0" encoding="UTF-8"?>
<svg id="_图层_1" data-name="图层 1" xmlns="http://www.w3.org/2000/svg" viewBox="0 0 1080 975.82">
  <defs>
    <style>
      .cls-1 {
        fill: #1468c7;
        stroke-width: 0px;
      }
    </style>
  </defs>
  <path class="cls-1" d="M1080,400.3c-3.89.14-5.22,1.08-6.38,4.71-.43,1.33-.69,2.73-.95,4.11-.59,3.17-1.53,6.12-4.15,8.31-.66.55-1.12,1.54-1.31,2.4-.55,2.63-1.86,4.74-3.75,6.62-1.43,1.42-2.27,3.16-2.56,5.27-.18,1.29-.85,2.73-1.75,3.65-2.02,2.06-3.73,4.2-4.36,7.07-.07.34-.16.77-.39.97-4.25,3.58-4.17,9.93-8.64,13.43-.78.61-1.04,2.06-1.27,3.18-.4,1.91-1.23,3.5-2.64,4.85-1.81,1.72-3.22,3.68-3.62,6.28-.13.86-.61,1.93-1.29,2.41-2.49,1.78-3.27,4.49-4.31,7.09-.39.97-.63,2.24-1.37,2.78-2.39,1.73-3.17,4.18-4,6.79-.47,1.47-1.54,2.89-2.68,3.97-1.52,1.45-2.42,3.03-2.94,5.05-.35,1.4-1.07,2.86-2.03,3.93-1.77,1.96-3.03,4.12-3.86,6.61-.36,1.08-.85,2.32-1.69,2.98-1.66,1.33-2.48,2.99-3.13,4.93-.88,2.66-1.86,5.28-4.29,7.11-.74.56-.92,1.83-1.42,2.74-1.18,2.13-2.22,4.36-3.65,6.3-1.13,1.53-2.22,2.93-2.62,4.87-.22,1.08-.84,2.24-1.63,2.99-2.22,2.11-3.4,4.69-4.26,7.55-.32,1.08-.8,2.38-1.63,3-1.93,1.42-2.62,3.38-3.59,5.42-2.14,4.47-5.05,8.53-7.25,13.03-1.39,2.84-4.18,4.97-4.45,8.52-.05.7-.78,1.44-1.36,1.98-2.2,2.07-3.49,4.66-4.49,7.44-.08.22-.08.54-.23.65-3.57,2.68-4.35,7.98-9.06,9.62-.73.25-1.43.86-1.93,1.48-2.52,3.13-5.92,3.96-9.72,3.96-11.84,0-23.69.08-35.53.08-58.4,0-116.81,0-175.21,0-3.99,0-7.97-.08-11.96-.13-3.08-.04-5.63-1.17-7.87-3.34-1.3-1.26-3.06-2.04-4.51-3.18-.98-.77-1.87-1.69-2.63-2.68-1.13-1.46-2.16-3-3.15-4.57-1.3-2.06-2.54-4.16-3.76-6.28-.34-.6-.31-1.5-.76-1.94-2.79-2.7-3.48-6.67-5.64-9.56-2.26-3.04-4.29-5.95-5.26-9.6-.17-.64-.68-1.26-1.19-1.72-2.16-1.96-3.52-4.29-4.1-7.19-.21-1.06-1.22-1.94-1.82-2.94-1.26-2.08-2.45-4.2-3.72-6.28-.83-1.36-1.76-2.67-2.62-4.02-.8-1.26-1.73-2.47-2.3-3.83-1.08-2.58-1.84-5.28-4.13-7.22-.73-.61-1.16-1.77-1.38-2.75-.56-2.51-1.83-4.55-3.62-6.32-1.46-1.45-2.42-3.08-2.73-5.18-.14-.95-.73-2.04-1.45-2.66-2.33-2-3.51-4.59-4.54-7.39-.5-1.36-1.58-2.5-2.37-3.76-.73-1.16-1.45-2.34-2.12-3.54-.22-.4-.16-.97-.41-1.33-1.56-2.31-3.52-4.43-4.66-6.93-1.11-2.43-1.61-5.04-3.73-7-1.81-1.68-2.94-3.85-3.32-6.44-.17-1.17-.92-2.44-1.78-3.27-1.83-1.78-3-3.88-3.83-6.22-.04-.11-.05-.24-.12-.33-3.22-4.38-4.95-9.66-8.53-13.84-1.09-1.27-1.93-2.93-2.32-4.55-.4-1.68-.99-3.08-2.25-4.24-1.87-1.72-3.01-3.84-3.68-6.29-.27-.99-.67-2.15-1.4-2.77-2.39-2-3.4-4.74-4.38-7.49-.86-2.43-2.49-3.78-4.88-4.63-3.72-1.32-7.4-1.62-11.37-1.36-6.63.45-13.32.18-19.98.18-7.02,0-14.03-.01-21.05-.04-3.97-.01-7.94-.08-11.91-.07-5.13.01-10.26.12-15.39.12-3.51,0-7.01-.13-10.52-.16-5.84-.04-11.68-.03-17.52-.07-5.25-.04-10.5-.15-15.75-.18-5.14-.04-10.29.02-15.43-.05-2.1-.03-4.21-.2-6.3-.45-3.28-.39-6.26.59-9.18,1.86-.52.23-1.18.59-1.36,1.06-1.54,3.83-5.22,6.25-6.56,10.27-.64,1.91-2.18,3.51-3.28,5.27-.62.98-1.48,1.93-1.7,3.01-.63,3.15-2.49,5.48-4.48,7.83-.79.94-1.58,2.19-1.66,3.34-.17,2.33-1.28,3.95-2.9,5.4-1.62,1.45-2.64,3.21-3.04,5.4-.2,1.11-.64,2.39-1.41,3.13-2.04,1.93-2.93,4.44-4.23,6.79-2.22,4.01-5.2,7.58-6.58,12.09-.35,1.13-1.64,1.95-2.4,2.99-.68.93-1.63,1.92-1.75,2.96-.31,2.62-1.5,4.6-3.35,6.36-.65.62-1.06,1.53-1.48,2.36-1.41,2.77-2.17,5.8-4.81,8-1.25,1.04-1.41,3.39-2.09,5.13-.38.97-.57,2.26-1.3,2.82-2.57,1.99-3.76,4.68-4.69,7.64-.3.97-1,1.89-1.74,2.62-1.97,1.96-3.36,4.11-3.67,6.99-.11,1.02-1.09,2.03-1.88,2.86-1.91,2-3.36,4.13-3.72,7-.13,1.05-.82,2.28-1.65,2.96-1.73,1.41-2.79,3.13-3.39,5.2-.67,2.31-1.99,4.15-3.64,5.91-1.06,1.13-1.58,2.78-2.27,4.22-.2.41-.07.97-.27,1.37-3.42,6.84.09,12.06,3.95,17.23.62.83,1.35,1.72,1.56,2.69.59,2.67,2.21,4.57,3.98,6.5,1,1.09,2.1,2.43,2.32,3.8.39,2.34,1.33,4.13,2.96,5.79.96.98,1.7,2.27,2.23,3.54,1.07,2.61,2.05,5.23,4.3,7.13.42.35.74.96.87,1.5.71,3.1,2.5,5.48,4.66,7.72.75.78,1.32,2.01,1.41,3.08.23,2.53,1.45,4.44,3.16,6.1,1.65,1.6,2.69,3.45,3.27,5.69.34,1.28,1.3,2.41,2.03,3.58.75,1.18,1.75,2.22,2.31,3.48,1.25,2.79,3.08,5.19,4.66,7.74,2.3,3.72,3.58,8.06,6.79,11.28.35.35.37,1.11.37,1.68.03,1.77.81,3.13,2.06,4.31,2.08,1.98,3.52,4.31,4.28,7.14.31,1.16,1.1,2.38,2.03,3.14,1.44,1.19,2.31,2.57,2.8,4.32.78,2.73,1.85,5.28,4.16,7.18.67.55,1.01,1.54,1.39,2.37.28.63.22,1.45.59,2.01,1.54,2.33,3.57,4.42,4.68,6.93,1.08,2.45,1.54,5.13,3.79,6.95.62.5,1.26,1.2,1.48,1.94,1.35,4.52,4.41,8.11,6.55,12.19,1.13,2.15,2.64,4.09,3.9,6.17.65,1.07,1.48,2.21,1.6,3.38.22,2.17,1.21,3.76,2.75,5.11,2.01,1.76,3.26,3.86,3.75,6.56.23,1.26,1.21,2.5,2.15,3.48,1.6,1.67,2.57,3.58,3.17,5.78.91,3.38,1.75,6.8,2.96,10.08,1.19,3.23.92,6.35-.53,9.2-1.58,3.1-2.2,6.37-3,9.66-.32,1.3-.92,2.7-1.83,3.63-1.87,1.92-2.99,4.14-3.82,6.62-.4,1.19-.92,2.55-1.82,3.31-1.8,1.52-2.84,3.31-3.47,5.53-.38,1.33-1.04,2.66-1.89,3.75-1.86,2.38-4.17,4.41-4.37,7.78-.04.76-1.02,1.52-1.66,2.19-1.91,1.99-3.26,4.18-3.72,7-.2,1.26-1.11,2.57-2.04,3.51-1.69,1.71-2.66,3.75-3.78,5.82-2.26,4.15-4.89,8.08-6.8,12.44-.4.91-1.55,1.46-2.1,2.33-.78,1.25-1.61,2.59-1.88,3.99-.33,1.7-.92,3.09-2.16,4.28-1.89,1.81-3.35,3.85-3.85,6.55-.2,1.08-1.04,2.05-1.64,3.04-1.14,1.88-2.48,3.65-3.42,5.62-1.02,2.12-1.85,4.25-3.86,5.75-.74.55-1.22,1.72-1.4,2.69-.51,2.79-1.92,5.01-3.88,6.95-1.28,1.26-2.17,2.63-2.51,4.5-.23,1.28-1.03,2.62-1.95,3.56-1.78,1.82-3,3.86-3.7,6.29-.26.89-.46,2.03-1.1,2.53-2.6,2.01-3.07,5.12-4.51,7.74-2.16,3.92-5.6,7.1-6.58,11.74-.19.89-1.45,1.51-2.03,2.37-.9,1.34-2.06,2.71-2.37,4.22-.43,2.09-1.48,3.56-2.79,5.12-1.24,1.48-2.05,3.33-2.95,5.08-.53,1.03-.57,2.46-1.33,3.19-2.44,2.36-3.9,5.2-5.1,8.29-.37.94-1.2,1.73-1.92,2.49-1.5,1.57-2.54,3.33-2.92,5.5-.16.89-.52,1.83-1.05,2.55-1.93,2.64-3.76,5.41-6.04,7.73-1.92,1.96-4.4,3.38-6.67,4.98-.75.53-1.91.64-2.43,1.3-2.1,2.7-5.05,3.18-8.12,3.45-1.28.11-2.57.19-3.86.19-70.01,0-140.03.02-210.04-.02-2.57,0-5.15-.29-7.69-.7-1.08-.17-2.09-.91-3.07-1.51-2.18-1.34-4.23-2.94-6.51-4.08-1.77-.89-3.14-1.96-4.03-3.72-.36-.72-.82-1.46-1.42-1.99-2.89-2.55-5.06-5.51-5.92-9.34-.07-.33-.25-.73-.5-.91-2.98-1.97-3.37-5.49-5.08-8.21-2.09-3.34-4.7-6.31-5.57-10.33-.15-.7-.97-1.31-1.57-1.86-2.21-2-2.76-4.76-3.81-7.37-.96-2.39-3.91-3.52-4.57-6.45-.61-2.73-2.53-4.89-3.97-7.27-2.45-4.05-4.9-8.14-7.15-12.31-1.21-2.25-2.18-4.5-3.96-6.44-1.13-1.23-1.91-2.95-2.37-4.59-.58-2.1-1.25-4-3.01-5.4-.53-.42-1.02-1.03-1.27-1.65-1.32-3.27-2.63-6.53-5.49-8.85-1.08-4.3-3.42-7.86-6.44-11.03-.32-3.85-2.74-6.54-5.01-9.36-.71-.88-.89-2.16-1.45-3.18-.89-1.61-1.88-3.17-2.87-4.71-.38-.59-1.09-1.02-1.3-1.64-1.18-3.5-2.98-6.6-5.65-9.17-.16-.15-.3-.4-.33-.61-.56-4-3.22-6.8-5.21-10.09-1.95-3.22-3.93-6.49-5.76-9.79-1.63-2.94-2.51-6.28-5.29-8.53-.48-.39-.69-1.21-.88-1.88-.8-2.87-1.97-5.48-4.22-7.57-.72-.67-1.32-1.74-1.48-2.71-.44-2.69-1.81-4.74-3.7-6.61-1.61-1.6-2.56-3.57-2.62-5.97-.04-1.39-.51-2.76-.73-4.14-.39-2.39-1.58-4.2-3.87-5.03-1.75-.63-2.32-1.78-2.25-3.5.05-1.17.03-2.35-.03-3.52-.1-1.91.4-3.32,2.31-4.27,2.23-1.11,3.34-3.19,3.81-5.62.36-1.84.87-3.65,1.21-5.49.33-1.81,1.28-3.16,2.48-4.53,1.2-1.37,2.19-3.02,2.87-4.72.89-2.21,1.81-4.25,3.72-5.83.81-.67,1.52-1.88,1.62-2.91.25-2.65,1.51-4.65,3.34-6.38,1.49-1.41,2.48-3.02,3.02-5.04.38-1.42,1.27-2.72,2.02-4.02.35-.6,1.11-1,1.33-1.62,1.75-5.09,6.09-8.74,7.63-13.99.46-1.58,1.74-3.02,2.92-4.27,1.33-1.42,2.21-2.85,2.62-4.81.31-1.51,1.25-3.03,2.3-4.2,1.84-2.06,3.38-4.14,3.87-6.95.17-.96.78-2.02,1.51-2.67,2.04-1.8,3.12-4.11,3.83-6.6.51-1.79,1.53-3.05,2.87-4.28.97-.89,1.53-2.24,2.19-3.43.95-1.72,1.62-3.63,2.78-5.18,1.42-1.89,2.83-3.64,3.28-6.09.21-1.17,1.05-2.36,1.89-3.27,2.04-2.21,3.45-4.67,4.15-7.62.25-1.06.89-2.29,1.74-2.88,2.11-1.46,3-3.55,3.67-5.82.61-2.08,1.5-3.85,3.3-5.24.84-.65,1.47-1.86,1.71-2.93.56-2.51,1.71-4.6,3.56-6.33,1.33-1.25,2.01-2.74,2.47-4.52.42-1.62,1.47-3.09,2.38-4.55.49-.78,1.57-1.28,1.83-2.09,1.5-4.59,4.82-8.18,6.68-12.55.92-2.17,1.83-4.25,3.8-5.79.9-.71,1.63-2.04,1.82-3.19.43-2.56,1.48-4.68,3.34-6.42,1.6-1.49,2.7-3.22,3.02-5.41.07-.46.18-.98.45-1.32,2.28-2.78,4.61-5.53,6.94-8.27.22-.26.63-.37.83-.65,2.62-3.72,6.61-4.48,10.71-5.13,1.95-.31,3.82-1.09,5.76-1.46,2.29-.44,4.62-.96,6.94-.96,51.13-.05,102.27-.05,153.4-.02,3.26,0,6.46.29,9.71-.77,4.39-1.44,6.71-4.43,7.91-8.64.31-1.1.5-2.57,1.28-3.14,2.69-1.96,3.41-4.92,4.56-7.72.39-.96.83-2.09,1.61-2.65,2.07-1.51,2.71-3.63,3.44-5.91.51-1.59,1.59-3.13,2.78-4.33,1.38-1.39,2.27-2.84,2.85-4.71.5-1.62,1.4-3.18,2.42-4.55,1.63-2.17,3.21-4.29,3.71-7.07.16-.87.52-2.03,1.18-2.44,2.79-1.75,3.26-4.72,4.34-7.41.47-1.17.97-2.51,1.88-3.27,1.81-1.52,2.84-3.35,3.45-5.56.28-1,.69-2.04,1.31-2.86,2.04-2.69,4.39-5.16,4.97-8.71.12-.71.88-1.36,1.45-1.94,2.02-2.07,3.28-4.49,3.93-7.33.27-1.18,1.13-2.24,1.83-3.29.77-1.16,1.87-2.14,2.43-3.38,1.35-2.96,2.14-6.19,5.03-8.27.64-.46.88-1.63,1.1-2.52.62-2.59,1.92-4.7,3.73-6.66.97-1.05,1.72-2.51,2.03-3.9.43-1.93,1.19-3.54,2.62-4.84,2.04-1.86,3.59-3.9,3.88-6.85.11-1.13,1.23-2.16,1.92-3.22.82-1.26,1.86-2.42,2.47-3.77,1.21-2.66,2.08-5.46,4.44-7.47.65-.55.96-1.6,1.2-2.49.6-2.22,1.76-4.02,3.41-5.63,2.18-2.13,2.17-3.88.54-6.58-1.19-1.98-2.11-4.13-3.26-6.14-1.09-1.91-2.35-3.72-3.49-5.6-.83-1.37-1.6-2.78-2.34-4.21-.58-1.12-.88-2.44-1.62-3.42-1.98-2.62-4.11-5.14-4.9-8.44-.08-.33-.25-.71-.51-.91-2.98-2.28-3.4-6.07-5.29-8.9-2.21-3.31-4.32-6.56-5.68-10.31-.3-.83-1.1-1.52-1.78-2.15-1.43-1.34-2.32-2.93-2.58-4.87-.25-1.84-1.18-3.28-2.57-4.46-2.04-1.74-3.23-3.95-3.87-6.54-.24-.99-.62-2.14-1.33-2.79-1.9-1.75-2.73-4.01-3.78-6.25-.82-1.75-2.18-3.24-3.25-4.88-.62-.95-1.46-1.9-1.67-2.95-.46-2.29-1.39-4.2-3.17-5.71-1.88-1.59-2.82-3.63-3.23-6.06-.2-1.18-.76-2.61-1.64-3.29-2.12-1.62-2.84-3.93-3.89-6.14-.73-1.55-1.78-2.94-2.67-4.41-.78-1.28-1.76-2.49-2.24-3.88-.78-2.27-1.71-4.37-3.54-5.97-1.38-1.21-2.25-2.68-2.47-4.52-.24-2.09-1.25-3.74-2.81-5.12-1.81-1.6-3.04-3.51-3.39-5.98-.13-.88-.52-1.92-1.15-2.5-2.33-2.15-3.66-4.82-4.57-7.78-.1-.33-.27-.7-.52-.91-2.96-2.39-4.23-5.73-5.39-9.18-.36-1.08-1.06-2.14-1.86-2.94-1.63-1.63-2.63-3.47-3.23-5.71-.34-1.27-1.32-2.45-2.25-3.45-2-2.15-3.17-4.52-3.4-7.51-.17-2.2-.43-4.56-1.38-6.49-1.58-3.22-1.42-6.32-.6-9.57.92-3.63,1.78-7.27,2.77-10.88.27-.98.74-2.06,1.45-2.72,1.7-1.58,2.7-3.47,3.37-5.64.7-2.28,1.88-4.29,3.85-5.75,1.22-.9,1.77-2.11,1.84-3.62.09-2.11,1.09-3.81,2.63-5.2,1.8-1.62,2.89-3.58,3.54-5.94.38-1.39,1.25-2.77,2.23-3.85,1.71-1.87,2.93-3.89,3.57-6.35.31-1.18.93-2.48,1.82-3.27,1.67-1.48,2.7-3.21,3.22-5.31.59-2.35,1.7-4.28,3.67-5.82.84-.65,1.59-1.82,1.74-2.85.33-2.23,1.32-3.98,2.92-5.45,1.8-1.65,2.73-3.71,3.39-6.04.36-1.29,1.25-2.45,1.99-3.6.75-1.17,1.84-2.16,2.39-3.41,1.32-2.98,2.14-6.2,4.93-8.33.5-.38.71-1.2.94-1.86,1.05-3.01,2.28-5.88,4.8-8.05.64-.55,1.08-1.58,1.2-2.45.34-2.47,1.52-4.33,3.34-5.99,1.59-1.44,2.46-3.32,2.98-5.47.34-1.39,1.24-2.68,2.04-3.92.5-.77,1.6-1.25,1.88-2.06,1.48-4.33,4.33-7.91,6.31-11.94,1-2.02,1.81-4.05,3.53-5.56,1.57-1.37,2.53-2.98,2.67-5.14.13-1.95,1.06-3.56,2.67-4.76.55-.41,1.17-.92,1.42-1.53,1.77-4.3,4.68-7.97,6.62-12.17,1.13-2.46,2.17-4.89,4.33-6.73.8-.68,1.37-1.9,1.59-2.96.5-2.53,1.62-4.63,3.51-6.34,1.36-1.23,2.18-2.68,2.44-4.53.14-1.01.47-2.13,1.08-2.93,2.33-3.06,4.77-6.06,7.26-8.99,1.69-1.99,3.74-3.53,6.28-4.36.76-.25,1.59-.65,2.08-1.24,2.3-2.73,5.39-3.08,8.62-3.11,18.98-.17,37.97-.46,56.95-.49,47.38-.07,94.76-.04,142.14.01,6.78,0,13.56.36,20.34.5,1.97.04,3.58.65,5.1,1.97,2.03,1.76,4.14,3.38,6.89,4.07,1.08.27,1.91,1.55,2.83,2.4.16.15.15.46.3.63,3.81,4.26,6.4,9.35,9.5,14.08.69,1.06,1.51,2.16,1.76,3.35.48,2.29,1.46,4.19,3.22,5.69,1.68,1.43,2.56,3.2,3.08,5.36.36,1.51,1.26,3.02,2.29,4.19,1.67,1.89,3.02,3.84,3.57,6.34.19.88.52,1.99,1.17,2.46,2.29,1.63,3.17,3.98,3.91,6.48.13.45.26,1,.58,1.27,4.86,4.01,4.86,11.09,9.6,15.17.09.07.19.18.21.28.94,5.52,6.18,8.78,7.41,14.15.15.65.55,1.42,1.08,1.77,2.35,1.54,3.03,4.01,4.04,6.39.8,1.89,2.19,3.54,3.26,5.32.65,1.08,1.52,2.16,1.73,3.33.39,2.21,1.47,3.94,2.94,5.48,1.66,1.73,2.89,3.63,3.45,6.02.22.96.81,2.01,1.56,2.63,2.19,1.83,3.38,4.18,4.01,6.86.45,1.91,1.35,3.39,2.86,4.69.91.78,1.41,2.07,2.04,3.16,1.22,2.11,2.41,4.23,3.59,6.36.73,1.31,1.76,2.57,2.07,3.98.46,2.08,1.43,3.69,2.95,5.05,1.91,1.7,3.08,3.75,3.54,6.3.19,1.08.81,2.25,1.59,3.01,1.66,1.61,2.56,3.54,3.44,5.63.8,1.9,2.16,3.55,3.25,5.33.72,1.18,1.67,2.31,2.02,3.61,1.41,5.1,5.23,8.27,9.1,11.27,1.21.94,3.34.96,5.05.96,19.35.06,38.7.02,58.05.02,21.33,0,42.66,0,63.99,0,15.7,0,31.41-.01,47.11,0,5.15,0,10.3,0,15.45.12,3.83.09,6.97,1.27,10,4.15,2.57,2.43,5.3,4.5,7.43,7.49,1.33,1.86,2.95,3.44,3.86,5.68.73,1.79,2.2,3.27,3.24,4.95.77,1.26,1.75,2.56,1.96,3.95.34,2.23,1.27,4.02,2.8,5.53,1.8,1.77,3.18,3.7,3.67,6.25.16.86.69,1.82,1.36,2.38,2.08,1.75,3.07,4.1,4,6.51.04.11.07.23.13.33,1.63,2.51,3.85,4.84,4.73,7.59.94,2.94,2.39,5.24,4.39,7.43.74.81,1.34,1.98,1.48,3.06.29,2.11,1.2,3.75,2.7,5.17.59.56,1.41,1.14,1.59,1.84,1.36,5.19,5.77,8.66,7.53,13.61.16.44.28.93.56,1.29,3.08,3.93,4.51,8.86,7.69,12.72,1.51,1.83,2.83,3.69,3.26,6.13.17.96.91,1.85,1.49,2.7.46.67,1.22,1.15,1.61,1.85,2.54,4.53,5.01,9.1,7.5,13.66.17.31.22.69.41.97,1.58,2.3,3.68,4.39,4.63,6.92.97,2.58,2.09,4.82,3.87,6.94,1.3,1.55,1.9,3.68,2.83,5.54.67,1.33,1.33,2.66,2.08,3.94,1.06,1.79,2.2,3.53,3.32,5.29,1.05,1.65,2.15,3.28,3.18,4.94.67,1.08,1.57,2.14,1.83,3.32.55,2.54,1.88,4.53,3.7,6.24,1.33,1.26,2.05,2.7,2.4,4.54.26,1.41.99,2.93,1.96,3.97,1.98,2.11,3.5,4.34,4.17,7.19.25,1.07.93,2.21,1.74,2.95,2.44,2.21,3.22,5.09,3.78,8.12.26,1.38.39,2.8.8,4.13,1.12,3.64,2.42,4.56,6.35,4.74v10.56ZM240.95,912.53h0c25.92.01,51.84.02,77.75,0,1.75,0,3.51-.18,5.25-.39,1.77-.2,2.83-1.27,3.71-2.85,1.12-2.03,2.66-3.82,3.93-5.77.75-1.15,1.6-2.35,1.89-3.65.47-2.16,1.5-3.84,2.98-5.44,1.16-1.26,2.29-2.79,2.76-4.4.71-2.46,1.65-4.53,3.8-6.08.75-.54,1.11-1.76,1.42-2.74.79-2.51,1.97-4.69,3.91-6.55.94-.9,1.65-2.31,1.89-3.6.39-2.08,1.27-3.76,2.78-5.15,1.98-1.82,3.06-4.05,3.61-6.68.24-1.15,1.01-2.38,1.9-3.17,1.65-1.47,2.57-3.24,3.4-5.23,2.03-4.92,5.62-9,7.62-13.95.2-.51.76-.89,1.19-1.28,1.26-1.15,1.91-2.52,2.23-4.24.26-1.42.85-3.14,1.9-3.99,4.35-3.53,4.39-9.69,8.42-13.35.23-.21.25-.65.37-.98.96-2.54,2.15-4.87,4.24-6.76.94-.85,1.24-2.41,1.85-3.63.88-1.75,1.5-3.73,2.73-5.19,1.63-1.93,3.01-3.84,3.51-6.36.15-.77.5-1.7,1.07-2.15,4.45-3.47,4.18-9.93,8.59-13.4.16-.13.18-.43.28-.64,1.17-2.28,2.25-4.61,3.54-6.81.66-1.13.83-2.06.33-3.28-1.06-2.58-1.91-5.25-3-7.81-.54-1.27-1.38-2.43-2.18-3.57-.6-.86-1.7-1.49-2-2.42-1.46-4.5-4.54-8.06-6.73-12.12-1.17-2.17-2.1-4.39-3.97-6.13-.72-.67-1.3-1.72-1.51-2.69-.7-3.22-2.34-5.84-4.58-8.17-.56-.58-1.28-1.31-1.32-2.01-.17-2.95-2.05-4.84-3.7-6.97-1.12-1.45-1.72-3.3-2.62-4.93-.61-1.1-1.17-2.32-2.07-3.15-1.37-1.25-2.25-2.63-2.68-4.41-.65-2.66-1.76-5.06-3.9-6.94-.74-.65-1.39-1.69-1.55-2.65-.47-2.69-2.1-4.63-3.64-6.71-1.08-1.46-1.77-3.21-2.64-4.83-.75-1.41-1.26-3.05-2.32-4.16-1.99-2.1-3.62-4.27-4.15-7.18-.12-.67-.34-1.55-.83-1.88-2.51-1.73-3.19-4.5-4.39-7.01-.69-1.45-1.88-2.64-2.74-4.02-.79-1.26-1.75-2.53-2.08-3.93-.51-2.16-1.41-3.92-3.07-5.37-1.72-1.51-2.82-3.32-3.22-5.68-.21-1.28-1.18-2.45-1.88-3.62-1.19-1.99-2.76-3.82-3.59-5.94-1.57-4-4.89-6.81-6.75-10.57-.1-.19-.35-.3-.52-.47-2.69-2.68-5.97-3.23-9.66-3.22-49.26.06-98.51.04-147.77.02-9.84,0-9.81,0-16.63,7.1-1.53,1.59-2.64,3.29-2.86,5.48-.2,1.97-1.11,3.52-2.52,4.87-1.81,1.73-3.12,3.75-3.67,6.28-.21.97-.75,2.13-1.51,2.68-2.28,1.65-3.11,4.08-3.93,6.51-.62,1.83-1.42,3.37-2.98,4.61-.83.67-1.52,1.86-1.72,2.92-.51,2.66-1.69,4.83-3.7,6.61-.61.54-1.45,1.18-1.55,1.86-.63,4.28-3.53,7.24-5.87,10.54-.07.09-.13.2-.16.31-.93,2.77-1.77,5.56-4.39,7.38-.56.39-.65,1.46-.92,2.23-1.05,2.87-2.07,5.71-4.55,7.78-.74.62-1.25,1.73-1.48,2.7-.64,2.73-2.18,4.86-3.97,6.94-.96,1.12-1.52,2.57-2.25,3.88-.78,1.39-1.52,2.81-2.33,4.19-1.05,1.8-2.58,3.45-3.13,5.39-.71,2.49-1.68,4.51-3.82,6.05-.75.54-1.17,1.73-1.46,2.7-.77,2.52-2.08,4.66-3.85,6.62-.89.99-1.58,2.35-1.88,3.65-.5,2.15-1.47,3.89-3.02,5.43-1.5,1.49-2.94,3.12-3.02,5.4-.07,2.04-1.15,3.43-2.41,4.9-1.35,1.58-2.36,3.45-3.49,5.22-.94,1.48-1.71,3.07-2.75,4.46-2.59,3.49-2.56,6.33.44,9.37,1.35,1.37,2.37,2.8,2.85,4.72.29,1.17,1.02,2.46,1.94,3.19,2.16,1.72,3.15,4,3.95,6.49.39,1.21.66,2.77,1.54,3.45,2.22,1.69,2.96,4.1,4.09,6.4.96,1.98,2.36,3.75,3.5,5.65.58.98,1.3,2.02,1.45,3.1.26,1.9,1.33,3.17,2.52,4.49,1.16,1.3,2.63,2.62,3.07,4.19.85,2.99,1.79,5.69,4.36,7.69.73.58,1.03,1.81,1.34,2.81.74,2.4,1.92,4.47,3.74,6.26.86.84,1.55,2.11,1.77,3.29.44,2.32,1.57,4.17,3.21,5.72,1.6,1.5,2.59,3.22,3.04,5.4.24,1.18.91,2.47,1.79,3.27,2.08,1.92,3.13,4.31,4.05,6.88.46,1.29,1.05,2.67,1.98,3.61,1.48,1.47,2.46,3.08,3.01,5.05.61,2.18,1.68,4.02,3.51,5.54.98.81,1.44,2.28,2.05,3.5.72,1.45,1.03,3.22,2.06,4.37,3.93,4.4,5.34,10.26,8.88,14.92,1.64,2.15,2.23,5.07,4.41,7.05.79.72.95,2.09,1.52,3.1,1.18,2.12,2.41,4.23,3.68,6.3.49.79,1.37,1.38,1.71,2.21.99,2.46,3.02,3.14,5.32,3.36,1.51.15,3.04.17,4.57.17,25.57,0,51.13,0,76.7,0ZM528.88,359.49c24.15,0,48.3.04,72.46-.02,10.93-.03,8.26,1.49,16.99-7.24,1.28-1.29,1.99-2.76,2.48-4.53.44-1.62,1.56-3.05,2.38-4.57,1.21-2.24,2.41-4.48,3.64-6.7.61-1.09,1.08-2.36,1.96-3.18,1.61-1.5,2.51-3.29,3.32-5.28,1.95-4.82,5.72-8.67,7.45-13.64.25-.71,1.1-1.19,1.62-1.83.59-.72,1.51-1.45,1.6-2.25.43-3.76,2.52-6.45,5.15-8.89.17-.15.32-.37.38-.58,1.04-3.35,2.21-6.62,5.09-8.94.31-.25.38-.84.51-1.29.8-2.76,2.17-5.13,4.25-7.17.85-.83,1.5-2.14,1.69-3.32.35-2.21,1.29-3.97,2.9-5.46,1.77-1.63,2.89-3.59,3.49-5.97.32-1.28,1.07-2.62,2-3.56,1.71-1.74,2.87-3.71,3.42-6.03.43-1.8,1.41-3.1,2.76-4.35.96-.89,1.75-2.2,2.11-3.47.75-2.67,1.87-5.02,3.93-6.93.67-.62,1.56-1.43,1.63-2.21.32-3.56,2.61-5.9,4.67-8.44.65-.8,1.25-1.78,1.47-2.77.52-2.37,1.36-4.43,3.52-5.82.53-.34.93-1.09,1.11-1.73.91-3.23,2.67-5.89,4.84-8.45,2.53-2.97,2.03-6.94-.98-9.31-1.79-1.41-2.73-3.06-3.05-5.29-.15-1.08-.71-2.31-1.48-3.06-2.26-2.2-3.73-4.78-4.6-7.77-.19-.66-.44-1.44-.92-1.86-2.31-2.01-3.33-4.74-4.55-7.4-.57-1.24-1.7-2.22-2.44-3.4-.85-1.35-1.84-2.72-2.24-4.22-.66-2.45-1.6-4.63-3.51-6.35-1.53-1.37-2.37-3.06-2.8-5.13-.29-1.39-1.29-2.64-2.06-3.91-1.08-1.78-2.49-3.42-3.3-5.31-.81-1.87-1.7-3.49-3.23-4.9-.96-.89-1.55-2.29-2.05-3.57-.9-2.3-1.77-4.54-3.56-6.38-.93-.95-1.6-2.33-1.94-3.63-.55-2.12-1.46-3.92-3.05-5.42-1.75-1.66-2.79-3.69-3.32-6.07-.24-1.08-.83-2.27-1.64-2.99-2.39-2.11-3.76-4.73-4.59-7.74-.18-.66-.39-1.47-.87-1.88-2.24-1.92-3.28-4.49-4.19-7.17-.3-.87-.7-1.82-1.33-2.45-2.21-2.19-3.99-4.55-4.5-7.74-.12-.72-.82-1.42-1.41-1.96-2.24-2.04-3.61-4.54-4.4-7.46-.29-1.07-1.08-2.01-1.69-2.98-.8-1.27-1.99-2.4-2.42-3.78-1.27-4.07-3.96-7.14-6.78-10.09-.89-.93-2.37-1.66-3.65-1.77-3.13-.26-6.3-.12-9.45-.12-39.28,0-78.55,0-117.83-.03-2.46,0-4.91-.27-7.37-.3-4.55-.07-9.11-.06-13.66-.07-4.57-.02-9.14-.17-13.7.03-1.8.08-4.22.39-5.22,1.56-2.76,3.26-4.95,7-7.29,10.6-.36.55-.21,1.4-.48,2.04-.5,1.16-.89,2.52-1.76,3.33-2.22,2.08-3.86,4.37-4.3,7.44-.08.55-.37,1.2-.78,1.54-2.71,2.31-3.74,5.59-5.23,8.63-.55,1.12-1.57,2.01-2.29,3.06-.69,1.03-1.61,2.07-1.82,3.22-.49,2.67-1.65,4.87-3.61,6.67-1.6,1.47-2.79,3.08-2.87,5.41-.03.86-.44,2-1.08,2.49-4.49,3.43-4.29,9.84-8.64,13.36-.62.51-.66,1.72-1.01,2.59-.9,2.29-1.79,4.55-3.95,6.09-.76.54-1.34,1.69-1.5,2.65-.43,2.58-1.9,4.41-3.52,6.33-1.23,1.45-1.84,3.43-2.75,5.15-.64,1.21-1.1,2.61-2.02,3.56-1.86,1.92-3.11,4.1-3.69,6.67-.38,1.66-1.23,2.93-2.48,4.12-1.05.99-1.92,2.35-2.4,3.72-.88,2.47-1.98,4.7-3.88,6.58-.95.94-1.81,2.26-2.07,3.54-.45,2.18-1.5,3.91-2.93,5.5-1.59,1.77-2.85,3.66-3.16,6.14-.12.96-.69,2.12-1.43,2.7-3.34,2.61-4.12,6.75-6.21,10.09-.38.6-.41,1.62-.22,2.34.77,2.82,1.63,5.62,2.59,8.37.29.83.93,1.63,1.61,2.21,2.44,2.06,3.81,4.68,4.56,7.73.22.88.49,2.02,1.14,2.47,2.47,1.73,3.34,4.39,4.57,6.9.75,1.55,1.94,2.89,2.88,4.35.68,1.06,1.63,2.13,1.8,3.29.38,2.5,1.77,4.26,3.35,6.03,1,1.12,2.38,2.33,2.58,3.65.45,2.97,1.87,5.19,3.85,7.27.7.74,1.26,1.75,1.54,2.74.74,2.66,1.85,4.97,4.17,6.69.73.54.85,1.87,1.35,2.78.99,1.83,1.83,3.8,3.13,5.39,1.35,1.66,2.68,3.14,2.9,5.44.1,1.08.74,2.25,1.46,3.11,2.11,2.54,4.24,5.02,4.84,8.43.1.54.42,1.16.84,1.51,2.45,2.05,3.48,4.9,4.69,7.71.63,1.46,1.86,2.65,2.75,4.01.75,1.15,1.68,2.29,2.02,3.57.66,2.46,1.88,4.47,3.56,6.35.97,1.08,1.81,2.47,2.16,3.86.54,2.14,1.42,3.93,3.03,5.42.68.63,1.38,1.35,1.76,2.17,1.5,3.26,2.48,6.82,5.59,9.08,1.25,4.19,3.77,7.66,5.95,11.38,2.79,4.76,6.07,7.17,11.73,7.13,25.32-.16,50.65-.07,75.97-.07ZM838.64,248.19v.04c-25.32,0-50.65-.01-75.97.02-2.45,0-4.91.19-7.35.45-2,.21-3.43,1.22-4.11,3.3-.34,1.06-1.26,1.92-1.86,2.91-1.22,1.97-2.55,3.89-3.58,5.96-2.21,4.45-5.35,8.39-7.14,13.08-.27.71-1.19,1.14-1.63,1.81-.81,1.25-1.8,2.51-2.16,3.91-.55,2.13-1.51,3.89-3.03,5.43-1.59,1.61-2.76,3.43-3.1,5.78-.14.97-.65,2.1-1.36,2.74-2.01,1.81-2.92,4.19-4.01,6.52-2.16,4.61-5.71,8.41-7.74,13.12-.31.71-1.14,1.18-1.62,1.84-.61.85-1.5,1.75-1.59,2.68-.25,2.93-1.84,4.97-3.81,6.88-.41.39-.72.95-.9,1.49-1.29,3.88-2.72,7.65-5.92,10.45-.32.28-.42.83-.58,1.27-.93,2.55-2.11,4.9-4.18,6.81-.78.72-1.15,2.01-1.45,3.11-.6,2.21-1.6,4.14-3.31,5.69-1.62,1.47-2.56,3.23-2.88,5.46-.17,1.17-.9,2.42-1.72,3.32-1.93,2.1-3.73,4.2-4.13,7.18-.09.66-.41,1.45-.89,1.87-2.75,2.43-4.01,5.7-5.37,8.95-.4.95-1.04,1.87-1.78,2.58-1.69,1.6-2.63,3.46-3.08,5.76-.26,1.29-1.17,2.52-2,3.62-2.16,2.84-1.8,2.76-.07,5.7,2.62,4.46,5.13,8.99,7.7,13.47,1.21,2.11,2.31,4.24,3.65,6.3,2.58,3.97,4.57,8.33,7.55,12.08.07.09.1.22.11.33.33,3.2,1.86,5.73,4.24,7.83.42.38.79.91.98,1.44,1.11,3.08,2.23,6.12,4.92,8.31.55.45.75,1.45.92,2.24.53,2.52,1.9,4.46,3.69,6.25.94.94,1.88,2.23,2.1,3.49.42,2.47,1.62,4.34,3.25,6.08.72.77,1.82,1.52,1.97,2.42.69,4,3.32,6.86,5.39,10.07.56.87.99,1.89,1.24,2.9.44,1.81,1.5,3.06,2.84,4.3.97.9,1.74,2.2,2.14,3.46.86,2.73,1.97,5.23,4.1,7.24.65.61,1.38,1.49,1.46,2.31.33,3.16,2.15,5.44,4.27,7.46,1.96,1.87,1.68,4.62,2.94,6.61,1.33,2.11,3.82,3.39,4.49,6.12.39,1.58.73,3.61,1.84,4.47,2.74,2.12,3.36,5.24,4.77,8,.47.93,1.12,1.77,1.71,2.64,1.05,1.53,2.22,2.99,3.13,4.6.87,1.54,1.96,2.68,3.74,2.87,2.44.26,4.89.54,7.34.54,51.35.03,102.7.03,154.06.02,1.63,0,3.29-.05,4.9-.33.99-.17,2.31-.55,2.78-1.29,1.93-3.02,5.05-5.26,5.77-9.09.42-2.22,1.58-4.07,3.46-5.54.93-.72,1.4-2.06,2-3.17.88-1.62,1.52-3.39,2.57-4.88,1.63-2.3,3.39-4.45,3.83-7.4.14-.95.84-1.98,1.59-2.63,1.87-1.62,2.86-3.73,3.55-5.96.61-1.98,1.54-3.56,3.19-4.89.92-.74,1.68-2.01,1.95-3.16.58-2.53,1.87-4.52,3.7-6.24,1.23-1.16,2.15-2.45,2.24-4.23.1-2,1.17-3.51,2.59-4.83,1.95-1.82,3.02-4.1,3.62-6.68.25-1.08.69-2.43,1.51-3.01,2.42-1.69,3.26-4.14,4.17-6.71.52-1.47,1.67-2.71,2.53-4.05.79-1.24,1.91-2.4,2.3-3.76.67-2.34,1.76-4.33,3.5-5.98,1.32-1.25,2.01-2.73,2.48-4.52.42-1.62,1.28-3.29,2.4-4.52,1.79-1.96,3.08-4.05,3.79-6.62.32-1.18,1.24-2.19,1.9-3.27.84-1.37,1.88-2.65,2.49-4.11,1-2.4,1.93-4.69,4.09-6.41.97-.77,1.32-2.33,1.93-3.55.76-1.54,1.39-3.16,2.27-4.63,1.19-1.99,2.95-3.74,3.72-5.86.71-1.93,1.54-3.56,2.96-5.04,3.01-3.13,2.89-5.58-.01-8.9-1.05-1.2-2.09-2.57-2.59-4.04-.7-2.06-1.65-3.83-3.22-5.33-1.82-1.74-2.99-3.77-3.27-6.42-.13-1.25-1.22-2.41-1.92-3.58-1.31-2.19-2.66-4.35-3.99-6.53-.65-1.07-1.29-2.16-1.95-3.22-.84-1.36-1.89-2.64-2.51-4.09-.97-2.28-2.03-4.4-3.8-6.24-1.07-1.11-1.89-2.7-2.25-4.21-.45-1.91-1.17-3.5-2.57-4.86-1.8-1.74-3.14-3.71-3.53-6.32-.16-1.06-.89-2.19-1.69-2.95-1.94-1.85-2.99-4.13-4-6.53-.61-1.45-1.73-2.69-2.6-4.03-.74-1.14-1.71-2.22-2.1-3.48-.82-2.62-1.96-4.98-3.83-7.03-.84-.92-1.72-2.06-1.96-3.23-.53-2.55-2.08-4.38-3.5-6.39-1.12-1.58-1.82-3.45-2.78-5.16-.72-1.28-1.54-2.51-2.34-3.75-.86-1.34-2.02-2.57-2.57-4.03-.93-2.44-1.9-4.74-3.9-6.56-.8-.73-1.4-1.92-1.63-2.99-.53-2.52-1.71-4.6-3.56-6.32-1.42-1.33-2.42-2.88-2.63-4.84-.2-1.88-1.16-3.27-2.54-4.46-1.94-1.66-3.08-3.78-3.7-6.25-.9-3.6-3.68-5.9-6.18-8.3-.75-.72-2.14-.88-3.28-1.05-1.26-.19-2.57-.13-3.86-.13-25.91,0-51.82,0-77.73,0Z"/>
</svg>