<?xml version="1.0" standalone="no"?><!DOCTYPE svg PUBLIC "-//W3C//DTD SVG 1.1//EN" "http://www.w3.org/Graphics/SVG/1.1/DTD/svg11.dtd"><svg t="1739608906726" class="icon" viewBox="0 0 1024 1024" version="1.1" xmlns="http://www.w3.org/2000/svg" p-id="19136" xmlns:xlink="http://www.w3.org/1999/xlink" width="128" height="128"><path d="M903.72096 1005.01504c-169.73824 0.77824-266.24-70.41024-266.24-231.17824-0.55296-63.85664 5.40672-319.488 5.40672-319.488l-78.35648-1.57696-0.22528-60.12928 209.63328-0.04096 34.07872 0.04096s-0.63488 187.71968-0.63488 360.48896c0 136.17152 1.3312 198.8608 96.33792 251.88352z" fill="#FEBA03" p-id="19137"></path><path d="M639.52896 858.58304c-135.68 206.09024-386.82624 163.59424-414.47424 61.44-8.704-40.71424-5.89824-386.82624-5.89824-386.82624l-70.144 1.47456-0.45056-43.19232 206.78656-99.328s-5.12 435.73248-0.24576 473.86624c15.872 111.86176 158.98624 103.936 284.42624-7.43424z" fill="#04A4EE" p-id="19138"></path><path d="M616.32512 337.26464c48.70144-38.58432 97.11616-61.07136 101.4784-129.65888-29.61408 12.57472-54.82496 24.35072-80.77312 34.0992-72.33536 27.19744-97.50528 6.26688-86.528-71.02464 14.6432-103.19872 105.79968-166.85056 212.86912-148.62336 90.48064 15.40096 156.09856 114.0736 137.1136 206.1312-19.94752 96.74752-116.92032 158.72-214.09792 135.51616-21.01248-4.99712-40.7552-15.17568-70.06208-26.43968z" fill="#93C605" p-id="19139"></path><path d="M397.43488 337.26464c-48.70144-38.58432-97.11616-61.07136-101.4784-129.65888 29.61408 12.57472 54.82496 24.35072 80.77312 34.0992 72.33536 27.19744 97.50528 6.26688 86.528-71.02464-14.6432-103.19872-105.79968-166.85056-212.86912-148.62336-90.48064 15.40096-156.09856 114.0736-137.1136 206.1312 19.94752 96.74752 116.92032 158.72 214.09792 135.51616 21.01248-4.99712 40.7552-15.17568 70.06208-26.43968z" fill="#F15425" p-id="19140"></path></svg>