<?xml version="1.0" standalone="no"?><!DOCTYPE svg PUBLIC "-//W3C//DTD SVG 1.1//EN" "http://www.w3.org/Graphics/SVG/1.1/DTD/svg11.dtd"><svg class="icon" width="200px" height="65.83px" viewBox="0 0 3111 1024" version="1.1" xmlns="http://www.w3.org/2000/svg"><path d="M656.566911 486.699854L242.31918 20.989751H0v991.915666h242.31918V305.66325l406.451537 465.710103 429.915081-483.064129V995.551391h242.31918v-206.973939c-78.149341-86.28287-117.242753-198.39063-117.242753-319.081698 0-129.424305 46.889605-241.532064 117.242753-319.081698V12.36896h-242.31918L656.604392 486.662372z" fill="#2C91DE" /><path d="M2141.704246 687.901611c-54.72328 0-93.779209 46.889605-93.779209 46.889604-171.966032 156.336164-422.081406 179.762225-617.510981 54.72328 93.779209 140.706296 250.115373 234.485505 429.91508 234.485505 148.502489 0 289.208785-62.519473 382.987994-171.966032 0 0 7.833675-39.093411 7.833675-62.519473-15.629868-62.519473-54.72328-101.612884-109.446559-101.612884z" fill="#ED4636" /><path d="M2485.63631 328.339678h211.059444v656.566911h-211.059444V328.339678zM2899.921523 0.037482H3110.980966v984.869107h-211.059443V0.037482zM2454.376574 132.910102c0 78.149341 62.519473 132.872621 132.872621 132.872621 78.149341 0 132.872621-62.519473 132.872621-132.872621S2657.602343 0.037482 2587.249195 0.037482s-132.872621 54.72328-132.872621 132.87262z" fill="#2C91DE" /><path d="M1954.108346 7.871157s-39.093411 7.833675-62.519473 23.463543c-39.093411 31.259736-54.72328 85.983016-23.463544 132.872621 31.259736 46.889605 85.983016 54.72328 85.983017 54.723279 117.242753 39.093411 218.855637 117.242753 289.208784 226.689312 46.889605 85.983016 70.353148 179.762225 62.519473 281.37511 78.149341-148.502489 78.149341-328.302196-7.833675-484.63836-78.149341-117.242753-203.225769-211.059444-343.932064-234.485505z" fill="#82D531" /><path d="M1555.490483 656.604392c31.259736-46.889605 7.833675-101.612884 7.833675-101.612884-31.259736-125.076428-7.833675-250.115373 54.72328-359.561933C1664.937042 109.446559 1743.123865 46.927086 1829.106881 0c-164.132357 7.833675-320.468521 93.779209-414.285212 250.115373-70.353148 125.076428-85.983016 273.578917-39.093411 414.285213 0 0 23.463543 23.463543 54.723279 39.093411 39.093411 23.463543 93.779209 7.833675 125.076428-46.889605z" fill="#F8BE32" /><path d="M2032.295168 570.621376c-7.833675-39.093411-39.093411-70.353148-39.093411-70.353148 7.833675-39.093411-7.833675-39.093411-7.833675-39.093411 0-117.242753-101.612884-109.446559-101.612884-109.446559s-101.612884 0-101.612885 109.446559c0 0-15.629868 7.833675-7.833675 39.093411 0 0-31.259736 23.463543-39.093411 70.353148 0 0-7.833675 70.353148 31.259736 7.833675 0 0 7.833675 23.463543 23.463544 39.093412 0 0-23.463543 7.833675-23.463544 31.259736 0 0 0 23.463543 54.72328 23.463543 0 0 39.093411 0 54.72328-23.463543h15.629868c15.629868 15.629868 54.72328 23.463543 54.72328 23.463543 62.519473 0 54.72328-23.463543 54.723279-23.463543 0-23.463543-23.463543-31.259736-23.463543-31.259736 15.629868-23.463543 23.463543-39.093411 23.463543-39.093412 39.093411 62.519473 31.259736-7.833675 31.259737-7.833675z" fill="#1599FF" /></svg>