<svg width="96" height="97" xmlns="http://www.w3.org/2000/svg" xmlns:xlink="http://www.w3.org/1999/xlink" overflow="hidden"><g transform="translate(-40 -358)"><path d="M123.147 396.678 122.201 398.061C122.201 398.421 121.66 398.782 121.3 398.963L121.3 398.963C122.021 398.421 122.472 397.474 123.08 396.707ZM127.79 395.534 128.871 395.534 128.967 395.566ZM125.807 395.534 125.987 395.534 125.663 395.596ZM90.0111 359.714C87.4157 359.563 84.7962 359.648 82.1823 359.986 55.3226 363.415 36.9355 388.677 42.5238 415.022 46.6699 434.15 58.5675 446.962 77.8558 451.112 96.6036 455.262 112.106 448.946 124.004 433.789 126.347 430.811 128.24 427.609 129.66 424.203L132.477 413.398 132.477 413.398C132.657 413.037 132.837 412.677 132.837 412.316L132.968 406.114 133.085 405.707 132.985 405.266 133.062 401.602C132.702 398.06 131.936 394.542 130.854 391.023 125.176 373.339 108.18 360.767 90.0111 359.714ZM87.9507 358.001C113.909 358.001 135 379.835 135 406.361 134.82 432.706 113.549 454.179 87.4099 453.999 60.9109 453.999 40 432.526 40 405.82 40 379.113 61.2714 357.821 87.9507 358.001Z" fill="#8F1117" fill-rule="evenodd"/><path d="M60.5516 421.775C65.3862 430.659 76.1297 438.093 88.3058 437.368 99.5865 436.824 108.181 431.566 114.448 421.775ZM86.6742 374.312C78.0458 374.303 70.4246 377.941 64.1127 385.148 55.697 394.758 54.0854 406 58.5619 417.967 59.0991 419.599 59.8153 420.143 61.6059 420.143L87.3905 420.143 114.07 420.143C115.324 420.143 115.861 419.78 116.219 418.692 118.726 412.709 119.621 406.363 118.189 400.016 115.503 387.324 107.982 378.802 95.6271 375.538 92.5384 374.723 89.5503 374.315 86.6742 374.312ZM87.4097 373C105.853 373 119.999 387.687 119.999 406 120.178 424.132 105.316 439 87.4097 439 69.5038 438.819 55 424.132 55 406 55 387.868 69.5038 373 87.4097 373Z" fill="#8F1117" fill-rule="evenodd"/><path d="M118.901 391.107C118.901 392.272 118.546 393.243 119.611 393.438 119.966 393.632 120.498 393.632 120.498 393.243 120.498 392.466 119.788 391.69 118.901 391.107ZM126 388C126.355 388 126.71 388 126.533 388.777 126.444 389.068 126.621 389.262 126.843 389.432L127.42 389.942 127.42 389.942C128.307 389.942 128.307 391.107 129.017 391.495 129.55 391.884 130.259 392.078 129.905 392.855 129.55 393.632 128.84 393.243 128.13 393.049 127.597 392.855 126.887 392.466 126.355 392.272 124.048 391.107 122.273 392.078 121.74 394.797 121.74 395.185 121.74 395.768 121.386 395.962 120.676 396.156 120.853 395.574 120.853 394.991 120.853 394.603 120.498 394.603 120.143 394.408 117.836 394.02 117.658 393.826 118.368 391.107 118.546 390.524 118.546 389.748 119.078 389.553 119.788 389.359 119.966 390.33 120.498 390.524 120.853 390.719 120.853 391.884 121.563 391.495 122.628 391.107 122.273 390.136 122.273 389.359 123.693 389.359 124.758 390.719 126 391.107 126.533 391.301 127.065 391.884 127.242 390.719L127.42 389.943 127.242 390.525C126.71 390.136 126 389.748 125.468 389.165 125.29 388.971 124.935 388.583 125.29 388.388 125.468 388.194 125.823 388 126 388Z" fill="#8F1117" fill-rule="evenodd"/><path d="M72.2498 373.617C72.4373 374.342 72.8124 374.886 73 375.611 72.4373 376.156 70.9368 375.067 70.9368 376.7 70.9368 377.062 70.374 377.062 70.1864 376.881 69.8113 376.7 69.9989 376.337 70.1864 375.974 70.7492 375.43 71.3119 374.886 70.9368 373.798 69.9989 374.523 69.2486 375.067 69.2486 373.254 69.2486 372.529 69.6237 371.622 68.3108 371.259 67.9357 371.078 67.9357 370.896 68.1232 370.715 69.6237 369.446 68.6859 367.632 69.061 366 69.8113 366.181 69.6237 366.907 69.9989 367.269 70.374 366.907 70.5616 366.544 70.9368 366.181 70.5616 368.902 71.3119 371.259 72.2498 373.617Z" fill="#8F1117" fill-rule="evenodd"/><path d="M75.7172 444.319C76.2285 443.067 76.399 442.531 76.7399 441.816 76.9103 441.458 76.9103 440.922 77.5921 441.101 78.274 441.28 77.9331 441.816 77.7626 442.173 77.4217 443.425 76.9103 444.676 76.5694 446.106 76.399 446.464 76.399 447 75.7172 447 75.2058 447 75.0354 446.642 74.8649 446.106 74.6944 445.212 74.3535 444.14 74.1831 443.067 73.3308 443.425 73.5013 444.14 73.3308 444.676 72.9899 445.034 73.1604 445.927 72.4786 445.749 71.6263 445.57 72.1376 444.855 72.3081 444.319 72.649 443.067 72.9899 441.995 73.5013 440.922 73.6717 440.565 73.5013 439.849 74.1831 440.028 74.6944 440.028 75.0354 440.565 75.2058 441.101 75.0354 441.816 75.2058 442.71 75.7172 444.319Z" fill="#8F1117" fill-rule="evenodd"/><path d="M83.4502 444.5C83.8135 444.695 84.9034 444.109 84.9034 445.282 84.9034 446.064 85.0851 447.237 83.9952 447.628 82.542 448.214 81.0889 448.214 79.8174 446.846 78.7276 445.673 78.7276 443.523 79.8174 442.154 80.9072 440.786 82.3604 440.786 83.8135 441.372 84.5401 441.763 85.2667 442.35 84.9034 443.132 84.3584 444.109 83.8135 443.132 83.4502 442.741 82.7237 442.154 81.8155 442.154 81.2705 442.545 80.3623 443.327 80.3623 444.305 80.5439 445.477 80.7256 446.259 81.2706 446.65 81.9971 446.65 82.3604 446.65 83.0869 446.846 83.2686 446.259 83.6319 445.477 82.9053 445.477 82.542 445.282 82.1788 445.282 82.1788 444.891 82.1788 444.695 82.3604 444.109 82.9053 444.305 83.4502 444.5Z" fill="#8F1117" fill-rule="evenodd"/><path d="M57.235 430.417C56.4673 431.115 55.6996 431.464 55.1238 431.987 54.74 432.336 54.3562 432.336 54.1642 431.987 53.7804 431.638 54.1642 431.289 54.3562 431.115 55.5077 430.243 56.8511 429.196 58.0026 428.324 58.3865 428.149 58.5784 427.8 59.1541 428.149 59.538 428.498 59.538 428.847 59.538 429.196 59.3461 430.243 58.5784 431.115 58.5784 432.685 59.3461 432.162 59.9218 431.638 60.6895 431.115 61.0733 430.766 61.4572 430.417 61.841 430.941 62.2249 431.464 61.841 431.813 61.4572 431.987 60.4976 432.86 59.3461 433.732 58.1945 434.43 57.8107 434.779 57.4269 435.302 56.8511 434.779 56.2754 434.43 56.4673 433.906 56.6592 433.383 56.8511 432.685 57.4269 431.813 57.235 430.417Z" fill="#8F1117" fill-rule="evenodd"/><path d="M99.4571 444.14C99.1143 442.823 98.9429 442.07 98.7714 441.129 98.6 440.753 98.4286 440.188 99.1143 440 99.6286 440 99.8 440.376 99.8 440.753 100.143 442.07 100.486 443.576 100.829 444.893 101 445.269 101.171 445.834 100.657 446.21 100.143 446.399 99.8 446.21 99.4571 445.834 99.2857 445.646 98.9429 445.458 98.7714 445.081 98.2571 444.705 97.7429 443.576 97.2286 443.952 96.5429 444.328 97.4 445.269 97.4 445.834 97.4 446.21 97.7429 446.775 97.0571 446.963 96.5429 447.151 96.3714 446.587 96.2 446.022 95.8571 444.705 95.5143 443.199 95.1714 441.882 95 441.506 94.8286 441.129 95.3429 440.753 95.6857 440.565 96.2 440.565 96.5429 440.941 97.4 442.07 98.2571 442.823 99.4571 444.14Z" fill="#8F1117" fill-rule="evenodd"/><path d="M115.306 430.345C114.584 430.526 113.862 431.068 113.862 431.791 113.862 432.152 114.223 432.694 114.765 432.513 115.306 432.152 115.848 431.61 116.029 430.887 115.848 430.707 115.667 430.164 115.306 430.345ZM115.803 429.058C116.164 429.171 116.48 429.442 116.751 429.803 118.195 431.61 118.195 431.61 120 432.152 119.458 433.597 118.375 433.055 117.292 432.875 116.751 432.875 116.209 432.694 115.848 433.236 115.487 433.959 116.209 434.139 116.39 434.501 116.57 434.862 117.473 435.043 116.751 435.765 116.209 436.307 115.848 435.765 115.487 435.585 114.945 435.043 114.223 434.501 113.682 433.959 113.14 433.236 111.696 432.875 112.057 431.971 112.418 430.887 113.501 429.984 114.584 429.261 115.036 428.99 115.442 428.945 115.803 429.058Z" fill="#8F1117" fill-rule="evenodd"/><path d="M63.3534 434.67C63.1654 434.51 60.7213 436.755 60.7213 437.076 60.9093 437.717 61.6613 438.038 62.2254 438.038 63.7295 438.038 64.1055 437.076 64.6695 436.114 64.6695 435.312 64.1055 434.831 63.3534 434.67ZM63.3534 433.066C64.4815 433.227 66.1736 435.312 65.9856 436.274 65.7976 437.717 64.1055 439 62.0373 439 61.0973 439 60.3452 438.038 59.2172 437.236 58.841 437.076 59.029 436.755 59.2172 436.434 60.3452 435.312 61.4733 434.189 62.6014 433.227 62.7894 433.066 62.9774 432.906 63.3534 433.066Z" fill="#8F1117" fill-rule="evenodd"/><path d="M69.0856 438.176C67.8857 438.342 67.2 439.34 67.2 440.505 67.2 441.503 67.8857 441.835 68.7428 442.002 69.9427 441.669 70.6284 440.837 70.6284 439.507 70.6284 438.675 69.9427 438.01 69.0856 438.176ZM69.0858 437.012C70.6286 437.178 72 438.509 72 439.84 72 441.503 70.4572 443 69.0858 443 67.5428 443 66 441.669 66 440.172 66 438.509 67.7142 436.845 69.0858 437.012Z" fill="#8F1117" fill-rule="evenodd"/><path d="M53.742 417.644C53.5651 418.32 53.0344 418.32 52.6806 418.32 51.7961 418.489 51.7961 418.997 51.973 419.674 52.1499 420.35 52.5037 420.689 53.3882 420.35 53.9189 420.181 54.6265 419.674 54.9803 420.519 55.1572 421.365 54.0958 421.196 53.742 421.534 52.8575 421.873 51.7961 422.211 50.9116 422.549 50.3809 422.719 49.6733 423.564 49.3195 422.38 48.9657 421.534 49.8502 421.704 50.3809 421.365 50.9116 421.027 51.6192 421.027 51.2654 420.181 50.9116 419.335 50.5578 418.828 49.4964 419.335 48.9657 419.504 48.435 420.012 48.0812 419.335 47.7274 418.32 48.6119 418.489 49.1426 418.32 50.3809 417.813 51.6192 417.475 52.6806 417.136 53.2113 416.798 53.5651 417.136 53.742 417.644Z" fill="#8F1117" fill-rule="evenodd"/><path d="M111.211 433C111.386 433.182 111.561 433.182 111.561 433.363 111.736 433.727 111.561 433.909 111.386 434.091 110.861 434.818 109.286 435.181 109.811 436.09 110.686 437.362 111.211 435.545 111.911 435.363 112.26 435.363 112.435 434.999 112.785 435.363 113.135 435.908 112.785 436.09 112.61 436.272 112.26 436.999 110.686 436.999 111.386 438.089 112.435 439.543 112.785 437.544 113.66 437.362 114.01 437.18 114.36 436.453 114.885 437.18 115.235 437.726 114.71 437.907 114.36 438.271 111.736 440.634 111.736 440.634 109.461 437.907 108.937 437.18 107.712 436.272 108.062 435.726 108.762 434.636 109.986 433.909 110.861 433.182 110.861 433.182 111.036 433.182 111.211 433Z" fill="#8F1117" fill-rule="evenodd"/><path d="M121.291 430C120.914 429.849 120.159 430 120.159 429.548 120.159 429.246 120.348 428.794 121.103 428.944 121.668 428.944 122.046 428.794 122.423 428.492 122.612 428.19 122.989 427.738 122.423 427.436 122.046 427.135 121.668 427.285 121.291 427.436 120.914 427.738 120.537 427.889 120.159 428.19 119.216 428.643 118.462 428.794 117.519 428.19 116.764 427.587 116.953 426.833 117.33 426.23 117.896 425.476 118.462 424.872 119.782 425.023 119.971 425.023 120.348 425.325 120.348 425.325 120.348 425.627 120.159 425.777 119.782 425.928 119.405 426.079 119.028 426.079 118.65 426.23 118.462 426.531 118.085 426.984 118.462 427.285 118.839 427.587 119.216 427.285 119.594 427.135L120.159 426.682C121.103 426.079 122.046 425.777 123.177 426.381 123.932 426.833 124.121 427.436 123.932 428.039 123.366 429.095 122.612 429.849 121.291 430Z" fill="#8F1117" fill-rule="evenodd"/><path d="M53.0001 413.676C53.0001 414.499 53.0001 415.116 52.6148 415.528 52.4221 415.939 52.0369 416.351 51.6516 416.145 51.2663 415.939 51.2663 415.322 51.2663 414.91 51.459 414.499 51.8442 414.087 51.6516 413.47 51.459 413.058 51.6516 412.646 51.0737 412.646 50.6884 412.646 50.4958 413.058 50.3031 413.264 50.1105 413.881 50.3031 414.499 50.1105 415.116 49.9179 416.351 49.1473 417.174 47.9915 416.969 46.643 416.969 46.2577 415.734 46.0651 414.499 45.8725 413.264 46.0651 412.235 47.2209 411.617 47.4136 411.412 47.7988 411.412 47.9915 411.617 48.1841 412.029 48.3768 412.235 47.9915 412.646 47.4136 413.058 47.2209 413.676 47.4136 414.499 47.4136 414.91 47.6062 415.322 48.1841 415.322 48.762 415.322 48.9547 414.91 48.9547 414.499L48.9547 413.676C48.9547 412.235 49.3399 411 50.881 411 52.6148 411.206 52.8074 412.646 53.0001 413.676Z" fill="#8F1117" fill-rule="evenodd"/><path d="M93.9744 445.323C94.146 446.985 93.4598 447.816 91.7445 447.982 90.0292 448.148 89.1715 447.151 89.1715 445.656 89.1715 444.825 89 443.994 89 443.163 89 442.831 89 442.332 89.5146 442.332 90.2007 442.332 90.2007 442.665 90.2007 443.163 90.2007 443.994 90.3723 444.825 90.5438 445.656 90.5438 446.32 90.8869 446.985 91.7445 446.985 92.6022 446.985 92.7737 446.32 92.7737 445.49 92.6022 444.659 92.6022 443.994 92.6022 443.163 92.6022 442.665 92.4306 442.166 93.1168 442 93.8029 442 93.8029 442.499 93.8029 442.831 93.8029 443.828 93.9744 444.659 93.9744 445.323Z" fill="#8F1117" fill-rule="evenodd"/><path d="M96 371.991C96.9375 371.83 97.875 371.669 98.8125 371.347 100.125 370.864 102.188 370.542 100.5 368.288 102.375 368.61 104.063 369.254 105 367 105.375 368.771 106.5 368.932 108 368.61 106.688 370.059 99.1875 372.152 96 371.991Z" fill="#8F1117" fill-rule="evenodd"/><path d="M55.3783 425.202C54.5675 425.383 53.9189 425.02 53.7568 425.927 53.5946 426.108 53.9189 426.652 54.0811 426.652 54.7297 426.652 54.8918 425.927 55.3783 425.202ZM56.027 424.114C56.5135 423.751 56.8378 424.295 57 425.202 56.6757 425.746 56.3514 426.29 56.027 426.652 55.5406 427.377 54.8919 428.284 54.4054 429.009 54.0811 429.372 53.9189 430.279 53.2703 429.916 52.6216 429.553 53.2703 429.009 53.2703 428.465 53.4325 427.377 53.1081 426.29 51.973 426.108 51.4865 426.108 51 426.108 51 425.383 51 424.658 51.4865 424.839 51.973 424.658 53.2703 424.476 54.7297 424.295 56.027 424.114Z" fill="#8F1117" fill-rule="evenodd"/><path d="M106.623 441.127C106.776 439.979 106.47 438.995 106.317 438.174 106.317 437.682 106.317 437.19 106.929 437.026 107.541 436.862 107.388 437.518 107.388 437.846 107.694 439.159 107.847 440.471 108 441.948 108 442.44 108 442.768 107.541 442.932 107.082 443.096 106.776 442.932 106.47 442.768 105.398 441.784 104.48 440.963 103.409 439.979 103.256 439.815 102.797 439.651 103.103 439.159 103.409 438.831 103.715 438.667 104.174 438.995 104.939 439.651 105.705 440.307 106.623 441.127Z" fill="#8F1117" fill-rule="evenodd"/><path d="M122 416C122.184 414.639 122.184 414.639 124.763 413.618 124.026 413.108 123.474 412.598 122.921 412.087 122.553 411.747 122.737 411.407 123.105 411.067 123.474 410.897 123.658 411.067 124.026 411.407 125.316 412.428 126.421 413.789 128.447 413.789 128.816 413.789 129 414.129 129 414.469 129 414.809 128.632 414.979 128.263 414.979 125.684 414.299 124.026 415.32 122 416Z" fill="#8F1117" fill-rule="evenodd"/><path d="M122.459 417.828C122.081 418.442 122.649 418.749 123.216 418.903 124.351 419.21 125.486 419.517 126.432 419.824 126.811 419.978 127 419.978 127 420.439 126.811 420.746 126.622 421.053 126.054 420.899 125.297 420.746 124.73 420.439 123.973 420.285 122.838 420.131 121.703 419.21 120.946 420.746 120.757 421.053 120.378 421.053 120.189 420.899 120 420.746 120 420.439 120 420.285 120.378 419.21 120.757 418.289 121.324 417.367 121.514 417.06 121.703 416.907 122.081 417.06 122.838 417.214 122.649 417.521 122.459 417.828Z" fill="#8F1117" fill-rule="evenodd"/><path d="M49 393.595C50.2708 393.405 50.2708 394.351 51.3298 394.73 51.5417 393.216 51.9653 391.703 52.1771 390 53.2361 392.27 53.2361 394.162 52.3889 396.054 52.1771 396.622 51.9653 397 51.118 397 50.4826 397 50.2708 396.622 50.059 396.054 49.8472 395.108 49.4236 394.351 49 393.595Z" fill="#8F1117" fill-rule="evenodd"/><path d="M120.026 422C121.659 422.79 123.292 423.579 124.743 424.566 124.925 424.763 125.106 424.961 124.925 425.355 124.743 425.75 124.562 426.145 124.199 425.948L119.301 423.579C118.938 423.382 118.938 422.987 119.119 422.592 119.663 422.197 119.845 422 120.026 422Z" fill="#8F1117" fill-rule="evenodd"/><path d="M103.402 445C102.887 445 102.716 444.446 102.544 444.077 102.03 442.415 101 441.123 101 439.277 101 438.908 101.686 438.908 101.858 439.277 102.544 440.938 103.231 442.6 103.745 444.262 104.26 444.631 103.917 444.815 103.402 445Z" fill="#8F1117" fill-rule="evenodd"/><path d="M51 391C49.9412 389.546 48.8824 388.273 48 387 49.5882 387 50.6471 388.091 51 391Z" fill="#8F1117" fill-rule="evenodd"/><path d="M102 376C102.449 375.152 102.897 374.729 103.122 374.093 103.346 373.669 103.346 372.822 104.243 373.033 104.467 373.033 104.916 373.669 104.916 374.093 105.14 374.729 104.916 375.152 104.243 375.364 103.57 375.576 102.897 375.788 102 376Z" fill="#8F1117" fill-rule="evenodd"/><path d="M54.4074 391C54.3026 390.155 54.1979 389.479 54.0931 388.972 54.0931 388.634 53.8836 388.296 54.0931 388.127 54.3026 387.958 54.6169 387.958 54.8264 388.127 55.036 388.296 55.036 388.634 54.9312 388.972 54.8264 389.479 54.6169 390.155 54.4074 391Z" fill="#8F1117" fill-rule="evenodd"/><path d="M72 373.45C72.2 373.023 72.6 373.023 73 373.023 73.4 373.023 73.8001 372.88 74.0001 373.308L74.0001 373.878C73.6001 374.163 73.2 373.878 73 373.735 72.6 373.735 72.4 373.593 72 373.45Z" fill="#8F1117" fill-rule="evenodd"/><path d="M74.5347 394.076C74.1107 394.141 73.7984 394.801 73.1736 396.121 71.9241 398.76 71.9241 398.76 75.137 398.935 75.851 399.111 76.565 398.935 77.1005 397.88 77.4575 396.824 77.279 396.297 76.565 395.593 75.4941 394.537 74.9585 394.009 74.5347 394.076ZM99.591 393.482C98.3415 394.713 96.5566 395.417 96.7351 396.648 96.9135 398.408 97.806 400.167 98.877 401.574 99.591 402.63 101.019 401.75 102.268 401.75 103.339 401.75 103.518 401.398 102.982 400.519 101.911 398.408 100.84 395.945 99.591 393.482ZM87.0963 385.389C84.7758 390.139 82.6338 394.361 80.4919 398.936 81.7413 398.936 82.6338 398.936 83.5263 399.112 85.3113 399.463 85.8467 398.76 85.8467 397.176 85.8467 397 85.6683 396.649 85.8467 396.473 86.0253 395.593 85.4898 394.361 86.9178 394.361 88.5242 394.361 87.9888 395.593 88.1672 396.297 88.3457 397.88 88.3457 399.639 91.0232 399.287 90.3092 400.343 89.7737 401.047 89.2382 401.926L94.7716 401.926C92.0942 396.473 89.7737 391.195 87.0963 385.389ZM87.2747 378 94.95 393.13C96.9134 391.371 98.6984 389.611 100.662 387.676 101.733 389.787 102.804 391.898 103.875 393.834 104.41 395.065 105.303 396.121 105.66 397.528 106.731 400.871 108.694 402.63 112.264 401.75 113.335 401.575 113.871 402.102 113.514 402.982 113.157 403.862 114.406 405.445 112.443 405.621L110.301 405.621C110.301 405.797 110.301 405.973 110.122 406.149 109.944 406.852 111.55 407.908 110.122 408.26 108.873 408.436 106.909 409.491 106.195 407.204 105.838 405.973 105.124 405.445 103.875 405.621 102.982 405.797 102.09 405.621 101.019 405.621 100.84 406.676 101.733 407.204 101.733 408.26 101.019 408.612 100.305 408.26 99.5908 408.436 98.3414 408.612 97.6274 408.26 97.2704 407.028 96.9134 405.973 96.1994 405.621 95.1285 405.621 93.7005 405.797 92.2726 405.797 90.8446 405.621 89.9521 405.621 89.4166 405.797 89.5951 406.852 89.9521 408.964 90.3091 411.075 90.4876 413.362 90.6661 414.241 91.0231 414.769 91.9156 414.241 94.593 412.658 97.0919 412.834 99.7694 414.241 101.554 415.121 103.696 414.066 105.303 412.834 105.838 412.482 106.195 412.13 106.909 412.482 110.122 414.241 110.836 414.241 114.049 412.658 115.477 415.121 115.477 415.297 112.8 416.177 111.015 416.704 109.23 416.704 107.445 415.825 106.552 415.473 105.838 415.473 104.946 415.825 102.09 417.232 99.2339 417.408 96.378 415.825 95.8425 415.473 95.307 415.649 94.7715 415.825 92.451 417.056 89.9521 417.584 87.6317 416.001 87.0961 415.649 86.9177 415.825 86.3822 416.001 84.2402 417.584 81.9198 417.056 79.7779 416.001 78.8854 415.473 78.1714 415.473 77.2789 416.001 74.6015 417.232 71.7456 417.056 69.0681 415.825 68.1757 415.473 67.4616 415.297 66.5692 415.649 64.7842 416.529 62.9993 416.529 61.0358 416.001 58.5369 415.297 58.5369 415.121 59.9649 412.658 62.4638 414.241 64.9627 414.417 67.2832 412.306 67.8187 411.778 68.1757 412.306 68.5326 412.658 71.5671 414.945 74.6015 414.945 77.6359 412.834 78.1714 412.306 78.7069 412.306 79.2424 412.834 79.4209 413.01 79.5994 413.186 79.9563 413.186 82.9908 414.945 83.5262 414.769 83.8833 411.251 84.0618 409.843 84.2402 408.612 84.4187 407.204 84.5972 406.149 84.5972 405.269 83.1693 405.093 83.7047 404.214 84.2402 403.51 84.9543 402.454L79.5994 402.454C79.0639 402.454 78.8854 402.806 78.7069 403.158 78.5284 403.686 78.3499 404.038 77.9929 404.565 76.5649 407.732 76.5649 407.732 72.8165 407.204 72.995 405.621 74.066 404.214 74.6015 402.454L71.2101 402.454C70.3176 402.454 69.7821 402.806 69.4251 403.686 69.2466 404.038 69.2466 404.214 69.0681 404.565 67.6401 407.556 67.6401 407.556 63.8917 407.38 64.0702 405.797 65.3197 404.389 65.6767 402.63L62.1068 402.63C61.0358 402.63 60.8573 402.454 60.8573 401.399 60.8573 398.584 60.8573 398.408 63.5348 398.76 66.9262 399.112 69.0681 398.232 70.1391 394.889 70.8531 392.778 72.1025 390.843 72.995 388.908 73.5305 387.852 73.8875 387.852 74.78 388.732 75.851 389.963 76.922 390.843 77.9929 392.074 79.0639 393.482 79.5994 392.954 80.3134 391.723 82.2768 387.5 84.4187 383.454 86.5607 379.407Z" fill="#8F1117" fill-rule="evenodd"/><path d="M84 425.805C83.2727 425.805 83.0909 426.362 83.0909 427.104 83.0909 428.032 83.4545 428.218 84.1818 428.218 84.9091 428.032 85.0909 427.661 85.0909 426.919 85.0909 426.176 84.5455 425.805 84 425.805ZM83.4545 425.063C84.5455 424.877 85.2727 425.063 85.6364 426.176 86 426.733 86 427.661 86 428.218 86 428.961 86 429.703 85.8182 430.446 85.6364 431.188 85.0909 431.745 84.3636 431.93 83.6364 432.116 83.0909 431.93 82.5455 431.374 82.3636 431.188 82 430.817 82.1818 430.446 82.5455 429.889 82.7273 430.26 83.0909 430.446 83.0909 430.446 83.0909 430.631 83.2727 430.631 83.8182 430.817 84.3636 431.002 84.7273 430.446 84.9091 430.26 85.0909 429.703 84.9091 429.518 84.7273 428.961 84.1818 429.332 83.8182 429.332 82.5455 429.332 82 428.404 82 427.29 82 426.176 82.3636 425.434 83.4545 425.063Z" fill="#8F1117" fill-rule="evenodd"/><path d="M90.4999 426.132C89.0416 426.132 89.0416 427.453 89.0416 428.397 89.0416 429.34 88.625 430.85 90.4999 430.85 92.1665 430.661 91.7499 429.34 91.9582 428.397 91.9582 427.453 91.9582 426.132 90.4999 426.132ZM90.7084 425C92.1667 425 92.7917 426.132 93 427.264L93 428.397C93 430.284 92.7917 431.605 90.7084 431.982 89.0416 432.171 88 430.85 88 428.963 88 428.397 88 427.831 88.2083 427.264 88.4166 426.132 89.0416 425 90.7084 425Z" fill="#8F1117" fill-rule="evenodd"/><path d="M96.8355 429.017C96.6709 429.812 97.1645 432 96.5064 432 95.3545 432 96.1773 430.011 96.0127 429.017 95.8482 428.221 96.3418 427.227 95.19 426.829 95.0254 426.829 94.8609 426.432 95.19 426.034 95.5191 425.636 96.0127 425.238 96.5064 425.04 96.8355 424.841 97 425.437 97 425.835 96.8355 426.829 96.8355 427.824 96.8355 429.017Z" fill="#8F1117" fill-rule="evenodd"/><path d="M78.1239 431.806C77.5982 430.639 77.9487 429.278 77.9487 428.111 77.9487 427.528 78.2991 426.556 77.2478 426.75 77.0726 426.75 76.8974 426.361 77.0726 426.167 77.423 425.583 77.7735 425.194 78.4743 425 78.8248 425 79 425.194 79 425.583L79 432C78.6496 431.806 78.4743 431.806 78.1239 431.806Z" fill="#8F1117" fill-rule="evenodd"/></g></svg>