<svg xmlns="http://www.w3.org/2000/svg" width="217" height="28" fill="none" id="svg-1020498026_3354"><path fill-rule="evenodd" clip-rule="evenodd" d="M0 5.887v16.226a5.408 5.408 0 0 0 5.408 5.408h16.226a5.408 5.408 0 0 0 5.408-5.408V5.887A5.408 5.408 0 0 0 21.634.48H5.408A5.408 5.408 0 0 0 0 5.887Zm21.709-3.53h-1.69c-5.409 0-8.526 3.455-8.526 8.75v.909a6.948 6.948 0 1 0 4.893 5.289h5.323a2.545 2.545 0 0 0 0-5.09h-5.296v-1.332c0-2.029 1.465-3.493 3.606-3.493h1.69a2.517 2.517 0 0 0 0-5.033ZM11.643 18.695a2.066 2.066 0 1 0-4.131 0 2.066 2.066 0 0 0 4.131 0Z" fill="#7C3AED"/><path fill-rule="evenodd" clip-rule="evenodd" d="M53.845 22V6h2.785v16h-2.785Zm7.598-16v12.534h13.99V22H60.487c-.499 0-.928-.219-1.289-.656-.36-.438-.54-.972-.54-1.602V6h2.785ZM78.17 22V6h2.784v16H78.17Zm55.782-3.466V6h2.66v16h-2.66L122.54 9.555V22h-2.66V7.245c0-.315.083-.586.249-.814.166-.228.374-.341.624-.341h1.787l11.413 12.444ZM160.897 6v12.534h13.99V22h-14.946c-.499 0-.928-.219-1.288-.656-.36-.438-.54-.972-.54-1.602V6h2.784Zm53.649 14.11c.998-1.26 1.496-2.766 1.496-4.516V6h-2.743v9.594c0 .805-.229 1.488-.686 2.048-.457.56-1.004.84-1.641.84h-3.782V6h-2.66v12.482h-3.824c-.637 0-1.178-.28-1.621-.84-.443-.56-.665-1.243-.665-2.048V6h-2.743v9.594c0 1.75.492 3.255 1.475 4.516.984 1.26 2.169 1.89 3.554 1.89h10.266c1.385 0 2.577-.63 3.574-1.89ZM89.301 18.534H99.8V22H89.301c-1.136 0-2.189-.359-3.159-1.076-.97-.718-1.738-1.68-2.306-2.889-.568-1.207-.852-2.529-.852-3.964 0-1.47.284-2.81.852-4.017.568-1.208 1.337-2.17 2.306-2.888.97-.717 2.023-1.076 3.16-1.076H99.8v3.465H89.301c-.97 0-1.8.438-2.493 1.313-.693.875-1.04 1.943-1.04 3.203 0 1.225.347 2.275 1.04 3.15.692.876 1.523 1.313 2.493 1.313Zm27.075 1.602c-.984 1.243-2.182 1.864-3.595 1.864h-6.634c-1.385 0-2.569-.621-3.553-1.864s-1.476-2.74-1.476-4.49v-3.15c0-1.75.492-3.256 1.476-4.516.984-1.26 2.168-1.89 3.553-1.89h6.634c1.413 0 2.611.63 3.595 1.89.984 1.26 1.476 2.765 1.476 4.516v3.15c0 1.75-.492 3.247-1.476 4.49ZM155.374 6.09v3.465h-14.053v2.73h14.053v3.466h-13.989V22h-2.744v-8.267h-.007V6.5h.007v-.41h16.733Zm36.799 14.046c-.983 1.243-2.182 1.864-3.595 1.864h-6.634c-1.385 0-2.569-.621-3.553-1.864s-1.475-2.74-1.475-4.49v-3.15c0-1.75.491-3.256 1.475-4.516.984-1.26 2.168-1.89 3.553-1.89h6.634c1.413 0 2.612.63 3.595 1.89.984 1.26 1.476 2.765 1.476 4.516v3.15c0 1.75-.492 3.247-1.476 4.49Zm-141.478.446c-.748.945-1.649 1.418-2.702 1.418h-12.95v-3.466h12.95c.305 0 .561-.13.77-.393.207-.263.31-.587.31-.972s-.103-.709-.31-.971c-.209-.263-.465-.394-.77-.394h-9.127c-1.053 0-1.953-.473-2.702-1.418-.748-.945-1.122-2.083-1.122-3.413 0-1.33.374-2.468 1.122-3.413.748-.945 1.649-1.418 2.702-1.418H51.11v3.466H38.866c-.305 0-.561.131-.769.394-.208.262-.312.586-.312.971s.104.709.312.971c.208.263.464.394.769.394h9.127c1.053 0 1.954.473 2.702 1.418s1.122 2.083 1.122 3.413c0 1.33-.374 2.468-1.122 3.413Zm63.728-10.134c-.458-.56-1.005-.84-1.642-.84h-6.634c-.637 0-1.177.28-1.62.84-.444.56-.666 1.243-.666 2.048v3.15c.001.805.222 1.488.666 2.048.443.56.983.84 1.62.84h6.634c.637 0 1.185-.28 1.642-.84.457-.56.686-1.242.686-2.048v-3.15c0-.805-.229-1.488-.686-2.048Zm75.797 0c-.457-.56-1.005-.84-1.642-.84h-6.634c-.637 0-1.177.28-1.62.84-.444.56-.665 1.243-.665 2.048v3.15c0 .805.221 1.488.665 2.048.443.56.983.84 1.62.84h6.634c.637 0 1.185-.28 1.642-.84.457-.56.686-1.242.686-2.048v-3.15c0-.805-.229-1.488-.686-2.048Z" fill="#030712"/></svg>