<?xml version="1.0" encoding="UTF-8"?>
<svg id="_图层_2" data-name="图层 2" xmlns="http://www.w3.org/2000/svg" viewBox="0 0 546.11 305.36">
  <defs>
    <style>
      .cls-1 {
        fill: #fff;
      }

      .cls-1, .cls-2 {
        stroke: #000;
        stroke-miterlimit: 10;
        stroke-width: 2px;
      }

      .cls-2 {
        fill: #fffffd;
      }
    </style>
  </defs>
  <g id="_图层_1-2" data-name="图层 1">
    <g>
      <path class="cls-1" d="M148.57,1h242.81v120.25h-242.81V1Z"/>
      <g>
        <path class="cls-2" d="M139.98,166.09c1.81,0,3.35.55,3.98,1.33,3.97.98,7.39,3.51,9.49,7.03,2.08-3.49,5.47-6.01,9.41-7.01-1.33-4.35-5.37-7.52-10.16-7.52h-25.43c-4.61,0-8.52,2.94-9.99,7.04h19.24c.78-.52,2.03-.87,3.46-.87h0Z"/>
        <path class="cls-2" d="M123.25,181.73c-1.81-.38-3.07-1.26-3.07-2.27,0-1.37,2.27-2.48,5.08-2.48s5.08,1.11,5.08,2.48c0,1.23-1.84,2.24-4.24,2.44,5.33.67,9.97,3.58,12.93,7.76,2.9-4.09,7.32-6.85,12.27-7.66.03-1.53.27-3.01.72-4.4-1.85-4.64-6.38-7.93-11.69-7.93h-30.13c-6.77,0-12.29,5.36-12.56,12.06h25.63Z"/>
        <path class="cls-2" d="M109.96,200.18c6.21,0,11.77,2.78,15.54,7.16,2.65-3.08,6.15-5.3,10.06-6.39v-.5c0-2.69.58-5.25,1.61-7.56-2.64-4.68-7.66-7.85-13.42-7.85h-36.89c-8.42,0-15.25,6.76-15.4,15.14h38.49ZM105.31,193.99c3.43,0,6.21,1.36,6.21,3.03s-2.78,3.03-6.21,3.03-6.21-1.36-6.21-3.03,2.78-3.03,6.21-3.03Z"/>
        <path class="cls-2" d="M84.69,219.17c-1.09-.59-1.76-1.37-1.76-2.22,0-1.84,3.05-3.32,6.81-3.32s6.81,1.49,6.81,3.32c0,1.11-1.12,2.09-2.84,2.7,5.73,1.19,10.68,4.55,13.95,9.17,3.07-4.33,7.61-7.56,12.9-8.92.13-3.34,1.08-6.6,2.76-9.49-3.09-4-7.92-6.59-13.36-6.59h-40.44c-8.81,0-16.04,6.75-16.82,15.36h31.98Z"/>
        <path class="cls-2" d="M68.15,248.79c9.7,0,18.07,5.78,21.87,14.08,2.66-5.8,7.49-10.31,13.46-12.56v-8.36c0-3.26.69-6.36,1.93-9.17-3.21-5.71-9.32-9.58-16.34-9.58h-44.87c-10.35,0-18.75,8.39-18.75,18.75v6.84h42.7ZM66.64,234.08c4.18,0,7.56,1.65,7.56,3.69s-3.38,3.69-7.56,3.69-7.56-1.65-7.56-3.69,3.38-3.69,7.56-3.69Z"/>
        <path class="cls-2" d="M87.85,272.83c0-.39.01-.78.03-1.17-.61-10.38-9.19-18.62-19.73-18.62H20.79c-10.93,0-19.79,8.86-19.79,19.79v31.53h86.85v-31.53h0ZM44.47,264.53c4.41,0,7.98,1.74,7.98,3.89s-3.57,3.89-7.98,3.89-7.98-1.74-7.98-3.89,3.57-3.89,7.98-3.89ZM186.74,166.96c.78-.52,2.04-.87,3.46-.87s2.69.35,3.46.87h3.05c8.43,0,15.3,6.86,15.3,15.3,0-2.33.56-4.53,1.53-6.51v-5.2c0-5.87-4.76-10.62-10.62-10.62h-25.43c-4.61,0-8.52,2.94-9.99,7.04h19.24Z"/>
        <path class="cls-2" d="M166.58,169.66c-6.78,0-12.29,5.36-12.56,12.08.09,0,.18-.01.28-.01h25.35c-1.81-.38-3.07-1.26-3.07-2.27,0-1.37,2.27-2.48,5.08-2.48s5.08,1.11,5.08,2.48c0,1.02-1.27,1.9-3.07,2.27h7.53c6.25,0,11.79,3.09,15.19,7.82.85-1.21,1.83-2.31,2.94-3.29v-4c0-6.95-5.64-12.59-12.59-12.59h-30.14Z"/>
        <path class="cls-2" d="M138.89,200.3c.71-.07,1.43-.12,2.16-.12h40.44c6.97,0,13.12,3.49,16.84,8.82,1.27-1.83,2.82-3.44,4.6-4.77v-3.78c0-2.73.59-5.32,1.61-7.66-2.66-4.63-7.64-7.75-13.36-7.75h-36.89c-8.46,0-15.32,6.82-15.4,15.26h0ZM172.73,200.05c-3.43,0-6.21-1.36-6.21-3.03s2.78-3.03,6.21-3.03,6.21,1.36,6.21,3.03-2.78,3.03-6.21,3.03Z"/>
        <path class="cls-2" d="M124.22,219.26c.67-.06,1.35-.09,2.03-.1h29.95c-1.09-.59-1.76-1.37-1.76-2.22,0-1.84,3.05-3.32,6.81-3.32s6.81,1.49,6.81,3.32c0,.86-.67,1.63-1.76,2.22h4.8c8.22,0,15.43,4.38,19.44,10.92,1.12-1.88,2.5-3.58,4.1-5.06v-4.32c0-2.87.59-5.61,1.65-8.09-2.87-5.24-8.43-8.8-14.83-8.8h-40.44c-8.84,0-16.09,6.8-16.82,15.45h0Z"/>
        <path class="cls-2" d="M181.16,262.96c1.43-3.17,3.53-5.98,6.15-8.27v-12.75c0-2.5.4-4.91,1.13-7.17-2.82-6.8-9.51-11.58-17.32-11.58h-44.87c-10.35,0-18.75,8.39-18.75,18.75v7.25c1.44-.27,2.91-.41,4.38-.41h47.36c9.74,0,18.14,5.83,21.91,14.17h0ZM148.69,234.08c4.18,0,7.56,1.65,7.56,3.69s-3.38,3.69-7.56,3.69-7.56-1.65-7.56-3.69,3.38-3.69,7.56-3.69Z"/>
        <path class="cls-2" d="M179.04,272.83c0-10.93-8.86-19.79-19.79-19.79h-47.36c-10.93,0-19.79,8.86-19.79,19.79v31.53h86.94v-31.53h0ZM135.57,264.53c4.41,0,7.98,1.74,7.98,3.89s-3.57,3.89-7.98,3.89-7.98-1.74-7.98-3.89,3.57-3.89,7.98-3.89ZM243.6,166.96c.85-.52,2.21-.87,3.76-.87s2.92.35,3.76.87h8.14c4.62,0,8.77,1.92,11.68,4.95v-1.37c0-1.48.29-2.9.79-4.23-1.78-3.76-5.84-6.39-10.57-6.39h-27.6c-5.39,0-9.9,3.41-11.16,8.01,1.77-.64,3.64-.96,5.52-.97h15.68,0Z"/>
        <path class="cls-2" d="M214.82,182.92c2.02-.78,4.17-1.19,6.35-1.19h20.34c-1.88-.38-3.2-1.26-3.2-2.27,0-1.37,2.36-2.48,5.28-2.48s5.28,1.11,5.28,2.48c0,1.02-1.32,1.9-3.2,2.27h11.44c5.53,0,10.48,2.55,13.83,6.55v-11.68c-2.16-4.11-6.57-6.93-11.68-6.93h-31.34c-7.23,0-13.1,5.64-13.1,12.59v.66Z"/>
        <path class="cls-2" d="M221.16,185.04c-8.29,0-15.02,6.9-15.02,15.41v1.8c2.75-1.36,5.77-2.07,8.84-2.07h40.04c6.33,0,11.99,2.94,15.73,7.54v-7.27c0-.86.08-1.7.19-2.54v-3.47c-2.28-5.53-7.62-9.4-13.83-9.4h-35.94ZM239.14,200.05c-3.34,0-6.05-1.36-6.05-3.03s2.71-3.03,6.05-3.03,6.05,1.36,6.05,3.03-2.71,3.03-6.05,3.03Z"/>
        <path class="cls-2" d="M270.75,228.08v-13.09c-2.32-6.51-8.48-11.18-15.73-11.18h-40.04c-9.24,0-16.73,7.56-16.73,16.89v1.61c3.38-2.06,7.27-3.15,11.23-3.15h20.51c-1.08-.59-1.74-1.37-1.74-2.22,0-1.84,3.02-3.32,6.75-3.32s6.75,1.49,6.75,3.32c0,.86-.66,1.63-1.74,2.22h13.16c7.15,0,13.52,3.5,17.58,8.91Z"/>
        <path class="cls-2" d="M270.75,260v-23.06c-2.13-7.92-9.18-13.75-17.58-13.75h-43.69c-10.08,0-18.25,8.39-18.25,18.75v9.97c3.61-2.05,7.69-3.13,11.84-3.13h47.36c8.54,0,16.05,4.48,20.32,11.22h0ZM223.97,237.77c0-2.04,3.3-3.69,7.36-3.69s7.36,1.65,7.36,3.69-3.3,3.69-7.36,3.69-7.36-1.65-7.36-3.69Z"/>
        <path class="cls-2" d="M270.22,272.83c0-10.93-8.86-19.79-19.79-19.79h-47.36c-10.93,0-19.79,8.86-19.79,19.79v31.53h86.94v-31.53ZM226.76,264.53c4.41,0,7.98,1.74,7.98,3.89s-3.57,3.89-7.98,3.89-7.98-1.74-7.98-3.89,3.57-3.89,7.98-3.89ZM392.66,174.44c2.1-3.52,5.51-6.05,9.49-7.03.63-.77,2.17-1.33,3.98-1.33,1.43,0,2.69.35,3.46.87h19.24c-1.47-4.1-5.38-7.04-9.99-7.04h-25.43c-4.79,0-8.83,3.17-10.16,7.52,3.99,1,7.35,3.56,9.41,7.01h0Z"/>
        <path class="cls-2" d="M405.78,169.66c-5.3,0-9.83,3.29-11.69,7.93.45,1.39.69,2.87.72,4.4,4.95.81,9.37,3.57,12.27,7.66,2.97-4.18,7.6-7.09,12.93-7.76-2.4-.2-4.24-1.21-4.24-2.44,0-1.37,2.27-2.48,5.08-2.48s5.08,1.11,5.08,2.48c0,1.02-1.27,1.9-3.07,2.27h25.63c-.28-6.71-5.79-12.06-12.56-12.06h-30.14Z"/>
        <path class="cls-2" d="M422.35,185.04c-5.76,0-10.77,3.17-13.42,7.85,1.06,2.38,1.61,4.96,1.61,7.56v.5c3.91,1.09,7.42,3.31,10.06,6.39,3.77-4.37,9.33-7.16,15.54-7.16h38.49c-.15-8.39-6.98-15.14-15.4-15.14h-36.89ZM440.79,200.05c-3.43,0-6.21-1.36-6.21-3.03s2.78-3.03,6.21-3.03,6.21,1.36,6.21,3.03-2.78,3.03-6.21,3.03h0Z"/>
        <path class="cls-2" d="M476.58,203.81h-40.44c-5.45,0-10.27,2.59-13.36,6.59,1.69,2.89,2.64,6.15,2.76,9.49,5.29,1.36,9.83,4.59,12.9,8.92,3.27-4.62,8.22-7.98,13.95-9.17-1.72-.6-2.84-1.59-2.84-2.7,0-1.84,3.05-3.32,6.81-3.32s6.81,1.49,6.81,3.32c0,.86-.67,1.63-1.76,2.22h31.98c-.78-8.61-8.01-15.36-16.82-15.36h0Z"/>
        <path class="cls-2" d="M457.04,223.2c-7.02,0-13.13,3.86-16.34,9.58,1.28,2.89,1.94,6.01,1.93,9.17v8.36c5.97,2.25,10.81,6.76,13.46,12.56,3.79-8.3,12.17-14.08,21.87-14.08h42.7v-6.84c0-10.35-8.39-18.75-18.75-18.75h-44.87ZM487.03,237.77c0,2.04-3.38,3.69-7.56,3.69s-7.56-1.65-7.56-3.69,3.38-3.69,7.56-3.69,7.56,1.65,7.56,3.69Z"/>
        <path class="cls-2" d="M525.32,253.04h-47.36c-10.53,0-19.12,8.24-19.73,18.62.02.39.03.77.03,1.17v31.53h86.85v-31.53c0-10.93-8.86-19.79-19.79-19.79ZM493.66,268.42c0-2.15,3.57-3.89,7.98-3.89s7.98,1.74,7.98,3.89-3.57,3.89-7.98,3.89c-4.41,0-7.98-1.74-7.98-3.89ZM349.4,166.96h3.05c.78-.52,2.04-.87,3.46-.87s2.69.35,3.46.87h19.24c-1.47-4.1-5.38-7.04-9.99-7.04h-25.43c-5.87,0-10.62,4.76-10.62,10.62v5.2c1,2.02,1.53,4.25,1.53,6.51,0-8.43,6.86-15.3,15.3-15.3Z"/>
        <path class="cls-2" d="M336.81,182.25v4c1.11.98,2.09,2.08,2.94,3.29,3.4-4.72,8.93-7.82,15.19-7.82h7.53c-1.81-.38-3.07-1.26-3.07-2.27,0-1.37,2.27-2.48,5.08-2.48s5.08,1.11,5.08,2.48c0,1.02-1.27,1.9-3.07,2.27h25.35c.09,0,.18.01.28.01-.27-6.71-5.78-12.08-12.56-12.08h-30.14c-6.96,0-12.59,5.64-12.59,12.59h0Z"/>
        <path class="cls-2" d="M391.82,185.04h-36.89c-5.72,0-10.7,3.12-13.36,7.75,1.06,2.41,1.61,5.02,1.61,7.66v3.78c1.78,1.33,3.34,2.94,4.6,4.77,3.71-5.32,9.87-8.82,16.83-8.82h40.44c.73,0,1.45.04,2.16.12-.08-8.44-6.94-15.26-15.4-15.26h0ZM373.38,200.05c-3.43,0-6.21-1.36-6.21-3.03s2.78-3.03,6.21-3.03,6.21,1.36,6.21,3.03-2.78,3.03-6.21,3.03Z"/>
        <path class="cls-2" d="M405.06,203.81h-40.44c-6.4,0-11.96,3.56-14.83,8.8,1.09,2.56,1.65,5.31,1.65,8.09v4.32c1.6,1.48,2.98,3.19,4.1,5.06,4.01-6.54,11.22-10.92,19.44-10.92h4.8c-1.09-.59-1.76-1.37-1.76-2.22,0-1.84,3.05-3.32,6.81-3.32s6.81,1.49,6.81,3.32c0,.86-.67,1.63-1.76,2.22h29.95c.68,0,1.36.04,2.03.1-.73-8.65-7.98-15.45-16.82-15.45h0Z"/>
        <path class="cls-2" d="M364.95,262.96c3.77-8.35,12.17-14.17,21.91-14.17h47.36c1.5,0,2.96.14,4.38.41v-7.25c0-10.35-8.39-18.75-18.75-18.75h-44.87c-7.81,0-14.51,4.78-17.32,11.58.75,2.32,1.13,4.73,1.13,7.17v12.75c2.62,2.28,4.72,5.1,6.15,8.27h0ZM404.98,237.77c0,2.04-3.38,3.69-7.56,3.69s-7.56-1.65-7.56-3.69,3.38-3.69,7.56-3.69,7.56,1.65,7.56,3.69Z"/>
        <path class="cls-2" d="M454.01,272.83c0-10.93-8.86-19.79-19.79-19.79h-47.36c-10.93,0-19.79,8.86-19.79,19.79v31.53h86.94v-31.53ZM402.56,268.42c0-2.15,3.57-3.89,7.98-3.89s7.98,1.74,7.98,3.89-3.57,3.89-7.98,3.89c-4.41,0-7.98-1.74-7.98-3.89ZM273.42,174.09c2.82-4.28,7.78-7.13,13.43-7.13h8.14c.85-.52,2.21-.87,3.76-.87s2.92.35,3.76.87h15.68c1.94,0,3.8.35,5.52.97-1.27-4.6-5.78-8.01-11.16-8.01h-27.6c-6.37,0-11.53,4.76-11.53,10.62v3.55h0Z"/>
        <path class="cls-2" d="M318.19,169.66h-31.34c-7.23,0-13.1,5.64-13.1,12.59v7.93c3.26-5.09,8.87-8.46,15.24-8.46h11.44c-1.88-.38-3.2-1.26-3.2-2.27,0-1.37,2.36-2.48,5.28-2.48s5.28,1.11,5.28,2.48c0,1.02-1.32,1.9-3.2,2.27h20.34c2.23,0,4.36.43,6.35,1.19v-.66c0-6.95-5.86-12.59-13.1-12.59Z"/>
        <path class="cls-2" d="M273.98,200.45v9.2c3.62-5.69,9.92-9.47,17.1-9.47h40.04c3.17,0,6.16.76,8.84,2.07v-1.8c0-8.51-6.72-15.41-15.02-15.41h-35.95c-8.29,0-15.02,6.9-15.02,15.41h0ZM306.97,200.05c-3.34,0-6.05-1.36-6.05-3.03s2.71-3.03,6.05-3.03,6.05,1.36,6.05,3.03-2.71,3.03-6.05,3.03Z"/>
        <path class="cls-2" d="M347.85,222.32v-1.61c0-9.33-7.49-16.89-16.73-16.89h-40.04c-9.24,0-16.73,7.56-16.73,16.89v8.83c3.96-6.23,10.81-10.37,18.58-10.37h13.16c-1.08-.59-1.74-1.37-1.74-2.22,0-1.84,3.02-3.32,6.75-3.32s6.75,1.49,6.75,3.32c0,.86-.66,1.63-1.74,2.22h20.51c4.1,0,7.93,1.15,11.23,3.15h0Z"/>
        <path class="cls-2" d="M354.87,241.94c0-10.35-8.17-18.75-18.25-18.75h-43.69c-10.08,0-18.25,8.39-18.25,18.75v19.19c4.11-7.36,11.98-12.35,20.99-12.35h47.36c4.3,0,8.34,1.14,11.84,3.13v-9.97h0ZM307.41,237.77c0-2.04,3.3-3.69,7.36-3.69s7.36,1.65,7.36,3.69-3.3,3.69-7.36,3.69-7.36-1.65-7.36-3.69Z"/>
        <path class="cls-2" d="M362.82,272.83c0-10.93-8.86-19.79-19.79-19.79h-47.36c-10.93,0-19.79,8.86-19.79,19.79v31.53h86.94v-31.53h0ZM311.37,268.42c0-2.15,3.57-3.89,7.98-3.89s7.98,1.74,7.98,3.89-3.57,3.89-7.98,3.89c-4.41,0-7.98-1.74-7.98-3.89Z"/>
      </g>
    </g>
  </g>
</svg>