<svg width="558" height="168" viewBox="0 0 558 168" fill="none" xmlns="http://www.w3.org/2000/svg">
<path d="M118.543 0C135.854 0 144.51 0.000158921 151.122 3.36914C156.938 6.33265 161.667 11.0617 164.631 16.8779C168 23.49 168 32.1458 168 49.457V118.543C168 135.854 168 144.51 164.631 151.122C161.667 156.938 156.938 161.667 151.122 164.631C144.51 168 135.854 168 118.543 168H49.457C32.1454 168 23.4891 168 16.877 164.631C11.0609 161.667 6.33259 156.938 3.36914 151.122C0.000178642 144.51 0 135.854 0 118.543V49.457C0 32.1457 0.000192889 23.4901 3.36914 16.8779C6.33259 11.0618 11.0609 6.33267 16.877 3.36914C23.4891 7.42912e-05 32.1454 0 49.457 0H118.543ZM71.4336 92.874C70.5243 92.8741 69.6233 93.0531 68.7832 93.4023C67.9432 93.7517 67.1792 94.2648 66.5361 94.9102L53.3115 108.188L49.7979 104.66C47.2149 102.068 42.794 103.349 41.9912 106.929L36.9814 129.214C36.8056 129.98 36.8272 130.78 37.0449 131.535C37.2618 132.288 37.666 132.973 38.2188 133.525L38.2148 133.532C38.7665 134.091 39.4507 134.498 40.2031 134.717C40.9559 134.935 41.7519 134.957 42.5156 134.78L64.7139 129.749C68.2768 128.943 69.5564 124.507 66.9736 121.914L63.459 118.387L76.6855 105.11C77.9838 103.806 78.7137 102.037 78.7139 100.193C78.7139 98.3496 77.9838 96.5804 76.6855 95.2764L76.5088 95.0986L76.5146 95.0938L76.332 94.9102C75.689 94.2647 74.925 93.7518 74.085 93.4023C73.2447 93.0529 72.3431 92.8741 71.4336 92.874ZM119.144 84.5078C116.055 82.5471 112.03 84.7777 112.029 88.4463V93.4336H83.6885C84.6353 95.2504 85.1747 97.3163 85.1748 99.5088C85.1746 102.679 84.0551 105.587 82.1914 107.855H112.027L112.025 112.843C112.026 116.511 116.055 118.741 119.144 116.78L138.385 104.584C139.824 103.667 140.544 102.153 140.544 100.641C140.542 99.1307 139.822 97.6206 138.38 96.707L119.144 84.5078ZM72.1182 31.2197C71.3349 31.2162 70.5622 31.4127 69.876 31.792C69.1892 32.1721 68.609 32.724 68.1934 33.3916L56.042 52.7061H56.0381C54.0859 55.807 56.3091 59.8489 59.9629 59.8496H64.9326V88.542C66.9942 87.1787 69.4611 86.3829 72.1143 86.3828C74.769 86.3828 77.2375 87.1792 79.2998 88.5439V59.8496H84.2695C87.9238 59.8496 90.1429 55.8078 88.1934 52.7041L76.0391 33.3916C75.1264 31.9457 73.6227 31.2213 72.1182 31.2197Z" fill="#1F1E1E"/>
<path d="M485.077 160.11V144.149H492.907C499.833 144.149 502.996 144.299 506.459 135.716L507.362 133.458L476.343 52.7478H499.081L517.451 111.172L536.273 52.7478H557.354L527.69 131.349C518.204 156.496 513.988 160.11 493.81 160.11H485.077Z" fill="#1F1E1E"/>
<path d="M470.061 133.759H449.281V24.5898H470.061V133.759Z" fill="#1F1E1E"/>
<path d="M433.663 52.7478V133.759H412.883V52.7478H433.663Z" fill="#1F1E1E"/>
<path d="M366.93 112.678L385.903 52.7478H406.532L377.47 133.759H355.637L326.123 52.7478H347.957L366.93 112.678Z" fill="#1F1E1E"/>
<path d="M280.77 135.716C265.261 135.716 251.558 126.682 251.558 111.925C251.558 92.8017 273.091 87.0798 304.863 83.4659V82.1107C304.863 69.6127 298.087 65.246 289.654 65.246C281.674 65.246 275.048 69.4621 274.597 78.3462H255.172C256.678 62.385 269.929 50.6399 290.708 50.6399C309.982 50.6399 325.643 58.9217 325.643 86.3269C325.643 88.8867 325.341 99.5777 325.341 106.956C325.341 119.755 326.245 126.983 327.751 133.759H308.627C308.025 131.199 307.573 127.585 307.272 123.67C301.55 132.103 292.967 135.716 280.77 135.716ZM305.465 96.7167C282.276 99.126 272.94 101.836 272.94 110.871C272.94 116.744 277.608 121.562 286.944 121.562C299.894 121.562 305.465 114.485 305.465 102.74V96.7167Z" fill="#1F1E1E"/>
<path d="M206.924 30.7635H227.703V52.7479H244.568V67.0528H227.703V108.913C227.703 117.195 230.564 118.852 237.943 118.852H244.267V133.759H229.059C210.538 133.759 206.924 128.037 206.924 111.925V67.0528H195.48V52.7479H206.924V30.7635Z" fill="#1F1E1E"/>
<path d="M423.273 21.6549C416.954 21.6549 411.829 26.7775 411.829 33.0966C411.829 39.4156 416.954 44.5382 423.273 44.5382C429.592 44.5382 434.716 39.4156 434.716 33.0966C434.716 26.7775 429.592 21.6549 423.273 21.6549Z" fill="#1F1E1E"/>
</svg>
