<?xml version="1.0" encoding="UTF-8"?>
<svg id="_图层_1" data-name="图层 1" xmlns="http://www.w3.org/2000/svg" viewBox="0 0 894.21 1080">
  <defs>
    <style>
      .cls-1 {
        fill: #3662e3;
        stroke-width: 0px;
      }
    </style>
  </defs>
  <path class="cls-1" d="M589.83,378.1c.09,0,.2-.02.3-.04-.2-1.75-.31-3.51-.63-5.25-3.83-21.25-10.49-41.26-22.53-59.62-14.17-21.61-31.15-40.09-53.38-53.24-7.9-4.68-16.2-8.72-26.61-4.22-8.87,3.84-14.79,9.39-16.47,18.37-2,10.68,1.18,19.64,10.8,26.42,11.76,8.28,25.51,14.45,32.83,28,7.16,13.26,15.95,25.93,20.98,39.94,5.28,14.7,5.99,30.93,2.14,46.4-2.78,11.13-6.76,22.16-11.78,32.47-6.1,12.5-5.95,25.84,2.29,32.7,16.43,13.67,37.03,8.77,46.23-9.95,11.72-23.84,17.45-49.16,17.28-75.72-.04-5.42-.96-10.85-1.46-16.26v-.02Z"/>
  <path class="cls-1" d="M563.71,878.98c-53.56,0-107.11.06-160.68-.05-9.04-.01-18.06-1.05-27.09-.99-25.72.18-51.43.69-77.15,1.02-2.74.04-5.52-.12-8.23-.5-7.62-1.06-10.93.17-14.63,6.89-8.9,16.2-17.4,32.62-26.32,48.81-4.06,7.38-9,14.3-13.1,21.66-9.75,17.52-19.68,34.96-28.7,52.86-8.15,16.19-17.85,31.43-31.3,43.25-18.83,16.56-41.02,26.58-66.73,27.95-21.59,1.16-40.61-5.58-58.58-16.66C17.73,1042.56.4,1012.47,0,973.28c-.2-19.99,5.03-38.89,16.78-55.6,9.94-14.13,18.94-29,29.7-42.46,5.73-7.16,14.4-11.93,21.59-17.96,19.66-16.47,43.67-22.9,67.69-29.13,5.34-1.38,11.16-.97,16.78-1.23,7.05-.32,14.12-.52,21.17-.7,11.38-.27,22.75-.78,34.12-.63,10.94.14,21.87,1,32.8,1.55,5.65.28,10.35-2.22,13.1-6.68,16.88-27.23,32.1-55.2,35.2-87.96.85-8.98,1.21-18.02,2.27-26.97,2.48-20.89,11.44-39.58,20.89-57.93,4.47-8.68,9.39-17.58,16.02-24.57,6.75-7.11,15.6-12.38,23.97-17.75,11.28-7.22,23-13.95,36.84-14.78,7.68-.46,15.42.11,23.12-.11,12.52-.34,25.07-.48,37.53-1.59,11.06-.98,22.36-1.95,32.95-5.02,26.89-7.8,51.49-20.5,72.78-38.93,15.37-13.3,29.54-28,40.07-45.36,14.05-23.11,22.19-48.66,25.85-75.46,1.63-11.96,4.18-24.34,2.67-36.06-2.55-19.77-7.05-39.44-12.51-58.64-5.79-20.39-15.94-39.11-30.45-54.7-9.81-10.53-19.45-21.17-30.8-30.48-14.32-11.74-31.14-18.28-46.74-27.22-7.07-4.05-16.03-5.2-24.31-6.66-13.52-2.39-27.21-5.67-40.77-5.4-16.76.33-33.47,3.79-50.18,6.12-23.09,3.21-43.84,13.65-63.18,25.16-25.37,15.11-48.05,34.71-61.71,61.87-7.56,15.03-13.16,31.11-18.76,47.02-3.28,9.32-6.33,19.19-6.76,28.93-.54,12.32-4.5,24.66-.18,37.27,2.02,5.9.78,12.82,2.22,19,2.67,11.42,5.82,22.79,9.52,33.93,5.73,17.26,14.3,33.05,24.49,48.22,8.61,12.81,17.23,26.18,18.97,42.14,2.43,22.25,1.63,43.84-10,64.31-11.5,20.23-25.25,38.16-42.65,53.67-8.66,7.71-16.6,16.06-27.16,21.31-4.05,2.01-7.62,2.09-11.77.15-13.81-6.44-26.68-14.21-38.24-24.24-9.74-8.45-19.97-16.33-29.93-24.54-2.11-1.75-4.08-3.72-5.95-5.73-22.54-24.05-41.45-50.65-55.95-80.32-6.12-12.51-13.68-24.49-18.27-37.53-6.75-19.2-11.9-39-16.8-58.78-3.23-13.01-4.94-26.41-7.07-39.67-.74-4.61-.64-9.35-.99-14.02-1.5-19.2-1.69-38.37.72-57.52,1.72-13.74,3.32-27.49,5.35-41.2,3.14-21.25,8.61-42,16.42-61.97,14.54-37.19,34.16-71.77,58.43-103.39,11.19-14.57,24.46-27.62,37.53-40.62,25.85-25.7,56.26-44.91,88.23-62.26,16.26-8.83,33.38-14.64,50.45-20.92,12.32-4.54,24.76-9.31,37.57-11.83,19-3.72,38.31-6.01,57.58-8.01,12.48-1.29,25.18-1.8,37.69-1.15,19.6,1.02,39.14,3.15,58.67,5.14,8.77.89,17.5,2.27,26.16,3.9,24.61,4.62,46.9,15.93,69.46,25.87,14.54,6.42,27.56,16.55,40.71,25.81,16.49,11.61,32.9,23.46,48.43,36.33,9.57,7.94,17.53,17.86,25.99,27.11,5.97,6.52,11.89,13.14,17.21,20.18,8.28,10.93,17.33,21.55,23.74,33.54,12.85,24.08,25.45,48.48,35.68,73.73,8.77,21.64,12.98,44.9,15.13,68.37,1.3,14.15,3.24,28.31,5.99,42.25,1.17,5.92,4.43,11.8,7.99,16.81,12.16,17.17,24.82,33.95,37.36,50.85,10.17,13.72,20.78,27.14,30.56,41.13,9.9,14.17,19.82,28.41,28.26,43.45,10.03,17.88,4.16,40.56-12.67,52.76-14.47,10.49-29.34,20.45-44.04,30.61-9.51,6.57-10.02,8.44-5.94,19.01,3.32,8.62,7.27,17.17,9.16,26.12,1.06,5.07-.15,11.58-2.63,16.23-5.21,9.81-11.64,19.02-18.15,28.06-2.69,3.75-2.48,5.85.6,8.98,8.97,9.13,17.66,18.55,20.11,31.84.28,1.51.54,3.07.44,4.58-.85,11.93-1.39,23.91-2.81,35.77-1.98,16.62-3.23,33.25-10.18,49.11-7.68,17.5-20.19,29.82-34.84,41.3-12.75,10-26.75,15.55-42.36,17.75-7.92,1.11-15.96,1.9-23.95,1.93-52.76.17-105.54.08-158.31.09v.05ZM676.53,396.45c-.17,34.29-5.86,67.4-21.7,98.18-8.09,15.71-15.57,31.92-25.42,46.5-12.3,18.18-27.96,33.72-45.49,47.2-19.35,14.9-39.39,28.91-62.88,36.25-18.7,5.85-36.67,14.52-56.57,16.21-11.68.99-23.35,2.35-35.05,2.73-9.55.32-19.14-1.04-28.7-.79-15.65.4-28.63,6.76-37.79,19.72-14.74,20.84-19.07,44.95-20.94,69.65-1.08,14.17-1.91,28.28-7.92,41.45-6.59,14.47-13.24,28.92-19.92,43.37-3.65,7.89-2.19,10.46,6.73,10.16,11.35-.38,22.7-1.88,34.05-1.89,100.02-.15,200.03-.09,300.05-.08,4.51,0,9.03.17,13.54.31,12.76.41,25.52.74,38.28,1.31,21.69.97,42.19.17,59.45-16.92,12.67-12.52,13.7-27.37,14.87-42.97.51-6.75.69-13.54,1.5-20.25,1.13-9.33,2.81-18.6-4.11-26.67-1.26-1.48-2.42-3.24-2.99-5.07-2.5-8.16-6.65-16.39-6.7-24.62-.08-12.33,6.32-23.17,13.3-33.36,1.51-2.2,2.15-5.98,1.43-8.53-1.75-6.23-4.63-12.12-6.89-18.21-4.42-11.97-9.27-23.66-3.91-36.98,5.15-12.77,10.28-25.09,22.88-32.6,7.24-4.31,14.11-9.25,21.09-13.98,5.54-3.75,10.94-7.7,16.53-11.37,5.04-3.31,4.74-6.7,1.3-11.16-9.61-12.46-19.07-25.03-28.33-37.76-11.92-16.37-23.57-32.95-35.37-49.41-7.55-10.51-16-20.5-22.57-31.59-11.65-19.68-17.58-41.22-19.28-64.24-1.09-14.76-3.56-29.67-7.56-43.91-5.88-20.96-12.63-41.81-20.92-61.92-13.15-31.86-35.07-58.07-58.19-83.15-6.2-6.72-13.47-12.5-20.49-18.43-11.21-9.49-22.48-18.92-34.03-27.99-3.97-3.12-9.44-4.43-13.16-7.75-15.03-13.46-33.97-19.92-51.74-27.74-15.22-6.7-32.48-9.16-49.08-12.24-15.71-2.93-31.78-3.95-47.66-5.79-14.34-1.65-28.18.87-42.23.78-13.33-.08-26.78,3.25-39.98,6.05-15.95,3.39-32.62,5.72-47.26,12.31-19.05,8.58-38.82,15.48-56.92,26.88-15.21,9.58-29.43,20.25-43.54,31.07-10.43,8.01-19.3,18.15-28.33,27.85-9.62,10.35-19.08,20.94-27.73,32.1-14.45,18.66-24.2,40.02-33.22,61.67-5.21,12.5-11.63,24.73-15.03,37.71-4.9,18.67-7.63,37.91-11.12,56.95-.91,4.96-1.74,10.07-1.64,15.08.34,17.99.86,35.99,1.81,53.96.53,10.13,1.41,20.31,3.27,30.26,4.24,22.7,10.68,44.72,21.29,65.43,5.65,11.01,9.84,22.78,15.67,33.68,9.18,17.19,19.79,33.58,33.54,47.54,11.01,11.18,22.12,22.33,33.94,32.63,8.67,7.56,25.42,8.65,33.6-4.55,1.44-2.33,3.44-4.32,4.94-6.62,13.07-19.88,18.53-40.96,8.19-63.66-3.72-8.16-9.43-15.39-13.91-23.23-11.81-20.66-24.16-41.2-29.18-64.8-3.01-14.17-5.67-28.58-6.57-42.99-1.06-17.32-1.36-34.89.32-52.11,2.5-25.76,8.54-50.83,22.19-73.42,10.35-17.14,20.07-34.68,31.08-51.37,4.89-7.42,11.99-13.49,18.61-19.62,5.01-4.64,10.61-8.74,16.35-12.46,16.12-10.46,32.09-21.18,48.81-30.59,8.62-4.86,18.86-6.76,28.07-10.68,23.69-10.05,48.65-13.83,74.02-15.13,10.51-.54,21.12.91,31.69,1.28,17.41.6,34.13,3.7,50.53,10.14,19.8,7.77,39.27,15.44,57.27,27.41,15.97,10.62,30.06,22.87,43.76,36.07,13.54,13.04,24.54,27.84,32.86,44.36,9.7,19.28,19.36,38.81,26.39,59.14,7.2,20.82,8.88,43.04,8.75,65.2l.04.02ZM53.97,974c-2.78,9.27,2.02,17.78,6.42,25.63,7.35,13.09,17.14,23.62,33.54,26.24,9.96,1.59,19.51,1.57,28.83-1.61,5.4-1.84,11.02-4.44,15.22-8.19,17.26-15.38,26.19-36.59,37.62-55.99,6.47-11,11.96-22.59,18.25-33.71,7.64-13.5,15.76-26.76,23.46-40.24.93-1.63,1.49-4.51.66-5.82-.86-1.35-3.64-2.04-5.56-2.03-17.7.09-35.41.96-53.08.44-10.2-.3-19.98.61-29.41,4.09-6.43,2.36-12.43,5.87-18.71,8.7-8.73,3.91-15.77,9.88-22.9,16.24-10.42,9.32-17.33,20.89-23.84,32.68-5.59,10.14-12.88,20.1-10.48,33.58h-.01Z"/>
  <path class="cls-1" d="M589.83,378.1c.51,5.42,1.43,10.83,1.46,16.26.15,26.57-5.56,51.89-17.28,75.72-9.2,18.71-29.8,23.63-46.23,9.95-8.26-6.86-8.4-20.2-2.29-32.7,5.03-10.3,9.01-21.34,11.78-32.47,3.85-15.47,3.14-31.69-2.14-46.4-5.03-14.02-13.81-26.7-20.98-39.94-7.33-13.54-21.08-19.72-32.83-28-9.63-6.78-12.81-15.73-10.8-26.42,1.68-8.98,7.58-14.53,16.47-18.37,10.42-4.5,18.7-.46,26.61,4.22,22.22,13.15,39.21,31.64,53.38,53.24,12.04,18.36,18.7,38.36,22.53,59.62.31,1.72.43,3.5.63,5.25-.09,0-.2.02-.3.04v.02Z"/>
</svg>