<?xml version="1.0" encoding="UTF-8"?>
<svg id="_图层_1" data-name="图层 1" xmlns="http://www.w3.org/2000/svg" viewBox="0 0 1078.43 725.17">
  <defs>
    <style>
      .cls-1 {
        fill: #a92a54;
      }

      .cls-1, .cls-2, .cls-3, .cls-4, .cls-5, .cls-6, .cls-7, .cls-8, .cls-9, .cls-10, .cls-11, .cls-12, .cls-13, .cls-14, .cls-15, .cls-16, .cls-17, .cls-18, .cls-19, .cls-20, .cls-21, .cls-22, .cls-23, .cls-24, .cls-25, .cls-26, .cls-27, .cls-28, .cls-29, .cls-30, .cls-31, .cls-32, .cls-33, .cls-34, .cls-35, .cls-36, .cls-37, .cls-38, .cls-39, .cls-40, .cls-41, .cls-42, .cls-43, .cls-44, .cls-45, .cls-46, .cls-47, .cls-48, .cls-49, .cls-50, .cls-51, .cls-52, .cls-53, .cls-54, .cls-55, .cls-56, .cls-57, .cls-58, .cls-59, .cls-60, .cls-61, .cls-62, .cls-63, .cls-64, .cls-65, .cls-66, .cls-67, .cls-68, .cls-69, .cls-70, .cls-71, .cls-72, .cls-73, .cls-74, .cls-75, .cls-76, .cls-77, .cls-78, .cls-79, .cls-80, .cls-81, .cls-82, .cls-83, .cls-84, .cls-85, .cls-86, .cls-87, .cls-88, .cls-89, .cls-90, .cls-91, .cls-92, .cls-93, .cls-94, .cls-95, .cls-96, .cls-97, .cls-98, .cls-99, .cls-100, .cls-101, .cls-102, .cls-103, .cls-104, .cls-105, .cls-106, .cls-107, .cls-108, .cls-109, .cls-110, .cls-111, .cls-112, .cls-113, .cls-114, .cls-115, .cls-116, .cls-117, .cls-118, .cls-119, .cls-120, .cls-121, .cls-122, .cls-123, .cls-124, .cls-125, .cls-126, .cls-127, .cls-128, .cls-129, .cls-130, .cls-131, .cls-132, .cls-133, .cls-134, .cls-135, .cls-136, .cls-137, .cls-138, .cls-139, .cls-140, .cls-141, .cls-142, .cls-143, .cls-144, .cls-145, .cls-146, .cls-147, .cls-148, .cls-149, .cls-150, .cls-151, .cls-152, .cls-153, .cls-154, .cls-155, .cls-156, .cls-157, .cls-158, .cls-159, .cls-160, .cls-161, .cls-162, .cls-163, .cls-164 {
        stroke-width: 0px;
      }

      .cls-2 {
        fill: #3b8376;
      }

      .cls-3 {
        fill: #c02646;
      }

      .cls-4 {
        fill: #7a2d6d;
      }

      .cls-5 {
        fill: #5f2e7c;
      }

      .cls-6 {
        fill: #8f2c63;
      }

      .cls-7 {
        fill: #9e2b5a;
      }

      .cls-8 {
        fill: #42312a;
      }

      .cls-9 {
        fill: #676261;
      }

      .cls-10 {
        fill: #5b2f7d;
      }

      .cls-11 {
        fill: #3c8476;
      }

      .cls-12 {
        fill: #df212e;
      }

      .cls-13 {
        fill: #392827;
      }

      .cls-14 {
        fill: #3b353a;
      }

      .cls-15 {
        fill: #5f2e7b;
      }

      .cls-16 {
        fill: #9d2b5b;
      }

      .cls-17 {
        fill: #8b2c65;
      }

      .cls-18 {
        fill: #962b5f;
      }

      .cls-19 {
        fill: #d62334;
      }

      .cls-20 {
        fill: #662e78;
      }

      .cls-21 {
        fill: #382827;
      }

      .cls-22 {
        fill: #d12538;
      }

      .cls-23 {
        fill: #992c5d;
      }

      .cls-24 {
        fill: #403d43;
      }

      .cls-25 {
        fill: #393335;
      }

      .cls-26 {
        fill: #bd2748;
      }

      .cls-27 {
        fill: #ba2849;
      }

      .cls-28 {
        fill: #e7e5e1;
      }

      .cls-29 {
        fill: #f8f4ef;
      }

      .cls-30 {
        fill: #2e2e42;
      }

      .cls-31 {
        fill: #c72540;
      }

      .cls-32 {
        fill: #372626;
      }

      .cls-33 {
        fill: #362f34;
      }

      .cls-34 {
        fill: #b2294e;
      }

      .cls-35 {
        fill: #36333e;
      }

      .cls-36 {
        fill: #b3294e;
      }

      .cls-37 {
        fill: #bf2645;
      }

      .cls-38 {
        fill: #8e2c64;
      }

      .cls-39 {
        fill: #53413d;
      }

      .cls-40 {
        fill: #f4f4f3;
      }

      .cls-41 {
        fill: #6a2e76;
      }

      .cls-42 {
        fill: #362d36;
      }

      .cls-43 {
        fill: #c02745;
      }

      .cls-44 {
        fill: #e91e26;
      }

      .cls-45 {
        fill: #b9284a;
      }

      .cls-46 {
        fill: #dd212f;
      }

      .cls-47 {
        fill: #403b3d;
      }

      .cls-48 {
        fill: #433b40;
      }

      .cls-49 {
        fill: #932b60;
      }

      .cls-50 {
        fill: #483f42;
      }

      .cls-51 {
        fill: #722e73;
      }

      .cls-52 {
        fill: #602a23;
      }

      .cls-53 {
        fill: #453d3e;
      }

      .cls-54 {
        fill: #f4f7f8;
      }

      .cls-55 {
        fill: #b9274a;
      }

      .cls-56 {
        fill: #32292f;
      }

      .cls-57 {
        fill: #302b2f;
      }

      .cls-58 {
        fill: #2d282b;
      }

      .cls-59 {
        fill: #a52a57;
      }

      .cls-60 {
        fill: #3e3430;
      }

      .cls-61 {
        fill: #b5294c;
      }

      .cls-62 {
        fill: #3e3948;
      }

      .cls-63 {
        fill: #872c67;
      }

      .cls-64 {
        fill: #892d66;
      }

      .cls-65 {
        fill: #ae2951;
      }

      .cls-66 {
        fill: #e0212d;
      }

      .cls-67 {
        fill: #732e72;
      }

      .cls-68 {
        fill: #cbcbc9;
      }

      .cls-69 {
        fill: none;
      }

      .cls-70 {
        fill: #413432;
      }

      .cls-71 {
        fill: #433a3f;
      }

      .cls-72 {
        fill: #3f3a3e;
      }

      .cls-73 {
        fill: #31292a;
      }

      .cls-74 {
        fill: #453c42;
      }

      .cls-75 {
        fill: #332a36;
      }

      .cls-76 {
        fill: #bb2848;
      }

      .cls-77 {
        fill: #312d33;
      }

      .cls-78 {
        fill: #a52b57;
      }

      .cls-79 {
        fill: #c02645;
      }

      .cls-80 {
        fill: #9e2b5b;
      }

      .cls-81 {
        fill: #3c2e35;
      }

      .cls-82 {
        fill: #413638;
      }

      .cls-83 {
        fill: #ad2a52;
      }

      .cls-84 {
        fill: #bc2748;
      }

      .cls-85 {
        fill: #c42643;
      }

      .cls-86 {
        fill: #e4202a;
      }

      .cls-87 {
        fill: #332935;
      }

      .cls-88 {
        fill: #b5284c;
      }

      .cls-89 {
        fill: #f1f3f4;
      }

      .cls-90 {
        fill: #e6ebe8;
      }

      .cls-91 {
        fill: #632e79;
      }

      .cls-92 {
        fill: #3e2f2b;
      }

      .cls-93 {
        fill: #ad2a51;
      }

      .cls-94 {
        fill: #3c2d28;
      }

      .cls-95 {
        fill: #4d4446;
      }

      .cls-96 {
        fill: #5f585d;
      }

      .cls-97 {
        fill: #d92232;
      }

      .cls-98 {
        fill: #7f2d6a;
      }

      .cls-99 {
        fill: #ce2439;
      }

      .cls-100 {
        fill: #cb243c;
      }

      .cls-101 {
        fill: #832d69;
      }

      .cls-102 {
        fill: #bd2847;
      }

      .cls-103 {
        fill: #e8edee;
      }

      .cls-104 {
        fill: #40393a;
      }

      .cls-105 {
        fill: #3f3a42;
      }

      .cls-106 {
        fill: #2d2e38;
      }

      .cls-107 {
        fill: #d32437;
      }

      .cls-108 {
        fill: #3f3b41;
      }

      .cls-109 {
        fill: #712e73;
      }

      .cls-110 {
        fill: #3e3f48;
      }

      .cls-111 {
        fill: #7a2e6d;
      }

      .cls-112 {
        fill: #ce243a;
      }

      .cls-113 {
        fill: #b4294d;
      }

      .cls-114 {
        fill: #722e72;
      }

      .cls-115 {
        fill: #443d42;
      }

      .cls-116 {
        fill: #d12537;
      }

      .cls-117 {
        fill: #8e2c63;
      }

      .cls-118 {
        fill: #6d2e75;
      }

      .cls-119 {
        fill: #3c2e28;
      }

      .cls-120 {
        fill: #524747;
      }

      .cls-121 {
        fill: #a52a56;
      }

      .cls-122 {
        fill: #2f2930;
      }

      .cls-123 {
        fill: #cf243a;
      }

      .cls-124 {
        fill: #24202a;
      }

      .cls-125 {
        fill: #b5294d;
      }

      .cls-126 {
        fill: #2f2729;
      }

      .cls-127 {
        fill: #3f393d;
      }

      .cls-128 {
        fill: #b1294f;
      }

      .cls-129 {
        fill: #37282a;
      }

      .cls-130 {
        fill: #af2a50;
      }

      .cls-131 {
        fill: #fbfaf7;
      }

      .cls-132 {
        fill: #882c67;
      }

      .cls-133 {
        fill: #b8284a;
      }

      .cls-134 {
        fill: #575454;
      }

      .cls-135 {
        fill: #c22743;
      }

      .cls-136 {
        fill: #da2231;
      }

      .cls-137 {
        fill: #402e2b;
      }

      .cls-138 {
        fill: #932b61;
      }

      .cls-139 {
        fill: #3f3437;
      }

      .cls-140 {
        fill: #f0efe9;
      }

      .cls-141 {
        fill: #39353a;
      }

      .cls-142 {
        fill: #373339;
      }

      .cls-143 {
        fill: #a62a56;
      }

      .cls-144 {
        fill: #ca243d;
      }

      .cls-145 {
        fill: #9a2b5d;
      }

      .cls-146 {
        fill: #622e7a;
      }

      .cls-147 {
        fill: #433939;
      }

      .cls-148 {
        fill: #2f2e37;
      }

      .cls-149 {
        fill: #6f2e74;
      }

      .cls-150 {
        fill: #aa2a53;
      }

      .cls-151 {
        fill: #3f3b3e;
      }

      .cls-152 {
        fill: #c32643;
      }

      .cls-153 {
        fill: #2c2e39;
      }

      .cls-154 {
        fill: #3c2d29;
      }

      .cls-155 {
        fill: #a22b59;
      }

      .cls-156 {
        fill: #cfd0ce;
      }

      .cls-157 {
        fill: #b7294a;
      }

      .cls-158 {
        fill: #a22b58;
      }

      .cls-159 {
        fill: #e51f29;
      }

      .cls-160 {
        fill: #272022;
      }

      .cls-161 {
        fill: #3b2c30;
      }

      .cls-162 {
        fill: #f9f5f1;
      }

      .cls-163 {
        fill: #762e70;
      }

      .cls-164 {
        fill: #fefefe;
      }
    </style>
  </defs>
  <rect class="cls-69" x="492.49" width="515.9" height="575.88"/>
  <path class="cls-2" d="M510.07,345.7c50.91-24.37,101.26-22.16,151.85-.36,1.99-22.53,3.91-44.41,5.84-66.29.15-1.66.22-3.33.42-4.99,5.27-42.1,10.3-46.61,52.14-46.59,39.26.02,78.55-.7,117.79.34,50.93,1.35,86.25,47.72,75.76,97.55-6.72,31.92-26.04,55.29-50.28,75.45-17.09,14.22-36.43,24.96-55.8,35.64-7.3,4.03-14.68,7.94-21.89,12.12-34.07,19.73-38.73,28.77-32.86,67.67,2.73,18.08,6.45,36.06,10.6,53.88,2.56,11-1.77,14.78-11.92,14.73-8.35-.04-16.84.92-25.03-.22-11.79-1.64-14.6,4.02-15.92,14.22-4.42,34.25-21.77,60.51-50.73,79.43-45.92,30-142.89,29.05-183.57-21.8-26.07-32.59-28.7-81.14-4.25-112.52,3.58-4.59,7.07-9.97,13.99-8.9,7.31,1.14,8.06,7.48,9.22,13.25.74,3.67,1.51,7.33,2.29,10.99,10.85,51.24,74.16,78.57,119.51,51.6,18.75-11.16,21.59-31.3,6.74-47.45-10.02-10.89-23.43-15.56-36.84-20.29-17.29-6.09-34.69-11.9-51.77-18.52-10.91-4.23-22.3-9.44-29.61-18.23-11.18-13.43-24.69-14.47-40.11-13.69-14.58.74-29.24.44-43.85.05-13.87-.36-17.51-5.73-11.61-18.15,12.36-26.02,24.08-52.11,28.25-81.02,2.48-17.2-3.89-29.42-21.22-32.06-28.64-4.37-56.8-1.7-81.99,14.33-17.51,11.14-23.88,28.63-18.77,48.7,4.66,18.32,13.42,34.95,22.52,51.3,7.07,12.72,5.16,16.74-9.94,16.95-16.29.22-32.6.48-48.87-.12-8.09-.3-10.11,2.4-11.22,10.33-11.01,78.41-38.84,148.83-99.01,203.48-27,24.52-39.47,24.65-68.02,1.5-55.44-44.97-83.12-105.42-95.36-173.63-8.74-48.69-8.55-97.96-.27-146.86,4.06-23.95,9.87-27.89,34.32-27.89,14.62,0,29.24-.12,43.86.03,16,.16,21.69,7.58,15.48,22.39-14.63,34.87-19.39,71.24-19.67,108.69-.36,47.96,16.32,89.61,45.31,126.93,8.87,11.42,14.98,11.27,25.43.57,28.08-28.79,40.02-64.6,45.63-103.33,6.62-45.64-2.68-88.59-20.94-130.21-8.92-20.32-5.64-24.99,16.9-25.05,10.86-.03,21.79-.74,32.56.21,9.9.88,12.74-3.25,13.91-12.29,8.94-69.39,38.55-128.7,88.37-177.87,10.1-9.97,21-19.08,32.63-27.27,19.15-13.5,30.88-13.49,50,.51,31.4,22.99,53.68,53.29,70.13,88.13,15.08,31.96,23.4,65.8,27.6,100.75.54,4.51,1.46,8.98,2.28,13.87Z"/>
  <path class="cls-162" d="M786.11,678.06c-1.79.05-3.59.11-5.38.16-10.69-6.2-12.12-19.82-3.41-32.45,6.16-3.96,12.11-5.46,16.89,1.95,5.07,7.86,2.47,23.71-4.73,28.9-.93.67-2.26.91-3.37,1.44Z"/>
  <path class="cls-29" d="M760.9,678.16c-1.77,0-3.54,0-5.32,0-10.53-6.16-11.99-19.48-3.6-32.63,6.87-4.24,12.97-5.01,17.26,3.55,5.49,10.97,1.93,23.53-8.34,29.07Z"/>
  <path class="cls-154" d="M884.51,678.22h-19.13c5.39-17.86,5.08-35.43.11-53.74,8.14-4.18,12.05-2.01,11.29,9.04-.72,10.34.02,20.78-.22,31.17-.12,5.25.78,9.74,7.95,13.54Z"/>
  <path class="cls-8" d="M495.01,197.64c-3.49.69-6.97,1.38-11.13,2.2-4.37-16.99,3.56-35.5-5.01-52.21,11.48-5.26,11.28-5.25,11.91,7.85.16,3.32-3.14,8.88,4.08,9.43.74.95,1.02,2.03.92,3.22-4.31,9.26-3.25,18.56-.23,27.89-.17.54-.36,1.09-.54,1.63Z"/>
  <path class="cls-33" d="M868.45,500.37c6.77,4.84,2.26,11.8,3.16,17.72.71,4.67.14,9.53.14,14.43,6.51.62,8.19-6.82,13.69-5.9l.15.22c1.72,12.12,10.05,19.81,20.39,28.49h-22.11c.37-10.27-6.51-14.69-14.68-18.11-5.46-12.19-4.59-24.5-.74-36.86Z"/>
  <path class="cls-151" d="M753.14,645.8c-4.54,11.19-6.81,22.21,2.45,32.36-6.16,0-12.31,0-21.09,0,8.5-4.79,7.2-11.28,7.16-17.34-.03-6.36,1.68-13.29-5.79-17.89,6.39-4.02,11.87-2.54,17.3.51.63.53.84,1.06.62,1.58-.22.52-.43.78-.64.78Z"/>
  <path class="cls-72" d="M347.33,672.01c4.44,4.13,7.59-1.06,11.29-1.76,11.93-2.28,17.2,1.63,17.96,13.7.51,8.11-2.85,17.02,5.21,24.24h-19.12c8.85-8.61,7.2-19.43,4.8-28.4-3.32-12.41-11.59-3.1-17.85-1.38-2.68-1.45-4.53-3.19-2.28-6.39Z"/>
  <path class="cls-119" d="M868.45,500.37c0,8.64.26,17.29-.14,25.91-.23,5,1.23,8.76,5.13,11.71.56,6.11,3.61,11.55,4.73,17.5h-17.81c6.43-15.57,6.73-33.03,1.64-47.05-4.58-12.61,3.6-6.26,6.44-8.08Z"/>
  <path class="cls-106" d="M753.14,645.8c.05-.78.06-1.57.02-2.36,8.53-8.74,16.68-.06,25.01.54-.02.51-.05,1.02-.07,1.53-4.41,11.32-6.63,22.47,2.63,32.7-6.6-.02-13.21-.04-19.82-.06,5.75-5.78,8.8-23.98,5.21-30.47-3.55-6.42-8.45-2.7-12.98-1.89Z"/>
  <path class="cls-104" d="M602.68,167.21c-8.48,8.3-8.96,22.19-.91,32.9h-19.76c7.61-5.07,6.17-11.53,6.21-17.58.04-6.4,1.52-13.27-5.18-17.75,6.71-6.28,13.05,1.49,19.45-.09.76.51,1.03,1.05.84,1.63-.2.59-.42.89-.66.89Z"/>
  <path class="cls-127" d="M602.68,167.21c-.06-.84-.12-1.68-.18-2.52,15.73-6.44,21.72-2.74,22.27,13.24.26,7.41-2.85,15.77,6,22.02h-19.89c8.94-8.63,6.13-19.27,4.77-28.99-1.11-7.94-7.85-5.02-12.98-3.76Z"/>
  <path class="cls-137" d="M677.42,199.86c-6.23,1.86-13.62.15-13.11-5.27,1.31-13.8-10.76-29.62,6.23-42.89-.85,8.01,1.7,12.25,10.08,11.02-3.47,3.9-10.55.3-9.56,7.14,1.46,10.03-4.81,21.66,6.36,30Z"/>
  <path class="cls-73" d="M1049.55,678.08h-19.08c7.62-9.61,7.55-26.54-.03-35.42,14.27-3.66,14.19-3.15,13.44,10.89-.43,8.04-3.94,17.31,5.68,24.53Z"/>
  <path class="cls-153" d="M778.1,645.52c.04-.51.07-1.02.07-1.53,15.13-8.33,21.64-4.65,22.11,12.15.21,7.39-2.42,15.52,5.2,21.93-6.96,0-13.17,0-19.38,0,5.77-5.81,8.65-24.09,5.07-30.5-3.61-6.46-8.65-1.92-13.08-2.04Z"/>
  <path class="cls-126" d="M301.46,708.1h-18.01c7.61-9.56,7.54-26.52-.03-35.39,14.23-3.64,14.23-3.15,13.35,10.92-.51,8.08-3.06,17.12,4.69,24.47Z"/>
  <path class="cls-104" d="M347.33,672.01c.76,2.13,1.52,4.26,2.28,6.39-1.57,9.96-4.64,20.11,4.37,29.45h-18.09c6.32-9.48,5.93-26.66-1.23-35.61,4.38-1.35,8.39-3.23,12.67-.23Z"/>
  <path class="cls-92" d="M835.78,674.16c9.9-7.22,11.38-20.35,3.59-31.84,11.39-5.22,12.8.57,12.71,10.37-.08,8.49-3.7,18.2,5.25,24.81-7.52,4.72-13.93-4.82-21.28-1.3-.74-.37-1.02-.79-.86-1.28.18-.51.37-.77.59-.77Z"/>
  <path class="cls-40" d="M961.24,570.74c-5.01-.21-7.77-2.55-7.42-7.83,7.94-8.75,20.57-10.95,29.56-4.87,3.93,2.66,7.2,5.91,1.5,10.21-2.69,1.66-5.38,3.33-8.06,4.99-5.27-.35-10.81.94-15.58-2.5Z"/>
  <path class="cls-75" d="M1049.21,641.99c17.61-4.61,22.1-1.31,22.34,15.95.09,6.95-2.49,14.73,6.88,20.15h-20.61c11.91-13.55,7.42-31.52-8.6-36.1Z"/>
  <path class="cls-142" d="M984.89,568.26c-1.12-9.23-16.74-13.92-27.1-8.09-1.4.78-2.65,1.83-3.97,2.76,5.87-5.24-4.77-12.43,2.08-17.55,2.17-.8,3.36.32,4.18,2.15,7.56,4.92,16.75,2.78,24.79,5.71,4.32,1.57,7.13,4.22,6.63,8.97-.39,3.64-.28,8.58-6.62,6.06Z"/>
  <path class="cls-13" d="M579.12,200.07h-19.14c6.9-9.06,6.95-26.69.29-35.13,12.29-4.04,11.73-3.99,12.62,7.77.67,8.92-4.42,19.23,6.24,27.37Z"/>
  <path class="cls-21" d="M330.93,708.09h-20.31c10.18-8.53,5.93-19.43,5.31-29.13-.48-7.47-8.46-4.06-13.39-5.57,13.89-6.92,21.38-2.45,21.97,12.14.31,7.64-3.3,16.37,6.43,22.56Z"/>
  <path class="cls-32" d="M654.02,199.95h-19.57c7.66-8.76,8.05-25.73.9-35.75,9.4-4.03,13.01-1.87,12.84,8.95-.13,8.88-4.2,19.13,5.82,26.8Z"/>
  <path class="cls-58" d="M688.48,164.03c11.31-4.5,13.19.44,12.99,10.09-.18,8.53-3.62,18.28,5.75,25.68h-18.74c6.86-9.35,6.98-26.17,0-35.77Z"/>
  <path class="cls-32" d="M962.83,677.81c7.71-8.85,7.95-26.09,1.06-34.8,12.26-3.96,11.72-3.91,12.58,7.8.66,8.91-4.34,19.16,5.68,27h-19.32Z"/>
  <path class="cls-94" d="M713.73,641.97c9.66-3.46,13.12-1,12.9,9.2-.2,8.89-4.23,19.22,6.09,26.87h-18.23c5.7-11.93,6.77-23.79-.76-36.06Z"/>
  <path class="cls-32" d="M218.39,708.09c7.59-8.79,7.96-25.74.84-35.75,9.43-4.04,13-1.82,12.84,8.97-.13,8.86-4.22,19.13,5.86,26.77h-19.55Z"/>
  <path class="cls-56" d="M1004.11,553.21c-11.28-10.06-12.2-18.51-3.3-30.45,1.88-1,3.24.01,4.59,1.13,4.91,4.69,9.51,4.94,13.69-.95,1.02-1.37,2.11-2.64,4.1-2.12,2.35,3.19,6.77,6.46,5.24,10.23-1.87,4.61-7.33,1.4-11.14,2.1-4.33.79-10.61-2.26-12.74,1.67-2.93,5.4.71,11.11,4.47,15.79.2,4.31-1.95,4.21-4.9,2.6Z"/>
  <path class="cls-81" d="M835.78,674.16c.09.68.18,1.37.27,2.05-14.61,5.44-19.96,1.91-20.33-13.19-.18-7.12,2.17-14.84-5.23-20.5,10.24-4.18,14.59-1.75,13.22,8.98-.52,4.1.06,8.33-.11,12.48-.35,8.75,3.31,12.53,12.19,10.18Z"/>
  <path class="cls-122" d="M254.24,708.05c-5.57-2.23-9.79-5.61-10.37-12.11-1.39-4.52-1.24-9.04,0-13.55.47-6.56,4.12-10.19,10.48-11.31.74.89,1.15,1.9,1.27,3.03.03,2.38-.68,5.24,2.79,5.87,4.31.78,7.07-1.37,8.76-5.19.59-.98,1.39-1.74,2.38-2.29,5.08,2.16,9.06,6.13,7.02,11.37-1.71,4.39-7.43,1.08-11.22,2.04-5.24,1.33-12.69-3.66-15.56,2.74-3.09,6.88,4.75,11.34,7.36,17.07-.42,1.47-1.9,1.62-2.92,2.34Z"/>
  <path class="cls-30" d="M937.75,643.38c-1.66-.1-3.88.43-4.86-.44-2.23-1.98.24-2.13,1.56-2.62,6.03-2.23,7.33-8.11,9.62-13.76,7.83,16.56-6.48,37.02,9.63,51.62-3.26,1.01-8.05,2-12.59-1.81-2.53-7.55-.42-15.35-1.26-22.98-.37-3.37,1.84-7.37-2.09-10.01Z"/>
  <path class="cls-77" d="M399.68,688.64c5.68-2.62,16.21-.49,12.29-12.52-.36-2.69.3-4.31,3.47-3.3,8.42,4.47,3.9,12.39,4.88,18.78.89,5.77-2.3,13.02,9.85,15.05-7.99,2.53-12.4,3.69-15.77-1.56-2.48-.69-3.86-2.41-4.5-4.82.27-7.08-5.75-6.88-10.07-8.64-.6-.63-.81-1.29-.66-1.97.15-.69.32-1.03.51-1.03Z"/>
  <path class="cls-25" d="M494.81,167.19c0-.76.02-1.52.04-2.29,13.01-6.01,16.88-4.7,25.01,8.43,2.28,4.91,1.57,9.92.5,14.95-11.2,13.83-14.61,15.09-25.35,9.36,0,0-.19.22-.19.22.53-.66,1.07-1.38,1.83-1.67,7.62-2.93,14.74-5.99,13.98-16.36-.76-10.22-9.1-10.25-15.81-12.63Z"/>
  <path class="cls-87" d="M911.24,656.14c3.87-2.54,1.32-6.32,1.84-9.51-.67-2.8.27-4.13,3.28-3.58,8.11,4.71,3.83,12.57,4.68,19.05.74,5.71-1.62,12.39,6.73,15-7.19,4.3-11.57-.39-16.39-3.23-.35-.38-.71-.75-1.07-1.13-.67-3.58.74-7.1.22-10.68-.14-2.02-.69-4.1.72-5.93Z"/>
  <path class="cls-87" d="M795.93,533.48c3.87-2.54,1.32-6.32,1.84-9.51-.67-2.8.27-4.13,3.28-3.58,8.11,4.71,3.83,12.57,4.68,19.05.74,5.71-1.62,12.39,6.73,15-7.19,4.3-11.57-.39-16.39-3.23-.35-.38-.71-.75-1.07-1.13-.67-3.58.74-7.1.22-10.68-.14-2.02-.69-4.1.72-5.93Z"/>
  <path class="cls-87" d="M931.3,533.48c3.87-2.54,1.32-6.32,1.84-9.51-.67-2.8.27-4.13,3.28-3.58,8.11,4.71,3.83,12.57,4.68,19.05.74,5.71-1.62,12.39,6.73,15-7.19,4.3-11.57-.39-16.39-3.23-.35-.38-.71-.75-1.07-1.13-.67-3.58.74-7.1.22-10.68-.14-2.02-.69-4.1.72-5.93Z"/>
  <path class="cls-161" d="M827.63,553.62c-10.73-5.11-11.31-14.44-8.64-23.87,2.58-9.11,8.89-14.42,19.34-11.79.8.5,1.07,1.01.81,1.53-.26.51-.53.77-.8.77-13.51,4.26-16.09,14.84-7.38,30.32.31,2.57-.23,4.22-3.34,3.04Z"/>
  <path class="cls-115" d="M738.07,163.03c11.58,6.67,15.58,18.04,9.97,28.3-1.65,3.02-3.45,5.66-7.54,3.74-.45-.48-.91-.95-1.37-1.42-3.11-8.14-1.24-16.9-3.18-25.19.02-2.08.7-3.89,2.12-5.43Z"/>
  <path class="cls-42" d="M1013.96,642.95c13.98,6.41,15.07,21.91,2.3,32.65-2.04-.43-3.35-1.66-3.97-3.64.71-8.64.38-17.27-.37-25.9.32-1.27,1.01-2.3,2.04-3.1Z"/>
  <path class="cls-129" d="M720.72,197.68c-12.11-9.86-12.26-21.93-.41-32.7,2.54-.82,3.48.76,4.17,2.74-.45,8.94-.83,17.89.1,26.84-.54,1.96-1.25,3.72-3.86,3.13Z"/>
  <path class="cls-103" d="M878.18,555.49c-6.12-4.61-9.13-10.06-4.73-17.5,8.65-4.77,8.4,4.53,11.91,7.69,4.02,3.61,1.93,6.87-1.48,9.66-1.9.05-3.8.11-5.7.16Z"/>
  <path class="cls-62" d="M998.87,677.78c-5.34-1.73-9.78-4.33-10.28-10.69-1.56-5-1.58-10,0-15,.26-6.58,3.94-10.05,10.19-11.2,1.36,1.32,1.73,2.94,1.51,4.76-5.81,10-1.55,19.33,1.94,28.72-.07,2.16-1.65,2.85-3.35,3.41Z"/>
  <path class="cls-71" d="M960.09,547.52c-1.4-.72-2.79-1.43-4.18-2.15,4.41-3.28.71-6.13-.19-9.41-1.98-7.2-2.58-14.23,7.9-15.21.42.37.83.73,1.26,1.09,2.5,6.26,1.04,14.47,8.93,18.08.7,1.04.63,2.06-.07,3.06-4.12,2.81-11-2.71-13.65,4.53Z"/>
  <path class="cls-82" d="M412.02,700.77c.8,1.45,1.6,2.9,2.39,4.34-3.14-.44-5.47,1.69-8.19,2.49-7.53,2.23-16.25,3.5-19.01-5.82-2.66-9,4.83-11.98,12.47-13.14.04.91.07,1.81.11,2.72-2.72,11.94,6.1,8.94,12.23,9.41Z"/>
  <path class="cls-35" d="M973.73,542.99c.04-.62.05-1.24.04-1.85,3.36-10.2.39-17.28-10.2-20.6,0,0,.04.21.04.21,3.87-6.07,9.68-2.31,14.64-2.9,1.35-1.03,2.51-.85,3.48.54,8.94,15.25,6.72,22.08-8,24.59Z"/>
  <path class="cls-70" d="M931.42,551.21c-2.8,4.28-7.22,4.97-11.77,5.04-5.18.08-9.96-1.16-11.95-6.63-2.09-5.75.92-9.26,5.96-11.54,2.47-1.78,4.34-1.09,5.76,1.41-1.43,8.97,5.01,9.63,11.19,10.57.37.31.64.69.81,1.15Z"/>
  <path class="cls-70" d="M796.05,551.21c-2.8,4.28-7.22,4.97-11.77,5.04-5.18.08-9.96-1.16-11.95-6.63-2.09-5.75.93-9.26,5.96-11.54,2.47-1.78,4.34-1.09,5.76,1.41-1.43,8.97,5.01,9.63,11.19,10.57.37.31.64.69.81,1.15Z"/>
  <path class="cls-70" d="M911.37,673.86c-2.8,4.28-7.22,4.97-11.77,5.04-5.18.08-9.96-1.16-11.95-6.63-2.09-5.75.93-9.26,5.96-11.54,2.47-1.78,4.34-1.09,5.76,1.41-1.43,8.97,5.01,9.63,11.19,10.57.37.31.64.69.81,1.15Z"/>
  <path class="cls-57" d="M550.84,179.04c-6.43,5-13.38,3.31-22.77,2.23,8.65-5.84,15.86-2.94,22.77-2.23Z"/>
  <path class="cls-108" d="M885.59,526.84s-.15-.23-.15-.23c-2.54-10.62-2.37-10.7,17.21-7.54-6.38,2.9-11.72,5.34-17.06,7.77Z"/>
  <path class="cls-39" d="M397.42,674.33c-1.33,3.2-.31,8.08-5.5,8.51-1.12.09-3.44-1.83-3.43-2.8.05-5.52,4.02-7.62,8.74-8.78,1.23.95,1.3,1.97.2,3.07Z"/>
  <path class="cls-95" d="M1004.11,553.21c1.93-.31,3.91-.54,4.9-2.6,5.7,2.82,11.34,1.86,17.03-.39-6.49,7.7-13.86,8.06-21.93,2.99Z"/>
  <path class="cls-52" d="M937.75,643.38c7.09,10.39,1.71,22.04,3.35,32.99-6.21-10.48-1.05-22.11-3.35-32.99Z"/>
  <path class="cls-9" d="M783.17,540.42c-.95-2.19-3.07-1.94-4.88-2.34,5.27-3.87,11.39-4.5,17.64-4.61.72,1.52,1.43,3.05,2.15,4.57-4.51,3.69-9.41,4.87-14.91,2.37Z"/>
  <path class="cls-9" d="M918.54,540.42c-.95-2.19-3.07-1.94-4.88-2.34,5.27-3.87,11.39-4.5,17.64-4.61.72,1.52,1.43,3.05,2.15,4.57-4.51,3.69-9.41,4.87-14.91,2.37Z"/>
  <path class="cls-9" d="M898.48,663.08c-.95-2.19-3.07-1.94-4.88-2.34,5.27-3.87,11.39-4.5,17.64-4.61.72,1.52,1.43,3.05,2.15,4.57-4.51,3.69-9.41,4.87-14.91,2.37Z"/>
  <path class="cls-48" d="M723.29,167.73c-.99-.92-1.99-1.84-2.98-2.76,5.45-4.89,11.53-4.05,17.75-1.95-.06,1.65-.12,3.3-.19,4.95-4.88,1.03-9.75,1.1-14.59-.24Z"/>
  <path class="cls-120" d="M702.42,153.4c-.2,2.81-1.66,4.52-4.5,4.75-2.87.23-4.72-1.23-5.01-4.05-.3-2.94,1.57-4.52,4.3-4.73,2.77-.21,4.59,1.23,5.2,4.02Z"/>
  <path class="cls-53" d="M720.72,197.68c.88-.89,1.76-1.78,2.65-2.67,5.79-.66,11.61-2.96,17.33.33,0,0-.21-.26-.21-.26-5.4,9.9-12.56,6.42-19.77,2.61Z"/>
  <path class="cls-96" d="M981.73,518.4c-1.16-.18-2.32-.36-3.48-.54.42-.71.72-1.52,1.27-2.1,2.91-3.08,5.97-6.08,10.6-3.24.81.49,1.64,2.28,1.34,3.01-1.97,4.85-6.65,1.26-9.74,2.88Z"/>
  <path class="cls-120" d="M722.47,627.41c2.77.13,4.87,1.47,4.95,4.27.07,2.7-1.74,4.43-4.59,4.59-2.92.16-4.68-1.46-4.86-4.22-.2-2.9,1.71-4.31,4.51-4.64Z"/>
  <path class="cls-148" d="M838.35,520.26c0-.77-.01-1.53-.02-2.3,3.45-.69,6.78-.33,9.21,2.35,2.2,2.42,4.49,5.12,3.32,8.79-.27.86-1.72,2.02-2.51,1.95-4.17-.41-2.43-4.67-4.09-6.63-1.51-1.78-3.91-2.8-5.92-4.15Z"/>
  <path class="cls-134" d="M961.24,570.74c5.19.84,10.98-1.98,15.58,2.5-5.72,2.43-11.31,4.04-15.58-2.5Z"/>
  <path class="cls-74" d="M232.37,662.15c-.21,3.09-2.08,4.36-4.93,4.12-2.27-.19-3.73-1.52-3.86-3.97-.16-3.05,1.6-4.81,4.33-4.85,2.71-.04,4.6,1.58,4.46,4.69Z"/>
  <path class="cls-74" d="M644.11,149.19c2.96.55,4.62,2.04,4.4,5.07-.18,2.44-1.69,3.75-3.96,3.88-2.83.16-4.7-1.14-4.81-4.23-.11-3.12,1.9-4.22,4.37-4.72Z"/>
  <path class="cls-74" d="M976.89,631.36c.26,3.05-1.3,4.75-4.18,4.92-2.17.13-4.09-.9-4.5-3.29-.48-2.77.54-4.97,3.52-5.46,2.83-.46,4.72.84,5.17,3.83Z"/>
  <path class="cls-74" d="M573.29,153.26c.26,3.05-1.3,4.75-4.18,4.92-2.17.13-4.09-.9-4.5-3.29-.48-2.77.54-4.97,3.52-5.46,2.83-.46,4.72.84,5.17,3.83Z"/>
  <path class="cls-160" d="M892.98,643.4c2.79-.05,3.49,1.42,3.41,3.85-.1,2.85-2.27,4.03-4.04,5.57-1.27-1.47-3.37-2.81-3.63-4.44-.42-2.71,2.11-3.99,4.26-4.98Z"/>
  <path class="cls-141" d="M998.87,677.78c1.06-.79,2.13-1.58,3.19-2.37,3.42-2.77,7.24-3.63,11.5-2.43.9.87,1.8,1.74,2.7,2.61-5.27,4.89-11.32,3.65-17.39,2.19Z"/>
  <path class="cls-160" d="M916.33,525.65c-.24,1.91-1.95,4.02-4.22,4.08-1.6.05-3.75-1.97-3.43-4.32.36-2.59,2.2-4.39,4.82-4.6,2.84-.23,3.03,1.95,2.82,4.83Z"/>
  <path class="cls-110" d="M998.81,645.34c-.01-1.48-.02-2.97-.03-4.45,5.34-1.39,10.75-3.26,15.19,2.06-.18,1.09-.36,2.17-.54,3.26-4.93.64-9.86,1.5-14.61-.86Z"/>
  <path class="cls-160" d="M778.45,520.74c2.93.4,2.85,2.58,2.48,4.53-.45,2.36-1.87,4.71-4.44,4.33-1.73-.26-3.79-2.14-3.14-4.52.66-2.4,2.36-4.14,5.11-4.34Z"/>
  <path class="cls-47" d="M827.63,553.62c1.11-1.02,2.23-2.03,3.34-3.05,4.44,2.96,9.74,2.08,14.7,3.06-6.13,3.29-12.11,3.96-18.04-.02Z"/>
  <path class="cls-14" d="M801.04,520.39c-1.09,1.19-2.18,2.39-3.28,3.58-3.85-3.23-8.47-3.98-13.42-4.33,5.79-3.25,11.31-3.32,16.7.75Z"/>
  <path class="cls-147" d="M397.42,674.33c-.07-1.02-.13-2.05-.2-3.07,6.27-1.7,12.49-2.85,18.23,1.57-1.16,1.1-2.31,2.2-3.47,3.3-4.51-3.35-9.44-3.35-14.56-1.79Z"/>
  <path class="cls-14" d="M936.41,520.39c-1.09,1.19-2.18,2.39-3.28,3.58-3.85-3.23-8.47-3.98-13.42-4.33,5.79-3.25,11.31-3.32,16.7.75Z"/>
  <path class="cls-124" d="M1004.03,525.13c-1.07-.79-2.15-1.58-3.22-2.37,1.53-6.23,6.34-4.34,10.44-4.22.55.58.82,1.22.79,1.91-.03.71-.12,1.07-.25,1.07-2.06,2.33-3.56,5.87-7.76,3.6Z"/>
  <path class="cls-14" d="M916.35,643.04c-1.09,1.19-2.18,2.39-3.28,3.58-3.85-3.23-8.47-3.98-13.42-4.33,5.79-3.25,11.31-3.32,16.7.75Z"/>
  <path class="cls-60" d="M254.75,673.83c-.13-.92-.27-1.84-.4-2.75l-.26-.67c4.24-1.18,8.48-1.19,12.72,0,.92.7,1.83,1.4,2.75,2.1-.3,1.37-.59,2.74-.88,4.11-4.97.69-9.72.33-13.92-2.79Z"/>
  <path class="cls-105" d="M520.37,188.28c-.17-4.98-.33-9.97-.5-14.95,4.17,4.85,3.32,9.87.5,14.95Z"/>
  <path class="cls-24" d="M1011.21,520.08c0-.51,0-1.02.04-1.53,4.09.17,8.82-2.98,11.94,2.28-.75.76-1.5,1.52-2.25,2.28-3.99,1.37-7.34.7-9.73-3.03Z"/>
  <path class="cls-50" d="M988.59,652.09c0,5,0,10,0,15-3.43-5-3.34-10,0-15Z"/>
  <path class="cls-156" d="M266.81,670.4c-4.24,0-8.48,0-12.72,0,4.24-3.34,8.48-3.57,12.72,0Z"/>
  <path class="cls-139" d="M243.87,682.39c0,4.52,0,9.04,0,13.56-2.95-4.52-3.08-9.04,0-13.56Z"/>
  <path class="cls-139" d="M254.24,708.05c.97-.78,1.95-1.56,2.92-2.34,3.02-.05,6.24-1.64,9.62,1.57-4.38,2.72-8.48,1.54-12.54.77Z"/>
  <path class="cls-164" d="M660.57,494.87c-29-19.31-63.65-26.35-95.63-40.01-2.29-.98-4.46-2.25-6.61-3.51-11.22-6.59-21.77-14.87-19.62-29.09,2.29-15.12,14.22-22.99,28.41-26.55,25.36-6.36,45.94,2.98,62.87,21.21,7.13,7.68,14.25,14.13,25.29,13.53,5.04-.28,5.3,2.48,5.3,6.09-.02,19.04-.01,38.07-.01,58.33Z"/>
  <path class="cls-149" d="M163.42,698.2c-2.22,3.7-5.93,5.58-9.46,7.68-7.62.91-11.11-4.98-14.99-9.59-52.93-62.95-84.57-135.35-95.55-216.71-4.36-32.32-4.39-64.77-.46-97.19.58-4.77,2.02-8.89,5.72-12.06,5.03,0,10.05,0,15.08,0,2.61,10.31,1.35,20.78.16,31-3.53,30.24.11,60.18,2.54,88.71,2.86-6.88-7.2-17.48,4.49-24.32-.45,33.15-1.22,66.37,12.54,97.68,5.8,13.21,12.02,26.24,18.05,39.36,13.28,29.27,32.3,54.79,52.16,79.77,3.86,4.85,8.29,9.34,9.74,15.68Z"/>
  <path class="cls-20" d="M146.55,710.92c-9.27,8.49-17.4,4.67-25.24-2.32-51.5-62.49-84.44-133.53-96.97-213.53-1.86-11.9-4.46-23.98-2.69-36.86,1.45-10.56-6.36-21.8-3.68-33,4.31-18.07-1.19-37.52,8.16-54.75,3.34-.04,6.68-.09,10.02-.13,5.37,7.09,3.58,15.24,2.88,22.96-7.86,86.15,10.67,166.48,52.55,241.88,15.28,27.51,34.19,52.27,54.97,75.74Z"/>
  <path class="cls-145" d="M683.14,573.13c-7.19-7.84-6.4-17.82-7.39-27.33,4.95-.26,7.06-3.68,8.84-7.67,35.71-79.87,33.58-158.31-8.87-235.24-1.16-7.71,1.12-15.07,2.36-22.53,6.73-2.88,8.98,2.74,11.34,6.62,23.98,39.55,37.73,82.26,39.6,128.66,2.12,52.41-8.93,101.66-34.73,147.48-2.03,3.61-3.57,7.57-7.27,9.98-1.29.86-2.59.87-3.89.03Z"/>
  <path class="cls-41" d="M146.55,710.92c-13.42-3.63-18.88-16.23-25.96-25.63-43.65-57.94-71.41-122.67-82.39-194.83-6.11-40.17-3.88-80.05-2.05-120.13,4.18,0,8.36,0,12.54,0-4.63,30-6.35,59.91-3.38,90.39,2.34,24.05,5.74,47.8,11.83,70.99,14.95,56.93,40.48,108.73,78.12,154.35,5.81,7.05,10.7,14.87,18.71,19.82-2.47,1.68-4.95,3.36-7.42,5.04Z"/>
  <path class="cls-49" d="M605.17,686c-15.88,3.7-31.75,3.59-47.62-.07-.98-6.79,4.71-8.3,8.89-10.18,45.68-20.56,81.36-53.08,111.42-92.37,4.51.66,9.11,2.23,13.51,1.79,11.62-1.16,12.78,4.07,9.07,13.07-26.23,35.23-56.44,66.15-95.27,87.75Z"/>
  <path class="cls-80" d="M675.73,302.89c4.48.11,6.35,3.22,8.05,6.74,13.96,28.85,23.31,58.76,27.12,90.94,5.73,48.37-3.12,93.65-22.51,137.61-2.21,5.01-5,9.33-8.48,13.8-1.54-2.29-2.85-4.23-4.16-6.17-.2-10.89-3.96-21.5-2.49-32.52,3.44-.39,3.67,2.68,5.53,5.33,7.21-16.68,10.74-33.85,14.04-51.08,7.93-41.48,2.42-81.74-11.29-121.2-1.29-3.72-1.59-9.43-8.29-6.04-1.36-12.61,1.12-24.97,2.47-37.4Z"/>
  <path class="cls-65" d="M327.29,477.64c2.16,2.06,5.32,5.16-.57,5.27-19.6.36-39.23.49-58.81-.33-8.93-.37-13.58-7.47-15.83-15.62-2.1-7.63-3.83-15.36-3.05-23.39-4.27-60.41,14.81-112.59,55.77-156.93,3.73-4.04,7.55-9.45,14.71-6.76,2.73,9.15-.73,17.39-3.8,25.69-41.12,46.07-54.86,99.69-44.06,160,1.06,5.93,2.97,11.58,10.74,11.53,4.02-.06,8.03-.02,12.05.03,4.11-.13,8.22-.13,12.32-.01,6.84.14,13.71-.66,20.53.52Z"/>
  <path class="cls-145" d="M677.87,583.38c-.97,11.39-10.13,17.61-16.74,25.08-26.68,30.16-57.9,54.45-95.06,70.68-3.37,1.47-7.04,2.82-8.51,6.79-10.69.07-20.78-2.43-30.39-7-.25-7.59,6.33-7.79,10.93-9.39,30.2-10.54,57.05-26.9,82.15-46.4.98-.76,1.66-1.85,2.33-2.91,6.39-5.21,13.06-10.14,17.54-17.29,8.6-5.3,13.49-14.12,20.22-21.2,2.92-3.07,4.69-8.17,10.58-6.3,2.32,2.64,4.64,5.29,6.96,7.93Z"/>
  <path class="cls-138" d="M750.58,462.6c-12.17,13.17-10.46,29.38-9.92,45.32,2.07,3.14,1.07,6.36.05,9.46-5.26,16-11.42,31.67-18.86,46.78-2.15,4.36-4.81,8.72-10.14,10.18-5.5-.19-11.04.83-16.48-.69-3.15-5.22-.21-9.67,2.12-13.94,22.77-41.67,33.19-86.24,32.31-133.65-.15-8.01-2.26-16.8,4.77-23.53,6.69-2.89,11.02,1.44,15.6,5.06,4.44,5.11,4.46,11.43,4.06,17.51-.82,12.52,1.94,25.4-3.51,37.49Z"/>
  <path class="cls-18" d="M735.88,402.3c-3.55,5.67-3.06,12.02-2.79,18.22,1.97,45.25-7.57,88.17-26.03,129.3-3.55,7.91-10.27,14.25-11.62,23.26-3.35,1.99-6.7,2.05-10.03-.05,15.93-29.19,29.57-59.18,35.58-92.26,9.78-53.92,5.28-106.28-16.32-156.84-4.54-10.62-10.07-20.85-15.57-31.04-2.65-4.91-4.43-10.93-11-12.55.09-1.73.18-3.46.28-5.18,1.39-5.65,4.06-8.31,9.34-3.62,3.43,3.04,6.04,6.82,8.37,10.75,11.26,18.93,20.64,38.71,27.12,59.81,2.55,8.31,5.36,16.54,9.48,24.26.22,12.05,5.43,23.66,3.2,35.93Z"/>
  <path class="cls-7" d="M204.1,370.26c5.02,0,10.03,0,15.05,0,3.99,5.01,1.67,10.4.71,15.56-10.16,54.75-1.64,106.6,24.24,155.72,1.97,3.73,2.9,7.76,4.65,11.51-1.68,5.87-3.35,11.74-5.03,17.61-3.22,2.44-5.74.49-7.34-1.87-12.56-18.55-23.25-38.04-28.4-60.09-.45-1.95-.24-4.13.99-5.97,1.37-32.22-3.94-63.56-12.49-94.48-.62-13.3.74-26.2,7.62-38Z"/>
  <path class="cls-55" d="M306.89,480.59c-4.18,0-8.35,0-12.53,0-10.38-16.27-11.21-34.76-10.77-52.98,1.04-43.21,15.93-81.34,44.85-113.79,6.21-3.73,12.71-5.26,19.77-2.64,6.44,6.55.26,10.81-3.49,14.31-17.82,16.66-27.02,38.28-35.85,60.18-.29.72.04,1.56.49,2.31-1.69,5.86-3.38,11.71-5.07,17.57-5.58,19.49,1.19,38.23,3.48,57.25.72,5.99,3.74,12.08-.88,17.8Z"/>
  <path class="cls-158" d="M248.75,553.05c-18.6-22.9-25.95-50.35-32.13-78.36-7.73-35.05-4.9-69.78,2.52-104.43,17.4-.56,17.63-.56,17.26,16.46-.16,7.22,2,14.76-2.06,21.64-5.23-5.69-3.31-12.42-3-17.66-8.35,48.03.08,102.54,22.45,142.44-1.68,6.64-3.36,13.27-5.05,19.91Z"/>
  <path class="cls-80" d="M276.39,257.7c5.59-13.67,12.93-26.3,22.41-37.65,35.16-26.39,74.51-42.66,118.06-48.86,3.8-.54,7.41-.66,10.83,1.33,3.77,2.79,7.47,5.64,8.99,10.37-2.48,6.73-8.52,7.15-14.29,7.94-46.95,6.46-88.25,25.14-124.42,55.83-5.92,5.03-10.72,14.69-21.58,11.04Z"/>
  <path class="cls-150" d="M319.52,280.36c-13.41,4.77-20.36,16.6-27.97,27.06-24.93,34.29-39.39,72.42-39.92,115.32-.09,6.95-1.69,13.89-2.59,20.84-3.26-11.96-5.27-24.25-3.71-36.48,1.84-14.47.37-28.92,1.49-43.34.35-4.53.01-9.14,2.35-13.3,14.8-35.71,35.34-67.3,66.1-91.52,4.45-3.5,8.67-8.54,15.11-3.33-.5,9.61-1.27,19.11-10.85,24.76Z"/>
  <path class="cls-91" d="M26.13,370.46c-2.44,17.72-1.57,35.69-4.7,53.43-1.61,9.17-1.72,19.14,3.77,27.91.81,1.29.98,3.26.81,4.84-3.54,32.04,4.86,62.53,13.66,92.57,12.17,41.56,30.1,80.73,54.18,117,9.31,14.02,21.59,26.15,27.46,42.39-8.92-4.04-16.83-9.37-22.58-17.5-9.6-17.01-20.83-33.03-30.13-50.25-26.93-49.86-45.36-102.41-50.96-159.03-2.19-22.12-6.38-44.15-4.14-66.55-.65-11.75.76-23.19,4.53-34.39,1.53-4.54,3.44-8.46,8.1-10.42Z"/>
  <path class="cls-155" d="M673.26,340.29c2.98-1.78,1.27-5.49,3.14-7.75,29.25,28.69,30.01,152.58.67,194.32-3.51-4.16.38-10.25-3.81-13.57-.03-3.42-.07-6.84-.11-10.26,14.61-49.19,16.06-98.38-.12-147.54.08-5.06.15-10.13.23-15.19Z"/>
  <path class="cls-85" d="M492.09,300.3c1.15,4.13,3.18,8.09,2.41,12.59-4.3,4.01-9.26,2.3-14.19,1.81-28.4-2.81-56.36-2.91-82.46,11.5-11.11,6.13-19.29,15.53-26.81,22.1,1.07-.71,3.87-.45,6.4,2.27-10.94,2.66-21.87,5.31-32.81,7.97-4.23-8.46,2.85-12.99,6.98-17.88,12.56-14.85,28.19-26.27,44.08-37.33,13.44-2.04,27.28-2.49,39.36-9.96,16.13-3.14,32.11-.93,48.1,1.28,3.86.53,7.24,1.74,8.94,5.64Z"/>
  <path class="cls-121" d="M253.79,533.14c-4.49-.17-6.48-3.26-7.94-6.89-15.49-38.43-26.07-77.55-19.63-119.7,1.48-9.68,1.89-19.47,5.68-32,4.04,13.13,1.34,23.63,2.44,33.79,1.67,15.64,2.94,31.34,5.14,46.91,1.75,12.4,4.8,24.63,15.68,32.77,3.85,2.88,4.45,6.43,4.33,10.86-.33,11.7-3.14,22.95-5.69,34.25Z"/>
  <path class="cls-145" d="M427.7,172.51c-42.72,5.98-82.79,19.09-118.55,43.87-3.03,2.1-6.34,4.03-10.35,3.67,8.91-15.01,19.66-28.51,32.96-39.91,21.24-9.11,42.51-18.12,65.44-22.25,4.78-.86,9.57-2.78,14.4-.14,6.05,4.18,12.03,8.43,16.1,14.77Z"/>
  <path class="cls-78" d="M673.03,355.48c4.68,1.8,4.95,6.37,6.13,10.18,12.81,41.36,11.61,82.87.92,124.4-1.22,4.75-3.25,9.37-6.93,12.96-2.82-49.18-4.75-98.36-.12-147.54Z"/>
  <path class="cls-143" d="M329.88,255.41c-15.62,4.09-24.91,16.34-35.45,27.13-19.37,19.84-29.52,45.71-45.27,67.91.54-17.3,4.76-33.84,10.41-50.09,19.86-27.32,42.73-51.54,71.9-69.18,4.75-2.88,9.19-7.78,15.7-3.87-3,11.06-5.79,22.25-17.29,28.1Z"/>
  <path class="cls-117" d="M605.17,686c6.41-9.79,17.75-13.17,26.3-20.17,20.54-16.82,39.39-35.3,56.26-55.82,3.63-4.41,8.44-7.86,12.7-11.75-2.72,37.87-34.77,73.92-75.67,84.73-6.37,1.68-12.78,3.92-19.6,3.02Z"/>
  <path class="cls-15" d="M83.72,676.08c-22.71-20.6-35.74-47.29-47.43-74.88-17.69-41.75-25.88-85.29-25.07-130.56,6.56.99,6.77,6.29,7.27,11.1,6.49,62.75,27.55,120.46,59.82,174.43,3.43,5.74,11.1,11.3,5.41,19.9Z"/>
  <path class="cls-138" d="M730.19,365.46c-5.51-3.04-5.58-9.02-7.09-13.96-7.4-24.25-17.24-47.46-30.79-68.83-2.24-3.53-3.52-16.25-13.94-7.49.57-9.59,3.21-18.63,7.13-27.35,3.32-1.25,5.93.48,7.72,2.7,19.74,24.53,35.97,50.94,43.28,82.05-.6,11.25.18,22.77-6.31,32.89Z"/>
  <path class="cls-19" d="M500.62,488.05c-3.19-2.94-6.43-5.84-8.09-10.01.38-3.58,2.93-5.83,5.08-8.34,22.21-25.95,22.21-55.03,0-80.84-2.16-2.51-4.7-4.76-5.08-8.34,1.98-3.71,3.79-7.53,7.38-10.07,1.79-1.47,3.76-1.62,5.8-.68,10.91,5.05,25.17,30.48,24.4,43.49-4.01,10.18-1.08,19.7,2.76,29.14-2.54,16.95-11.14,30.79-22.55,43.05-2.38,2.56-5.45,5.57-9.69,2.59Z"/>
  <path class="cls-41" d="M875.84,375.29c-2.33,4.31-5.68,7.61-9.98,9.94-4.65-3.78-4.9-9.26-5.56-14.54-1.63-13.09-4.64-25.91-7.43-38.78-.95-4.39-1.56-9.13-7.77-9.1-3.43-8.69-4.65-18.03-8.12-26.69,1.17-16.21-8.5-29.05-13.53-43.33-1.7-4.82-6.44-9.13-2.67-14.93,4.18,0,8.36,0,12.54,0,3.27,2.69,5.6,6.03,7.42,9.85,18.15,38.19,28.82,78.58,35.38,120.16.39,2.44.25,4.96-.28,7.41Z"/>
  <path class="cls-31" d="M377.44,350.58c-2.81-.21-5.62-.43-9.78-.75,17.35-25.55,41.73-36.23,69.85-39.25,18.97-2.04,38.06-.37,56.98,2.31.84,4.97,1.68,9.95,2.51,14.92-10.98,2.86-21.28-1.97-31.94-2.79-24.74-1.91-47.76,2.8-69.04,17.55,3.75,3.31,7.76,1.5,11.08,2.61,2.46.8,5.14,1.39,4.98,4.86-11.55.18-23.1.36-34.66.54Z"/>
  <path class="cls-20" d="M875.84,375.29c-6.99-17.05-8.07-35.48-12.22-53.2-6.11-26.11-16.37-50.5-26.85-74.93-1.3-3.03-2.3-6.2-3.45-9.3,3.39.08,6.77.16,10.16.25,3.69,1.1,6.73,2.81,8.43,6.65,16.08,36.32,28.59,73.71,34.34,113.14.23,1.61.19,3.32-.35,4.94-3.35,4.15-6.71,8.3-10.06,12.45Z"/>
  <path class="cls-155" d="M276.39,257.7c8.68-.8,13.51-8.04,19.14-12.89,37.52-32.32,80.38-51.84,129.7-57.33,3.94-.44,7.64-3.02,11.45-4.6,3.3,4.27,8.3,7.11,10.37,12.41-5.46,7.01-13.49,7.68-21.32,8.08-8.41.42-16.44,2.09-24.25,5.07-4.59,1.24-8.02-1.63-11.79-3.29-4-2.03-8-2.4-12,.06-8.16,2.51-11.81,11.9-20.58,13.47-4.98-1.69-8.65,1.28-12.68,3.36-21.92,11.33-40.86,26.49-58.07,44.05-4.65,4.75-8.84,11.43-17.42,9.22.84-6.56,3.48-12.36,7.45-17.61Z"/>
  <path class="cls-146" d="M83.72,676.08c.35-11.38-7.73-19.09-12.77-27.9-29.63-51.82-48.75-106.99-54.83-166.49-.44-4.31-1.54-8.13-4.9-11.04.86-18.45-2.8-37.09,2.28-55.37,6.4,67.91,13.52,135.51,44.84,197.97,10.25,20.45,21.25,40.29,33.46,59.56,3.53,5.57,7.52,11.11,6.94,18.3-5.76-4.25-10.99-9.04-15.01-15.02Z"/>
  <path class="cls-80" d="M622.56,620.23c-7.34,15.09-22.33,21.16-35.31,29.39-16.55,10.48-34.37,18.48-53.11,24.38-2.74.86-5.5,2.09-6.98,4.93-7.79-1.39-14.73-4.46-20.3-10.24,1.53-4.74,5.86-5.42,9.76-6.53,25.11-7.19,48.76-17.67,71.03-31.28,11.79-3.04,23.88-5.11,34.91-10.65Z"/>
  <path class="cls-38" d="M733.15,330.63c-9.81-31.08-24.1-59.6-47.66-82.8,1.21-9.01,7.11-10.97,15-9.95,9.22,5.7,13.1,15.66,18.81,24.05,9.47,13.94,17,29,23.46,44.59-2.56,8.29-.28,18.51-9.61,24.1Z"/>
  <path class="cls-146" d="M885.91,362.84c-8.14-24.72-10.98-50.91-20.45-75.23-6.55-16.82-11.65-34.33-21.97-49.5,4.53-.97,8.3,1.86,12.5,2.51,4.09,2.28,7.47,5.24,9.35,9.67,12.68,29.93,23.4,60.46,28.36,92.73.37,2.43.42,4.95-.21,7.41-2.28,4.29-3.55,9.19-7.58,12.41Z"/>
  <path class="cls-138" d="M193.89,570.41c3.37-11.66,6.75-23.31,10.12-34.97,10.67,18.46,19.75,37.85,32.25,55.25-3.34,7.47-6.68,14.94-10.02,22.41-1.66.56-3.48.56-4.62-.65-11.68-12.4-21.97-25.75-27.73-42.05Z"/>
  <path class="cls-114" d="M70.95,465.71c-5.43,10.45.28,22.03-3.53,33.58-6.73-6.59-4.28-15.23-5.49-22.19-5.85-33.53-1.58-67.32-.39-101.01.07-1.95,1.45-3.85,2.22-5.78,3.33,0,6.66,0,9.98-.01,5.14,12.46.13,24.93-.07,37.39-.16,10.08-4.54,20.13-.15,30.25-.86,9.25-1.72,18.51-2.58,27.76Z"/>
  <path class="cls-145" d="M236.26,590.69c-16.79-14.9-25.92-34.26-32.24-55.25,1.16-10.97,1.63-22.05,4.96-32.7,7.22,24.86,16.2,48.83,34.75,67.92-2.49,6.68-4.97,13.35-7.46,20.03Z"/>
  <path class="cls-100" d="M407.21,347.86h-19.17c17.88-24.65,65.34-33.72,108.97-20.04.83,6.66,1.65,13.32,2.48,19.98-30.78-19.42-61.53-15.89-92.28.06Z"/>
  <path class="cls-123" d="M407.21,347.86c4.25-8.53,13.05-9.52,20.69-12.28,19.88-7.17,39.67-4.84,59.32,1.12,5.77,1.75,10.01,5.39,12.27,11.1.26,3.41,2.38,7.26-2.25,9.52-11.53-1.36-21.7-8-33.51-8.41-12.45-.43-24.79-.32-36.61,4.34-5.01-1.07-10.02-2.14-15.03-3.21-1.63-.73-3.26-1.46-4.89-2.18Z"/>
  <path class="cls-83" d="M632.82,345.65c1.62.3,3.29.41,4.84.93,25.07,8.3,24.91,8.31,23.28,34.48-.62,9.92-.19,19.9-.46,29.85-.24,9.13-4.41,11.98-12.76,7.4-4.67-5.64-2.79-12.59-3.79-18.96-2.05-13.04-5.91-25.6-9.87-38.15-1.58-5.02-3.67-10.15-1.24-15.56Z"/>
  <path class="cls-49" d="M411.6,157.74c-22.93,5.74-46.26,10.07-67.58,21.12-3.39,1.76-8.14.91-12.26,1.27,10.79-13.37,24.61-23.31,38.71-32.63,13.89-9.19,23.03-6.4,41.13,10.24Z"/>
  <path class="cls-155" d="M587.65,630.88c-8.52,12.28-22.44,16.37-35.04,21.82-14.79,6.39-30.46,10.75-45.75,15.99-5.91-1.88-10.05-6.13-14.14-10.45,4.42-6.16,11.59-6.13,17.91-7.38,13.2-2.61,25.39-7.87,37.76-12.77,4.51-1.79,7.84-4.6,9.32-9.33,9.98.71,19.95,1.41,29.93,2.12Z"/>
  <path class="cls-51" d="M163.42,698.2c-23.93-26.4-44.91-54.86-60.46-87.04-1.19-2.46-.99-5.58-1.43-8.4,8.27,12.53,16.67,24.96,29.88,33.03,11.09,10.62,17.41,24.9,27.96,36.05,5.03,5.31,10.37,10.53,14.71,16.54-2.06,4.89-7.1,6.55-10.66,9.82Z"/>
  <path class="cls-5" d="M893.49,350.43c-6.96-21.19-9.58-43.58-17.74-64.43-6.02-15.37-10.17-31.56-19.77-45.38,7.76,1.06,13.86,5.47,19.96,9.87,11.66,25.8,18.06,53.31,26.08,80.28.2.67-.46,1.49-1,2.17-3.29,5.5-1.76,13.06-7.53,17.49Z"/>
  <path class="cls-132" d="M216.45,630.73c-1.43,6.9-5.65,12.23-9.87,17.56-.8.35-1.86.77-2.37.32-12.96-11.45-24.86-23.71-30.4-40.7,2.86-7.55,7.95-13.73,12.46-20.27,11.44,13.4,21.91,27.47,30.18,43.08Z"/>
  <path class="cls-59" d="M557.72,628.76c5.9,4.24,3.5,6.52-1.66,9.17-20.01,10.28-41.6,15.5-63.34,20.31-5.44-2.48-7.94-7.58-10.93-12.24,3.01-4.06,7.66-4.91,12.1-5.59,16.97-2.57,32.94-8.3,48.69-14.79,5.38-.55,10.16,1.77,15.14,3.14Z"/>
  <path class="cls-10" d="M901.03,332.94c-11.48-22.19-12.86-47.77-23.65-70.24-1.68-3.5-1.02-8.11-1.44-12.21,27.82,21.21,36.85,50.89,25.09,82.45Z"/>
  <path class="cls-158" d="M268.94,275.31c5.7-1.89,10.12-5.56,14.08-9.92,18.57-20.48,40.92-36.03,65.04-49.18,2.9-1.58,7.46-6.62,9,1.64.5,6.72-3.28,9.49-9.37,10.13-13.14.39-21.45,10.22-30.9,16.93-18.6,13.2-34.44,29.63-47.66,48.37-2.45,3.47-4.81,6.82-9.55,7.09,2.06-8.75,3.98-17.56,9.38-25.06Z"/>
  <path class="cls-66" d="M482.78,460.47c-10.46-20.79-9.65-41.58-.04-62.38,12.42,3.84,18.01,13.5,18.01,31.17,0,17.68-5.55,27.32-17.98,31.21Z"/>
  <path class="cls-37" d="M394.64,305.78c-11.31,13.17-27.62,20.7-38.64,34.27-4.65,5.72-10.18,10.72-11.37,18.5-5.85,3.29-11.71,6.58-17.56,9.86-3.66-3.44-3.41-7.9-1.27-11.39,12.77-20.79,26.15-41.13,49.64-51.73,6.44-1.55,12.96-5.56,19.2.49Z"/>
  <path class="cls-132" d="M788.2,435.41c-6.69,4.1-13.38,8.19-20.07,12.29-5.81-4.85-5.67-11.68-5.88-18.27-.24-7.87.12-15.77-2.38-23.41,6.57-9.81,18.32-14.93,27.68-12.06,5.96,13.73,6.66,27.54.65,41.45Z"/>
  <path class="cls-97" d="M492.53,380.52c34.36,22.98,31.87,76.27,0,97.52-3.14-2.53-4.85-5.94-6-9.69,12.4-11.81,18.94-25.51,17.96-43.37-.82-14.83-9.68-24.34-17.88-34.75,1.01-3.83,2.85-7.15,5.93-9.71Z"/>
  <path class="cls-38" d="M216.45,630.73c-11.91-13.07-23.07-26.65-30.17-43.08,1.99-5.99,3.4-12.23,7.62-17.24,11.94,13.36,18.02,31.15,32.35,42.7-3.27,5.87-6.53,11.74-9.8,17.62Z"/>
  <path class="cls-128" d="M632.82,345.65c6.99,23.81,17.38,46.92,14.9,72.66-7.82-.99-9.44-9.1-14.84-12.87-3.03-22.64-11.36-43.65-20.01-64.56,6.97.28,13.63,1.83,19.96,4.77Z"/>
  <path class="cls-130" d="M465.29,225.09c4.4,6.14,8.13,12.59,9.28,20.22-15.65,3.18-31.65,2.01-47.43,3.76-7.99-3.67-10.12-10.33-9.44-18.43,9.25-10.16,31.26-12.72,47.58-5.55Z"/>
  <path class="cls-109" d="M855.97,393.18c-3.16,4.61-7.94,7.05-12.72,9.49-8.03-4.95-6.89-13.6-7.83-21-1.21-9.46-2.63-18.79-5.62-27.86-.11-8.51,4.27-14.29,11.26-18.51,3.18-1.14,6.36-.4,7.45,2.57,6.53,17.85,12.24,35.9,7.47,55.3Z"/>
  <path class="cls-26" d="M374.58,308.24c-20.49,11.61-33.49,30.22-46.03,49.23-2.2,3.33-1.55,7.21-1.48,10.94-5.9,6.52-11.8,13.04-17.7,19.56-3.7-12.37,4.26-21.89,8.93-31.66,6.2-12.99,14.58-24.98,25.93-34.46,2.86-2.39,5.54-5.13,5.18-9.4,7.28-8.05,15.78-8.81,25.18-4.21Z"/>
  <path class="cls-38" d="M712.97,573.1c11.9-20.59,20.59-42.54,27.69-65.17,3.1,10.6,4.94,21.39,5.05,32.45,2.34,11.42-2.24,21.49-8.62,29.81-6.01,7.83-15.7,4.53-24.13,2.91Z"/>
  <path class="cls-63" d="M713,237.88c5.85,0,11.7,0,17.55,0,12.32,13.93,21.2,29.81,27.02,47.44-1.86,5.95-5.07,10.42-11.97,10.83-13.55-16.47-23.42-35.25-33.68-53.78-.84-1.52-.05-3.17,1.08-4.49Z"/>
  <path class="cls-66" d="M467.53,450.11c2.48,6.76,4.96,13.53,7.43,20.29.67,3.11-1.46,4.5-3.67,5.7-10.47,5.7-32.49,3.17-41.51-4.73-2.59-2.27-5.01-4.59-2.62-8.41,1.27-5.68,3.82-10.75,7.28-15.39,10.76,4.27,21.66,6.71,33.07,2.54Z"/>
  <path class="cls-46" d="M486.6,390.23c11.33,2.05,14.31,12.18,18.09,20.4,7.82,17.01,1.97,53.45-18.16,57.72-1.25-2.63-2.5-5.25-3.75-7.88,21.36-18.13,21.34-44.35-.04-62.38,1.29-2.62,2.58-5.24,3.87-7.86Z"/>
  <path class="cls-76" d="M306.89,480.59c-2.11-13.41-4.09-26.84-6.38-40.22-2.06-12.01-2.22-23.73,3.78-34.82-2.29,21.85,9.2,39.64,17.24,58.44,1.94,4.54,3.84,9.11,5.75,13.66-6.12,5.7-13.62,1.8-20.4,2.94Z"/>
  <path class="cls-113" d="M612.87,340.89c12.51,13.2,15.67,30.48,19.51,47.13,1.21,5.25,6.49,11.56.51,17.43-5.11-4.12-10.21-8.23-15.32-12.35-4.18-14.55-7.77-29.3-15.11-42.76-1.79-3.29-2.96-6.89.4-10.13,3.34.23,6.67.45,10.01.68Z"/>
  <path class="cls-163" d="M174.08,688.38c-11.28-2.09-14.4-12.93-20.95-19.94-8.97-9.59-16.69-20.3-21.72-32.65,4.94-.13,9.89-.27,14.83-.4,13.37,13.89,24.86,29.23,35.23,45.43-1.6,3.36-4.11,5.84-7.39,7.56Z"/>
  <path class="cls-149" d="M820.79,237.86c5.83,14.12,11.6,28.27,17.53,42.35,2.13,5.06,4.43,9.96.43,15.12-8.42-2.92-15.44-7.69-20.37-15.26-2.62-9.56-6.7-18.51-11.1-27.37-2.29-4.62-5.79-9.42-1.54-14.85,5.01,0,10.03,0,15.04,0Z"/>
  <path class="cls-1" d="M542.58,625.62c-6.78,10.69-19.21,10.39-29.26,14.1-9.93,3.66-20.97,4.31-31.53,6.28-4.11-3.22-5.94-7.8-7.48-12.55,15.31-7.47,32.54-8.01,48.47-13.24,1.55-.51,3.15-.86,4.61-1.63,5.06,2.35,10.12,4.7,15.18,7.05Z"/>
  <path class="cls-3" d="M492.09,300.3c-16.56-3.89-33.29-6.12-50.3-4.32-2.61.28-4.86.24-7.21-.66-.83-1.17-1.2-2.46-1.11-3.89.89-4.75.23-10.15,5.46-13.12,16.46-1.82,33.05-5.07,48.43,4.54.47,6.12,5.83,10.91,4.73,17.46Z"/>
  <path class="cls-93" d="M527.41,618.57c-15.85,11.53-34.69,12.4-53.08,14.88-3.9-5.22-5.52-11.29-6.56-17.58,15.17-.84,29.68-5.59,44.67-7.56,4.99,3.42,9.99,6.84,14.98,10.26Z"/>
  <path class="cls-125" d="M427.15,247.98c15.56-5.26,31.38-6.03,47.42-2.67.37,5.54,7.18,8.71,5.55,14.99-6.05,5.21-13.4,3.35-20.28,3.53-8.29.21-16.65-.4-24.12,4.27-10.26-3.55-10.48-11.38-8.57-20.11Z"/>
  <path class="cls-111" d="M181.48,680.82c-14.26-13.19-25.75-28.53-35.23-45.43,3.38-2.43,6.76-4.86,10.14-7.28,7.61,2.09,10.1,9.16,14.06,14.69,6.45,8.99,15.08,16.16,21.05,25.52-2.01,5.23-4.98,9.7-10.03,12.51Z"/>
  <path class="cls-6" d="M760.49,405.45c6.82,1.08,5.06,6.46,5.08,10.63.07,10.62-.36,21.25,2.55,31.63-5.85,4.97-11.7,9.94-17.54,14.91,0-13.78-.03-27.55.05-41.33.02-4.54.13-9.03-2.54-13.02,3.48-3.82,7.38-5.81,12.41-2.81Z"/>
  <path class="cls-31" d="M532.41,347.66c4.59-3.07,9.86-3.89,15.17-4.57,15.32,8.57,26.37,29.18,22.51,41.98-4.2.88-8.39,1.76-12.59,2.63-11.2-10.01-17.29-23.77-26.1-35.53-1.02-1.36-.07-3.17,1.01-4.52Z"/>
  <path class="cls-45" d="M602.86,340.21c3.4,14.45,12.54,26.85,14.91,41.67.6,3.75,4.79,7.57-.2,11.22-5.86-2.51-11.71-5.03-17.57-7.54-.5-12.59-7.75-22.67-12.37-33.75-1.6-3.84-6.95-8.3-.29-12.6,5.17.5,10.48-1.14,15.52,1.1v-.1Z"/>
  <path class="cls-44" d="M465.12,421.37c-.02,5.35-.05,10.7-.07,16.05.3,10.06-5.03,13.88-15.28,10.52-6.21-2.03-11.05-5.58-10.42-13.2-.14-7.82,3.79-14.56,5.79-21.81,4.01-6.49,9.93-6.7,15.94-3.99,5.35,2.41,5.85,7.25,4.04,12.43Z"/>
  <path class="cls-163" d="M73.53,437.95c-4.95-4.34-5.25-10.18-4.74-16.03,1.52-17.21,3.29-34.41,4.96-51.61,2.09-.05,4.17-.16,6.26-.14,12.46.18,13.16,1.4,8.89,12.85-6.66,17.86-12.8,35.9-15.36,54.92Z"/>
  <path class="cls-118" d="M855.97,393.18c-1.13-16.87-4.19-33.44-7.96-49.88-.73-3.16-1.26-8.18-7.08-5.36-3.43-6.82.36-11.12,5.26-15.03,1.32-1.97,2.64-3.94,4.9-7.32,8.76,23.25,10.91,46.65,14.78,69.65-1.85,4.44-6.2,5.79-9.9,7.94Z"/>
  <path class="cls-83" d="M635.3,493.02c5.81,1.05,10.4,4.41,14.94,7.87-2.11,18.33-12.22,32.73-23.11,46.71-1.05,1.35-2.91,1.34-4.58.7-4.14-2.53-8.29-5.06-12.43-7.59,10.01-15.05,19-30.63,25.18-47.69Z"/>
  <path class="cls-163" d="M830.55,352.85c8.51,5.84,6.35,15.43,7.48,23.45,1.27,8.93,2.42,17.79,5.22,26.38-4.8,3.68-8.93,8.32-14.97,10.17-6.96-15.31-5.46-32.17-8.87-48.14.51-6.95,3.41-11.68,11.15-11.86Z"/>
  <path class="cls-1" d="M465.29,225.09c-13.03,1.26-26.28-1.8-39.22,2.37-3.43,1.1-6.25,1.79-6.61,5.85-9-2.6-12.63-8.41-10.6-17.63,15.22-9.77,31.73-8.01,48.34-5.38,4.19,4.12,6.37,9.33,8.09,14.8Z"/>
  <path class="cls-59" d="M457.2,210.29c-15.49,5.27-33.13-2.32-47.77,8.01-6.23-.91-10.79-3.32-9.73-10.79,4.45-6.94,12.3-6.79,18.63-6.85,10.09-.1,19.31-2.76,28.72-5.38,4.43,4.29,7.76,9.33,10.15,15Z"/>
  <path class="cls-79" d="M580.35,472.39c4.1,1.26,8.2,2.51,12.3,3.77,2.56,2.86,2.07,6.03.89,9.24-4.42,12.04-10.72,23.07-18.71,33.07-3.07,3.84-6.85,7.32-12.62,4.84-2.68-.02-5.37,0-7.29-2.36-1.14-2-1.08-4.2.08-5.94,9.12-13.81,16.53-28.63,25.35-42.62Z"/>
  <path class="cls-111" d="M820.81,362.95c6.06,16.1,6.47,33.04,7.47,49.89-3.32,3.91-8.09,5.33-12.52,7.36-5.4-5.58-5.61-12.8-5.76-19.79-.18-7.96-2-15.63-3.1-23.43,1.23-8.03,4.89-13.69,13.92-14.02Z"/>
  <path class="cls-107" d="M427.12,353.25c.33-2.08.83-4.33,3.12-4.85,23.42-5.25,46.23-5.73,67.01,8.91-3.08,2-2.96,7.11-7.5,7.7-16.56-3.72-32.95-9.54-50.25-4.06-4.13-2.57-8.26-5.14-12.38-7.71Z"/>
  <path class="cls-101" d="M173.82,607.91c10.8,13.56,19.72,28.64,32.77,40.37-1.83,3.81-3.37,7.83-7.32,10.11-1,.76-2.61,1.75-3.32,1.09-12.74-11.87-26.46-23.09-29.73-41.7.94-4.52,4.08-7.34,7.61-9.87Z"/>
  <path class="cls-121" d="M657.85,505.62c9.72,6.52,3.48,16.39,5.19,24.59.91,14.82-13.09,34.88-24.76,35.46-2.53-3.39-5.06-6.77-7.59-10.16,10.26-15.97,19.38-32.57,27.16-49.9Z"/>
  <path class="cls-17" d="M713,237.88c8.9,20.46,24.14,37.33,32.79,57.93,1.94,5.18.92,8.78-5.16,9.71-12.47-23.08-25.86-45.62-40.14-67.64,4.17,0,8.34,0,12.51,0Z"/>
  <path class="cls-98" d="M166.21,617.78c9.1,15.1,18.41,30.01,33.05,40.61-1.34,4.28-4.8,6.9-7.75,9.92-10.64-4.82-15.81-15.02-22.81-23.36-4.46-5.31-8.23-11.21-12.3-16.85,3.27-3.44,6.54-6.88,9.82-10.33Z"/>
  <path class="cls-36" d="M512.43,608.3c-14.14,6.94-28.53,12.37-44.67,7.56-1.45-4.9-3.45-9.71-2.5-15.02,11.23-3.82,23.51-2.4,34.59-6.97,4.19,4.81,8.39,9.62,12.58,14.43Z"/>
  <path class="cls-152" d="M580.35,472.39c-2.98,19.05-17.32,32.18-25.43,48.56-4.89.18-9.03-1.61-12.63-4.81-.62-1.11-1.1-2.5-.45-3.48,9.75-14.51,17.92-30.02,28.24-44.16,3.83.21,7.19,1.67,10.26,3.89Z"/>
  <path class="cls-55" d="M434.52,268.31c.63-7.1,5.43-8.11,11.31-8.03,11.43.14,22.86.03,34.29.02,2.67,4.64,5.04,9.4,5.44,14.87-6.14,4.07-12.77,1.52-19.24,1.49-9.79-.04-19.98-2.78-28.94,3.74-.69,4.17,1.34,8.83-2.26,12.48-5.94-8.05-5.49-16.25-.61-24.57Z"/>
  <path class="cls-133" d="M590.19,533.04c-4.84-.11-9.05-1.98-12.98-4.63,8.91-16.12,14.83-33.98,27.95-47.64,2.55.88,5.09,1.77,7.64,2.65,2.42,1.18,4.86,3.27,3.8,5.72-6.82,15.79-10.87,33.33-26.41,43.89Z"/>
  <path class="cls-1" d="M657.85,505.62c-3.24,19.79-12.46,36.33-27.16,49.9-3.44-1.59-6.09-4.07-8.15-7.21,13.82-13.13,18.89-31.36,27.69-47.41,2.54,1.58,5.08,3.15,7.61,4.73Z"/>
  <path class="cls-31" d="M570.09,468.5c-5.26,18.21-17.64,32.28-27.8,47.64-4.06-.14-7.76-1.06-10.14-4.76-1.76-3.51-.25-6.65,1.7-9.26,9.18-12.27,16.3-25.76,23.73-39.08,4.17,1.82,8.34,3.64,12.5,5.46Z"/>
  <path class="cls-112" d="M519.21,503.52c-4.38-1.1-7.38-4.05-10.03-7.47,11.68-14.13,21.9-29.24,30.79-45.26,3.35,2.59,6.7,5.17,10.05,7.76,1.35,15.85-16.44,41.8-30.81,44.97Z"/>
  <path class="cls-22" d="M539.97,450.79c-4.58,18.94-14.82,34.04-30.79,45.26-3.88-1.57-6.65-4.33-8.56-8,14.26-6.29,19.1-19.98,25.53-32.41,2.27-4.39,4.48-8.82,6.71-13.23,2.37,2.79,4.74,5.58,7.11,8.38Z"/>
  <path class="cls-128" d="M635.3,493.02c-1.6,19.48-10.77,34.96-25.18,47.69-4.45-.94-8.84-2-12.43-5.05,12.8-13.71,19.21-31.13,27.57-47.42,3.99.25,7.3,1.9,10.04,4.77Z"/>
  <path class="cls-61" d="M625.25,488.25c-4.47,18.54-9.82,36.57-27.57,47.42-2.5-.88-5-1.75-7.5-2.63,9.22-12.12,15.47-25.92,22.34-39.38,1.8-3.52,2.83-6.75.27-10.24,4.15,1.61,8.3,3.22,12.45,4.83Z"/>
  <path class="cls-101" d="M755.59,285.26c-8.35-15.79-16.7-31.59-25.05-47.38,5.85,0,11.7,0,17.55,0,6.72,9.57,11.29,20.36,17.23,30.37,2.45,4.13,2.92,8.68.12,13.06-2.55,3.13-5.3,5.79-9.85,3.95Z"/>
  <path class="cls-84" d="M605.16,480.77c-9.02,16.05-14.54,34.15-27.95,47.63-5.37-.62-10.49-1.98-15-5.1,15.08-4.77,17.98-19.64,24.94-30.88,2.83-4.58,6.2-10.02,5.49-16.27,4.17,1.54,8.34,3.08,12.51,4.62Z"/>
  <path class="cls-98" d="M808.15,375.43c8.01,14,3.79,30.07,7.61,44.78-4.99,2.66-9.99,5.32-14.98,7.99-4.4-4.28-3.56-9.89-3.51-15.11.08-8.69-.79-17.23-2.75-25.69.74-8.3,5.4-12.15,13.63-11.97Z"/>
  <path class="cls-136" d="M427.18,462.97c9.59,13.9,29.85,17.05,47.79,7.43,2.17,3.45,4.34,6.9,7.33,11.65h-63.33c1.21-7.12,4.06-13.36,8.21-19.08Z"/>
  <path class="cls-102" d="M467.08,582.86c.03-14.14,7.26-25.1,16.09-37.56,5.57,11.49,5.89,22.66,9.25,32.89-5.89,10-18.38,12.3-25.34,4.67Z"/>
  <path class="cls-100" d="M532.41,347.66c6.96,14.22,19.3,25.09,25.09,40.05-3.36,1.58-6.73,3.16-10.09,4.74-2.54-.58-4.95-1.73-6.04-4.07-5.87-12.63-17.19-21.26-24.16-33.06,4.27-4.13,9.25-6.86,15.2-7.66Z"/>
  <path class="cls-157" d="M467.08,582.86c9.02,1.55,17.84,2.03,25.34-4.67,2.48,5.23,4.95,10.45,7.43,15.68-9.91,10.35-22.4,7.9-34.59,6.97-.2-6.08-1.84-12.3,1.82-17.99Z"/>
  <path class="cls-144" d="M519.21,503.52c16.34-10.85,24.17-27.51,30.81-44.98,2.52,1.5,5.04,2.99,7.56,4.49-.63,12.15-7.84,21.21-14.29,30.67-3.92,5.75-7.44,11.76-11.14,17.66-5.08-1.35-9.44-3.89-12.94-7.85Z"/>
  <path class="cls-98" d="M763.13,280.32c4.55-7.41-1.45-12.41-4.42-17.84-4.33-7.9-10.14-15.07-10.62-24.6,4.19,0,8.37,0,12.56-.01,10.01,10.85,18.63,22.37,18.48,38.14-4.49,4.55-9.34,7.77-16,4.31Z"/>
  <path class="cls-101" d="M795.48,385.4c9.64,13.29,3.47,28.54,5.3,42.79-4.19,2.41-8.39,4.82-12.58,7.22-.07-14.34.99-28.74-2.61-42.86.46-6.3,4.28-7.97,9.9-7.16Z"/>
  <path class="cls-16" d="M670.9,575.45c-8.52,5.95-13.51,15.09-20.33,22.59-2.99,3.29-5.05,7.31-10.47,4.91,2.48-7.21,3.11-14.69,3.16-22.25,7.8-8.15,13.28-18.33,22.29-25.42,1.78,6.72,3.56,13.45,5.34,20.17Z"/>
  <path class="cls-4" d="M778.19,275.48c-3.52-13.62-12.12-24.88-17.54-37.61,5.01,0,10.03,0,15.04,0,9.62,7.44,13.63,18.55,18.64,28.93,1.65,3.43,1.68,7.35-2.07,10.09-4.94,2-9.72,2.42-14.07-1.41Z"/>
  <path class="cls-19" d="M439.51,360.96c6.51-10.26,16.74-5.25,25.05-5.03,8.83.24,18.03,2.67,25.2,9.08-2.46,3.49-4.91,6.99-7.36,10.48-11.6-3.76-23.54-4.72-35.64-4.27-2.41-3.42-4.83-6.85-7.24-10.27Z"/>
  <path class="cls-116" d="M530.11,413.27c-7.1-16.36-11.69-34.48-30.19-42.82,2.61-2.47,5.23-4.93,7.84-7.4,1.71-1.63,3.9-1.96,5.61-.63,12.53,9.77,22.89,21,24.13,37.96-2.46,4.29-4.92,8.59-7.38,12.88Z"/>
  <path class="cls-67" d="M805.75,237.87c.11,9.68,6.82,16.71,10.11,25.1,2.26,5.76,5.14,11.34,4.82,17.79-8.28,3.16-15.84,1.76-22.78-3.55.14-5.1,3.91-2.61,6.09-3.83-2.31-7.05-6.07-14.35-10.13-21.54-2.42-4.29-5.46-8.57-3.13-13.98,5.01,0,10.01,0,15.02,0Z"/>
  <path class="cls-155" d="M665.56,555.28c-5.62,10.05-10.76,20.53-22.3,25.42-1.66-5.01-3.32-10.02-4.98-15.03,13.69-8.03,19.02-21.88,24.76-35.46,3.96,8.04,1.74,16.71,2.52,25.07Z"/>
  <path class="cls-99" d="M537.49,400.39c-7.55-14.32-13.13-30.2-29.74-37.33,2.09-3.88,5.63-5.99,9.46-7.73,14.3,8.94,21.31,23.8,30.2,37.13-3.55,2.35-5.4,6.8-9.92,7.94Z"/>
  <path class="cls-43" d="M587.21,383.15c-1.51-.03-3.03-.06-4.54-.1-5.89-3.26-8.07-9.25-10.76-14.8-5.12-10.54-10.73-20.6-22.28-25.52,5.41-3.57,11.55-2.14,17.42-2.57,1.86-1.05,3.79-1.03,5.78-.44,10.62,9.85,16.26,22.62,20.54,36.02,1.51,4.73,1.41,9.52-6.15,7.39Z"/>
  <path class="cls-84" d="M587.21,383.15c6.05-.64,4.27-3.78,3.06-7.73-3.89-12.7-12.05-23.14-17.68-34.9,4.17-2.07,8.35-1.97,12.54-.06,5.8,12.17,13.13,23.67,16.84,36.74.72,2.55,5.09,7.18-1.98,8.36-4.35-.32-8.92.5-12.78-2.4Z"/>
  <path class="cls-163" d="M790.73,237.86c4.62,9.25,9.29,18.48,13.84,27.76,3.4,6.95,2.24,11.02-6.62,9.84-1.58,1.36-3.16,1.19-4.73-.02-1.18-14.7-13.07-24.42-17.53-37.58,5.01,0,10.03,0,15.04,0Z"/>
  <path class="cls-64" d="M712.97,573.1c22.25.29,28.01-5.47,32.74-32.71,2.42,9.14,5.01,18.24,7.17,27.44.78,3.31.45,7.49-4.25,7.31-21.82-.81-43.8,3.24-65.48-2.01.76.01,1.51-.02,2.26-.09,3.34.01,6.69.03,10.03.05,5.84,0,11.69,0,17.53.01Z"/>
  <path class="cls-23" d="M204.1,370.26c-.92,12.99-3.68,25.61-7.62,38-4.06-9.36-7.87-18.82-12.23-28.04-4.06-8.57-.79-10.95,7.53-10.23,4.08.35,8.21.19,12.32.26Z"/>
  <path class="cls-136" d="M446.75,371.23c12.24-6.18,25.67-4.57,35.64,4.27-2.48,4.23-4.95,8.47-7.43,12.7-8.39-2.8-17.52-3.15-25.39-7.66-2.49-2.63-2.1-6.14-2.83-9.31Z"/>
  <path class="cls-135" d="M549.62,342.74c7.24-.52,12.15,2.15,16.26,8.65,6.43,10.17,11.09,21.17,16.78,31.67-4.19.67-8.39,1.35-12.58,2.02-.86-17.55-12.55-29.3-22.51-41.98.63-.4,1.31-.52,2.04-.35Z"/>
  <path class="cls-159" d="M439.35,434.75c3.84,6.97,8.86,11.41,17.71,10.98,6.06-.3,8.12-2.83,7.98-8.29,2.74,3.85,2.16,8.36,2.49,12.68-7.37,8.91-23.29,7.69-33.07-2.54.46-4.72,2.04-9.02,4.89-12.83Z"/>
  <path class="cls-12" d="M449.57,380.54c9.26-.07,18.78-1.03,25.39,7.66-1.7,4.11-3.41,8.21-5.11,12.32-7.38-2.38-14.78-1.7-22.18-.11.64-6.62,1.27-13.25,1.91-19.87Z"/>
  <path class="cls-27" d="M437.38,280.4c1.17-7.08,6.8-7.63,12.08-7.44,12.04.42,24.06,1.44,36.1,2.22,2.19,2.19,2.13,4.9,1.8,7.68-16.55-3.04-33.27-2.7-49.98-2.45Z"/>
  <path class="cls-86" d="M447.67,400.41c7.43-7.27,14.83-7.84,22.18.11-4.18,6.36-.42,14.52-4.73,20.85-2.46-11.98-5.59-13.3-19.98-8.43.84-4.18,1.68-8.36,2.53-12.53Z"/>
  <path class="cls-113" d="M585.13,340.46c-4.18.02-8.36.04-12.54.06-1.85-.11-3.69-.23-5.55-.35,11.94-3.42,23.88-3.28,35.8.13-5.91.05-11.81.1-17.72.16Z"/>
  <path class="cls-89" d="M494.81,167.19c12.57-2.82,16.95-.1,18.71,11.61,1.79,11.95-3.53,17.37-18.69,19.05-5.88-10.22-7.42-20.44-.01-30.66Z"/>
  <path class="cls-68" d="M1011.21,520.08c3.24,1.01,6.49,2.02,9.73,3.03.76,3.22,2.25,7.58-3.19,6.99-4.73-.51-12.26,4.91-13.73-4.97,2.4-1.69,4.79-3.37,7.19-5.06Z"/>
  <path class="cls-156" d="M254.75,673.83c5.12-1.47,9.85-.96,13.92,2.79,1.49,5.08-.78,7.03-5.63,6.42-4.36-.55-9.9,2.25-12.83-1.62-2.62-3.46,3.91-4.39,4.53-7.59Z"/>
  <path class="cls-28" d="M412.02,700.77c-1.42.81-2.83,1.64-4.26,2.44-3.88,2.15-7.94,3.28-11.29-.54-4.58-5.22.75-7.95,3.33-11.3,8.17-2.17,16.13-4.06,12.23,9.41Z"/>
  <path class="cls-90" d="M898.48,663.08c4.82-1.75,9.59-3.75,14.91-2.37.43,4.33.39,8.54-2.83,12.01-4.53.97-9.25,4.86-13.52,0-2.96-3.38-1.56-6.79,1.44-9.63Z"/>
  <path class="cls-90" d="M783.17,540.42c4.82-1.75,9.59-3.75,14.91-2.37.43,4.33.39,8.54-2.83,12.01-4.53.97-9.25,4.86-13.52,0-2.96-3.38-1.57-6.79,1.44-9.63Z"/>
  <path class="cls-90" d="M918.54,540.42c4.82-1.75,9.59-3.75,14.91-2.37.43,4.33.39,8.54-2.83,12.01-4.53.97-9.25,4.86-13.52,0-2.96-3.38-1.57-6.79,1.44-9.63Z"/>
  <path class="cls-54" d="M740.7,195.33c-5.8.82-11.63,3.77-17.33-.33-4.65-9.07-4.5-18.16-.08-27.27,4.92-3.25,9.79-3.55,14.59.24,6.23,8.57,2.29,18.2,2.82,27.36Z"/>
  <path class="cls-131" d="M998.81,645.34c5.06-2.85,9.93-2.55,14.61.86,4.3,8.9,4.37,17.83.14,26.78-3.61,1.86-7.34,3.15-11.5,2.43-8.79-9.19-10.4-19.16-3.26-30.07Z"/>
  <path class="cls-140" d="M963.58,520.54c4.9.92,11.66-3.22,14.24,3.97,2.14,5.97,2.56,12.37-4.04,16.62-16.57-.36-8.51-12.89-10.2-20.6Z"/>
  <path class="cls-11" d="M434.52,268.31c.2,8.19.41,16.38.61,24.57-.18.81-.37,1.63-.55,2.44-6.57,9.41-17.11,8.07-26.52,9.59-4.4.71-8.94.61-13.41.87-6.93-1.18-13.41,1.36-20.06,2.46-8.59.26-17.04,1.33-25.18,4.21-6.84,0-13.53.96-20.01,3.23-3.71,2.28-7.18,1.69-10.5-.84-2.67-2.59-5.88-4.93-4.7-9.44,1.21-8.46,2.04-17.01,5.32-25.03,3.45-8.32,6.91-16.63,10.36-24.95,7.68-8.02,9.31-19.94,17.8-27.43,3.13-3.38,6.25-6.76,9.38-10.13,6.71-5.17,11.63-12.66,20.16-15.46,4.05-1.37,8.12-1.16,12.2-.16,3.43,1.76,6.86,3.52,10.29,5.28,3.24,3.59,6.49,7.19,9.73,10.78,2.32,5.69,5.71,10.65,10.02,15.01,1.7,5.34,4.13,10.31,7.69,14.68,2.46,6.78,4.91,13.55,7.37,20.33Z"/>
  <path class="cls-88" d="M319.23,312.99c3.39.89,6.78,1.79,10.17,2.68-38.03,49.39-52.68,103.73-35.03,164.91-4.18,0-8.36,0-12.53,0-10.99-17.95-11.51-38.16-10.62-57.98,1.62-36.13,12.97-69.44,33.85-99.22,3.45-4.92,6.28-11.25,14.16-10.39Z"/>
  <path class="cls-34" d="M319.23,312.99c-22.28,20.55-32.14,47.73-39.78,75.84-8.34,30.7-5.35,61.34,2.39,91.75-6.86.89-10.85-1.71-12.47-8.8-13.48-59.19.63-112.23,35.66-160.63,2.15-2.97,4.9-5.78,9.17-5.77,1.68,2.53,3.35,5.07,5.03,7.6Z"/>
  <path class="cls-2" d="M793.22,275.45c1.58,0,3.16.01,4.73.02,7.58,1.77,15.15,3.53,22.73,5.3,5.73,5.22,13.62,7.77,18.07,14.58,5.65,8.33,7.98,17.56,7.43,27.56-1.75,5.01-3.51,10.02-5.26,15.03-3.46,4.97-6.91,9.94-10.37,14.91-4.06,2.59-7.16,6.1-9.74,10.11-5.02,3.35-9.14,7.61-12.66,12.48-4.33,3.18-9.54,5.26-12.66,9.97-3.61,1.96-7.6,3.39-9.9,7.16-8.36,4.3-16.72,8.59-25.09,12.89-4.14.94-8.27,1.87-12.41,2.81-4.07-1.98-8.14-3.96-12.2-5.95-5.16-11.78-5.01-24.38-5.69-36.85.99-11.61,1.97-23.22,2.96-34.83,2.49-8.37,4.99-16.74,7.48-25.11,2.93-2.6,4.49-5.92,5.16-9.71,3.27-3.51,6.54-7.03,9.8-10.54,2.51-1.65,5.03-3.3,7.54-4.94,5.02-1.61,10.04-3.23,15.06-4.84,5.01-.01,10.02-.02,15.04-.03Z"/>
  <path class="cls-80" d="M389.42,202.23c-4.07.05-8.14.11-12.2.16,4.03-3.21,8.1-3.12,12.2-.16Z"/>
  <path class="cls-164" d="M425.45,281.63c1.05,7.65-1.4,12.15-9.75,12.49-28.38,1.15-56.4,5.19-84.23,10.71-5.79,1.15-7.7-1.26-6.15-6.95,8.51-31.15,22.25-59.24,47.73-80.24,10.21-8.42,16.09-7.75,24.24,2.61,14.32,18.19,25.9,37.75,28.16,61.37Z"/>
  <path class="cls-164" d="M740.38,368.57c.43-20,2.15-38.61,9.21-56.2,11.84-29.51,59.71-36.66,80.13-12.01,6.51,7.87,9.37,17.07,4.37,26.66-17.76,34.11-46.93,55.25-81.44,69.93-6.36,2.71-9.39-1.75-10.19-7.3-1.07-7.38-1.49-14.85-2.07-21.09Z"/>
</svg>