<?xml version="1.0" standalone="no"?><!DOCTYPE svg PUBLIC "-//W3C//DTD SVG 1.1//EN" "http://www.w3.org/Graphics/SVG/1.1/DTD/svg11.dtd"><svg t="1739609573528" class="icon" viewBox="0 0 1024 1024" version="1.1" xmlns="http://www.w3.org/2000/svg" p-id="31669" xmlns:xlink="http://www.w3.org/1999/xlink" width="128" height="128"><path d="M340.64425 784.54784a836.11648 836.11648 0 0 0 58.73664 124.84608c16.71168 28.95872 35.2256 56.7296 55.13216 83.27168A1052.18048 1052.18048 0 0 0 962.70377 698.94144a827.71968 827.71968 0 0 0-123.78112-202.50624 826.5728 826.5728 0 0 1-498.2784 288.11264z" fill="#16AB03" p-id="31670"></path><path d="M453.93961 0a821.12512 821.12512 0 0 0-113.4592 208.2816 826.5728 826.5728 0 0 1 498.44224 288.1536A827.71968 827.71968 0 0 0 962.70377 293.888 1052.18048 1052.18048 0 0 0 453.93961 0z" fill="#5E33BF" p-id="31671"></path><path d="M340.64425 784.54784a820.06016 820.06016 0 0 1-23.79776-502.1696c6.7584-25.23136 14.70464-49.93024 23.63392-74.1376a828.08832 828.08832 0 0 0-237.03552-5.5296 1052.09856 1052.09856 0 0 0-0.08192 587.3664 831.20128 831.20128 0 0 0 237.28128-5.5296z" fill="#000000" p-id="31672"></path></svg>