<?xml version="1.0" standalone="no"?><!DOCTYPE svg PUBLIC "-//W3C//DTD SVG 1.1//EN" "http://www.w3.org/Graphics/SVG/1.1/DTD/svg11.dtd"><svg t="1739630978584" class="icon" viewBox="0 0 1858 1024" version="1.1" xmlns="http://www.w3.org/2000/svg" p-id="5103" xmlns:xlink="http://www.w3.org/1999/xlink" width="232.25" height="128"><path d="M571.4249 883.765462c-4.93494-8.2249-16.861044-28.170281-26.730924-44.208835s-17.272289-29.609639-16.655422-30.226507c2.056225-2.261847 107.33494-1.439357 107.33494 0.82249 0 1.028112-10.281124 18.917269-23.029719 39.479519-12.542972 20.767871-24.263454 40.096386-25.702811 43.386345-1.64498 3.084337-3.701205 5.551807-4.729317 5.551807s-5.75743-6.785542-10.486747-14.804819zM509.326908 781.159839c-3.084337-4.523695-5.140562-9.253012-4.523695-10.281124 1.233735-1.850602 151.749398-2.673092 153.805622-0.616868 0.616867 0.82249-0.411245 3.906827-2.46747 6.785543s-4.318072 6.991165-4.934939 9.047389c-1.233735 3.28996-6.374297 3.495582-68.883534 3.495582h-67.444177l-5.551807-8.430522zM486.297189 742.914056c-2.261847-4.318072-4.318072-8.430522-4.729318-9.253012-0.411245-1.028112 44.62008-1.64498 100.138153-1.64498s100.960643 0.411245 100.960643 1.028113-2.261847 4.729317-5.140563 9.253012l-5.140562 8.224899h-182.181526l-3.906827-7.608032zM469.641767 711.86506c-1.233735-0.82249-10.281124-14.804819-20.151004-31.048996s-19.122892-31.460241-20.767871-33.927711c-1.64498-2.261847-3.084337-4.93494-3.084338-5.757429 0-1.028112 70.322892-1.64498 156.478715-1.64498 135.710843 0 156.273092 0.411245 155.450602 2.878715-0.616867 1.64498-8.430522 15.010442-17.477911 29.404016-8.841767 14.393574-18.300402 29.815261-20.767872 34.133333l-4.729317 7.608032h-111.241767c-61.275502 0-112.475502-0.82249-113.709237-1.64498zM1184.385542 662.31004c-2.878715-2.056225-9.253012-5.963052-14.393574-8.841767l-9.253012-5.140562-0.616868-31.048996-0.616867-31.254619 110.624899 0.411245 110.6249 0.616868 0.616868 28.787148 0.616867 28.992772-9.664257 6.991164c-5.140562 3.906827-10.281124 8.841767-11.309237 10.897992-1.850602 3.28996-8.019277 3.495582-86.772691 3.495582-78.753414-0.205622-85.127711-0.411245-89.857028-3.906827zM408.160643 612.75502c-2.878715-4.523695-5.140562-9.04739-5.140563-10.281124 0-2.261847 356.138153-3.084337 358.4-0.82249 0.616867 0.82249-1.439357 5.346185-4.934939 10.281124l-6.168675 9.04739H413.301205l-5.140562-8.2249zM384.102811 572.658635l-5.757429-9.253013h407.543775l-2.878715 4.729318c-1.64498 2.46747-4.318072 6.57992-5.963052 9.253012l-2.878715 4.523695H389.654618l-5.551807-9.253012zM1159.710843 557.236948v-10.281125l110.6249 0.411245 110.419277 0.616868v18.506024l-110.419277 0.616867-110.6249 0.411245v-10.281124zM360.661847 533.590361c-3.906827-5.551807-6.991165-10.897992-6.991164-11.720481 0-1.028112 102.811245-1.64498 228.240964-1.64498 125.635341 0 228.240964 0.616867 228.240963 1.64498 0 0.82249-2.261847 4.93494-5.140562 9.047389s-5.140562 8.636145-5.140562 9.664257c0 1.64498-67.649799 2.46747-216.109237 2.673092l-216.314859 0.616868-6.785543-10.281125zM1159.710843 337.015261V145.786345l5.75743-7.196787 5.551807-6.991164h472.109237l14.599197 15.421686c20.973494 22.207229 29.404016 34.133333 41.741366 59.630522 24.469076 49.966265 29.198394 97.053815 14.187951 142.290763-15.010442 44.825703-42.769478 87.389558-84.716466 129.747792l-18.917269 18.917269h-187.116465l0.411245-73.201607 0.616867-73.201606 48.321285-0.411245c53.66747-0.82249 59.836145-1.850602 71.967872-12.748595 13.159839-11.926104 15.627309-28.992771 6.374297-44.003212-5.140562-8.430522-16.244177-16.449799-22.824097-16.4498-2.878715 0-6.374297-1.028112-7.402409-2.056224-1.439357-1.439357-26.114056-1.850602-69.911647-1.64498l-67.649799 0.616867-0.616867 127.074699-0.411245 126.869076H1159.710843v-191.434538zM322.210442 469.436145c-23.646586-38.657028-67.032932-110.213655-84.716466-140.440161-19.328514-32.693976-66.827309-111.653012-92.118876-152.77751-12.337349-20.151004-23.029719-38.451406-23.440963-40.713253-1.028112-3.906827 2.878715-3.906827 215.903614-3.906827 119.466667 0 217.548594 0.616867 217.959839 1.644979 0.616867 0.82249-3.28996 9.458635-8.636144 19.122892s-16.655422 30.432129-24.880322 46.26506c-8.2249 15.627309-24.469076 46.26506-35.983935 67.649799-11.514859 21.590361-28.170281 53.050602-37.012048 69.911647-8.841767 17.066667-16.655422 31.871486-17.477912 32.899598-0.82249 1.233735-5.346185 9.458635-9.86988 18.506025-9.458635 18.506024-11.926104 31.665863-7.608032 40.096385 4.11245 8.019277 18.711647 20.356627 29.609639 25.291566 11.926104 5.140562 37.423293 7.196787 44.62008 3.495583 2.878715-1.64498 10.897992-13.365462 20.151004-29.609639 43.79759-77.519679 59.4249-105.484337 73.201607-130.775903 8.2249-15.216064 20.767871-37.834538 27.759036-50.37751 6.991165-12.337349 16.038554-28.581526 19.945381-35.983936 30.020884-55.723695 39.479518-71.967871 41.946988-71.967872 1.64498 0 3.495582-1.439357 4.11245-3.084337 1.028112-2.673092 23.646586-3.084337 185.060241-3.084337 145.786345 0 183.826506 0.616867 183.826506 2.673092-0.205622 1.233735-4.318072 9.04739-9.253012 16.861044-4.93494 8.019277-12.748594 20.356627-17.066667 27.759036-4.523695 7.40241-23.852209 39.273896-42.9751 70.939759s-59.013655 97.46506-88.417671 145.991968c-29.198394 48.73253-55.723695 92.324498-58.808032 97.259438l-5.551807 8.636145H341.950201l-19.739759-32.282731z" p-id="5104"></path><path d="M908.851406 635.373494v-30.843374l100.138152 0.411245 100.343775 0.616868v59.630522l-100.138152 0.616867-100.343775 0.411245v-30.843373zM908.851406 576.771084v-9.253012h200.68755l-0.205623 8.841767-0.205622 8.636145-100.138153 0.616867-100.138152 0.411245v-9.253012zM908.851406 537.702811v-9.253012h201.098795l-0.411245 8.841767-0.411245 8.636145-100.138153 0.616867-100.138152 0.411245v-9.253012zM908.851406 484.446586v-21.590361l41.33012-68.472289c22.824096-37.628916 46.881928-77.314056 53.256225-88.006426 20.356627-33.722088 81.015261-133.860241 92.735743-152.571888 5.963052-10.075502 11.720482-18.094779 12.542972-18.094779s1.233735 83.071486 1.028112 184.648996l-0.411245 184.443374-100.138152 0.616867-100.343775 0.411245v-21.384739z" fill="#FF0000" p-id="5105"></path></svg>