<?xml version="1.0" standalone="no"?><!DOCTYPE svg PUBLIC "-//W3C//DTD SVG 1.1//EN" "http://www.w3.org/Graphics/SVG/1.1/DTD/svg11.dtd"><svg t="1759040331281" class="icon" viewBox="0 0 1024 1024" version="1.1" xmlns="http://www.w3.org/2000/svg" p-id="5309" xmlns:xlink="http://www.w3.org/1999/xlink" width="200" height="200"><path d="M42.760022 633.827392C42.589398 514.219612 42.418773 394.654487 42.418773 275.089363c0-15.740111 8.445913-27.982419 22.607748-35.916459a17588.230241 17588.230241 0 0 1 150.917377-83.861945C294.431172 112.142958 373.08907 69.27355 451.704312 26.233518c8.104664-4.350925 16.08136-8.829818 23.716807-13.99121 21.456032-14.076522 43.082688-16.891826 66.287621-3.711083 30.243194 17.233075 60.614357 33.996933 90.985519 50.760792 97.170657 53.74672 194.511939 107.365472 291.682597 160.941567 10.877312 6.05717 21.925249 11.815747 32.631937 18.000886 15.612142 9.000443 23.759463 22.181186 23.759463 39.75551 0 155.780176 0.298593 311.560352-0.170624 467.340528 0 16.337297-7.976696 30.157882-24.058056 38.9877-38.347858 21.285407-77.847432 40.992538-115.342168 63.21638-53.960001 31.821471-110.351401 59.164048-164.140776 91.326768-31.992095 19.109945-65.64778 35.873803-98.279717 53.74672a2322.199557 2322.199557 0 0 0-43.082688 24.228681c-15.270893 8.829818-30.712411 9.299036-46.281898 0.76781-62.277945-34.338182-124.470579-68.676365-186.833837-102.971891-68.249803-37.580048-136.499607-75.032127-204.578785-112.612175-12.370277-6.82498-24.527273-13.521992-36.428333-20.944159a39.158325 39.158325 0 0 1-18.811352-34.508806c-0.170625-36.641613 0.127968-73.283226 0.298593-109.967496 1.791557-0.597186 1.791557-1.706245-0.298593-2.772648z m393.332148-237.807908c2.474055-1.834213 4.905455-3.839051 7.507478-5.417329 76.013218-41.803005 152.069093-83.563353 228.252936-125.323701 3.113897-1.706245 7.166229-1.706245 7.336854-6.526387 0.170625-5.118735-4.564206-4.990767-7.464822-6.526388-44.874246-24.868522-90.004428-49.395795-134.70805-74.733534-18.512759-10.536063-36.257708-8.957787-53.448127 0.639842-50.718135 27.939763-100.924397 56.519368-151.429251 84.80038-35.276617 19.707131-70.851827 39.158325-106.299068 58.694831-20.304316 11.218561-30.371162 26.745392-30.029914 50.33423 0.981091 94.440665 0.639842 188.881331 0.170625 283.27934-0.170625 21.328064 10.23747 35.404585 27.939763 45.514087a4240.44559 4240.44559 0 0 0 104.934072 57.927021c12.029028 6.398419 23.247589 14.75902 39.499574 19.408537v-282.17028c7.166229 20.645565 20.474941 35.831147 40.480665 47.049708 30.712411 17.062451 69.700112 13.223399 95.208475-11.047937 29.731321-28.110388 31.650846-66.287621 14.119178-95.037851-18.043542-29.987257-48.073455-39.584886-82.070388-40.864569z m91.028175 453.050725c15.740111-4.009676 28.579605-14.716364 42.869408-22.522435 45.215495-24.527273 89.705835-50.33423 135.219922-74.392286 29.688664-15.825423 58.310926-33.357091 89.023338-47.646894 18.512759-8.531225 32.631937-23.759463 32.631937-45.855336 0.170625-97.981124 0.341249-195.791623 0.170624-293.815403 0-11.815747-5.673265-14.75902-15.270893-7.464823-29.262103 21.882593-63.21638 36.34302-95.037851 54.045313-60.145139 33.527716-120.418247 66.799495-180.691354 100.156587-9.384348 5.118735-13.010119 11.047937-12.796839 21.626656 0.298593 101.393614 0.127968 202.957852 0.127969 304.394123-0.341249 3.711083-1.620933 8.104664 3.753739 11.517154z" fill="#066AF3" p-id="5310"></path><path d="M42.760022 633.827392c5.971858 1.407652 5.971858 2.857961 0 4.265613v-4.265613z" fill="#4372E0" p-id="5311"></path><path d="M368.35424 495.749509c-5.971858-46.751115 15.270893-78.103369 67.73793-99.730025 34.124902 1.279684 64.026847 10.877312 82.070388 40.693945 17.4037 28.920854 15.612142 66.970119-14.119178 95.080507-25.678988 24.22868-64.53872 28.110388-95.208475 11.005281-20.005724-11.175905-33.48506-26.404143-40.480665-47.049708z" fill="#002A9A" p-id="5312"></path></svg>