<?xml version="1.0" standalone="no"?><!DOCTYPE svg PUBLIC "-//W3C//DTD SVG 1.1//EN" "http://www.w3.org/Graphics/SVG/1.1/DTD/svg11.dtd"><svg class="icon" width="200px" height="200.00px" viewBox="0 0 1024 1024" version="1.1" xmlns="http://www.w3.org/2000/svg"><path d="M853.376 637.194H637.015V294.492c0-19.405-15.744-35.149-35.149-35.149s-35.149 15.744-35.149 35.15v342.701H178.524c-70.205 0-127.324 50.458-127.324 112.497v84.347c0 67.435 61.875 131.215 127.324 131.215h674.852c68.992 0 111.693-68.101 111.693-131.215V749.69c0-66.227-45.927-112.497-111.693-112.497z m41.395 196.844c0 28.81-17.003 60.918-41.395 60.918H178.524c-26.112 0-57.026-33.02-57.026-60.918V749.69c0-25.242 29.496-42.2 57.026-42.2h674.852c34.212 0 41.395 22.954 41.395 42.2v84.347z" fill="#d81e06" /><path d="M344.084 766.075h70.298v70.297h-70.298z m-152.263 0h70.297v70.297h-70.297z m313.958 0h328.054v70.297H505.779z m370.412-240.092C1005 397.173 1005 187.58 876.19 58.752l-49.705 49.705c101.396 101.417 101.396 266.43 0 367.826l49.705 49.7z m-501.899-49.751c-49.039-48.835-76.042-114.14-76.042-183.87 0-69.52 27.024-134.85 76.089-183.915l-49.705-49.705c-62.357 62.34-96.681 145.316-96.681 233.625 0 88.561 34.35 171.556 96.727 233.662l49.612-49.797zM493.63 357.105c-35.63-35.769-35.65-93.824-0.066-129.408l-49.705-49.705c-62.93 62.904-62.976 165.514-0.067 228.72l49.838-49.607z m213.407-0.046l49.705 49.705c62.95-62.93 62.976-165.54 0.046-228.721l-49.792 49.613c35.605 35.763 35.625 93.819 0.041 129.403z" fill="#d81e06" /></svg>