<?xml version="1.0" encoding="UTF-8"?>
<svg id="_图层_1" data-name="图层 1" xmlns="http://www.w3.org/2000/svg" version="1.1" xmlns:xlink="http://www.w3.org/1999/xlink" viewBox="0 0 326 78">
  <defs>
    <style>
      .cls-1 {
        fill: #000;
      }

      .cls-1, .cls-2, .cls-3 {
        stroke-width: 0px;
      }

      .cls-2 {
        fill: none;
      }

      .cls-3 {
        fill: #ffb25b;
      }

      .cls-4 {
        clip-path: url(#clippath);
      }
    </style>
    <clipPath id="clippath">
      <rect class="cls-2" x=".2" width="325.5" height="78"/>
    </clipPath>
  </defs>
  <g class="cls-4">
    <path class="cls-3" d="M39.2,0c8.9,0,16.2.4,21.8.9,3.8.3,5.7.5,8.4,2.1,1.9,1.1,4.8,3.9,5.8,5.8,1.5,2.8,1.7,4.6,2.1,8.4.5,5.6.9,12.9.9,21.8s-.4,16.2-.9,21.8c-.3,3.8-.5,5.7-2.1,8.4-1.1,1.9-3.9,4.8-5.8,5.8-2.8,1.5-4.7,1.7-8.4,2.1-5.6.5-12.9.9-21.8.9s-16.2-.4-21.8-.9c-3.8-.4-5.7-.5-8.4-2.1-1.9-1.1-4.8-3.9-5.8-5.8-1.5-2.8-1.7-4.7-2.1-8.4-.5-5.6-.9-12.9-.9-21.8s.4-16.2.9-21.8c.4-3.8.5-5.7,2.1-8.4,1.1-1.9,3.9-4.8,5.8-5.8,2.8-1.5,4.6-1.7,8.4-2.1,5.6-.5,12.9-.9,21.8-.9ZM15.2,12c-1.7,0-3,1.3-3,3s1.3,3,3,3h21v9.3c-6.9,1.4-12,7.4-12,14.7s5.1,13.3,12,14.7v9.3c0,1.7,1.3,3,3,3s3-1.3,3-3v-9.3c6.8-1.4,12-7.4,12-14.7s-5.2-13.3-12-14.7v-9.3h21c1.7,0,3-1.3,3-3s-1.3-3-3-3H15.2ZM39.2,33c5,0,9,4,9,9s-4,9-9,9-9-4-9-9,4-9,9-9Z"/>
    <path class="cls-1" d="M200.5,28c7.7,0,14,6.3,14,14s-6.3,14-14,14-14-6.3-14-14,6.3-14,14-14ZM111.3,28.5h.2s0,0,0,0c0,0,0,0,0,0,0,0,0,0,0,0,0,0,0,0,0,0,0,0,0,0,0,0,0,0,0,0,0,0,0,0,0,0,0,0s0,0,0,0c0,0,0,0,0,0,0,0,0,0,0,0,0,0,0,0,0,0,0,0,0,0,0,0,0,0,0,0,0,0,0,0,0,0,0,0,0,0,0,0,0,0,0,0,0,0,0,0,0,0,0,0,0,0,0,0,0,0,0,0,0,0,0,0,0,0,0,0,0,0,0,0,0,0,0,0,0,0,0,0,0,0,0,0,0,0,0,0,0,0,0,0,0,0,0,0,0,0,0,0,0,0s0,0,0,0c0,0,0,0,0,0h0v.2h0v.2h0c0,0,0,.1,0,.1,0,0,0,0,0,0,0,0,0,0,0,0,0,0,0,0,0,0,0,0,0,0,0,0,0,0,0,0,0,0,0,0,0,0,0,0,0,0,0,0,0,.1,0,0,0,0,0,0,0,0,0,0,0,0,0,0,0,0,0,0l-16.2,21.6h15c.8,0,1.5.7,1.5,1.5s-.7,1.5-1.5,1.5h-18.2s0,0,0,0c0,0,0,0,0,0,0,0,0,0,0,0,0,0,0,0,0,0,0,0,0,0,0,0,0,0,0,0,0,0,0,0,0,0,0,0,0,0,0,0,0,0,0,0,0,0,0,0,0,0,0,0,0,0,0,0,0,0,0,0,0,0,0,0,0,0,0,0,0,0,0,0,0,0,0,0,0,0,0,0,0,0,0,0,0,0,0,0,0,0,0,0,0,0,0,0,0,0,0,0,0,0,0,0,0,0,0,0,0,0,0,0,0,0,0,0,0,0,0,0,0,0,0,0,0,0,0,0,0,0,0,0,0,0,0,0,0,0,0,0,0,0,0,0,0,0,0,0,0,0,0,0,0,0,0,0,0,0,0,0,0,0h0v-.2h0v-.2h0c0,0,0,0,0-.1,0,0,0,0,0,0,0,0,0,0,0,0,0,0,0,0,0,0,0,0,0,0,0,0,0,0,0,0,0,0s0,0,0,0c0,0,0,0,0,0,0,0,0,0,0,0,0,0,0,0,0,0,0,0,0,0,0,0l16.2-21.6h-15c-.8,0-1.5-.7-1.5-1.5s.7-1.5,1.5-1.5h18,0ZM142.7,28.5c.8,0,1.5.7,1.5,1.5s-.7,1.5-1.5,1.5h-13.5v9h10.5c.8,0,1.5.7,1.5,1.5s-.7,1.5-1.5,1.5h-10.5v9h13.5c.8,0,1.5.7,1.5,1.5s-.7,1.5-1.5,1.5h-15c-.8,0-1.5-.7-1.5-1.5v-24.2c0-.7.6-1.3,1.3-1.3h15.2ZM168.2,28.5c4.1,0,7.5,3.4,7.5,7.5s-1.6,5.3-3.9,6.6l-1.3.7,5,10.1c.4.7,0,1.6-.7,2s-1.6,0-2-.7l-5.6-11.2h-6.6v10.5c0,.8-.7,1.5-1.5,1.5s-1.5-.7-1.5-1.5v-24.2c0-.8.7-1.3,1.5-1.3h9ZM241,28.5c.8,0,1.5.7,1.5,1.5s-.7,1.5-1.5,1.5h-7.5v22.5c0,.8-.7,1.5-1.5,1.5s-1.5-.7-1.5-1.5v-22.5h-7.5c-.8,0-1.5-.7-1.5-1.5s.7-1.5,1.5-1.5h18ZM256.8,28.5c.8,0,1.5.7,1.5,1.5v24c0,.8-.7,1.5-1.5,1.5s-1.5-.7-1.5-1.5v-24c0-.8.7-1.5,1.5-1.5ZM291.2,28.5c.8,0,1.5.7,1.5,1.5s-.7,1.5-1.5,1.5h-13.5v9h10.5c.8,0,1.5.7,1.5,1.5s-.7,1.5-1.5,1.5h-10.5v9h13.5c.8,0,1.5.7,1.5,1.5s-.7,1.5-1.5,1.5h-15c-.8,0-1.5-.7-1.5-1.5v-24.2c0-.7.6-1.3,1.3-1.3h15.2ZM318.2,28.5c4.1,0,7.5,3.4,7.5,7.5s-1.6,5.3-3.9,6.6l-1.3.7,5,10.1c.4.7,0,1.6-.7,2-.7.4-1.6,0-2-.7l-5.6-11.2h-6.6v10.5c0,.8-.7,1.5-1.5,1.5s-1.5-.7-1.5-1.5v-24.2c0-.8.7-1.3,1.5-1.3h9ZM200.5,31.1c-6,0-10.9,4.9-10.9,10.9s4.9,10.9,10.9,10.9,10.9-4.9,10.9-10.9-4.9-10.9-10.9-10.9ZM160.7,40.5h7.8c2.3-.2,4.2-2.1,4.2-4.5s-2-4.5-4.5-4.5h-7.5v9ZM310.8,40.5h7.8c2.3-.2,4.2-2.1,4.2-4.5s-2-4.5-4.5-4.5h-7.5v9Z"/>
  </g>
</svg>