<?xml version="1.0" encoding="UTF-8"?>
<svg id="_图层_1" data-name=" 图层 1" xmlns="http://www.w3.org/2000/svg" viewBox="0 0 694 736.1">
  <defs>
    <style>
      .cls-1 {
        fill: #000;
        stroke-width: 0px;
      }
    </style>
  </defs>
  <path class="cls-1" d="M.6,370.8c4.3-3.2,9.1-4.7,12.1.7,5.7,10.4,14.6,8.2,22.6,5.6,21.2-6.9,42.3-14.6,63.1-22.6,46.5-17.8,90.7-40,129.6-71.4,11.6-9.4,22-20.2,32.9-30.4.9-.9,1.4-2.1,2.2-3.2-.3-.6-.6-1.2-.9-1.8-4.1,1.7-8.5,2.9-12.3,5.1-20,11.6-39.7,23.5-59.7,35.1-16,9.3-32.3,18.3-48.5,27.3-7.2,4-12,2.3-15-5.4-1.3-3.3-2-6.9-2.5-10.5-1-7.1-1.7-14.4-2.6-21.5-1.4-10.3,1.5-15.2,11-20.1,14.7-7.5,29.3-15.2,43.9-22.9,1.8-.9,3.3-2.2,6.5-4.3-3-.2-4.3-.4-5.7-.3-26.5,1.8-50.4-3.7-68.8-24.7-2.4-2.7-5.6-4.6-8.2-7.1-4.1-4-3.3-7,2.2-8.9,1.7-.6,3.5-1.1,5.3-1,25,1.1,48.5-6.1,71.4-14.3,25.1-8.9,49.5-19.6,74.2-29.5,21.8-8.7,42.9-6.5,63.5,4.3,1,.5,2.2,1,2.7,1.9,4.7,8,9.9,6.1,17.2,2.9,31.5-13.8,64.2-23.3,99.1-22.4,2.7,0,5.4.3,8.1.5.6,0,1.1.7.8.5-11.6,4.9-24.2,8.7-35.3,15.1-26,15.1-45.3,36.3-51.5,66.7-7.7,37.7,8.8,72.2,42.2,91.4,32.2,18.5,67,28.3,104,29.5,17.6.6,35.3,0,53,0v2.4c-17.4,2.3-34.7,4.7-52.1,7l-.6,1.7c25.5,15.5,54.9,25.3,74.7,49.3-21-19.8-47.4-25.9-74.6-30.7-17.2-3-33.8-8.3-49.1-17-1.4-.8-3.1-1.3-5.2-1.3,10.7,17.7,23.9,33,39.9,46-11.5-1-37.2-13.8-57-30.3-16.8-14-32.4-29.4-49-44.5-3.6,17.4,9.9,27.8,17.7,41.1-18.3-10.5-42.3-45.5-52.3-76.5-10.2,15-9.5,31.8-12.8,47.6-7.9-35.4-18.5-70.5-5.6-107.1-.7-.3-1.4-.6-2.2-.9-4.1,5-8.3,10-12.1,14.6.3,1.3.3,1.8.6,2.1,9.2,11.7,9.5,15.6-1.6,25-9.8,8.3-20.8,15.1-31.3,22.5-4.6,3.2-9.2,6.5-13.6,11.6,5.8,1.1,11.5,2.5,17.3,3.2,9.6,1.2,19.3,1.7,28.9,3.2,3.3.5,6.8,2.7,9.2,5.2,7.7,8.1,5.7,13.3-5.1,16.6-32,9.8-63.9,20.1-93.2,36.8-12.3,7-23.7,15.3-31.5,27.4-3.4,5.3-5.2,11.6-7.7,17.4l1.9,1c8-6.8,15.7-14,24-20.5,11.4-8.8,23.9-15.8,38.5-17.4,33-3.5,53.9,13.2,59.6,47.1.8,5,1.4,10.1,2.5,17.3,7.1-9.3,12.8-17.3,19-24.9,6.6-8,9.8-16.3,4.1-26.1-.7-1.2-.5-2.9-1-5.3,5.6,7,10.4,13.2,15.3,19.4.8-.4,1.6-.7,2.3-1.1-5.5-22.7-15.4-44.6-11.4-68.3.5,2.3,1.1,5.1,1.6,8,.5,2.9.6,5.9,1.5,8.7.8,2.8,2.4,5.4,3.6,8l1.8-.5c.7-10.8,1.3-21.7,2-32.5l1.3-.6c2.7,4.2,5.8,8.3,8.1,12.8,6.1,11.7,13.1,22.7,23.2,31.5,1.6,1.4,2.5,4.6,2.4,6.9-.6,7.4-1.9,14.8-3.1,23.8-1.4-5-2.3-8.4-3.3-12.1-5.3,7.3-7.6,29.9-3.9,40.7,3.6-5.1,13.2-4.1,10.6-13.9-.2-.8,1.6-2.4,2.7-3.2,4.1-3.2,8.4-6,12.3-9.4,11.8-10.2,25.3-15.8,41-15.2,4.2.2,8.4,2.2,12.5,4.4-19.7-5.5-35,2.9-49.5,14.2-4,3.1-8.5,6.4-2.5,12.1-3,2.1-5.3,3.8-7.5,5.4.2.7.4,1.4.6,2.2,5.8-1.2,12.1-1.3,17.3-3.9,11.4-5.6,22.7-9.7,34-7.1-9,3.7-19.6,7-29.1,12.3-6.3,3.6-11,10.1-16.4,15.2l.5,2.2c6.3.8,12.5,1.7,18.8,2.5,7.4,1,15,1.2,22.2,3,9.2,2.2,16.8,7.4,22,16.1-2.9-1.7-5.8-3.4-8.6-5.2-13.6-8.9-28.5-7.2-43.4-5.2-1.1.1-2.2,2.4-2.7,3.9-1.8,5.8-7,7.3-12.1,3.7-1.8-1.2-4.3-2.3-6.4-2.1-10.1,1-16.4-.4-27-7.5,6.2.4,10.8.7,15.4,1,.4-.5.8-1,1.2-1.5-18.8-9.4-30.8-24.7-39.3-44.9-17.6,38.2-40.6,72.4-39.4,116.3,7.7-4.5,14.8-8.6,21.8-12.7,0-.4-.2-.8-.3-1.1h-13.6c13.6-7.8,28.9-7.1,43.7-8.7.1-.8.3-1.6.4-2.4-8.2-2.1-16.4-4.2-23.6-6.1,21.3-5.9,41.8-.1,61.8,11.3-.8-4.07-6.83-10.8-18.1-20.2,19.9,6.8,33.3,20.7,49.1,30.6.6-.5,1.3-.9,1.9-1.4-4-6.3-8.1-12.6-13.1-20.6,23.9,11.6,37.5,33,58.1,48.8-2.4-14.8-14.2-22.1-18.6-33.9,22.8,15.6,45.6,31.1,68.5,46.7-3.3-15.9-12.6-27.8-23-39.3,11.1,2.1,20,8.4,29,14.1,9.3,5.9,18.3,12.2,28.7,19.2.1-16-9.4-24.9-19.6-34.4,21.2,2,38.1,12.4,57.6,21.5-5.8-16.4-21.1-18.4-32.8-26.7,19.3-2.3,38-2.9,56.6-11.4h-38c-.3-.6-.6-1.2-.9-1.8,22.2-5.3,35.7-19.2,41.4-41.3-8.2,5.1-16.5,10.3-24.7,15.4,11.7-14.1,10.6-30.2,8.7-48.4-3,5.2-5.1,8.7-7.1,12.3,3.6-21.5-8.9-34.8-22.5-47.8,20.4,15.3,38.8,32.2,49.1,56.3,14.1,33,4.7,69.7-24.7,95.6-24.8,21.9-54.4,31.7-86.9,33.7-34.9,2.1-68.4-5-101.2-16.1-2.8-1-5.5-2.4-7.6-3.3,14.1-2.2,28.2-4.2,42.2-6.6,1.7-.3,3-2.3,6.2-4.8-32.3-2.4-63-2.3-92-13.6,6.7.3,13.3.8,20,.8,3.1,0,6.5-.2,9.3-1.3,2-.8,3.5-3.1,5.2-4.7-1.5-1.5-2.8-3.6-4.6-4.4-12.8-5.7-26.1-5.5-39.2-1.8-19.9,5.7-34.8,18.2-45.2,35.8-2.2,3.8-1.9,9.6-1.6,14.4,1.3,16.5,3.1,32.9,5,49.3.3,2.3,1.5,4.8,3.1,6.5,15.4,16.2,34,25.5,56.7,26.8,25.8,1.4,49.8-4.5,72.8-15.7,2.3-1.1,4.8-2,7.4-2.5-16.1,11.4-34.2,18-53.4,21.6-19.2,3.7-38.5,2.4-57.6-2.8-.4.8-.8,1.7-1.2,2.5,4.8,3.4,9.2,7.5,14.3,10.1,17.6,9,36.8,8.7,55.8,7.6,28.1-1.6,55.7-6.4,81.8-17.5.8-.3,1.6-.5,3.1.5-3.7,2-7.1,4.9-11.1,6-21,5.4-42,10.6-63.1,15.4-9.7,2.2-19.5,3.6-29.3,5.5-1.6.3-3.1,1-4.4,2.7,75.5,18.2,147.6,16.6,212.2-37.8-12,18.6-58.7,45-91.1,53.2-34.8,8.8-69.6,5.7-104.6,1.1,27.1,16.6,53.4,34.6,86.8,36.3-.2.8-.4,1.7-.7,2.5-12.9-2.2-25.7-5.2-38.7-6.5-27.3-2.6-47-20.8-69.9-32.4-10.9-5.5-21.1-12.3-31.9-17.9-3.5-1.8-8-1.5-12.1-2.2,1.5,4,2,8.8,4.6,12,11.7,14.7,26.9,25.6,42.7,35.3,9.6,5.9,19.9,10.5,29.7,16-46.4-11.2-79.5-40.3-106.4-79.6-1.4,3.9-2.7,7.1-3.7,10.3-5.1,17.2-16.1,30.7-27.5,43.9-2.8,3.2-7.6,4.7-11.7,6.6-1.1.5-3.3-.1-4.3-1-4.4-3.9-9.1-7.7-12.6-12.4-16.1-21.3-31.9-42.8-47.5-64.4-7-9.7-12.8-19.9-7.2-32.7.7-1.6-.8-4.3-1.6-6.3-6.4-17-12.6-34.2-8.7-52.7,1.8-8.6,5.3-17.3,9.9-24.8,7.8-12.7,15-25.4,16.4-40.3.5-5.7-.6-12.3-3.2-17.3-3.9-7.5-11.7-6.4-15.1,1.3-9.9,22.5-16.1,46.1-18.7,70.3-3.6,33.2-5.6,66.7-8.5,100-1,11.3-2.2,22.5-4.2,33.6-.9,5.2-4,10.1-6.8,16.7-9.6-13.9-17.1-26.3-21.5-40.4-7.4-23.5-8.3-47.5-5.7-71.8,2-19.8,3.2-39.7,5.9-59.4,5.9-44.5,15.9-88,40.4-126.6,7.5-11.7,16.8-22.2,25.8-33.9-10.1,5.6-20,10.8-29.6,16.5-34.8,20.7-69.3,41.7-104.1,62.3-5.8,3.4-12.1,6-18.5,8.1-3.7,1.2-7,1.2-10-3.7-3.3-5.4-9.6-8.8-14.3-13.3-10.5-10.2-16.2-23-20.4-36.8v-17.7l.6.2ZM213.1,431.8c10.9,10.1,21.8,19.1,31.3,29.3,13.9,14.9,11.9,32.6-4.2,45.3-12.6,10-21.2,22.8-25.5,38.3-.6,2.2-.5,4.6-.7,6.8.6.4,1.1.7,1.7,1.1,2.9-1.9,6.3-3.3,8.6-5.7,13.8-14.4,27.4-28.9,40.7-43.7,1.8-2,2.9-5.6,2.8-8.5-.9-27.6-2-55.1-3.3-82.6-.5-11.8-13.4-19.1-22.2-12.3-11.7,9-22,19.5-29.2,32h0ZM207.1,610.2c10.7,14,25.1,24.6,39.9,34.6,5.9,4,10.4,2.5,12.8-4.1,1.5-4,2.9-8.2,3.2-12.4,1.8-23.7,3.2-47.4,4.6-71.1.2-3.5,0-7,0-11-20.5,21.6-40.4,42.7-60.6,64h.1ZM348.7,174.1c-33.1-1.7-57.5,16.9-82.4,33.9-8,5.4-15.4,11.8-21.3,22.2,21.5-5.5,41.1-9.8,61.3-.2,7.4-24.3,23-41.4,42.4-55.9Z"/>
  <path class="cls-1" d="M694,498.6c-3.2-5.4-6.2-11-9.7-16.1-5.2-7.7-10.5-15.2-16.3-22.4-2.3-2.8-5.8-4.6-10.1-6.7,17.3,66.7-14.4,112.7-62.1,151.9,16.7-15.8,30.8-33,28.4-60.1-22.3,24.7-51.2,30.2-81.5,31.7,7.4-2.3,15-4.3,22.2-7.1,7.4-2.8,14.6-6.2,21.6-9.8,26.3-13.4,45.9-33.9,59.3-59.8,20-38.5,5.8-86.5-32.6-113.7-19.7-13.9-41.2-24.4-64.5-31-2.6-.7-5.1-1.7-8.2-2.7,25.8-3.5,111.3,22.7,129.4,48.6-13.1-4.8-25-9.1-36.9-13.5-.3.5-.6.9-.8,1.4,1.1,1.2,2,2.6,3.3,3.7,29.6,24,45.3,56.3,55.6,91.9.8,2.8,1.8,5.5,2.7,8.2v5.4l.2.1Z"/>
  <path class="cls-1" d="M462,93.3c-21.8-27.2-47.5-50.5-58.7-83.8,19.3,32.3,45.2,58.7,73.9,83.1-10.5-33.8-6-64.6,15.1-92.6-9.1,14.6-10.8,30.6-9.4,47.3,1.4,16.2,4.7,31.8,15.6,44.9.9-12.7,2.9-24.7,10.2-35.3,7.2-10.3,15.5-19.1,27.4-24.2-15.7,14.2-30.7,28.6-25.6,52.7,2.3,10.8,7,20.3,17,27-2-15.6-.2-30.5,6.9-44.6-4.3,19.8,1.7,36.6,15.3,53.5,7.4-20.4,15.5-38.7,33.1-50.7-2.9,4.6-5.7,9.2-8.7,13.7-8.6,12.8-14.6,26.5-10.5,42.1,6.2,23.5,18.6,42.9,40.4,55.2,1.2.7,2.4,1.2,3.6,1.8,8.6,4.8,9.6,8.2,2.6,15-8.5,8.2-10,17.7-7.9,28.6.8,4,1,8,0,12.6-1.6-5-3.4-9.9-4.7-15-1.5-6.4-2.3-12.9-3.9-19.2-.6-2.4-2.5-4.6-3.8-6.8-2.1,1.5-4.3,2.9-6.3,4.6-1,.8-1.7,2-3.2,3.9-1.4-7.6-4.4-13.1-12.6-12.7-.2-3-.3-5.4-.5-8.6-2.9.1-5.4.3-8.7.4-1.3-4.3-2.6-9-4.2-14.2-2.3,1.5-4.1,2.6-5.9,3.8-.4-.2-.8-.4-1-.7-1.9-1.8-3.7-3.6-5.5-5.3-.8,3.7-3,7.8-2.1,11,1.2,3.8,5.4,6.6,7.7,10.2,6.8,10.4,13.1,21,19.9,31.3,2.9,4.5,6.1,9,9.5,13.1,13.1,15.8,26.3,31.4,39.5,47.1-.4.4-.8.8-1.3,1.2-3-3.4-6-6.8-9.1-10.1-10.3-11.1-21-21.8-30.9-33.2-6.2-7.1-11.3-15.2-17-22.8-5.7-7.6-11.3-15.2-17.4-22.5-1.9-2.2-5-3.4-7.6-5.1-.8.5-1.5.9-2.3,1.4,2.4,7.2,4.8,14.5,7.9,23.5.2,0-1.3.2-2.2,1.1-3.6,3.3-3.7,6,1.5,7.7,4.2,1.4,8.4,3.2,13,4.9-20.2,8.7-65.8-9.4-90.3-41.6,6.7,4.7,13.2,9.6,20.1,14,6.8,4.3,13.8,8.5,23.1,8.2-2.2-4.7-4.1-8.7-6-12.7,7,6,10.1,16.2,21.5,18.3,1.5-11.9,1.3-23-2.2-33.5-.9-2.8-5.4-5.1-8.7-6.3-7.9-2.9-15.6-5.7-20.4-14.3,6.4,3.4,12,6.6,17.8,9.1,1.9.8,4.6-.2,6.9-.3-.4-2.6,0-5.6-1.2-7.6-4.7-7.3-10.8-12.4-20.2-12.9-13.7-.7-22.6-9.4-31-18.1,7.2,2.8,14.5,6.4,22.1,8.2,8.3,1.9,12-2.9,9.3-11.1-3.8-11.2-12.7-17.5-22.9-21.8-18.6-7.9-37.9-6.2-56.5-.9-11.1,3.2-21.5,9.3-32,14.5-5.4,2.7-10.5,6-15.7,9.1l-1.5-1.5c3.2-3.4,5.9-7.4,9.6-10.1,22.7-16.2,47.4-26.1,75.9-24,4,.3,8,0,13.2,0h0Z"/>
  <path class="cls-1" d="M187.1,59.4c2.4-1.5,3.9-3,5.7-3.5,25.3-7.3,50.8-11.5,76.7-3.2,24.8,8,37.2,26.8,42.2,51.1,1,5-.5,10.8-2,15.9-1.8,5.9-6.6,8.3-12.9,7-25.6-5.3-51.3-4.5-76.9,0-23.1,4.1-46,9.2-69.1,13.9-2.4.5-4.9.6-7.3.8-.2-.5-.5-1.1-.7-1.6,3.9-2.3,7.7-4.7,11.7-6.9,19.3-10.7,38.7-21.3,58.1-31.9,1-.5,1.9-1.2,2.9-1.8,2.4-1.4,6.9-3.2,6.7-4-.9-4.2-1.9-9.4-4.8-12-8-7.2-17-13.3-25.6-19.8-1.3-1-2.6-2.2-4.6-4h-.1Z"/>
  <path class="cls-1" d="M396.8,285.9c-17.3-13.9-30.4-30.3-33.5-53.1-2.3-16.9,4.5-30.6,15-42.8,18-20.9,41.1-34.5,66.3-44.7,3.8-1.5,7.5-3.2,11.4-4.2,2.1-.5,4.5.3,7,1.6-22.7,8.8-36.4,26.6-50,47-.5-5-.5-8.3-1.1-11.4-1-5.9-4.8-7.9-10.3-5.7-9.2,3.8-24.6,27.4-24.6,38.9,4-2.3,7.6-4.3,11.7-6.6.8,4.9,1.5,9.2,2.5,15.2,5.2-1.9,9.8-3.5,14.3-5.1-5.2,19.1,1.1,35.4,15.2,49.2,2,2,4.6,3.7,7.3,4.7,6.9,2.4,10.8-.3,10.5-7.5-.3-8.7-1.4-17.4-2.2-26.6,14.9-3,4.8-15.4,8.4-23.8,2.2-3.3,10.8,4.2,10.3-7.2,4.7,3.3,8.2,5.8,11.7,8.3,1.4,1,2.7,2.1,4.3,2.6,22.6,7.6,40.2,22.1,55.2,40.2.2.2,0,.8-.1,2.4-17.1-17.9-35.2-32.8-61.6-33.1v9.4h15.1c-.5.8-.9,1.6-1.4,2.4,1.5,3.1,2.3,6.7,4.5,9.2,14.3,16.6,18.8,46.2,8.9,63.4.5-3.9.9-7,1.3-10.1,2.9-19.7-7-34.4-19.2-48-1-1.1-3.6-1.4-5.3-1.1-.9.2-1.6,2.4-2.2,3.7-.7,1.6-1.3,3.3-1.9,4.9,11.7,12.7,9.9,45,.3,57.6,3-14.3,4.3-28-.2-41.5-.6-1.7-1-3.5-2-5-2.1-3.4-3.3-8.7-9.5-5.3-.9.5-2.8-1-6-2.2-.8,11.8-1.5,22.6-2.1,32.3-1.7-3.6-4.2-8.8-7.5-15.8-2.4,11,3.5,18.4,5.8,27.8-15.9-5.7-26.4-16.8-37.7-26.8-12-10.5-17.9-24.6-23.7-39-8,19.7,5.1,32.3,15.1,46v-.2Z"/>
  <path class="cls-1" d="M374.6,128.1c23.5-14.6,47.7-24.4,75.2-22.9,11.9.7,22.2,5.6,31,13.7,1.5,1.4,3.2,2.9,3.7,4.7.8,2.8.6,5.9.8,8.9-2.8.2-5.7.9-8.4.4-2.3-.4-4.7-1.9-6.3-3.7-14.5-16-32.6-16.6-51.8-12-14.4,3.4-28.8,7.1-44.1,10.9h-.1Z"/>
</svg>